<svg xmlns="http://www.w3.org/2000/svg" xmlns:xlink="http://www.w3.org/1999/xlink" width="108" height="108" viewBox="0 0 108 108">
  <defs>
    <filter id="Trazado_904820" x="0" y="0" width="108" height="108" filterUnits="userSpaceOnUse">
      <feOffset dy="3" input="SourceAlpha"/>
      <feGaussianBlur stdDeviation="3" result="blur"/>
      <feFlood flood-opacity="0.161"/>
      <feComposite operator="in" in2="blur"/>
      <feComposite in="SourceGraphic"/>
    </filter>
  </defs>
  <g id="Grupo_1145901" data-name="Grupo 1145901" transform="translate(-291 -1858)">
    <g id="Icono" transform="translate(-324.102 -3142)">
      <g transform="matrix(1, 0, 0, 1, 615.1, 5000)" filter="url(#Trazado_904820)">
        <g id="Trazado_904820-2" data-name="Trazado 904820" transform="translate(9 6)" fill="#ecf4fa">
          <path d="M 45 88.5 C 39.12687683105469 88.5 33.43022537231445 87.35007476806641 28.06830024719238 85.08217620849609 C 22.88852500915527 82.89131164550781 18.23629951477051 79.75458526611328 14.2408504486084 75.75914764404297 C 10.24541282653809 71.76370239257812 7.108687400817871 67.11147308349609 4.917825222015381 61.93170166015625 C 2.649924993515015 56.56977462768555 1.5 50.87312316894531 1.5 45 C 1.5 39.12687683105469 2.649924993515015 33.43022537231445 4.917825222015381 28.06830024719238 C 7.108687400817871 22.88852500915527 10.24541282653809 18.23629951477051 14.2408504486084 14.2408504486084 C 18.23629951477051 10.24541282653809 22.88852500915527 7.108687400817871 28.06830024719238 4.917825222015381 C 33.43022537231445 2.649924993515015 39.12687683105469 1.5 45 1.5 C 50.87312316894531 1.5 56.56977462768555 2.649924993515015 61.93170166015625 4.917825222015381 C 67.11147308349609 7.108687400817871 71.76370239257812 10.24541282653809 75.75914764404297 14.2408504486084 C 79.75458526611328 18.23629951477051 82.89131164550781 22.88852500915527 85.08217620849609 28.06830024719238 C 87.35007476806641 33.43022537231445 88.5 39.12687683105469 88.5 45 C 88.5 50.87312316894531 87.35007476806641 56.56977462768555 85.08217620849609 61.93170166015625 C 82.89131164550781 67.11147308349609 79.75458526611328 71.76370239257812 75.75914764404297 75.75914764404297 C 71.76370239257812 79.75458526611328 67.11147308349609 82.89131164550781 61.93170166015625 85.08217620849609 C 56.56977462768555 87.35007476806641 50.87312316894531 88.5 45 88.5 Z" stroke="none"/>
          <path d="M 45 3 C 39.32871246337891 3 33.82865524291992 4.110054016113281 28.65262985229492 6.299339294433594 C 23.65165710449219 8.414573669433594 19.15968322753906 11.44334411621094 15.301513671875 15.301513671875 C 11.44334411621094 19.15968322753906 8.414573669433594 23.65165710449219 6.299339294433594 28.65262985229492 C 4.110054016113281 33.82865524291992 3 39.32871246337891 3 45 C 3 50.67128753662109 4.110054016113281 56.17134475708008 6.299339294433594 61.34737396240234 C 8.414573669433594 66.34834289550781 11.44334411621094 70.84031677246094 15.301513671875 74.698486328125 C 19.15968322753906 78.55665588378906 23.65165710449219 81.58542633056641 28.65262985229492 83.70066070556641 C 33.82865524291992 85.88994598388672 39.32871246337891 87 45 87 C 50.67128753662109 87 56.17134475708008 85.88994598388672 61.34737396240234 83.70066070556641 C 66.34834289550781 81.58542633056641 70.84031677246094 78.55665588378906 74.698486328125 74.698486328125 C 78.55665588378906 70.84031677246094 81.58542633056641 66.34834289550781 83.70066070556641 61.34737396240234 C 85.88994598388672 56.17134475708008 87 50.67128753662109 87 45 C 87 39.32871246337891 85.88994598388672 33.82865524291992 83.70066070556641 28.65262985229492 C 81.58542633056641 23.65165710449219 78.55665588378906 19.15968322753906 74.698486328125 15.301513671875 C 70.84031677246094 11.44334411621094 66.34834289550781 8.414573669433594 61.34737396240234 6.299339294433594 C 56.17134475708008 4.110054016113281 50.67128753662109 3 45 3 M 45 0 C 69.85281372070312 0 90 20.14718627929688 90 45 C 90 69.85281372070312 69.85281372070312 90 45 90 C 20.14718627929688 90 0 69.85281372070312 0 45 C 0 20.14718627929688 20.14718627929688 0 45 0 Z" stroke="none" fill="#2a5673"/>
        </g>
      </g>
      <g id="Grupo_1144040" data-name="Grupo 1144040" transform="translate(639.101 5022.147)">
        <g id="Grupo_1144039" data-name="Grupo 1144039" transform="translate(20.3 0.967)">
          <path id="Trazado_979373" data-name="Trazado 979373" d="M168,8h17.4v5.8H168Zm0,0" transform="translate(-168 -8)" fill="#cf71fb"/>
          <path id="Trazado_979374" data-name="Trazado 979374" d="M168,96h17.4v5.8H168Zm0,0" transform="translate(-168 -85.367)" fill="#cf71fb"/>
          <path id="Trazado_979375" data-name="Trazado 979375" d="M168,320h17.4v5.8H168Zm0,0" transform="translate(-168 -282.3)" fill="#cf71fb"/>
        </g>
        <path id="Trazado_979376" data-name="Trazado 979376" d="M183.43,182.269l6.835-6.835,6.836,6.835-6.836,6.835Zm0,0" transform="translate(-161.266 -154.235)" fill="#f96437"/>
        <path id="Trazado_979377" data-name="Trazado 979377" d="M203.6,413.8a5.8,5.8,0,1,1-5.8-5.8A5.8,5.8,0,0,1,203.6,413.8Zm0,0" transform="translate(-168.8 -358.7)" fill="#fddf81"/>
        <path id="Trazado_979378" data-name="Trazado 979378" d="M15.733,203.867A3.867,3.867,0,1,1,11.867,200,3.867,3.867,0,0,1,15.733,203.867Zm0,0" transform="translate(-7.033 -175.833)" fill="#fddf81"/>
        <path id="Trazado_979379" data-name="Trazado 979379" d="M415.733,91.867A3.867,3.867,0,1,1,411.867,88,3.867,3.867,0,0,1,415.733,91.867Zm0,0" transform="translate(-358.7 -77.367)" fill="#fddf81"/>
        <path id="Trazado_979380" data-name="Trazado 979380" d="M96,224h1.933v1.933H96Zm0,0" transform="translate(-84.4 -196.933)"/>
        <path id="Trazado_979381" data-name="Trazado 979381" d="M128,224h1.933v1.933H128Zm0,0" transform="translate(-112.533 -196.933)"/>
        <path id="Trazado_979382" data-name="Trazado 979382" d="M54.133,9.764v-5.9a.966.966,0,0,0-.967-.967h-14.5V.967A.966.966,0,0,0,37.7,0H20.3a.966.966,0,0,0-.967.967V2.9H12.567a.966.966,0,0,0-.967.967v9.667H4.833a.966.966,0,0,0-.967.967v8.8a4.833,4.833,0,0,0,0,9.471v8.8a.966.966,0,0,0,.967.967h14.5v1.933a.966.966,0,0,0,.967.967h7.733v2.977a6.762,6.762,0,1,0,7.656,7.656H46.4a.966.966,0,0,0,.967-.967V29h5.8a.966.966,0,0,0,.967-.967v-8.8a4.833,4.833,0,0,0,0-9.471ZM21.267,1.933H36.733V5.8H21.267Zm-7.733,2.9h5.8V6.767a.966.966,0,0,0,.967.967h7.733v2.9H20.3a.966.966,0,0,0-.967.967v1.933h-5.8Zm23.2,7.733v3.867H21.267V12.567ZM1.933,28.033a2.9,2.9,0,1,1,2.9,2.9A2.9,2.9,0,0,1,1.933,28.033Zm17.4,10.633V40.6H5.8V32.769a4.833,4.833,0,0,0,0-9.471V15.467H19.333V17.4a.966.966,0,0,0,.967.967h7.733V20.8l-6.269,6.269H19.333V29h2.431l6.269,6.269V37.7H20.3A.966.966,0,0,0,19.333,38.667ZM29,22.565l5.469,5.469L29,33.5l-5.469-5.469ZM21.267,39.633H36.733V43.5H21.267ZM29,59.933A4.833,4.833,0,1,1,33.833,55.1,4.839,4.839,0,0,1,29,59.933Zm16.433-5.8H35.689a6.774,6.774,0,0,0-5.723-5.724V45.433H37.7a.966.966,0,0,0,.967-.967v-5.8A.966.966,0,0,0,37.7,37.7H29.967V35.269L36.235,29h9.2ZM52.2,27.067H36.235L29.967,20.8V18.367H37.7a.966.966,0,0,0,.967-.967V11.6a.966.966,0,0,0-.967-.967H29.967v-2.9H37.7a.966.966,0,0,0,.967-.967V4.833H52.2V9.764a4.833,4.833,0,0,0,0,9.471Zm.967-9.667a2.9,2.9,0,1,1,2.9-2.9A2.9,2.9,0,0,1,53.167,17.4Zm0,0"/>
      </g>
    </g>
  </g>
</svg>
