<svg xmlns="http://www.w3.org/2000/svg" xmlns:xlink="http://www.w3.org/1999/xlink" width="108" height="108" viewBox="0 0 108 108">
  <defs>
    <filter id="Fondo" x="0" y="0" width="108" height="108" filterUnits="userSpaceOnUse">
      <feOffset dy="3" input="SourceAlpha"/>
      <feGaussianBlur stdDeviation="3" result="blur"/>
      <feFlood flood-opacity="0.161"/>
      <feComposite operator="in" in2="blur"/>
      <feComposite in="SourceGraphic"/>
    </filter>
  </defs>
  <g id="Icono" transform="translate(9.5 -689)">
    <g transform="matrix(1, 0, 0, 1, -9.5, 689)" filter="url(#Fondo)">
      <g id="Fondo-2" data-name="Fondo" transform="translate(9 6)" fill="#fffbe8">
        <path d="M 45 88.5 C 39.12687683105469 88.5 33.43022537231445 87.35007476806641 28.06830024719238 85.08217620849609 C 22.88852500915527 82.89131164550781 18.23629951477051 79.75458526611328 14.2408504486084 75.75914764404297 C 10.24541282653809 71.76370239257812 7.108687400817871 67.11147308349609 4.917825222015381 61.93170166015625 C 2.649924993515015 56.56977462768555 1.5 50.87312316894531 1.5 45 C 1.5 39.12687683105469 2.649924993515015 33.43022537231445 4.917825222015381 28.06830024719238 C 7.108687400817871 22.88852500915527 10.24541282653809 18.23629951477051 14.2408504486084 14.2408504486084 C 18.23629951477051 10.24541282653809 22.88852500915527 7.108687400817871 28.06830024719238 4.917825222015381 C 33.43022537231445 2.649924993515015 39.12687683105469 1.5 45 1.5 C 50.87312316894531 1.5 56.56977462768555 2.649924993515015 61.93170166015625 4.917825222015381 C 67.11147308349609 7.108687400817871 71.76370239257812 10.24541282653809 75.75914764404297 14.2408504486084 C 79.75458526611328 18.23629951477051 82.89131164550781 22.88852500915527 85.08217620849609 28.06830024719238 C 87.35007476806641 33.43022537231445 88.5 39.12687683105469 88.5 45 C 88.5 50.87312316894531 87.35007476806641 56.56977462768555 85.08217620849609 61.93170166015625 C 82.89131164550781 67.11147308349609 79.75458526611328 71.76370239257812 75.75914764404297 75.75914764404297 C 71.76370239257812 79.75458526611328 67.11147308349609 82.89131164550781 61.93170166015625 85.08217620849609 C 56.56977462768555 87.35007476806641 50.87312316894531 88.5 45 88.5 Z" stroke="none"/>
        <path d="M 45 3 C 39.32871246337891 3 33.82865524291992 4.110054016113281 28.65262985229492 6.299339294433594 C 23.65165710449219 8.414573669433594 19.15968322753906 11.44334411621094 15.301513671875 15.301513671875 C 11.44334411621094 19.15968322753906 8.414573669433594 23.65165710449219 6.299339294433594 28.65262985229492 C 4.110054016113281 33.82865524291992 3 39.32871246337891 3 45 C 3 50.67128753662109 4.110054016113281 56.17134475708008 6.299339294433594 61.34737396240234 C 8.414573669433594 66.34834289550781 11.44334411621094 70.84031677246094 15.301513671875 74.698486328125 C 19.15968322753906 78.55665588378906 23.65165710449219 81.58542633056641 28.65262985229492 83.70066070556641 C 33.82865524291992 85.88994598388672 39.32871246337891 87 45 87 C 50.67128753662109 87 56.17134475708008 85.88994598388672 61.34737396240234 83.70066070556641 C 66.34834289550781 81.58542633056641 70.84031677246094 78.55665588378906 74.698486328125 74.698486328125 C 78.55665588378906 70.84031677246094 81.58542633056641 66.34834289550781 83.70066070556641 61.34737396240234 C 85.88994598388672 56.17134475708008 87 50.67128753662109 87 45 C 87 39.32871246337891 85.88994598388672 33.82865524291992 83.70066070556641 28.65262985229492 C 81.58542633056641 23.65165710449219 78.55665588378906 19.15968322753906 74.698486328125 15.301513671875 C 70.84031677246094 11.44334411621094 66.34834289550781 8.414573669433594 61.34737396240234 6.299339294433594 C 56.17134475708008 4.110054016113281 50.67128753662109 3 45 3 M 45 0 C 69.85281372070312 0 90 20.14718627929688 90 45 C 90 69.85281372070312 69.85281372070312 90 45 90 C 20.14718627929688 90 0 69.85281372070312 0 45 C 0 20.14718627929688 20.14718627929688 0 45 0 Z" stroke="none" fill="#bca724"/>
      </g>
    </g>
    <g id="Grupo_1144094" data-name="Grupo 1144094" transform="translate(16.845 715.345)">
      <rect id="Rectángulo_405479" data-name="Rectángulo 405479" width="52" height="41" rx="2" transform="translate(1.655 1.655)" fill="#e2e7f6"/>
      <path id="Trazado_979873" data-name="Trazado 979873" d="M3.72,2A1.72,1.72,0,0,0,2,3.72V40.693H48.431a1.72,1.72,0,0,0,1.72-1.72V2Z" transform="translate(-0.14 -0.14)" fill="#f7fafd"/>
      <path id="Trazado_979874" data-name="Trazado 979874" d="M51.871,2H3.72A1.72,1.72,0,0,0,2,3.72V8.879H53.59V3.72A1.72,1.72,0,0,0,51.871,2Z" transform="translate(-0.14 -0.14)" fill="#5e87ca"/>
      <path id="Trazado_979875" data-name="Trazado 979875" d="M50.151,2H3.72A1.72,1.72,0,0,0,2,3.72V8.879H50.151Z" transform="translate(-0.14 -0.14)" fill="#78a0d4"/>
      <path id="Trazado_979876" data-name="Trazado 979876" d="M51.871,48.879H3.72A1.72,1.72,0,0,1,2,47.159V42H53.59v5.159A1.72,1.72,0,0,1,51.871,48.879Z" transform="translate(-0.14 -5.747)" fill="#5e87ca"/>
      <path id="Trazado_979877" data-name="Trazado 979877" d="M2,42v4.3H48.431a1.72,1.72,0,0,0,1.72-1.72V42Z" transform="translate(-0.14 -5.747)" fill="#78a0d4"/>
      <path id="Trazado_979878" data-name="Trazado 979878" d="M5,45h6.879v1.72H5Z" transform="translate(-0.561 -6.167)" fill="#f7fafd"/>
      <path id="Trazado_979879" data-name="Trazado 979879" d="M15,45h1.72v1.72H15Z" transform="translate(-1.962 -6.167)" fill="#f7fafd"/>
      <path id="Trazado_979880" data-name="Trazado 979880" d="M41.452,58H17.782a1.72,1.72,0,0,0-1.538.951L15,61.439H44.235L42.99,58.951A1.72,1.72,0,0,0,41.452,58Z" transform="translate(-1.962 -7.989)" fill="#3b5892"/>
      <path id="Trazado_979881" data-name="Trazado 979881" d="M37.757,56.879,36.038,50H25.72L24,56.879Z" transform="translate(-3.224 -6.868)" fill="#c8cded"/>
      <path id="Trazado_979882" data-name="Trazado 979882" d="M40.935,58.86V58H17.923a1.72,1.72,0,0,0-1.538.951L16,59.72H40.075A.86.86,0,0,0,40.935,58.86Z" transform="translate(-2.102 -7.989)" fill="#4c6cb5"/>
      <g id="Grupo_1144093" data-name="Grupo 1144093" transform="translate(22.496 4.439)">
        <path id="Trazado_979883" data-name="Trazado 979883" d="M30,5h3.439V6.72H30Z" transform="translate(-26.561 -5)" fill="#f7fafd"/>
        <path id="Trazado_979884" data-name="Trazado 979884" d="M36,5h1.72V6.72H36Z" transform="translate(-27.402 -5)" fill="#f7fafd"/>
        <path id="Trazado_979885" data-name="Trazado 979885" d="M26,5h1.72V6.72H26Z" transform="translate(-26 -5)" fill="#f7fafd"/>
      </g>
      <path id="Trazado_979886" data-name="Trazado 979886" d="M23.2,26.318V22.879H21.252a6.851,6.851,0,0,0-.733-1.77l1.376-1.376L19.463,17.3l-1.376,1.376a6.851,6.851,0,0,0-1.77-.733V16H12.879v1.945a6.851,6.851,0,0,0-1.77.733L9.733,17.3,7.3,19.734,8.678,21.11a6.851,6.851,0,0,0-.733,1.769H6v3.439H7.945a6.851,6.851,0,0,0,.733,1.77L7.3,29.463l2.432,2.432,1.376-1.376a6.851,6.851,0,0,0,1.77.733V33.2h3.439V31.252a6.851,6.851,0,0,0,1.77-.733l1.376,1.376,2.432-2.432-1.376-1.376a6.851,6.851,0,0,0,.733-1.77Z" transform="translate(-0.701 -2.102)" fill="#939393"/>
      <circle id="Elipse_11573" data-name="Elipse 11573" cx="3.5" cy="3.5" r="3.5" transform="translate(10.655 18.655)" fill="#f2f2f2"/>
      <path id="Trazado_979887" data-name="Trazado 979887" d="M16.318,16H12.879v1.945a6.851,6.851,0,0,0-1.77.733L9.733,17.3,7.3,19.734,8.678,21.11a6.851,6.851,0,0,0-.733,1.769H6v3.439H7.945a6.851,6.851,0,0,0,.733,1.77l-.622.622a8.512,8.512,0,0,0,9.91-8.446,8.6,8.6,0,0,0-.176-1.734,6.834,6.834,0,0,0-1.471-.584Z" transform="translate(-0.701 -2.102)" fill="#b5b5b5"/>
      <path id="Trazado_979888" data-name="Trazado 979888" d="M40,14H55.477v5.159H40Z" transform="translate(-5.466 -1.822)" fill="#f0ae42"/>
      <path id="Trazado_979889" data-name="Trazado 979889" d="M53.757,16.58V14H40v3.439H52.9A.86.86,0,0,0,53.757,16.58Z" transform="translate(-5.466 -1.822)" fill="#f9d266"/>
      <path id="Trazado_979890" data-name="Trazado 979890" d="M40,24H55.477v3.439H40Z" transform="translate(-5.466 -3.224)" fill="#f0ae42"/>
      <path id="Trazado_979891" data-name="Trazado 979891" d="M53.757,24.86V24H40v1.72H52.9A.86.86,0,0,0,53.757,24.86Z" transform="translate(-5.466 -3.224)" fill="#f9d266"/>
      <path id="Trazado_979892" data-name="Trazado 979892" d="M40,32H55.477v5.159H40Z" transform="translate(-5.466 -4.345)" fill="#f0ae42"/>
      <path id="Trazado_979893" data-name="Trazado 979893" d="M53.757,34.58V32H40v3.439H52.9A.86.86,0,0,0,53.757,34.58Z" transform="translate(-5.466 -4.345)" fill="#f9d266"/>
      <path id="Trazado_979894" data-name="Trazado 979894" d="M38.038,17.72V16H31.159a.86.86,0,0,0-.86.86v6.879H26v1.72h4.3v6.879a.86.86,0,0,0,.86.86h6.879v-1.72H32.019V25.458h6.019v-1.72H32.019V17.72Z" transform="translate(-3.504 -2.102)" fill="#3b5892"/>
      <path id="Trazado_979895" data-name="Trazado 979895" d="M18.4,23.714a3.43,3.43,0,1,0-4.127,4.947A8.579,8.579,0,0,0,18.4,23.714Z" transform="translate(-1.542 -2.944)" fill="#f7fafd"/>
      <path id="Trazado_979896" data-name="Trazado 979896" d="M51.73,1H3.58A2.58,2.58,0,0,0,1,3.58V41.412a2.58,2.58,0,0,0,2.58,2.58H21.395L20.1,49.151H15.82a2.565,2.565,0,0,0-2.307,1.426l-1.245,2.489a.86.86,0,0,0,.77,1.244H42.272a.86.86,0,0,0,.774-1.244L41.8,50.577a2.565,2.565,0,0,0-2.311-1.426H35.205l-1.29-5.159H51.73a2.58,2.58,0,0,0,2.58-2.58V3.58A2.58,2.58,0,0,0,51.73,1ZM3.58,2.72H51.73a.86.86,0,0,1,.86.86v4.3H2.72V3.58A.86.86,0,0,1,3.58,2.72ZM52.59,9.6v25.8H2.72V9.6ZM40.258,51.346l.623,1.244H14.429l.623-1.244a.855.855,0,0,1,.769-.475H39.49a.855.855,0,0,1,.769.475Zm-6.826-2.2H21.878l1.29-5.159h8.975Zm18.3-6.879H3.58a.86.86,0,0,1-.86-.86v-4.3H52.59v4.3A.86.86,0,0,1,51.73,42.272Z"/>
      <path id="Trazado_979897" data-name="Trazado 979897" d="M30,5h3.439V6.72H30Z" transform="translate(-4.065 -0.561)"/>
      <path id="Trazado_979898" data-name="Trazado 979898" d="M36,5h1.72V6.72H36Z" transform="translate(-4.906 -0.561)"/>
      <path id="Trazado_979899" data-name="Trazado 979899" d="M26,5h1.72V6.72H26Z" transform="translate(-3.504 -0.561)"/>
      <path id="Trazado_979900" data-name="Trazado 979900" d="M5,45h6.879v1.72H5Z" transform="translate(-0.561 -6.167)"/>
      <path id="Trazado_979901" data-name="Trazado 979901" d="M15,45h1.72v1.72H15Z" transform="translate(-1.962 -6.167)"/>
      <path id="Trazado_979902" data-name="Trazado 979902" d="M5.86,26.757H7.169a7.967,7.967,0,0,0,.311.751l-.925.926a.86.86,0,0,0,0,1.216l2.432,2.432a.86.86,0,0,0,1.216,0l.926-.925a7.966,7.966,0,0,0,.751.311v1.309a.86.86,0,0,0,.86.86h3.439a.86.86,0,0,0,.86-.86V31.468a7.967,7.967,0,0,0,.751-.311l.926.925a.86.86,0,0,0,1.216,0l2.432-2.432a.86.86,0,0,0,0-1.216l-.925-.926a7.968,7.968,0,0,0,.311-.751h1.309a.86.86,0,0,0,.86-.86v-.86h3.439v6.879a.86.86,0,0,0,.86.86h6.019V34.5a.86.86,0,0,0,.86.86H50.571a.86.86,0,0,0,.86-.86V29.337a.86.86,0,0,0-.86-.86H35.094a.86.86,0,0,0-.86.86v1.72H29.075V25.038h5.159v.86a.86.86,0,0,0,.86.86H50.571a.86.86,0,0,0,.86-.86V22.458a.86.86,0,0,0-.86-.86H35.094a.86.86,0,0,0-.86.86v.86H29.075V17.3h5.159v1.72a.86.86,0,0,0,.86.86H50.571a.86.86,0,0,0,.86-.86V13.86a.86.86,0,0,0-.86-.86H35.094a.86.86,0,0,0-.86.86v1.72H28.216a.86.86,0,0,0-.86.86v6.879H23.916v-.86a.86.86,0,0,0-.86-.86H21.748a7.969,7.969,0,0,0-.311-.751l.925-.926a.86.86,0,0,0,0-1.216L19.93,16.274a.86.86,0,0,0-1.216,0l-.926.925a7.966,7.966,0,0,0-.751-.311V15.58a.86.86,0,0,0-.86-.86H12.739a.86.86,0,0,0-.86.86v1.309a7.967,7.967,0,0,0-.751.311l-.926-.925a.86.86,0,0,0-1.216,0L6.555,18.706a.86.86,0,0,0,0,1.216l.925.926a7.967,7.967,0,0,0-.311.751H5.86a.86.86,0,0,0-.86.86V25.9A.86.86,0,0,0,5.86,26.757ZM35.954,30.2H49.712v3.439H35.954Zm0-6.879H49.712v1.72H35.954Zm0-8.6H49.712v3.439H35.954ZM6.72,23.318H7.8a.86.86,0,0,0,.832-.645,6.019,6.019,0,0,1,.641-1.548.86.86,0,0,0-.132-1.046l-.767-.767L9.594,18.1l.767.767A.86.86,0,0,0,11.407,19a6.019,6.019,0,0,1,1.548-.641.86.86,0,0,0,.645-.832V16.439h1.72v1.085a.86.86,0,0,0,.645.832A6.019,6.019,0,0,1,17.512,19a.86.86,0,0,0,1.046-.132l.767-.767,1.216,1.216-.767.767a.86.86,0,0,0-.132,1.046,6.019,6.019,0,0,1,.641,1.548.86.86,0,0,0,.832.645H22.2v1.72H21.112a.86.86,0,0,0-.832.645,6.019,6.019,0,0,1-.641,1.548.86.86,0,0,0,.132,1.046l.767.767L19.322,30.26l-.767-.767a.86.86,0,0,0-1.046-.132A6.019,6.019,0,0,1,15.962,30a.86.86,0,0,0-.645.832v1.083H13.6V30.831A.86.86,0,0,0,12.954,30a6.019,6.019,0,0,1-1.548-.641.86.86,0,0,0-1.046.132l-.767.767L8.378,29.042l.767-.767a.86.86,0,0,0,.132-1.046,6.019,6.019,0,0,1-.641-1.548.86.86,0,0,0-.832-.644H6.72Z" transform="translate(-0.561 -1.682)"/>
      <path id="Trazado_979903" data-name="Trazado 979903" d="M15.3,29.6A4.3,4.3,0,1,0,11,25.3a4.3,4.3,0,0,0,4.3,4.3Zm0-6.879a2.58,2.58,0,1,1-2.58,2.58A2.58,2.58,0,0,1,15.3,22.72Z" transform="translate(-1.402 -2.803)"/>
    </g>
  </g>
</svg>
