<svg id="Grupo_1106216" data-name="Grupo 1106216" xmlns="http://www.w3.org/2000/svg" xmlns:xlink="http://www.w3.org/1999/xlink" width="503.695" height="464.692" viewBox="0 0 503.695 464.692">
  <defs>
    <clipPath id="clip-path">
      <rect id="Rectángulo_404640" data-name="Rectángulo 404640" width="503.695" height="464.692" fill="none"/>
    </clipPath>
  </defs>
  <g id="Grupo_1106215" data-name="Grupo 1106215" clip-path="url(#clip-path)">
    <path id="Trazado_889966" data-name="Trazado 889966" d="M380.244,35.167A12.127,12.127,0,1,1,368.118,23.04a12.126,12.126,0,0,1,12.126,12.127" transform="translate(26.902 1.741)" fill="#e6edff"/>
    <path id="Trazado_889967" data-name="Trazado 889967" d="M501.615,321.223a47.174,47.174,0,0,0-2.977-8.492c-9.777-21.11-32.981-27.173-50.007-39.563-7.264-5.286-13.106-13.263-13.641-22.232-.637-10.649,6-20.148,11.4-29.351,6.892-11.761,12.211-24.764,12.992-38.374s-3.441-27.91-13.289-37.337c-11.353-10.869-28.239-13.8-43.941-13.133-39.957,1.7-76.808,18.5-108.463-16.167C271.257,92.008,261.8,50.7,238.62,26.292,201.82-12.444,138.186-5.872,98.236,29.644c-36.094,32.087-47.8,83.134-34.93,128.933,8.307,29.572,18.3,59.617-2.3,87.5-17.622,23.864-45.5,39.777-55.8,68.829-9.982,28.167-6.385,63,17.535,83.167,12.341,10.405,28.154,15.764,43.918,19.242.116.026.232.047.348.073H387.142c50.469-7.6,130.476-31.714,114.473-96.169" transform="translate(0 0)" fill="#bfd2ff"/>
    <path id="Trazado_889968" data-name="Trazado 889968" d="M354.873,68.96a23.89,23.89,0,1,1-23.889-23.889A23.89,23.89,0,0,1,354.873,68.96" transform="translate(23.207 3.406)" fill="#bfd2ff"/>
    <path id="Trazado_889969" data-name="Trazado 889969" d="M54.711,199.7A14.509,14.509,0,1,1,40.2,185.19,14.51,14.51,0,0,1,54.711,199.7" transform="translate(1.942 13.995)" fill="#bfd2ff"/>
    <path id="Trazado_889970" data-name="Trazado 889970" d="M451.187,230.725a11.129,11.129,0,0,0-2.867-4.92l-2.257-1.744a11.1,11.1,0,0,0-5.627-1.523h-.552a10.764,10.764,0,0,0-10.189,6.855,8.4,8.4,0,0,0-.96,4.3q.2,1.481.4,2.964a11.149,11.149,0,0,0,2.867,4.92l2.257,1.743a11.1,11.1,0,0,0,5.627,1.522h.552a10.762,10.762,0,0,0,10.189-6.854,8.388,8.388,0,0,0,.96-4.3q-.2-1.483-.4-2.964" transform="translate(32.399 16.817)" fill="#e6edff"/>
    <path id="Trazado_889971" data-name="Trazado 889971" d="M345.38,395.539,91.35,394.326a10.525,10.525,0,0,1-10.475-10.575l.68-142.531A10.525,10.525,0,0,1,92.13,230.745l254.031,1.212a10.526,10.526,0,0,1,10.475,10.575l-.681,142.531a10.524,10.524,0,0,1-10.575,10.475" transform="translate(6.112 17.437)" fill="#63738f"/>
    <path id="Trazado_889972" data-name="Trazado 889972" d="M210.763,234.462a1.258,1.258,0,1,1-1.253-1.265,1.259,1.259,0,0,1,1.253,1.265" transform="translate(15.737 17.623)" fill="#333842"/>
    <path id="Trazado_889973" data-name="Trazado 889973" d="M377.7,384.4h0L61.9,382.89a13.13,13.13,0,0,0,13.067,13.193l289.547,1.381A13.13,13.13,0,0,0,377.7,384.4" transform="translate(4.677 28.935)" fill="#3e4d66"/>
    <path id="Trazado_889974" data-name="Trazado 889974" d="M340.639,389.931,95.21,388.759a8.223,8.223,0,0,1-8.184-8.264l.646-135.574a8.225,8.225,0,0,1,8.264-8.185l245.428,1.171a8.224,8.224,0,0,1,8.185,8.264L348.9,381.745a8.224,8.224,0,0,1-8.264,8.185" transform="translate(6.577 17.89)" fill="#fefeff"/>
    <rect id="Rectángulo_404599" data-name="Rectángulo 404599" width="35.537" height="9.012" transform="translate(403.002 120.002)" fill="#ffb861"/>
    <rect id="Rectángulo_404600" data-name="Rectángulo 404600" width="52.928" height="9.012" transform="translate(403.003 106.07)" fill="#96b3ff"/>
    <rect id="Rectángulo_404601" data-name="Rectángulo 404601" width="76.928" height="9.012" transform="translate(403.003 92.137)" fill="#ff6ea1"/>
    <rect id="Rectángulo_404602" data-name="Rectángulo 404602" width="43.283" height="9.012" transform="translate(403.002 78.204)" fill="#3fd4c7"/>
    <path id="Trazado_889975" data-name="Trazado 889975" d="M373.6,65.244v65.2h83.751" transform="translate(28.233 4.931)" fill="none" stroke="#333842" stroke-linecap="round" stroke-miterlimit="10" stroke-width="0.676"/>
    <rect id="Rectángulo_404603" data-name="Rectángulo 404603" width="54.615" height="5.138" transform="translate(430.088 148.413)" fill="#e0e9ff"/>
    <rect id="Rectángulo_404604" data-name="Rectángulo 404604" width="54.615" height="5.137" transform="translate(430.088 158.074)" fill="#e0e9ff"/>
    <rect id="Rectángulo_404605" data-name="Rectángulo 404605" width="54.615" height="5.158" transform="translate(430.088 167.735)" fill="#e0e9ff"/>
    <rect id="Rectángulo_404606" data-name="Rectángulo 404606" width="23.628" height="24.481" transform="translate(401.833 148.413)" fill="#e0e9ff"/>
    <rect id="Rectángulo_404607" data-name="Rectángulo 404607" width="82.872" height="5.138" transform="translate(401.832 177.397)" fill="#e0e9ff"/>
    <rect id="Rectángulo_404608" data-name="Rectángulo 404608" width="82.872" height="5.138" transform="translate(401.832 187.059)" fill="#e0e9ff"/>
    <path id="Trazado_889976" data-name="Trazado 889976" d="M275.132,13.087a26.3,26.3,0,0,0-4.878,1.465,4.205,4.205,0,0,1,.281.361,4.352,4.352,0,1,1-7.378,4.616,4.191,4.191,0,0,1-.221-.446,26.555,26.555,0,0,0-3.508,3.717,4.606,4.606,0,0,1,.451.184,4.352,4.352,0,0,1-4.083,7.687,4.263,4.263,0,0,1-.459-.307,26.189,26.189,0,0,0-1.192,5.012,4.236,4.236,0,0,1,.54-.074,4.352,4.352,0,1,1,.308,8.7,4.509,4.509,0,0,1-.617-.041,26.231,26.231,0,0,0,1.482,4.985,4.344,4.344,0,1,1,5.1,7,4.271,4.271,0,0,1-.6.3,26.505,26.505,0,0,0,3.805,3.595,4.344,4.344,0,1,1,7.938,3.469,4.287,4.287,0,0,1-.4.594,26.276,26.276,0,0,0,5.121,1.2,4.308,4.308,0,0,1-.094-.683,4.352,4.352,0,0,1,8.7-.308,4.287,4.287,0,0,1-.047.718,26.185,26.185,0,0,0,5.035-1.528,4.3,4.3,0,0,1-.422-.543,4.353,4.353,0,1,1,7.686-4,26.52,26.52,0,0,0,3.57-3.831,4.2,4.2,0,0,1-.6-.244A4.352,4.352,0,0,1,304.739,47a4.292,4.292,0,0,1,.536.357,26.214,26.214,0,0,0,1.158-5.068,4.343,4.343,0,1,1-.891-8.619,4.207,4.207,0,0,1,.573.037,26.07,26.07,0,0,0-1.51-4.926,4.124,4.124,0,0,1-.416.323,4.352,4.352,0,0,1-4.616-7.378,4.233,4.233,0,0,1,.465-.23,26.446,26.446,0,0,0-3.741-3.486,4.232,4.232,0,0,1-.179.438,4.352,4.352,0,0,1-7.687-4.083,4.509,4.509,0,0,1,.268-.4,26.233,26.233,0,0,0-4.959-1.149,4.206,4.206,0,0,1,.06.44,4.352,4.352,0,1,1-8.7.308,4.589,4.589,0,0,1,.03-.473m4.5,8.147a17.735,17.735,0,1,1-17.1,18.351,17.735,17.735,0,0,1,17.1-18.351" transform="translate(19.206 0.968)" fill="#bfd2ff"/>
    <rect id="Rectángulo_404609" data-name="Rectángulo 404609" width="101.316" height="122.052" transform="translate(30.039 24.842)" fill="#e0e9ff"/>
    <rect id="Rectángulo_404610" data-name="Rectángulo 404610" width="11.303" height="26.744" transform="translate(50.612 73.013)" fill="#3fd4c7"/>
    <rect id="Rectángulo_404611" data-name="Rectángulo 404611" width="11.303" height="39.832" transform="translate(68.087 59.925)" fill="#fefeff"/>
    <rect id="Rectángulo_404612" data-name="Rectángulo 404612" width="11.303" height="57.894" transform="translate(85.562 41.863)" fill="#96b3ff"/>
    <rect id="Rectángulo_404613" data-name="Rectángulo 404613" width="11.303" height="32.573" transform="translate(103.035 67.184)" fill="#628aec"/>
    <path id="Trazado_889977" data-name="Trazado 889977" d="M40.872,39.925v57.1h74.309" transform="translate(3.089 3.017)" fill="none" stroke="#333842" stroke-linecap="round" stroke-miterlimit="10" stroke-width="0.75"/>
    <rect id="Rectángulo_404614" data-name="Rectángulo 404614" width="76.077" height="7.285" transform="translate(42.495 110.933)" fill="#fefeff"/>
    <rect id="Rectángulo_404615" data-name="Rectángulo 404615" width="76.077" height="7.286" transform="translate(42.495 124.289)" fill="#fefeff"/>
    <path id="Trazado_889978" data-name="Trazado 889978" d="M178.269,167.04l-14.032,28.653-25.5-31.768-22.957,29.416L98.854,175.05l-2.58,2.387,19.738,21.326,22.768-29.174,26.182,32.619,15.937-32.54Z" transform="translate(7.275 12.388)" fill="#fff"/>
    <path id="Trazado_889979" data-name="Trazado 889979" d="M164.8,196.806a4.513,4.513,0,1,0-4.512,4.512,4.513,4.513,0,0,0,4.512-4.512" transform="translate(11.772 14.532)" fill="#ff6ea1"/>
    <path id="Trazado_889980" data-name="Trazado 889980" d="M178.665,167.147a4.513,4.513,0,1,0-4.514,4.512,4.513,4.513,0,0,0,4.514-4.512" transform="translate(12.82 12.29)" fill="#3fd4c7"/>
    <path id="Trazado_889981" data-name="Trazado 889981" d="M140.443,167.147a4.513,4.513,0,1,0-4.512,4.512,4.512,4.512,0,0,0,4.512-4.512" transform="translate(9.931 12.29)" fill="#333842"/>
    <path id="Trazado_889982" data-name="Trazado 889982" d="M119.847,193.611a4.513,4.513,0,1,0-4.512,4.513,4.512,4.512,0,0,0,4.512-4.513" transform="translate(8.375 14.29)" fill="#ffb861"/>
    <path id="Trazado_889983" data-name="Trazado 889983" d="M103.212,176.49A4.513,4.513,0,1,0,98.7,181a4.512,4.512,0,0,0,4.512-4.512" transform="translate(7.118 12.997)" fill="#628aec"/>
    <path id="Trazado_889984" data-name="Trazado 889984" d="M86.119,156.6v60.259H187.555" transform="translate(6.508 11.834)" fill="none" stroke="#333842" stroke-linecap="round" stroke-miterlimit="10" stroke-width="0.75"/>
    <path id="Trazado_889985" data-name="Trazado 889985" d="M174.765,334.234a34.834,34.834,0,1,0-34.835,34.835,34.834,34.834,0,0,0,34.835-34.835" transform="translate(7.942 22.626)" fill="#bfc5d4"/>
    <path id="Trazado_889986" data-name="Trazado 889986" d="M138.736,332.953l-27.168-9.476a28.773,28.773,0,0,0,41.973,34.147Z" transform="translate(8.31 24.445)" fill="#628aec"/>
    <path id="Trazado_889987" data-name="Trazado 889987" d="M138.1,331.787,153.1,356.343a28.769,28.769,0,0,0,13.778-24.556Z" transform="translate(10.436 25.073)" fill="#e0e9ff"/>
    <path id="Trazado_889988" data-name="Trazado 889988" d="M138.254,331.987l28.77-.4a28.775,28.775,0,0,0-9.3-20.785Z" transform="translate(10.448 23.488)" fill="#fefeff"/>
    <rect id="Rectángulo_404616" data-name="Rectángulo 404616" width="80.645" height="4.465" transform="translate(107.55 299.786)" fill="#333842"/>
    <rect id="Rectángulo_404617" data-name="Rectángulo 404617" width="80.645" height="4.465" transform="translate(107.55 290.968)" fill="#333842"/>
    <rect id="Rectángulo_404618" data-name="Rectángulo 404618" width="80.645" height="4.465" transform="translate(107.55 282.148)" fill="#333842"/>
    <rect id="Rectángulo_404619" data-name="Rectángulo 404619" width="80.645" height="4.465" transform="translate(107.55 273.329)" fill="#333842"/>
    <rect id="Rectángulo_404620" data-name="Rectángulo 404620" width="80.645" height="4.465" transform="translate(107.55 307.971)" fill="#333842"/>
    <rect id="Rectángulo_404621" data-name="Rectángulo 404621" width="139.817" height="4.465" transform="translate(206.028 394.098)" fill="#333842"/>
    <rect id="Rectángulo_404622" data-name="Rectángulo 404622" width="139.817" height="4.465" transform="translate(206.028 385.278)" fill="#333842"/>
    <rect id="Rectángulo_404623" data-name="Rectángulo 404623" width="139.817" height="4.465" transform="translate(206.028 376.458)" fill="#333842"/>
    <path id="Trazado_889989" data-name="Trazado 889989" d="M215.118,54.748A33.683,33.683,0,1,0,181.436,88.43a33.682,33.682,0,0,0,33.683-33.683" transform="translate(11.166 1.592)" fill="#e0e9ff"/>
    <path id="Trazado_889990" data-name="Trazado 889990" d="M180.281,53.508l-26.27-9.163A27.822,27.822,0,0,0,194.6,77.363Z" transform="translate(11.521 3.351)" fill="#ff6ea1"/>
    <path id="Trazado_889991" data-name="Trazado 889991" d="M179.666,52.381l14.5,23.744a27.824,27.824,0,0,0,13.323-23.744Z" transform="translate(13.577 3.958)" fill="#3fd4c7"/>
    <path id="Trazado_889992" data-name="Trazado 889992" d="M179.814,52.574l27.819-.384a27.818,27.818,0,0,0-8.991-20.1Z" transform="translate(13.589 2.425)" fill="#fefeff"/>
    <rect id="Rectángulo_404624" data-name="Rectángulo 404624" width="178.53" height="269.44" transform="translate(205.781 96.168)" fill="#e0e9ff"/>
    <rect id="Rectángulo_404625" data-name="Rectángulo 404625" width="12.697" height="53.469" transform="translate(261.871 225.961)" fill="#ffb861"/>
    <rect id="Rectángulo_404626" data-name="Rectángulo 404626" width="12.697" height="79.635" transform="translate(316.431 199.795)" fill="#ff6ea1"/>
    <rect id="Rectángulo_404627" data-name="Rectángulo 404627" width="12.697" height="115.746" transform="translate(343.711 163.684)" fill="#3fd4c7"/>
    <path id="Trazado_889993" data-name="Trazado 889993" d="M216.306,210.234c27.332-7.145,77.274-33.483,99.888-58.694" transform="translate(16.346 11.452)" fill="none" stroke="#333842" stroke-linecap="round" stroke-miterlimit="10" stroke-width="0.75"/>
    <path id="Trazado_889994" data-name="Trazado 889994" d="M311.145,149.58l-1.448,3.994-.566-1.77-1.817-.386Z" transform="translate(23.224 11.304)" fill="#333842"/>
    <rect id="Rectángulo_404628" data-name="Rectángulo 404628" width="12.697" height="65.123" transform="translate(289.151 214.307)" fill="#fefeff"/>
    <rect id="Rectángulo_404629" data-name="Rectángulo 404629" width="12.697" height="47.282" transform="translate(234.591 232.148)" fill="#628aec"/>
    <path id="Trazado_889995" data-name="Trazado 889995" d="M352.072,268.345H208.31V146.821" transform="translate(15.742 11.095)" fill="none" stroke="#333842" stroke-linecap="round" stroke-miterlimit="10" stroke-width="0.75"/>
    <rect id="Rectángulo_404630" data-name="Rectángulo 404630" width="145.507" height="8.766" transform="translate(224.071 115.111)" fill="#fefeff"/>
    <rect id="Rectángulo_404631" data-name="Rectángulo 404631" width="83.979" height="8.766" transform="translate(254.836 129.275)" fill="#fefeff"/>
    <rect id="Rectángulo_404632" data-name="Rectángulo 404632" width="145.545" height="8.057" transform="translate(224.052 290.676)" fill="#fefeff"/>
    <rect id="Rectángulo_404633" data-name="Rectángulo 404633" width="145.545" height="8.057" transform="translate(224.052 305.448)" fill="#fefeff"/>
    <rect id="Rectángulo_404634" data-name="Rectángulo 404634" width="145.545" height="8.057" transform="translate(224.052 320.22)" fill="#fefeff"/>
    <rect id="Rectángulo_404635" data-name="Rectángulo 404635" width="64.629" height="8.057" transform="translate(224.053 336.182)" fill="#fefeff"/>
    <path id="Trazado_889996" data-name="Trazado 889996" d="M357.938,396.664c2.3-.231,4.583-.679,6.884-.914,1.944-.2,3.895-.309,5.83-.595a17.206,17.206,0,0,0,4.105-1.027c.83-.346.3-2.523.177-3.131a19.877,19.877,0,0,1-.219-4.5c-2.21-.041-4.424-.084-6.629-.177a3,3,0,0,0-1.218.117,4.049,4.049,0,0,0-1.3,1.072c-1.734,1.781-4,2.749-6.135,3.888s-4.28,2.605-5.36,4.932a1.252,1.252,0,0,0-.144.6q2-.058,4.005-.258" transform="translate(26.747 29.193)" fill="#333842"/>
    <path id="Trazado_889997" data-name="Trazado 889997" d="M396.846,279.483l-.069-.084a10.49,10.49,0,0,0-10.841-3.458c-10.036,2.969-10.05,18.388-11.091,27.428q-1.652,14.346-3.432,28.674c-2.255,18.149-3.782,44.633-6.348,62.732a12.151,12.151,0,0,0,4.776,1.163c3.034.379,4.043.1,5.035-.661,2.956-16.457,9.7-40.809,13.062-57.17,1.769-8.6,3.069-12.757,4.952-21.33,1.406-6.4,1.934-13.006,3.644-19.334.779-2.878,2.729-5.581,3.055-8.454a13.1,13.1,0,0,0-2.742-9.5" transform="translate(27.588 20.824)" fill="#4f5d7a"/>
    <line id="Línea_580" data-name="Línea 580" x1="3.826" y1="0.856" transform="translate(408.768 370.902)" fill="none" stroke="#333842" stroke-linecap="round" stroke-linejoin="round" stroke-width="0.75"/>
    <line id="Línea_581" data-name="Línea 581" x1="4.602" y2="2.134" transform="translate(407.951 371.747)" fill="none" stroke="#333842" stroke-linecap="round" stroke-linejoin="round" stroke-width="0.75"/>
    <path id="Trazado_889998" data-name="Trazado 889998" d="M394.467,395.677a1.49,1.49,0,0,0,.166.038c.441.006.883.022,1.325.041.113,0,.225.006.333.016.528.027,1.055.059,1.583.1,4.111.325,8.315,1.062,12.371,1.148a11,11,0,0,0,4.193-.512c3.319-1.295-.726-2.993-2.041-3.743a44.716,44.716,0,0,0-4.055-2.191,31.094,31.094,0,0,1-5.366-3.082,25.241,25.241,0,0,1-7.224.7c-1.243-.059-3.09,6.906-1.285,7.487" transform="translate(29.753 29.283)" fill="#333842"/>
    <path id="Trazado_889999" data-name="Trazado 889999" d="M407.262,297.4c-.583-4.047-3.614-18.009-8.212-18.769a10.1,10.1,0,0,0-8.98,3.15,14.726,14.726,0,0,0-2.9,7.216c-.653,4.424-.343,9.128-.172,13.584.272,7.07,1.7,20.422,1.7,20.422s6.974,58.676,6.461,73.158c2.668,3.705,10.627.25,10.661-.173.931-11.4.913-37.192,1.135-46.019.239-9.5,1.664-43.128.3-52.57" transform="translate(29.229 21.048)" fill="#616e87"/>
    <path id="Trazado_890000" data-name="Trazado 890000" d="M388.262,318.06q-.745-10.745-1.49-21.491" transform="translate(29.229 22.412)" fill="none" stroke="#333842" stroke-miterlimit="10" stroke-width="0.75"/>
    <path id="Trazado_890001" data-name="Trazado 890001" d="M408.025,296.852c-.808-4.8-3.751-17.275-8.09-17.991a10.184,10.184,0,0,0-4.182.241,10.46,10.46,0,0,0-10.572-3.161c-6.962,2.06-9.1,10.108-10.105,17.864a29.067,29.067,0,0,0,12.64,4.614v0c.09.012.181.019.27.031.48.066.958.122,1.436.171.165.016.329.033.494.048.565.052,1.127.1,1.687.127.089,0,.176.006.266.012.495.025.985.041,1.474.052.16,0,.319.008.479.01.54.006,1.076.009,1.6,0h0c.023,0,.046,0,.07,0a45.619,45.619,0,0,0,12.531-2.02" transform="translate(28.345 20.824)" fill="#3c4966"/>
    <path id="Trazado_890002" data-name="Trazado 890002" d="M396.522,227.827c.045.407.073.81.094,1.2l.248,4.641a42.657,42.657,0,0,1,.25,4.766c-.139,2.223-.614,4.355-2.687,5.441a4.955,4.955,0,0,1-4.127.018,4.6,4.6,0,0,1-2.686-2.249,6.913,6.913,0,0,1-.257-2.336c.013-2.584-.044-5.169.06-7.751.068-1.661-.055-3.455.66-4.991.98-2.106,3.5-4.173,5.835-3.253,1.839.724,2.4,2.66,2.609,4.516" transform="translate(29.272 16.859)" fill="#f7b699"/>
    <path id="Trazado_890003" data-name="Trazado 890003" d="M393.769,234.019a11.336,11.336,0,0,0,2.8-5.584c-.015-.2-.025-.4-.047-.608-.208-1.856-.77-3.792-2.61-4.517-2.336-.92-4.854,1.148-5.834,3.254-.715,1.535-.594,3.329-.66,4.991-.056,1.4-.066,2.8-.063,4.195a6.438,6.438,0,0,0,6.415-1.729" transform="translate(29.272 16.859)" fill="#c46e58"/>
    <path id="Trazado_890004" data-name="Trazado 890004" d="M407.941,293.4l-3.147-15.966,1.078-35.868c-.287,0,.155-3.176-.816-3.795-1.5-.957-6.329-1.635-6.94-1.794a7.042,7.042,0,0,1-.155,1.88,7.176,7.176,0,0,1-2.19,2.568c-2.549,1.9-5.762,1.722-7.133-2.223a8.7,8.7,0,0,1-.291-2.086,30.924,30.924,0,0,0-5,1.252,4.861,4.861,0,0,0-3.29,4.266L378.4,277.346,374.18,290.8c10.2,8.186,21.965,8.112,33.761,2.6" transform="translate(28.277 17.833)" fill="#fff"/>
    <path id="Trazado_890005" data-name="Trazado 890005" d="M389.414,278.025a38.422,38.422,0,0,0,15.4-14.543" transform="translate(29.428 19.911)" fill="none" stroke="#333842" stroke-linecap="round" stroke-miterlimit="10" stroke-width="0.299"/>
    <path id="Trazado_890006" data-name="Trazado 890006" d="M386.958,291.01a47.682,47.682,0,0,0,15.971-18.929" transform="translate(29.243 20.561)" fill="none" stroke="#333842" stroke-linecap="round" stroke-miterlimit="10" stroke-width="0.299"/>
    <path id="Trazado_890007" data-name="Trazado 890007" d="M389.4,242.769a6.179,6.179,0,0,0,5.915-.126" transform="translate(29.427 18.337)" fill="none" stroke="#333842" stroke-linecap="round" stroke-miterlimit="10" stroke-width="0.299"/>
    <path id="Trazado_890008" data-name="Trazado 890008" d="M377.429,242.23c-5.12,5.952-9.777,18.955-10.262,26.709a8.479,8.479,0,0,0,1.364,5.5,5.161,5.161,0,0,0,5.016,2.182c2-.411,3.409-2.182,4.421-3.953,1.64-2.872,4.029-10.13,4.675-13.26.725-3.51,2.306-6.813,2.935-10.4.39-2.23,2.482-12.691-2.62-11.318a6.3,6.3,0,0,0-2.3,1.355,26.965,26.965,0,0,0-3.233,3.179" transform="translate(27.745 17.953)" fill="#6c7995"/>
    <path id="Trazado_890009" data-name="Trazado 890009" d="M377.683,300.474c.68.346,1.376.65,2.077.937,2.263-17.16,8.437-65.148,8.434-65.279a28.622,28.622,0,0,0-4.694,1.18,5.028,5.028,0,0,0-3.477,4.182l-1.494,20.668-2.053,19.344-4.843,14.611a24.443,24.443,0,0,0,6.051,4.357" transform="translate(28.084 17.845)" fill="#6c7995"/>
    <path id="Trazado_890010" data-name="Trazado 890010" d="M387.463,236.131l-5.832,4.928,3.286.722-3.606,7.935,2.759,13.056Z" transform="translate(28.816 17.845)" fill="#abc0d4"/>
    <path id="Trazado_890011" data-name="Trazado 890011" d="M381.919,243.555s-3.213,8.645-3.272,12.744c-.033,2.365-2.225,22.81-2.225,22.81" transform="translate(28.446 18.406)" fill="none" stroke="#333842" stroke-miterlimit="10" stroke-width="0.299"/>
    <path id="Trazado_890012" data-name="Trazado 890012" d="M380.7,269.574a6.854,6.854,0,1,1-6.854-6.854,6.854,6.854,0,0,1,6.854,6.854" transform="translate(27.733 19.854)" fill="#6c7995"/>
    <path id="Trazado_890013" data-name="Trazado 890013" d="M371.426,263.5a6.531,6.531,0,0,1,8.308,7.371" transform="translate(28.069 19.893)" fill="none" stroke="#333842" stroke-miterlimit="10" stroke-width="0.299"/>
    <path id="Trazado_890014" data-name="Trazado 890014" d="M374.713,261.978a7.2,7.2,0,0,1,3.273,3.583" transform="translate(28.317 19.798)" fill="none" stroke="#333842" stroke-miterlimit="10" stroke-width="0.299"/>
    <path id="Trazado_890015" data-name="Trazado 890015" d="M402.121,302.451c3.577-.8,4.284-1.322,7.709-2.758l-3.379-17.831-2.07-40.431c-.293,0,.023-3.123-.981-3.724-1.422-.852-5.3-1.457-6.388-1.667v67.317c1.729-.225,3.44-.531,5.11-.907" transform="translate(30.002 17.838)" fill="#6c7995"/>
    <path id="Trazado_890016" data-name="Trazado 890016" d="M408.3,242.877c2.573,3.788,4.1,8.765,5.677,13.046,1.557,4.239,4.222,9.786,4.121,14.373A5.753,5.753,0,0,1,416,274.8a6.22,6.22,0,0,1-5.126.763c-5.147-1.224-6.573-5.622-8.183-9.979a59.85,59.85,0,0,1-3.643-16.882c-.133-2.319-1.025-13.232,4.082-11.162a6.67,6.67,0,0,1,2.209,1.68,28.2,28.2,0,0,1,2.956,3.66" transform="translate(30.146 17.931)" fill="#6c7995"/>
    <path id="Trazado_890017" data-name="Trazado 890017" d="M403.042,265.56,400.561,257" transform="translate(30.271 19.421)" fill="none" stroke="#333842" stroke-miterlimit="10" stroke-width="0.299"/>
    <path id="Trazado_890018" data-name="Trazado 890018" d="M401.6,260.635l-1.746-2.775" transform="translate(30.217 19.487)" fill="none" stroke="#333842" stroke-miterlimit="10" stroke-width="0.299"/>
    <path id="Trazado_890019" data-name="Trazado 890019" d="M397.009,236.033l5.175,5.614-3.35.308,2.593,8.322-4.358,12.612Z" transform="translate(30.002 17.837)" fill="#abc0d4"/>
    <path id="Trazado_890020" data-name="Trazado 890020" d="M413.568,274.869l-7.917,2.4a6.277,6.277,0,1,1-3.644-12.013l7.917-2.4a6.277,6.277,0,0,1,3.644,12.013" transform="translate(30.043 19.844)" fill="#6c7995"/>
    <path id="Trazado_890021" data-name="Trazado 890021" d="M398.185,266.778l8.726-3.169c2.5-.906,5.193-1.522,7.751-.395" transform="translate(30.091 19.845)" fill="none" stroke="#333842" stroke-linecap="round" stroke-miterlimit="10" stroke-width="0.299"/>
    <rect id="Rectángulo_404636" data-name="Rectángulo 404636" width="22.061" height="30.041" transform="translate(407.342 277.344)" fill="#78c2f4"/>
    <path id="Trazado_890022" data-name="Trazado 890022" d="M382.607,271.044a5.5,5.5,0,1,1-5.5-5.5,5.5,5.5,0,0,1,5.5,5.5" transform="translate(28.083 20.068)" fill="#f7b699"/>
    <path id="Trazado_890023" data-name="Trazado 890023" d="M395.5,272.711a5.5,5.5,0,1,0,5.753-5.226,5.5,5.5,0,0,0-5.753,5.226" transform="translate(29.888 20.213)" fill="#f7b699"/>
    <path id="Trazado_890024" data-name="Trazado 890024" d="M382.205,222.468a2.554,2.554,0,0,0,.316,1.189,1.764,1.764,0,0,0,3.2-.447,2.836,2.836,0,0,0,0-1.825c-.309-.959-1.121-1.743-2.15-1.21a2.565,2.565,0,0,0-1.261,1.52,2.485,2.485,0,0,0-.105.774" transform="translate(28.883 16.626)" fill="#c46e58"/>
    <path id="Trazado_890025" data-name="Trazado 890025" d="M387.217,214.074a13.557,13.557,0,0,1,7.506-1.352c3.232.327,4.722,1.916,5.058,3.887.579,3.388.446,7.458-1.05,10.484-.251.507-.771,1.8-1.072,2.275a8.611,8.611,0,0,1-9.077,3.617c-2.666-.644-4.113-2.869-4.565-5.982-.081-.559-.1-2.383-.11-2.949-.054-3.469,1.8-9.175,3.308-9.979" transform="translate(29.012 16.068)" fill="#f7b699"/>
    <path id="Trazado_890026" data-name="Trazado 890026" d="M386.547,210.985a15.28,15.28,0,0,1,6.047-1.836,7.938,7.938,0,0,1,9.371,8.09c.015,1.766-.865,5.754-2.87,6.548-2.439.966-2.2-1.841-1.885-3.586a12.58,12.58,0,0,0,.341-1.946,2.023,2.023,0,0,0-.8-1.76,3.079,3.079,0,0,0-1.4-.374c-1.675-.163-11.12.61-11-2.553a1.372,1.372,0,0,1,.238-.642,6,6,0,0,1,1.962-1.941" transform="translate(29.045 15.799)" fill="#333842"/>
    <path id="Trazado_890027" data-name="Trazado 890027" d="M387.478,216.169a9.944,9.944,0,0,0,7.071-.951" transform="translate(29.282 16.264)" fill="none" stroke="#333842" stroke-linecap="round" stroke-linejoin="round" stroke-width="0.75"/>
    <path id="Trazado_890028" data-name="Trazado 890028" d="M398.675,211.567a4,4,0,0,0-3.325-2.836" transform="translate(29.877 15.774)" fill="none" stroke="#333842" stroke-linecap="round" stroke-linejoin="round" stroke-width="0.75"/>
    <path id="Trazado_890029" data-name="Trazado 890029" d="M399.814,211.369a.928.928,0,0,0-1.2.166" transform="translate(30.124 15.962)" fill="none" stroke="#333842" stroke-linecap="round" stroke-linejoin="round" stroke-width="0.75"/>
    <path id="Trazado_890030" data-name="Trazado 890030" d="M383.758,222.372c.024.122.051.24.083.354.074-.024.226-.08.266-.153,1.066-1.956.457-4.865,2.1-6.486.558-.552,1.415-.956,1.5-1.737a1.939,1.939,0,0,0-.238-.984,1.111,1.111,0,0,0-.307-.446.977.977,0,0,0-.707-.124c-3.209.378-3,4.061-2.853,6.413a26.6,26.6,0,0,0,.162,3.163" transform="translate(28.983 16.08)" fill="#333842"/>
    <path id="Trazado_890031" data-name="Trazado 890031" d="M397,224.695a1.748,1.748,0,0,0,2.765.379,2.889,2.889,0,0,0,.67-1.532,3.288,3.288,0,0,0-.03-1.5,2.047,2.047,0,0,0-1.372-1.315c-2.149-.727-3.007,2.56-2.033,3.966" transform="translate(29.971 16.673)" fill="#f7b699"/>
    <path id="Trazado_890032" data-name="Trazado 890032" d="M385.8,218.8a3.555,3.555,0,0,1,1.661-.06" transform="translate(29.155 16.525)" fill="none" stroke="#333842" stroke-linecap="round" stroke-miterlimit="10" stroke-width="0.476"/>
    <path id="Trazado_890033" data-name="Trazado 890033" d="M387.991,226.836a3.6,3.6,0,0,0,2.831.322" transform="translate(29.321 17.142)" fill="none" stroke="#333842" stroke-linecap="round" stroke-miterlimit="10" stroke-width="0.476"/>
    <path id="Trazado_890034" data-name="Trazado 890034" d="M392.154,218.639a3.979,3.979,0,0,1,2.306.432" transform="translate(29.635 16.521)" fill="none" stroke="#333842" stroke-linecap="round" stroke-miterlimit="10" stroke-width="0.476"/>
    <path id="Trazado_890035" data-name="Trazado 890035" d="M392.954,221.581a.706.706,0,1,1-.706-.707.706.706,0,0,1,.706.707" transform="translate(29.589 16.692)" fill="#333842"/>
    <path id="Trazado_890036" data-name="Trazado 890036" d="M387.176,221.275a.706.706,0,1,1-.706-.706.705.705,0,0,1,.706.706" transform="translate(29.152 16.668)" fill="#333842"/>
    <path id="Trazado_890037" data-name="Trazado 890037" d="M388.792,225.368c-.651-.1-1.577-.57-1.226-1.35a2.986,2.986,0,0,1,.383-.56,4.147,4.147,0,0,0,.8-1.926" transform="translate(29.283 16.741)" fill="none" stroke="#333842" stroke-linecap="round" stroke-miterlimit="10" stroke-width="0.476"/>
    <rect id="Rectángulo_404637" data-name="Rectángulo 404637" width="22.061" height="30.041" transform="translate(67.062 289.951)" fill="#ffb861"/>
    <path id="Trazado_890038" data-name="Trazado 890038" d="M66.236,282.765a5.5,5.5,0,1,1-5.5-5.5,5.5,5.5,0,0,1,5.5,5.5" transform="translate(4.175 20.953)" fill="#f7b699"/>
    <path id="Trazado_890039" data-name="Trazado 890039" d="M79.132,284.432a5.5,5.5,0,1,0,5.753-5.226,5.5,5.5,0,0,0-5.753,5.226" transform="translate(5.98 21.099)" fill="#f7b699"/>
    <path id="Trazado_890040" data-name="Trazado 890040" d="M43.12,412.184a25.364,25.364,0,0,0-1.513-5.006,12.649,12.649,0,0,1-2.818-2.566,4.013,4.013,0,0,0-1.255-1.265,2.434,2.434,0,0,0-1.209-.111c-2.2.168-4.406.274-6.608.378a29.43,29.43,0,0,1-.379,5.457c-.119.627-.572,2.625-.209,3.461Z" transform="translate(2.191 30.471)" fill="#333842"/>
    <path id="Trazado_890041" data-name="Trazado 890041" d="M57.824,296.039l-.071-.082A10.486,10.486,0,0,0,46.83,292.77c-9.96,3.217-9.591,18.631-10.406,27.7q-1.294,14.381-2.717,28.749c-1.8,18.2-2.67,44.714-4.784,62.87a12.126,12.126,0,0,0,4.8,1.043c3.042.3,4.044,0,5.016-.786,2.544-16.525,8.676-41.038,11.633-57.477,1.555-8.642,2.751-12.83,4.42-21.446,1.247-6.434,1.61-13.05,3.162-19.419.707-2.9,2.589-5.647,2.844-8.527a13.094,13.094,0,0,0-2.978-9.434" transform="translate(2.186 22.09)" fill="#4f5d7a"/>
    <line id="Línea_582" data-name="Línea 582" x1="3.846" y1="0.76" transform="translate(46.105 389.092)" fill="none" stroke="#333842" stroke-linecap="round" stroke-linejoin="round" stroke-width="0.75"/>
    <line id="Línea_583" data-name="Línea 583" x1="4.548" y2="2.248" transform="translate(45.363 389.842)" fill="none" stroke="#333842" stroke-linecap="round" stroke-linejoin="round" stroke-width="0.75"/>
    <path id="Trazado_890042" data-name="Trazado 890042" d="M58.535,412.23a1.347,1.347,0,0,0,.167.033c.441,0,.884,0,1.326.008.113,0,.224,0,.333.009.528.014,1.056.032,1.584.061,4.118.223,8.34.855,12.4.84a11.044,11.044,0,0,0,4.18-.616c3.285-1.378-.8-2.974-2.134-3.692a44.89,44.89,0,0,0-4.11-2.089,31.083,31.083,0,0,1-5.439-2.946,25.277,25.277,0,0,1-7.205.877c-1.243-.029-2.917,6.98-1.1,7.516" transform="translate(4.363 30.518)" fill="#333842"/>
    <path id="Trazado_890043" data-name="Trazado 890043" d="M68.864,313.673c-.684-4.032-4.061-17.914-8.678-18.558a10.1,10.1,0,0,0-8.9,3.373,14.722,14.722,0,0,0-2.717,7.286c-.542,4.438-.116,9.133.167,13.584.447,7.06,2.209,20.372,2.209,20.372s8.432,58.484,8.28,72.975c2.76,3.638,10.63-.015,10.654-.439.647-11.423-.013-37.2-.011-46.033,0-9.5.589-43.156-1.006-52.561" transform="translate(3.651 22.296)" fill="#6c7995"/>
    <path id="Trazado_890044" data-name="Trazado 890044" d="M50.411,334.776q-1.012-10.724-2.024-21.447" transform="translate(3.657 23.678)" fill="none" stroke="#333842" stroke-miterlimit="10" stroke-width="0.75"/>
    <path id="Trazado_890045" data-name="Trazado 890045" d="M42.127,319.648a62.149,62.149,0,0,0,9.752,1.86A42.288,42.288,0,0,0,70.33,319.1c-.145-2.121-.324-3.911-.545-5.221-.684-4.031-4.061-17.913-8.678-18.558a10.19,10.19,0,0,0-4.174.346,10.462,10.462,0,0,0-10.648-2.9c-8.815,2.848-9.538,15.248-10.153,24.346a20.707,20.707,0,0,0,6,2.533" transform="translate(2.73 22.09)" fill="#3c4966"/>
    <path id="Trazado_890046" data-name="Trazado 890046" d="M58.567,243.708c.045.407.073.81.094,1.2l.248,4.641a42.652,42.652,0,0,1,.25,4.766c-.139,2.223-.614,4.355-2.687,5.441a4.955,4.955,0,0,1-4.127.018,4.6,4.6,0,0,1-2.686-2.249,6.912,6.912,0,0,1-.257-2.336c.014-2.584-.044-5.169.06-7.751.068-1.662-.054-3.455.66-4.991.981-2.106,3.5-4.173,5.835-3.253,1.839.724,2.4,2.66,2.609,4.516" transform="translate(3.733 18.059)" fill="#f7b699"/>
    <path id="Trazado_890047" data-name="Trazado 890047" d="M63.285,241.066l.019-.029c-.069-.091-.131-.171-.186-.237-.393-.656-.687-1.409-1.023-2.088a5.5,5.5,0,0,1-.338.513,3.713,3.713,0,0,0-.181.883,9.306,9.306,0,0,0-.08,1.871,1.22,1.22,0,0,0,.184.673c.331.44,1.488.037,1.941-.029.15-.023.327-.065.379-.208.155-.428-.459-1.01-.716-1.351" transform="translate(4.646 18.04)" fill="#f7b699"/>
    <path id="Trazado_890048" data-name="Trazado 890048" d="M49.062,232.715a12.689,12.689,0,0,1,7.055-2.143c3.227-.047,5.014,1.312,5.753,3.17a24.493,24.493,0,0,1,1.6,8.981,33.087,33.087,0,0,1-.313,4.578,2.713,2.713,0,0,1-2.332,2.658,27.6,27.6,0,0,1-4.23.368,13.674,13.674,0,0,1-3.986-.227c-2.076-.634-3.276-2.682-3.985-4.6-.2-.529-.595-2.28-.722-2.822-.775-3.329-.151-9.023,1.155-9.965" transform="translate(3.595 17.424)" fill="#f7b699"/>
    <path id="Trazado_890049" data-name="Trazado 890049" d="M60.057,228.878a4,4,0,0,0-3.635-2.425" transform="translate(4.264 17.113)" fill="none" stroke="#333842" stroke-linecap="round" stroke-linejoin="round" stroke-width="0.75"/>
    <path id="Trazado_890050" data-name="Trazado 890050" d="M61.163,228.555a.927.927,0,0,0-1.168.305" transform="translate(4.534 17.265)" fill="none" stroke="#333842" stroke-linecap="round" stroke-linejoin="round" stroke-width="0.75"/>
    <path id="Trazado_890051" data-name="Trazado 890051" d="M56.443,247.48a.53.53,0,0,0,.307-.167c.2-.261.152-1.18.2-1.519q.189-1.467.379-2.934c.079-.615.012-1.137.52-1.524a2.679,2.679,0,0,1,1.614-.486c2.017-.006,2.534.23,2.239-1.949a9.8,9.8,0,0,1-.189-3.141,2.062,2.062,0,0,1,.682-1.249c.629-.726,1.318-.969,1.485-1.785a7.869,7.869,0,0,0-9.942-5.45,15.292,15.292,0,0,0-5.789,2.535,6,6,0,0,0-1.719,2.16,1.366,1.366,0,0,0-.161.666,1.41,1.41,0,0,0,.136.5c-1.239,1.9-.478,4.431-.1,6.48a19.778,19.778,0,0,0,1.272,4.179c.285.672.6,1.329.95,1.972.14.26.822,1.824,1.027,1.833a55.091,55.091,0,0,0,6.193-.067,5.809,5.809,0,0,0,.9-.052" transform="translate(3.44 17.152)" fill="#333842"/>
    <path id="Trazado_890052" data-name="Trazado 890052" d="M57.338,242.064a1.749,1.749,0,0,0,2.791.051,2.9,2.9,0,0,0,.485-1.6,3.288,3.288,0,0,0-.207-1.483,2.049,2.049,0,0,0-1.518-1.145c-2.22-.469-2.685,2.9-1.552,4.178" transform="translate(4.288 17.974)" fill="#f7b699"/>
    <path id="Trazado_890053" data-name="Trazado 890053" d="M58.163,239.213a.509.509,0,0,1,.707-.3,1.207,1.207,0,0,1,.554.668,4.321,4.321,0,0,1,.35,1.429.5.5,0,1,0-.326.954" transform="translate(4.395 18.051)" fill="none" stroke="#333842" stroke-linecap="round" stroke-miterlimit="10" stroke-width="0.476"/>
    <path id="Trazado_890054" data-name="Trazado 890054" d="M60.984,236.461a3.575,3.575,0,0,1,1.642-.256" transform="translate(4.609 17.849)" fill="none" stroke="#333842" stroke-linecap="round" stroke-miterlimit="10" stroke-width="0.476"/>
    <path id="Trazado_890055" data-name="Trazado 890055" d="M62.642,238.749a.706.706,0,1,1-.784-.618.706.706,0,0,1,.784.618" transform="translate(4.628 17.995)" fill="#333842"/>
    <path id="Trazado_890056" data-name="Trazado 890056" d="M61.019,244.316c.255-.005.823-.072,1.065-.1" transform="translate(4.611 18.455)" fill="none" stroke="#333842" stroke-linecap="round" stroke-miterlimit="10" stroke-width="0.476"/>
    <path id="Trazado_890057" data-name="Trazado 890057" d="M43.916,292.414H37.142a6.958,6.958,0,0,1,0-13.916h6.774a6.958,6.958,0,0,1,0,13.916" transform="translate(2.281 21.046)" fill="#3d434f"/>
    <path id="Trazado_890058" data-name="Trazado 890058" d="M40.148,258.111c-5.12,5.952-9.777,18.955-10.262,26.709a8.479,8.479,0,0,0,1.364,5.5,5.161,5.161,0,0,0,5.016,2.182c2-.411,3.408-2.182,4.421-3.953,1.64-2.872,4.029-10.13,4.676-13.26.725-3.51,2.306-6.813,2.935-10.4.39-2.23,2.482-12.691-2.62-11.318a6.317,6.317,0,0,0-2.3,1.355,26.963,26.963,0,0,0-3.233,3.179" transform="translate(2.257 19.153)" fill="#4f5d7a"/>
    <path id="Trazado_890059" data-name="Trazado 890059" d="M47.36,253.055l1.9-3.007,10.209-.317,2.454,3.483Z" transform="translate(3.579 18.872)" fill="#fff"/>
    <path id="Trazado_890060" data-name="Trazado 890060" d="M70.413,297.743l-2.069-40.431c-.293,0,.022-3.123-.981-3.724-1.422-.852-5.3-1.456-6.389-1.667l-10.734.1a28.839,28.839,0,0,0-4.694,1.18,5.034,5.034,0,0,0-3.477,4.183l-1.494,20.669-2.053,19.344L33.678,312a24.4,24.4,0,0,0,6.051,4.359c.68.345,1.376.65,2.077.935,0,0,9.921,3.991,19.168,1.941,1.731-.225,3.441-.531,5.111-.907,3.576-.8,4.284-1.323,7.708-2.758Z" transform="translate(2.545 19.038)" fill="#6c7995"/>
    <path id="Trazado_890061" data-name="Trazado 890061" d="M80.636,292.414H73.861a6.958,6.958,0,0,1,0-13.916h6.775a6.958,6.958,0,0,1,0,13.916" transform="translate(5.056 21.046)" fill="#6c7995"/>
    <path id="Trazado_890062" data-name="Trazado 890062" d="M70.345,258.758c2.572,3.788,4.1,8.765,5.677,13.046,1.557,4.239,4.223,9.786,4.121,14.373a5.753,5.753,0,0,1-2.092,4.5,6.22,6.22,0,0,1-5.126.763c-5.147-1.224-6.573-5.622-8.183-9.979A59.849,59.849,0,0,1,61.1,264.581c-.133-2.319-1.025-13.232,4.082-11.162a6.669,6.669,0,0,1,2.209,1.68,28.2,28.2,0,0,1,2.956,3.66" transform="translate(4.606 19.131)" fill="#6c7995"/>
    <path id="Trazado_890063" data-name="Trazado 890063" d="M67.876,286.748a62.608,62.608,0,0,1-5.269-13.872" transform="translate(4.731 20.621)" fill="none" stroke="#333842" stroke-miterlimit="10" stroke-width="0.299"/>
    <path id="Trazado_890064" data-name="Trazado 890064" d="M63.642,276.516,61.9,273.74" transform="translate(4.678 20.687)" fill="none" stroke="#333842" stroke-miterlimit="10" stroke-width="0.299"/>
    <path id="Trazado_890065" data-name="Trazado 890065" d="M322.754,311.6c-9.39,1.855-9.646,12.646-8.829,20.37,1.723,16.312,6.464,54.93,6.464,54.93l9.027,47.378,6.31.352-3.35-47.94s1.6-34.926,3.206-47.092c2.6-17.039-.352-30.463-12.828-28" transform="translate(23.701 23.526)" fill="#4f5d7a"/>
    <path id="Trazado_890066" data-name="Trazado 890066" d="M335.657,424.486a25.37,25.37,0,0,1-6.809-.06h-.01a1.425,1.425,0,0,0-1.378.643c-.181.28-.356.541-.529.759A6.188,6.188,0,0,1,323.325,428c-.051.018-.095.046-.147.063-1.712.214-3.275,1.09-3.47,2.728H335.49a11.325,11.325,0,0,0,.167-6.3" transform="translate(24.16 32.073)" fill="#628aec"/>
    <rect id="Rectángulo_404638" data-name="Rectángulo 404638" width="16.074" height="2.074" transform="translate(343.864 462.618)" fill="#333842"/>
    <path id="Trazado_890067" data-name="Trazado 890067" d="M325.056,311.841c-9.555-.549-12.5,9.835-13.638,17.518-2.406,16.226-6.342,54.966-6.342,54.966l3.481,49.972,6.584-.258,3.678-49.449s7.071-31.054,11.665-42.433c6.775-15.85,7.27-29.586-5.427-30.315" transform="translate(23.055 23.564)" fill="#616e87"/>
    <path id="Trazado_890068" data-name="Trazado 890068" d="M316.538,424.489a25.37,25.37,0,0,1-6.809-.06,2.054,2.054,0,0,0-1.8.372,27.379,27.379,0,0,1-8.629,3.008c-1.6.3-3.321.46-4.592,1.477a1.9,1.9,0,0,0-.777,1.508h22.44a11.325,11.325,0,0,0,.167-6.3" transform="translate(22.212 32.07)" fill="#628aec"/>
    <rect id="Rectángulo_404639" data-name="Rectángulo 404639" width="22.919" height="2.074" transform="translate(315.619 462.618)" fill="#333842"/>
    <path id="Trazado_890069" data-name="Trazado 890069" d="M324.9,263.673a13.04,13.04,0,0,0-.228-3.207,8.381,8.381,0,0,0,4.9.141,14.012,14.012,0,0,0,2.324-.889c.267-.124.75-.517,1.194-.765-.977,3.6-.9,7.363,1.332,10.461A12.361,12.361,0,0,1,328.351,272c-1.884.322-6.392.621-5.308-2.55.354-1.039,1.115-1.836,1.415-2.912a13.065,13.065,0,0,0,.444-2.861" transform="translate(24.4 19.569)" fill="#f7b699"/>
    <path id="Trazado_890070" data-name="Trazado 890070" d="M329.163,260.571a8.344,8.344,0,0,1-4.593-.213,13.593,13.593,0,0,1-.215,6.069c-.027.1-.061.188-.1.282.186-.023.372-.055.558-.091a11.2,11.2,0,0,0,4.345-6.047" transform="translate(24.504 19.675)" fill="#c46e58"/>
    <path id="Trazado_890071" data-name="Trazado 890071" d="M320.6,257.258a2.207,2.207,0,0,0,.384.054c.4.016.35-.479.327-.766-.059-.757-.06-1.549-.186-2.3a7.541,7.541,0,0,0-.611.945c-.294.412-.593.821-.889,1.23a.424.424,0,0,0-.092.185c-.023.163.14.288.287.361a3.547,3.547,0,0,0,.781.286" transform="translate(24.147 19.214)" fill="#f7b699"/>
    <path id="Trazado_890072" data-name="Trazado 890072" d="M334.71,257.657a11.8,11.8,0,0,0,.969-4.962,8.4,8.4,0,0,0-1.832-5.1,7.416,7.416,0,0,0-7.245-2.427,7.037,7.037,0,0,0-1.908.766c-1.453.845-3.14,2.544-3.379,4.3-.054.394.027.77-.048,1.168-.112.592-.238,1.178-.329,1.773a18.087,18.087,0,0,0-.229,3.583,11.846,11.846,0,0,0,.788,4.113,5.329,5.329,0,0,0,2.492,2.719,6.226,6.226,0,0,0,6.288-.536,12.333,12.333,0,0,0,4.434-5.4" transform="translate(24.235 18.514)" fill="#f7b699"/>
    <path id="Trazado_890073" data-name="Trazado 890073" d="M321.234,258.461l.824.366" transform="translate(24.276 19.532)" fill="none" stroke="#333842" stroke-linecap="round" stroke-miterlimit="10" stroke-width="0.483"/>
    <path id="Trazado_890074" data-name="Trazado 890074" d="M298.841,280.974a2.083,2.083,0,0,1,1.333-1.55c.7-.242,1.875-.244,2.106-.943.115-.351.231-.482-.051-.721a1.739,1.739,0,0,0-1.025-.358,3.057,3.057,0,0,0-2.814,1.563c-.166.307-.406.708-.739.61a.566.566,0,0,1-.326-.35c-.394-.922.151-1.953.678-2.806a4.743,4.743,0,0,1,1.543-1.757,4.57,4.57,0,0,1,2.59-.347,9.851,9.851,0,0,1,5.155,1.318c.395.279.755.6,1.149.881a12.624,12.624,0,0,0,3.379,1.51l-1.1,3.819a.284.284,0,0,1-.1.173.279.279,0,0,1-.211,0c-2.163-.528-4.659-.97-6.828-1.31a16.24,16.24,0,0,0-4.739.265" transform="translate(22.459 20.727)" fill="#f7b699"/>
    <path id="Trazado_890075" data-name="Trazado 890075" d="M324.369,281.222a34.258,34.258,0,0,0-3.588-1.438c-2.143-.735-4.4-1.336-6.55-1.9-.815-.216-3.94-1-4.779-1.134-2.343,1.907-3,3.183-3,6a127.88,127.88,0,0,0,11.2,6.333,32.834,32.834,0,0,0,4.714,1.991,10.728,10.728,0,0,0,5.28.346,3.4,3.4,0,0,0,2.189-1.251,2.305,2.305,0,0,0,.263-1.314c-.1-3.051-2.324-6.016-5.721-7.63" transform="translate(23.158 20.914)" fill="#628aec"/>
    <path id="Trazado_890076" data-name="Trazado 890076" d="M285.322,293.386a6.527,6.527,0,0,1-.461-5.47,2.393,2.393,0,0,1,1.344-1.52,2.1,2.1,0,0,1,2.184.9,9.939,9.939,0,0,1,1.069,2.275,10.649,10.649,0,0,0,1.361,2.353,5.976,5.976,0,0,1,1.435,2.4,2.356,2.356,0,0,1-.655,2.056c-1.981,1.953-5.317-1.294-6.277-3" transform="translate(21.497 21.638)" fill="#f7b699"/>
    <path id="Trazado_890077" data-name="Trazado 890077" d="M307.983,292.784,296,298.592,280.152,284.2l11.981-5.808Z" transform="translate(21.171 21.039)" fill="#f4ae2d"/>
    <path id="Trazado_890078" data-name="Trazado 890078" d="M305.892,292.089l-10.29,4.987-13.694-12.43,10.29-4.987Z" transform="translate(21.304 21.134)" fill="#fff"/>
    <path id="Trazado_890079" data-name="Trazado 890079" d="M293.588,282.156l-8.552,4.145-.834-.757,8.551-4.145Z" transform="translate(21.477 21.265)" fill="#c8ddf7"/>
    <path id="Trazado_890080" data-name="Trazado 890080" d="M297.65,285.843l-8.552,4.145-.834-.757,8.551-4.145Z" transform="translate(21.784 21.544)" fill="#c8ddf7"/>
    <path id="Trazado_890081" data-name="Trazado 890081" d="M299,287.065l-8.552,4.145-.834-.757,8.551-4.145Z" transform="translate(21.886 21.636)" fill="#c8ddf7"/>
    <path id="Trazado_890082" data-name="Trazado 890082" d="M300.341,288.286l-8.552,4.145-.834-.757,8.551-4.145Z" transform="translate(21.988 21.729)" fill="#c8ddf7"/>
    <path id="Trazado_890083" data-name="Trazado 890083" d="M301.686,289.507l-8.552,4.145-.834-.757,8.552-4.145Z" transform="translate(22.089 21.821)" fill="#c8ddf7"/>
    <path id="Trazado_890084" data-name="Trazado 890084" d="M303.032,290.729l-8.552,4.145-.834-.757,8.551-4.145Z" transform="translate(22.191 21.913)" fill="#c8ddf7"/>
    <path id="Trazado_890085" data-name="Trazado 890085" d="M291.72,280.941l-7.189,3.485-3.058-2.777,7.188-3.484Z" transform="translate(21.271 21.021)" fill="#333842"/>
    <path id="Trazado_890086" data-name="Trazado 890086" d="M286.456,292.037a3.548,3.548,0,0,0-.327.444c-.906,1.455.848,2.807,1.963,3.592,2.534,1.783,5.63,2.636,8.567,3.492,1.659.483,6.462-.7,5.136-3.306-.906-1.779-3.586-2.8-5.348-3.279-1.83-.342-3.392-1.1-4.079-2.958-.3-.824-.428-1.7-.7-2.542a1.242,1.242,0,0,0-.306-.563.478.478,0,0,0-.593-.066.668.668,0,0,0-.187.31c-.512,1.431.408,2.49-1.354,3.33-.585.279-1.227.432-1.794.745a3.6,3.6,0,0,0-.983.8" transform="translate(21.604 21.672)" fill="#f7b699"/>
    <path id="Trazado_890087" data-name="Trazado 890087" d="M337.721,328.763s.408-.166.718-.316c1.711-.88,2.289-3.107,2.459-5.071.389-4.509-1.043-8.753-.869-13.52.184-5.044,1.362-10.231,2.073-15.66a43.356,43.356,0,0,0-.2-14.728c-.795-3.643-1.884-7.691-4.108-10.536-1.076-1.376-3.026-1.922-4.528-2.286a10.871,10.871,0,0,0-5.716.153,13.231,13.231,0,0,0-6.414,4.512c-1.325,1.662-1.982,4.482-2.658,6.6a77.781,77.781,0,0,0-3.143,14.442c-.589,4.987.128,3.389-.127,8.294s1.159,8.812-1.362,12.9c-1.327,2.151-3.015,4.024-3.856,6.361-.826,2.293-.559,5.3,1.381,6.784-.111.873-.244,1.739-.323,2.6,3.9,1.9,9.071,2.31,13.244,2.688a67.413,67.413,0,0,0,11.481.052,8.287,8.287,0,0,0,1.964-.232Z" transform="translate(23.393 20.127)" fill="#628aec"/>
    <path id="Trazado_890088" data-name="Trazado 890088" d="M336.692,324.491a52.261,52.261,0,0,1-16.464-.736" transform="translate(24.2 24.466)" fill="none" stroke="#333842" stroke-linecap="round" stroke-miterlimit="10" stroke-width="0.292"/>
    <path id="Trazado_890089" data-name="Trazado 890089" d="M327.676,281.616a3.485,3.485,0,0,0-1.091-1.362,3.012,3.012,0,0,0-1.8-.414c-2.741.122-4.91,2.36-6.374,4.68s-2.593,4.941-4.68,6.722c-3.643,3.108-15.912,2.221-19.986,1.314a4.366,4.366,0,0,0-3.3,5.922c5.464,2.4,21.935,11.159,27.9,8.32a12.455,12.455,0,0,0,4.9-4.66,38.277,38.277,0,0,0,1.992-3.515,34.131,34.131,0,0,0,3.289-8.284,13.131,13.131,0,0,0-.849-8.723" transform="translate(21.923 21.147)" fill="#628aec"/>
    <path id="Trazado_890090" data-name="Trazado 890090" d="M328.461,272.435a5.774,5.774,0,0,0-7.137-.766c-1.285.806-1.937,2.47-2.6,3.79a36.672,36.672,0,0,0-2.07,5.012c-.584,1.778-1.033,3.6-1.58,5.388-.9,2.932-2.068,5.787-2.742,8.779a15.533,15.533,0,0,0,.307,9.058c1.608,4.074,6.97,1.91,9.36-.357,2.058-1.952,3.044-4.748,3.96-7.432l2.762-8.089a31.894,31.894,0,0,0,1.827-8.2c.149-2.694-.325-5.307-2.086-7.18" transform="translate(23.563 20.463)" fill="#628aec"/>
    <path id="Trazado_890091" data-name="Trazado 890091" d="M313.7,290.542c1-6.025,3.882-13.091,6.738-18.49" transform="translate(23.706 20.559)" fill="none" stroke="#333842" stroke-miterlimit="10" stroke-width="0.292"/>
    <path id="Trazado_890092" data-name="Trazado 890092" d="M330.262,283.3l-3.53,9.5c-.845,2.275-1.648,5.181-3.25,7.057a37.547,37.547,0,0,1-5.04,5.448,7.376,7.376,0,0,1-5.93,1.7" transform="translate(23.617 21.409)" fill="none" stroke="#333842" stroke-linecap="round" stroke-miterlimit="10" stroke-width="0.292"/>
    <path id="Trazado_890093" data-name="Trazado 890093" d="M330.383,284.082a6.652,6.652,0,0,0-2.528,2.577" transform="translate(24.776 21.468)" fill="none" stroke="#333842" stroke-miterlimit="10" stroke-width="0.292"/>
    <path id="Trazado_890094" data-name="Trazado 890094" d="M296.01,283.472l-1.412.766.716-1.438,8.517-8.82a.483.483,0,0,1,.7.671Z" transform="translate(22.263 20.694)" fill="#333842"/>
    <path id="Trazado_890095" data-name="Trazado 890095" d="M321.723,256.1a8.087,8.087,0,0,1-1.27-1.245c-2.363-2.967-.833-6.25,1.059-8.891a11.506,11.506,0,0,1,9.665-4.356,7.946,7.946,0,0,1,5.374,2.226,4.734,4.734,0,0,1,1.363,2.337c.062.281.262,2.488-.194,2.533,3.49-.345,3.315,7.247,3.282,9.326q-.127,7.964-.254,15.928c-.03,1.912-.113,3.977-1.3,5.479a5.265,5.265,0,0,1-5.11,1.7,7.9,7.9,0,0,1-4.6-3.091c-.968-1.279-2.138-3.19-2.169-4.842-.033-1.853.217-3.766.212-5.638-.01-3.245-.644-6.72-2.94-9.013a37.829,37.829,0,0,0-3.12-2.448" transform="translate(24.126 18.257)" fill="#333842"/>
  </g>
</svg>
