<svg xmlns="http://www.w3.org/2000/svg" xmlns:xlink="http://www.w3.org/1999/xlink" width="504.811" height="505.587" viewBox="0 0 504.811 505.587">
  <defs>
    <clipPath id="clip-path">
      <rect id="Rectángulo_404558" data-name="Rectángulo 404558" width="504.811" height="505.587" fill="none"/>
    </clipPath>
    <clipPath id="clip-path-2">
      <rect id="Rectángulo_404588" data-name="Rectángulo 404588" width="114.295" height="96.931" fill="none"/>
    </clipPath>
    <clipPath id="clip-path-3">
      <rect id="Rectángulo_404587" data-name="Rectángulo 404587" width="114.296" height="96.93" fill="none"/>
    </clipPath>
    <clipPath id="clip-path-4">
      <rect id="Rectángulo_404565" data-name="Rectángulo 404565" width="32.952" height="29.414" fill="none"/>
    </clipPath>
    <clipPath id="clip-path-5">
      <rect id="Rectángulo_404567" data-name="Rectángulo 404567" width="27.073" height="21.609" fill="none"/>
    </clipPath>
    <clipPath id="clip-path-6">
      <rect id="Rectángulo_404573" data-name="Rectángulo 404573" width="33.947" height="24.837" fill="none"/>
    </clipPath>
    <clipPath id="clip-path-7">
      <rect id="Rectángulo_404575" data-name="Rectángulo 404575" width="29.978" height="15.907" fill="none"/>
    </clipPath>
    <clipPath id="clip-path-8">
      <rect id="Rectángulo_404581" data-name="Rectángulo 404581" width="31.239" height="13.296" fill="none"/>
    </clipPath>
    <clipPath id="clip-path-9">
      <rect id="Rectángulo_404583" data-name="Rectángulo 404583" width="31.239" height="3.524" fill="none"/>
    </clipPath>
    <clipPath id="clip-path-10">
      <rect id="Rectángulo_404584" data-name="Rectángulo 404584" width="23.072" height="23.072" fill="none"/>
    </clipPath>
  </defs>
  <g id="Grupo_1106206" data-name="Grupo 1106206" transform="translate(-537.5 -2636)">
    <g id="Grupo_1106180" data-name="Grupo 1106180" transform="translate(537.5 2636)" clip-path="url(#clip-path)">
      <path id="Trazado_889901" data-name="Trazado 889901" d="M240.273,463.82c-3.291,0-6.627-.073-9.919-.221l.114-2.533c6.471.286,13.033.288,19.51,0l.112,2.533c-3.256.145-6.56.217-9.816.217m0-63.366c-3.549,0-7.137-.122-10.663-.363l.174-2.53a154.783,154.783,0,0,0,20.171.054l.158,2.53c-3.253.2-6.564.308-9.84.308M421.61,366.943l-2.1-1.415a216.827,216.827,0,0,0,13.249-22.561l2.26,1.148a219.62,219.62,0,0,1-13.4,22.827m-363.141-.7a219.242,219.242,0,0,1-13.023-22.3l2.26-1.146a217.292,217.292,0,0,0,12.873,22.04ZM367.329,334.1l-2.078-1.454a152.882,152.882,0,0,0,12.171-20.7l2.28,1.109A155.631,155.631,0,0,1,367.329,334.1m-254.215-.151a155.611,155.611,0,0,1-12.282-20.919l2.28-1.109a152.917,152.917,0,0,0,12.08,20.578Zm-9.544-155.754-2.273-1.124a155.927,155.927,0,0,1,12.423-20.833l2.07,1.464a153.152,153.152,0,0,0-12.22,20.493m273.256-.3a152.985,152.985,0,0,0-11.661-19.612l2.076-1.454A155.652,155.652,0,0,1,379.1,176.759Zm55.384-30.878a217.057,217.057,0,0,0-12.756-21.573l2.1-1.415a219.727,219.727,0,0,1,12.905,21.827ZM48.863,146l-2.247-1.174a219.544,219.544,0,0,1,12.241-20.6l2.1,1.412A217.026,217.026,0,0,0,48.863,146M230.157,93.456l-.166-2.53a157.649,157.649,0,0,1,20.121-.028l-.158,2.53a154.9,154.9,0,0,0-19.8.028m-.385-63.446-.122-2.533c6.739-.325,13.663-.338,20.43-.038l-.112,2.533c-6.692-.3-13.534-.284-20.2.038" transform="translate(12.162 7.285)" fill="#5b5a61"/>
      <path id="Trazado_889902" data-name="Trazado 889902" d="M301.787,166.111,263.6,187.7s17.56,32.078,1.842,72.372l36.71,20.614,27.65,15.527a22.738,22.738,0,0,1,34.986,19.645l39.533,22.2c64.8-115.392-.169-229.829-.169-229.829L374.637,124.92l-9.862,5.576a22.716,22.716,0,0,1-33.915,19.175Z" transform="translate(70.54 28.963)" fill="#6edefb"/>
      <path id="Trazado_889903" data-name="Trazado 889903" d="M405.163,340.151l-41.3-23.191.015-.761a21.468,21.468,0,0,0-33.036-18.549l-.64.407-65.983-37.052.4-1.025c15.308-39.239-1.6-70.99-1.772-71.305l-.6-1.1,68.972-39,.625.352a21.447,21.447,0,0,0,32.021-18.108l.02-.716,41.1-23.239.625,1.1c.164.288,16.438,29.287,24.526,72.033,7.466,39.469,9.3,99.1-24.356,159.042Zm-38.744-24.665L404.192,336.7c32.626-58.869,30.8-117.342,23.474-156.133-7.115-37.682-20.64-64.556-23.652-70.229l-37.641,21.283a23.983,23.983,0,0,1-35.139,19.87l-65.6,37.091c2.863,6.025,15.233,35.564,1.747,71.292l62.757,35.239a24,24,0,0,1,36.285,20.375" transform="translate(70.179 28.599)" fill="#00a1cb"/>
      <path id="Trazado_889904" data-name="Trazado 889904" d="M170.419,187.7l-40.38-22.832-27.259-15.411a22.742,22.742,0,0,1-34.313-19.4l-38.6-21.824S-35.1,222.667,29.7,338.06l38.8-21.789a22.741,22.741,0,0,1,35.323-19.834l22.84-12.826,41.915-23.536c-15.72-40.3,1.841-72.374,1.841-72.374" transform="translate(0.253 28.963)" fill="#ffd263"/>
      <path id="Trazado_889905" data-name="Trazado 889905" d="M29.468,340.151l-.621-1.105C-4.812,279.105-2.976,219.472,4.492,180c8.087-42.745,24.361-71.744,24.524-72.031l.625-1.1,40.34,22.808.008.731a21.472,21.472,0,0,0,32.4,18.321l.63-.37,69.362,39.218-.6,1.1c-.172.316-17.078,32.067-1.772,71.305l.4,1.025-66.39,37.28-.646-.427a21.474,21.474,0,0,0-33.356,18.73l.029.773Zm1.151-229.816c-3.012,5.673-16.537,32.547-23.652,70.229C-.359,219.353-2.187,277.828,30.439,336.7L67.47,315.9a24.008,24.008,0,0,1,36.649-20.58l63.137-35.454c-13.486-35.729-1.117-65.268,1.747-71.292l-65.967-37.3a24,24,0,0,1-35.563-20.108Z" transform="translate(0 28.599)" fill="#ffbe1d"/>
      <path id="Trazado_889906" data-name="Trazado 889906" d="M171.171,243.013l-36.1,21.82h0l-1.194.724h0L105.079,283a22.717,22.717,0,0,1-29.6,17.926L33.06,326.614s67.974,112.675,200.314,112.675V392.438a22.748,22.748,0,0,1,0-39.656V280.054c-42.831-6.024-62.2-37.041-62.2-37.041" transform="translate(8.847 65.031)" fill="#0ed942"/>
      <path id="Trazado_889907" data-name="Trazado 889907" d="M235.009,440.922h-1.268c-68.746,0-119.841-30.8-150.6-56.634-33.311-27.981-50.628-56.37-50.8-56.654l-.654-1.083,44-26.649.556.184a21.445,21.445,0,0,0,27.949-16.928l.1-.578,67.66-40.933.662,1.058c.191.307,19.6,30.594,61.306,36.458l1.091.153v74.57l-.645.365a21.479,21.479,0,0,0,0,37.448l.644.365ZM35.188,327.4c3.471,5.4,20.282,30.354,49.653,55.009,30.236,25.38,80.327,55.6,147.633,55.979V393.531a24.014,24.014,0,0,1,0-41.111V281.514c-37.759-5.735-57.459-30.986-61.309-36.431L106.593,284.15A23.98,23.98,0,0,1,76.01,302.672Z" transform="translate(8.48 64.665)" fill="#0bb537"/>
      <path id="Trazado_889908" data-name="Trazado 889908" d="M364.687,300.837A22.7,22.7,0,0,1,334.735,282.7l-29.317-17.754-36.371-22.027s-19.373,31.017-62.2,37.041v71.707a22.753,22.753,0,0,1,0,41.969v45.6c132.339,0,200.313-112.675,200.313-112.675Z" transform="translate(55.352 65.005)" fill="#36d9cc"/>
      <path id="Trazado_889909" data-name="Trazado 889909" d="M207.112,440.864h-1.268V393.156l.776-.327a21.485,21.485,0,0,0,0-39.633l-.776-.327v-73.65l1.09-.153c41.708-5.865,61.114-36.152,61.306-36.458l.662-1.058,67.267,40.736.087.588A21.43,21.43,0,0,0,364.538,300l.564-.2,44.062,26.686-.653,1.082c-.171.284-17.488,28.672-50.8,56.654-30.76,25.835-81.857,56.633-150.6,56.633m1.268-46.039v43.5c67.3-.375,117.4-30.6,147.631-55.979,29.373-24.654,46.183-49.605,49.655-55.008L364.8,302.589a23.962,23.962,0,0,1-30.954-18.747l-64.16-38.855c-3.851,5.446-23.551,30.694-61.306,36.428V351.2a24.019,24.019,0,0,1,0,43.622" transform="translate(55.085 64.639)" fill="#00a799"/>
      <path id="Trazado_889910" data-name="Trazado 889910" d="M206.843,119.8v40.472c42.831,6.024,62.2,37.041,62.2,37.041l36.371-22.027,29.089-17.617a22.714,22.714,0,0,1,32.471-19.664l40.179-24.333S339.183,1,206.843,1V44.92a22.728,22.728,0,0,1,0,41.087v33.8" transform="translate(55.352 0.268)" fill="#ff8077"/>
      <path id="Trazado_889911" data-name="Trazado 889911" d="M268.9,199.316l-.663-1.06c-.193-.3-19.6-30.592-61.306-36.458l-1.09-.153V85.473l.723-.344a21.461,21.461,0,0,0,0-38.8l-.723-.344V0h1.268c68.743,0,119.841,30.8,150.6,56.635,33.311,27.98,50.628,56.369,50.8,56.653l.653,1.084L367.32,139.714l-.617-.293a21.446,21.446,0,0,0-30.661,18.569l-.027.682Zm-60.524-39.867c37.756,5.735,57.455,30.983,61.306,36.43L333.545,157.2a23.979,23.979,0,0,1,33.619-20.36l38.5-23.318c-3.472-5.4-20.282-30.354-49.655-55.009-30.236-25.38-80.327-55.6-147.631-55.979V44.4a23.992,23.992,0,0,1,0,42.657Z" transform="translate(55.085)" fill="#ff4437"/>
      <path id="Trazado_889912" data-name="Trazado 889912" d="M233.374,45.138V1C101.034,1,33.06,113.676,33.06,113.676l40.027,24.242a22.717,22.717,0,0,1,32.264,19.539l29.722,18,36.1,21.861s19.373-31.017,62.2-37.041V85.787a22.732,22.732,0,0,1,0-40.649" transform="translate(8.847 0.268)" fill="#fbc46e"/>
      <path id="Trazado_889913" data-name="Trazado 889913" d="M171.949,199.315l-67.463-40.856-.034-.673a21.449,21.449,0,0,0-30.466-18.45l-.611.283L31.689,114.372l.653-1.084c.171-.283,17.488-28.672,50.8-56.653C113.9,30.8,165,0,233.741,0h1.268V46.186l-.7.351a21.465,21.465,0,0,0,0,38.386l.7.351v76.373l-1.09.153c-41.708,5.865-61.115,36.152-61.306,36.458Zm-65.008-42.333,64.224,38.9c3.851-5.446,23.551-30.695,61.308-36.43V86.822a24,24,0,0,1,0-42.183V2.54c-67.3.375-117.4,30.6-147.633,55.979-29.37,24.654-46.181,49.605-49.652,55.009l38.356,23.23a23.981,23.981,0,0,1,33.4,20.225" transform="translate(8.48 0)" fill="#ff9c00"/>
      <path id="Trazado_889914" data-name="Trazado 889914" d="M216.066,295.449a79.417,79.417,0,1,1,79.417-79.418,79.507,79.507,0,0,1-79.417,79.418m0-156.3a76.882,76.882,0,1,0,76.881,76.881,76.969,76.969,0,0,0-76.881-76.881" transform="translate(36.568 36.558)" fill="#5b5a61"/>
      <path id="Trazado_889915" data-name="Trazado 889915" d="M281.629,213.617a67.978,67.978,0,1,1-67.979-67.979,67.979,67.979,0,0,1,67.979,67.979" transform="translate(38.982 38.973)" fill="#d9d9d9"/>
      <path id="Trazado_889916" data-name="Trazado 889916" d="M195.352,61.443a.615.615,0,0,1-.534-.331.776.776,0,0,1,.194-.987l9.117-6.6-9.117-6.6a.778.778,0,0,1-.194-.989.587.587,0,0,1,.87-.219l9.955,7.2a.774.774,0,0,1,0,1.208l-9.955,7.2a.568.568,0,0,1-.336.112" transform="translate(52.108 12.205)" fill="#ff9000" stroke="#ff9000" stroke-linecap="round" stroke-linejoin="round" stroke-width="2"/>
      <path id="Trazado_889917" data-name="Trazado 889917" d="M318.338,129.412a.616.616,0,0,1-.147-.61.777.777,0,0,1,.832-.569l11.126,1.7-1.867-11.1a.777.777,0,0,1,.556-.84.587.587,0,0,1,.773.454l2.038,12.114a.771.771,0,0,1-.848.861l-12.144-1.851a.579.579,0,0,1-.319-.157" transform="translate(85.142 31.567)" fill="#ff4437" stroke="#ff4437" stroke-linecap="round" stroke-linejoin="round" stroke-width="2"/>
      <path id="Trazado_889918" data-name="Trazado 889918" d="M321.218,265.725a.616.616,0,0,1,.51-.365.777.777,0,0,1,.84.556l2.614,10.947,9.581-5.906a.776.776,0,0,1,.987.2.587.587,0,0,1-.129.887l-10.459,6.446a.77.77,0,0,1-1.116-.461l-2.853-11.948a.57.57,0,0,1,.025-.355" transform="translate(85.948 71.01)" fill="#00a1cb" stroke="#00a1cb" stroke-linecap="round" stroke-linejoin="round" stroke-width="2"/>
      <path id="Trazado_889919" data-name="Trazado 889919" d="M64.812,126.161a.615.615,0,0,0-.013.627.777.777,0,0,0,.933.378l10.507-4.035.548,11.241a.776.776,0,0,0,.723.7.587.587,0,0,0,.659-.608l-.6-12.27a.772.772,0,0,0-1.012-.659l-11.468,4.4a.578.578,0,0,0-.279.222" transform="translate(17.319 32.511)" fill="#ffab00" stroke="#ffab00" stroke-linecap="round" stroke-linejoin="round" stroke-width="2"/>
      <path id="Trazado_889920" data-name="Trazado 889920" d="M67.856,280.349a.613.613,0,0,0,.507.369.777.777,0,0,0,.844-.549l2.7-10.926,9.531,5.984a.776.776,0,0,0,.989-.191.587.587,0,0,0-.122-.889l-10.4-6.531a.772.772,0,0,0-1.121.451l-2.951,11.926a.579.579,0,0,0,.023.355" transform="translate(18.148 71.587)" fill="#0bb537" stroke="#0bb537" stroke-linecap="round" stroke-linejoin="round" stroke-width="2"/>
      <path id="Trazado_889921" data-name="Trazado 889921" d="M205.939,338.959a.614.614,0,0,1,.536.323.776.776,0,0,1-.177.991L197.277,347l9.213,6.465a.778.778,0,0,1,.208.986.588.588,0,0,1-.867.232l-10.056-7.057a.772.772,0,0,1-.018-1.208l9.847-7.346a.571.571,0,0,1,.336-.117" transform="translate(52.31 90.706)" fill="#00a799" stroke="#00a799" stroke-linecap="round" stroke-linejoin="round" stroke-width="2"/>
    </g>
    <path id="Trazado_980107" data-name="Trazado 980107" d="M-48.961-4.945h-2.217V0h-2.783V-13.508h5.019a5.674,5.674,0,0,1,3.692,1.067,3.682,3.682,0,0,1,1.3,3.015,4.156,4.156,0,0,1-.6,2.305,4.081,4.081,0,0,1-1.814,1.47l2.922,5.52V0h-2.987ZM-51.178-7.2h2.245a2.3,2.3,0,0,0,1.624-.533,1.907,1.907,0,0,0,.575-1.47,2.041,2.041,0,0,0-.543-1.5,2.255,2.255,0,0,0-1.665-.547h-2.236ZM-37.392.186a4.928,4.928,0,0,1-3.595-1.354,4.815,4.815,0,0,1-1.387-3.609v-.26a6.064,6.064,0,0,1,.584-2.7,4.289,4.289,0,0,1,1.656-1.837,4.648,4.648,0,0,1,2.445-.645,4.166,4.166,0,0,1,3.242,1.3,5.278,5.278,0,0,1,1.183,3.683v1.095h-6.392a2.491,2.491,0,0,0,.784,1.577,2.37,2.37,0,0,0,1.656.594A2.894,2.894,0,0,0-34.795-3.1l1.317,1.475A4.025,4.025,0,0,1-35.11-.292,5.357,5.357,0,0,1-37.392.186ZM-37.7-8.062a1.675,1.675,0,0,0-1.294.54,2.8,2.8,0,0,0-.635,1.547H-35.9v-.214a2,2,0,0,0-.482-1.384A1.729,1.729,0,0,0-37.7-8.062Zm10.131,6.086a1.759,1.759,0,0,0,1.206-.408,1.43,1.43,0,0,0,.482-1.085h2.514A3.439,3.439,0,0,1-23.922-1.6a3.673,3.673,0,0,1-1.5,1.317,4.689,4.689,0,0,1-2.1.469,4.358,4.358,0,0,1-3.4-1.368A5.415,5.415,0,0,1-32.16-4.963V-5.14a5.353,5.353,0,0,1,1.234-3.7,4.307,4.307,0,0,1,3.386-1.382,4.222,4.222,0,0,1,3.02,1.072A3.794,3.794,0,0,1-23.365-6.3h-2.514a1.842,1.842,0,0,0-.482-1.273,1.608,1.608,0,0,0-1.225-.49A1.615,1.615,0,0,0-29-7.379a3.958,3.958,0,0,0-.478,2.216v.279a4.008,4.008,0,0,0,.473,2.23A1.635,1.635,0,0,0-27.568-1.976Zm5.316-3.136a5.953,5.953,0,0,1,.575-2.663,4.211,4.211,0,0,1,1.656-1.809,4.831,4.831,0,0,1,2.51-.64A4.571,4.571,0,0,1-14.194-8.98,4.989,4.989,0,0,1-12.761-5.6l.019.687a5.247,5.247,0,0,1-1.29,3.706,4.482,4.482,0,0,1-3.46,1.4,4.5,4.5,0,0,1-3.465-1.392,5.339,5.339,0,0,1-1.294-3.785Zm2.681.19a3.752,3.752,0,0,0,.538,2.188,1.775,1.775,0,0,0,1.54.757,1.779,1.779,0,0,0,1.521-.748,4.106,4.106,0,0,0,.547-2.393,3.715,3.715,0,0,0-.547-2.174,1.779,1.779,0,0,0-1.54-.771,1.75,1.75,0,0,0-1.521.767A4.175,4.175,0,0,0-19.571-4.921Zm17.516,0A6.02,6.02,0,0,1-3.108-1.211,3.376,3.376,0,0,1-5.951.186,3.127,3.127,0,0,1-8.41-.872V3.859h-2.681v-13.9H-8.6l.093.983A3.151,3.151,0,0,1-5.97-10.224,3.4,3.4,0,0,1-3.085-8.851a6.183,6.183,0,0,1,1.03,3.785Zm-2.681-.195a3.951,3.951,0,0,0-.5-2.162,1.617,1.617,0,0,0-1.443-.761,1.756,1.756,0,0,0-1.735.965v4.11a1.786,1.786,0,0,0,1.753.993Q-4.736-1.976-4.736-5.121ZM2.435,0H-.255V-10.038h2.69ZM-.413-12.636a1.32,1.32,0,0,1,.4-.993,1.516,1.516,0,0,1,1.1-.39,1.52,1.52,0,0,1,1.095.39,1.313,1.313,0,0,1,.408.993,1.316,1.316,0,0,1-.413,1,1.523,1.523,0,0,1-1.09.39A1.523,1.523,0,0,1,0-11.634,1.316,1.316,0,0,1-.413-12.636ZM7.473,0H4.782V-14.25h2.69ZM15.5,0a2.977,2.977,0,0,1-.269-.9A3.244,3.244,0,0,1,12.7.186a3.564,3.564,0,0,1-2.445-.854A2.745,2.745,0,0,1,9.282-2.82,2.837,2.837,0,0,1,10.465-5.27a5.837,5.837,0,0,1,3.419-.863h1.234v-.575a1.654,1.654,0,0,0-.357-1.113,1.405,1.405,0,0,0-1.127-.417,1.6,1.6,0,0,0-1.062.325,1.1,1.1,0,0,0-.385.891H9.5a2.693,2.693,0,0,1,.538-1.614A3.557,3.557,0,0,1,11.564-9.8a5.545,5.545,0,0,1,2.208-.422,4.381,4.381,0,0,1,2.946.932,3.262,3.262,0,0,1,1.09,2.621v4.351a4.8,4.8,0,0,0,.4,2.162V0ZM13.281-1.865a2.309,2.309,0,0,0,1.095-.264,1.737,1.737,0,0,0,.742-.71V-4.564h-1q-2.013,0-2.143,1.392l-.009.158a1.073,1.073,0,0,0,.353.826A1.369,1.369,0,0,0,13.281-1.865Zm10.762-.111a1.759,1.759,0,0,0,1.206-.408,1.43,1.43,0,0,0,.482-1.085h2.514A3.439,3.439,0,0,1,27.688-1.6a3.673,3.673,0,0,1-1.5,1.317,4.689,4.689,0,0,1-2.1.469,4.358,4.358,0,0,1-3.4-1.368A5.415,5.415,0,0,1,19.45-4.963V-5.14a5.353,5.353,0,0,1,1.234-3.7,4.307,4.307,0,0,1,3.386-1.382,4.222,4.222,0,0,1,3.02,1.072A3.794,3.794,0,0,1,28.245-6.3H25.731a1.842,1.842,0,0,0-.482-1.273,1.608,1.608,0,0,0-1.225-.49,1.615,1.615,0,0,0-1.415.683,3.958,3.958,0,0,0-.478,2.216v.279a4.008,4.008,0,0,0,.473,2.23A1.635,1.635,0,0,0,24.042-1.976ZM32.605,0h-2.69V-10.038h2.69ZM29.757-12.636a1.32,1.32,0,0,1,.4-.993,1.516,1.516,0,0,1,1.1-.39,1.52,1.52,0,0,1,1.095.39,1.313,1.313,0,0,1,.408.993,1.316,1.316,0,0,1-.413,1,1.523,1.523,0,0,1-1.09.39,1.523,1.523,0,0,1-1.09-.39A1.316,1.316,0,0,1,29.757-12.636ZM34.4-5.112a5.953,5.953,0,0,1,.575-2.663,4.211,4.211,0,0,1,1.656-1.809,4.831,4.831,0,0,1,2.51-.64A4.571,4.571,0,0,1,42.453-8.98,4.989,4.989,0,0,1,43.886-5.6l.019.687a5.247,5.247,0,0,1-1.29,3.706,4.482,4.482,0,0,1-3.46,1.4A4.5,4.5,0,0,1,35.69-1.206,5.339,5.339,0,0,1,34.4-4.991Zm2.681.19a3.752,3.752,0,0,0,.538,2.188,1.775,1.775,0,0,0,1.54.757,1.779,1.779,0,0,0,1.521-.748,4.106,4.106,0,0,0,.547-2.393,3.715,3.715,0,0,0-.547-2.174,1.779,1.779,0,0,0-1.54-.771,1.75,1.75,0,0,0-1.521.767A4.175,4.175,0,0,0,37.077-4.921Zm2.588-9.329h2.922l-2.57,2.876h-2.18Zm8.359,4.212.083,1.16a3.5,3.5,0,0,1,2.885-1.345,2.913,2.913,0,0,1,2.375.937,4.372,4.372,0,0,1,.8,2.8V0H51.485V-6.42a1.739,1.739,0,0,0-.371-1.239,1.661,1.661,0,0,0-1.234-.385,1.844,1.844,0,0,0-1.7.965V0H45.5V-10.038ZM-36.015,19.907a6.049,6.049,0,0,1,1.053-3.739,3.417,3.417,0,0,1,2.881-1.392,3.074,3.074,0,0,1,2.421,1.095V10.75h2.69V25h-2.421l-.13-1.067A3.155,3.155,0,0,1-32.1,25.186a3.407,3.407,0,0,1-2.844-1.4A6.244,6.244,0,0,1-36.015,19.907Zm2.681.2a3.963,3.963,0,0,0,.492,2.165,1.6,1.6,0,0,0,1.429.753,1.794,1.794,0,0,0,1.753-1.05V18.006a1.768,1.768,0,0,0-1.735-1.05Q-33.333,16.957-33.333,20.106Zm13.063,5.079a4.928,4.928,0,0,1-3.595-1.354,4.815,4.815,0,0,1-1.387-3.609v-.26a6.064,6.064,0,0,1,.584-2.7,4.289,4.289,0,0,1,1.656-1.837,4.648,4.648,0,0,1,2.445-.645,4.166,4.166,0,0,1,3.242,1.3,5.278,5.278,0,0,1,1.183,3.683v1.095h-6.392a2.491,2.491,0,0,0,.784,1.577,2.37,2.37,0,0,0,1.656.594A2.894,2.894,0,0,0-17.673,21.9l1.317,1.475a4.025,4.025,0,0,1-1.633,1.331A5.357,5.357,0,0,1-20.271,25.186Zm-.306-8.248a1.675,1.675,0,0,0-1.294.54,2.8,2.8,0,0,0-.635,1.547h3.729v-.214a2,2,0,0,0-.482-1.384A1.729,1.729,0,0,0-20.577,16.938Zm10.27,2.969a6.049,6.049,0,0,1,1.053-3.739,3.417,3.417,0,0,1,2.881-1.392,3.074,3.074,0,0,1,2.421,1.095V10.75h2.69V25H-3.683l-.13-1.067a3.155,3.155,0,0,1-2.579,1.252,3.407,3.407,0,0,1-2.844-1.4A6.244,6.244,0,0,1-10.307,19.907Zm2.681.2a3.963,3.963,0,0,0,.492,2.165,1.6,1.6,0,0,0,1.429.753,1.794,1.794,0,0,0,1.753-1.05V18.006a1.768,1.768,0,0,0-1.735-1.05Q-7.626,16.957-7.626,20.106ZM6.633,25a2.977,2.977,0,0,1-.269-.9,3.244,3.244,0,0,1-2.533,1.085,3.564,3.564,0,0,1-2.445-.854A2.745,2.745,0,0,1,.417,22.18,2.837,2.837,0,0,1,1.6,19.73a5.837,5.837,0,0,1,3.419-.863H6.253v-.575A1.654,1.654,0,0,0,5.9,17.179a1.405,1.405,0,0,0-1.127-.417,1.6,1.6,0,0,0-1.062.325,1.1,1.1,0,0,0-.385.891H.64a2.693,2.693,0,0,1,.538-1.614A3.557,3.557,0,0,1,2.7,15.2a5.545,5.545,0,0,1,2.208-.422,4.381,4.381,0,0,1,2.946.932,3.262,3.262,0,0,1,1.09,2.621v4.351a4.8,4.8,0,0,0,.4,2.162V25ZM4.416,23.135a2.309,2.309,0,0,0,1.095-.264,1.737,1.737,0,0,0,.742-.71V20.436h-1q-2.013,0-2.143,1.392l-.009.158a1.073,1.073,0,0,0,.353.826A1.369,1.369,0,0,0,4.416,23.135Zm9.8-10.641v2.468h1.716v1.967H14.213v5.01a1.2,1.2,0,0,0,.213.8,1.072,1.072,0,0,0,.816.241,4.276,4.276,0,0,0,.789-.065v2.032a5.52,5.52,0,0,1-1.624.241,2.56,2.56,0,0,1-2.876-2.848V16.929H10.066V14.962h1.466V12.494Zm2.514,7.394a5.953,5.953,0,0,1,.575-2.663,4.211,4.211,0,0,1,1.656-1.809,4.831,4.831,0,0,1,2.51-.64,4.571,4.571,0,0,1,3.317,1.243A4.989,4.989,0,0,1,26.218,19.4l.019.687a5.247,5.247,0,0,1-1.29,3.706,4.482,4.482,0,0,1-3.46,1.4,4.5,4.5,0,0,1-3.465-1.392,5.339,5.339,0,0,1-1.294-3.785Zm2.681.19a3.752,3.752,0,0,0,.538,2.188,1.933,1.933,0,0,0,3.062.009,4.106,4.106,0,0,0,.547-2.393,3.715,3.715,0,0,0-.547-2.174,1.779,1.779,0,0,0-1.54-.771,1.75,1.75,0,0,0-1.521.767A4.175,4.175,0,0,0,19.408,20.079Zm13.916,2.148a.864.864,0,0,0-.487-.775,5.533,5.533,0,0,0-1.563-.506q-3.581-.751-3.581-3.043A2.758,2.758,0,0,1,28.8,15.672a4.472,4.472,0,0,1,2.9-.9,4.813,4.813,0,0,1,3.057.9A2.836,2.836,0,0,1,35.9,18.014H33.222a1.3,1.3,0,0,0-.371-.951,1.57,1.57,0,0,0-1.16-.376,1.6,1.6,0,0,0-1.048.306.966.966,0,0,0-.371.779.826.826,0,0,0,.422.719,4.342,4.342,0,0,0,1.424.473,11.632,11.632,0,0,1,1.688.45,2.774,2.774,0,0,1,2.125,2.7,2.618,2.618,0,0,1-1.178,2.222,5.083,5.083,0,0,1-3.043.849,5.309,5.309,0,0,1-2.24-.45A3.759,3.759,0,0,1,27.934,23.5a2.867,2.867,0,0,1-.557-1.693h2.542a1.4,1.4,0,0,0,.529,1.095,2.1,2.1,0,0,0,1.317.38,1.941,1.941,0,0,0,1.164-.292A.909.909,0,0,0,33.324,22.226Z" transform="translate(961.186 2885.347)" fill="#12263f"/>
    <path id="Trazado_980110" data-name="Trazado 980110" d="M-46.053-4.759V0h-2.783V-13.508h5.27a6.1,6.1,0,0,1,2.677.557,4.1,4.1,0,0,1,1.777,1.582,4.411,4.411,0,0,1,.622,2.333,3.878,3.878,0,0,1-1.359,3.131,5.661,5.661,0,0,1-3.762,1.146Zm0-2.254h2.486a2.445,2.445,0,0,0,1.684-.52,1.89,1.89,0,0,0,.58-1.484,2.228,2.228,0,0,0-.584-1.6,2.183,2.183,0,0,0-1.614-.631h-2.551Zm15.308,5.993A3.362,3.362,0,0,1-33.491.186a3.171,3.171,0,0,1-2.463-.928,3.96,3.96,0,0,1-.867-2.718v-6.578h2.681v6.492q0,1.57,1.429,1.57a1.936,1.936,0,0,0,1.874-.947v-7.115h2.69V0h-2.523ZM-17.08-4.926a6.078,6.078,0,0,1-1.03,3.762A3.411,3.411,0,0,1-20.985.186a3.134,3.134,0,0,1-2.607-1.252L-23.713,0h-2.412V-14.25h2.681v5.112A3.054,3.054,0,0,1-21-10.224a3.439,3.439,0,0,1,2.881,1.35,6.087,6.087,0,0,1,1.044,3.8Zm-2.681-.195a3.993,3.993,0,0,0-.482-2.222,1.631,1.631,0,0,0-1.438-.7A1.769,1.769,0,0,0-23.444-7v3.961a1.793,1.793,0,0,0,1.781,1.058,1.655,1.655,0,0,0,1.707-1.28A6.6,6.6,0,0,0-19.761-5.121ZM-12.6,0h-2.69V-14.25h2.69Zm5.038,0h-2.69V-10.038h2.69Zm-2.848-12.636a1.32,1.32,0,0,1,.4-.993,1.516,1.516,0,0,1,1.1-.39,1.52,1.52,0,0,1,1.095.39,1.313,1.313,0,0,1,.408.993,1.316,1.316,0,0,1-.413,1,1.523,1.523,0,0,1-1.09.39,1.523,1.523,0,0,1-1.09-.39A1.316,1.316,0,0,1-10.409-12.636Zm9.231,10.66A1.759,1.759,0,0,0,.028-2.384,1.43,1.43,0,0,0,.51-3.47H3.024A3.439,3.439,0,0,1,2.468-1.6,3.673,3.673,0,0,1,.969-.283a4.689,4.689,0,0,1-2.1.469,4.358,4.358,0,0,1-3.4-1.368A5.415,5.415,0,0,1-5.771-4.963V-5.14a5.353,5.353,0,0,1,1.234-3.7A4.307,4.307,0,0,1-1.15-10.224a4.222,4.222,0,0,1,3.02,1.072A3.794,3.794,0,0,1,3.024-6.3H.51A1.842,1.842,0,0,0,.028-7.572,1.608,1.608,0,0,0-1.2-8.062a1.615,1.615,0,0,0-1.415.683,3.958,3.958,0,0,0-.478,2.216v.279a4.008,4.008,0,0,0,.473,2.23A1.635,1.635,0,0,0-1.178-1.976ZM10.372,0A2.977,2.977,0,0,1,10.1-.9,3.244,3.244,0,0,1,7.57.186,3.564,3.564,0,0,1,5.126-.668,2.745,2.745,0,0,1,4.156-2.82,2.837,2.837,0,0,1,5.339-5.27a5.837,5.837,0,0,1,3.419-.863H9.992v-.575a1.654,1.654,0,0,0-.357-1.113,1.405,1.405,0,0,0-1.127-.417,1.6,1.6,0,0,0-1.062.325,1.1,1.1,0,0,0-.385.891H4.379a2.693,2.693,0,0,1,.538-1.614A3.557,3.557,0,0,1,6.438-9.8a5.545,5.545,0,0,1,2.208-.422,4.381,4.381,0,0,1,2.946.932,3.262,3.262,0,0,1,1.09,2.621v4.351a4.8,4.8,0,0,0,.4,2.162V0ZM8.155-1.865A2.309,2.309,0,0,0,9.25-2.129a1.737,1.737,0,0,0,.742-.71V-4.564h-1q-2.013,0-2.143,1.392l-.009.158a1.073,1.073,0,0,0,.353.826A1.369,1.369,0,0,0,8.155-1.865Zm10.762-.111a1.759,1.759,0,0,0,1.206-.408A1.43,1.43,0,0,0,20.6-3.47h2.514A3.439,3.439,0,0,1,22.563-1.6a3.673,3.673,0,0,1-1.5,1.317,4.689,4.689,0,0,1-2.1.469,4.358,4.358,0,0,1-3.4-1.368,5.415,5.415,0,0,1-1.243-3.781V-5.14a5.353,5.353,0,0,1,1.234-3.7,4.307,4.307,0,0,1,3.386-1.382,4.222,4.222,0,0,1,3.02,1.072A3.794,3.794,0,0,1,23.119-6.3H20.6a1.842,1.842,0,0,0-.482-1.273,1.608,1.608,0,0,0-1.225-.49,1.615,1.615,0,0,0-1.415.683,3.958,3.958,0,0,0-.478,2.216v.279a4.008,4.008,0,0,0,.473,2.23A1.635,1.635,0,0,0,18.917-1.976ZM27.479,0h-2.69V-10.038h2.69ZM24.631-12.636a1.32,1.32,0,0,1,.4-.993,1.516,1.516,0,0,1,1.1-.39,1.52,1.52,0,0,1,1.095.39,1.313,1.313,0,0,1,.408.993,1.316,1.316,0,0,1-.413,1,1.523,1.523,0,0,1-1.09.39,1.523,1.523,0,0,1-1.09-.39A1.316,1.316,0,0,1,24.631-12.636ZM29.27-5.112a5.953,5.953,0,0,1,.575-2.663A4.211,4.211,0,0,1,31.5-9.583a4.831,4.831,0,0,1,2.51-.64A4.571,4.571,0,0,1,37.327-8.98,4.989,4.989,0,0,1,38.761-5.6l.019.687a5.247,5.247,0,0,1-1.29,3.706,4.482,4.482,0,0,1-3.46,1.4,4.5,4.5,0,0,1-3.465-1.392A5.339,5.339,0,0,1,29.27-4.991Zm2.681.19a3.752,3.752,0,0,0,.538,2.188,1.775,1.775,0,0,0,1.54.757,1.779,1.779,0,0,0,1.521-.748A4.106,4.106,0,0,0,36.1-5.117a3.715,3.715,0,0,0-.547-2.174,1.779,1.779,0,0,0-1.54-.771,1.75,1.75,0,0,0-1.521.767A4.175,4.175,0,0,0,31.951-4.921ZM34.54-14.25h2.922l-2.57,2.876h-2.18ZM42.9-10.038l.083,1.16a3.5,3.5,0,0,1,2.885-1.345,2.913,2.913,0,0,1,2.375.937,4.372,4.372,0,0,1,.8,2.8V0H46.359V-6.42a1.739,1.739,0,0,0-.371-1.239,1.661,1.661,0,0,0-1.234-.385,1.844,1.844,0,0,0-1.7.965V0H40.375V-10.038ZM-17.033,25V16.929h-1.494V14.962h1.494V14.5a3.764,3.764,0,0,1,1.164-2.918,4.684,4.684,0,0,1,3.233-1.025,10.724,10.724,0,0,1,3.043.547l-.39,2.217a11.872,11.872,0,0,0-1.41-.348,6.929,6.929,0,0,0-1.076-.079q-1.874,0-1.874,1.661v.408h1.976v1.967h-1.976V25Zm8.693,0h-2.69V14.962h2.69Zm4.685-10.038.083,1.16A3.5,3.5,0,0,1-.687,14.776a2.913,2.913,0,0,1,2.375.937,4.372,4.372,0,0,1,.8,2.8V25H-.195V18.58a1.739,1.739,0,0,0-.371-1.239A1.661,1.661,0,0,0-1.8,16.957a1.844,1.844,0,0,0-1.7.965V25H-6.179V14.962ZM10.335,25a2.977,2.977,0,0,1-.269-.9,3.244,3.244,0,0,1-2.533,1.085,3.564,3.564,0,0,1-2.445-.854,2.745,2.745,0,0,1-.969-2.152A2.837,2.837,0,0,1,5.3,19.73a5.837,5.837,0,0,1,3.419-.863H9.955v-.575A1.654,1.654,0,0,0,9.6,17.179a1.405,1.405,0,0,0-1.127-.417,1.6,1.6,0,0,0-1.062.325,1.1,1.1,0,0,0-.385.891H4.342a2.693,2.693,0,0,1,.538-1.614A3.557,3.557,0,0,1,6.4,15.2a5.545,5.545,0,0,1,2.208-.422,4.381,4.381,0,0,1,2.946.932,3.262,3.262,0,0,1,1.09,2.621v4.351a4.8,4.8,0,0,0,.4,2.162V25ZM8.118,23.135a2.309,2.309,0,0,0,1.095-.264,1.737,1.737,0,0,0,.742-.71V20.436h-1q-2.013,0-2.143,1.392l-.009.158a1.073,1.073,0,0,0,.353.826A1.369,1.369,0,0,0,8.118,23.135ZM17.534,25h-2.69V10.75h2.69Z" transform="translate(620.773 2885.347)" fill="#12263f"/>
    <path id="Trazado_980108" data-name="Trazado 980108" d="M-40.381,0V-12.8h3.938a5.98,5.98,0,0,1,3.019.76,5.3,5.3,0,0,1,2.079,2.162A6.669,6.669,0,0,1-30.6-6.688V-6.1a6.688,6.688,0,0,1-.734,3.173A5.256,5.256,0,0,1-33.4-.773,6.025,6.025,0,0,1-36.417,0Zm2.637-10.661v8.543h1.274a2.863,2.863,0,0,0,2.364-1.011,4.567,4.567,0,0,0,.835-2.892V-6.7a4.64,4.64,0,0,0-.809-2.958,2.854,2.854,0,0,0-2.364-1.006ZM-24.473.176a4.668,4.668,0,0,1-3.406-1.283,4.561,4.561,0,0,1-1.314-3.419v-.246a5.745,5.745,0,0,1,.554-2.562,4.064,4.064,0,0,1,1.569-1.74,4.4,4.4,0,0,1,2.316-.611,3.947,3.947,0,0,1,3.072,1.23,5,5,0,0,1,1.121,3.489v1.037h-6.056a2.36,2.36,0,0,0,.743,1.494,2.245,2.245,0,0,0,1.569.563,2.742,2.742,0,0,0,2.294-1.063l1.248,1.4A3.813,3.813,0,0,1-22.311-.277,5.075,5.075,0,0,1-24.473.176Zm-.29-7.813a1.587,1.587,0,0,0-1.226.512,2.651,2.651,0,0,0-.6,1.466h3.533v-.2a1.891,1.891,0,0,0-.457-1.311A1.638,1.638,0,0,0-24.763-7.638Zm10.793,5.01a.818.818,0,0,0-.461-.734,5.241,5.241,0,0,0-1.481-.479q-3.393-.712-3.393-2.883a2.613,2.613,0,0,1,1.05-2.114,4.237,4.237,0,0,1,2.747-.848,4.56,4.56,0,0,1,2.9.853,2.687,2.687,0,0,1,1.085,2.215h-2.54a1.229,1.229,0,0,0-.352-.9,1.488,1.488,0,0,0-1.1-.356,1.52,1.52,0,0,0-.993.29.916.916,0,0,0-.352.738.783.783,0,0,0,.4.681,4.114,4.114,0,0,0,1.349.448,11.019,11.019,0,0,1,1.6.426A2.628,2.628,0,0,1-11.5-2.733a2.481,2.481,0,0,1-1.116,2.1,4.815,4.815,0,0,1-2.883.8A5.029,5.029,0,0,1-17.622-.25a3.561,3.561,0,0,1-1.455-1.169,2.716,2.716,0,0,1-.527-1.6H-17.2a1.326,1.326,0,0,0,.5,1.037,1.987,1.987,0,0,0,1.248.36,1.839,1.839,0,0,0,1.1-.277A.861.861,0,0,0-13.97-2.628ZM-4.355,0A2.821,2.821,0,0,1-4.61-.853,3.073,3.073,0,0,1-7.009.176,3.376,3.376,0,0,1-9.325-.633a2.6,2.6,0,0,1-.918-2.039,2.687,2.687,0,0,1,1.121-2.32A5.529,5.529,0,0,1-5.884-5.81h1.169v-.545a1.567,1.567,0,0,0-.338-1.055,1.331,1.331,0,0,0-1.068-.4A1.513,1.513,0,0,0-7.128-7.5a1.045,1.045,0,0,0-.365.844h-2.54a2.551,2.551,0,0,1,.51-1.529,3.37,3.37,0,0,1,1.441-1.1,5.253,5.253,0,0,1,2.092-.4A4.15,4.15,0,0,1-3.2-8.8,3.09,3.09,0,0,1-2.167-6.319V-2.2A4.546,4.546,0,0,0-1.789-.149V0Zm-2.1-1.767a2.188,2.188,0,0,0,1.037-.25,1.645,1.645,0,0,0,.7-.672V-4.324h-.949q-1.907,0-2.03,1.318l-.009.149a1.017,1.017,0,0,0,.334.782A1.3,1.3,0,0,0-6.456-1.767ZM5.128-7.128a6.9,6.9,0,0,0-.914-.07,1.86,1.86,0,0,0-1.89.976V0H-.215V-9.51h2.4l.07,1.134a2.354,2.354,0,0,1,2.118-1.31,2.662,2.662,0,0,1,.791.114Zm6.565,0a6.9,6.9,0,0,0-.914-.07,1.86,1.86,0,0,0-1.89.976V0H6.35V-9.51h2.4l.07,1.134a2.354,2.354,0,0,1,2.118-1.31,2.662,2.662,0,0,1,.791.114Zm.51,2.285a5.64,5.64,0,0,1,.545-2.522,3.989,3.989,0,0,1,1.569-1.714,4.577,4.577,0,0,1,2.377-.606,4.33,4.33,0,0,1,3.142,1.178,4.727,4.727,0,0,1,1.358,3.2l.018.65a4.97,4.97,0,0,1-1.222,3.511A4.247,4.247,0,0,1,16.712.176,4.268,4.268,0,0,1,13.43-1.143,5.058,5.058,0,0,1,12.2-4.729Zm2.54.18a3.555,3.555,0,0,0,.51,2.073,1.682,1.682,0,0,0,1.459.717,1.686,1.686,0,0,0,1.441-.709,3.89,3.89,0,0,0,.519-2.267,3.519,3.519,0,0,0-.519-2.06,1.686,1.686,0,0,0-1.459-.731,1.658,1.658,0,0,0-1.441.726A3.955,3.955,0,0,0,14.744-4.662ZM25.458,0H22.909V-13.5h2.549ZM30.23,0H27.681V-13.5H30.23Zm1.7-4.843a5.64,5.64,0,0,1,.545-2.522A3.989,3.989,0,0,1,34.04-9.079a4.577,4.577,0,0,1,2.377-.606A4.33,4.33,0,0,1,39.56-8.508a4.727,4.727,0,0,1,1.358,3.2l.018.65a4.97,4.97,0,0,1-1.222,3.511A4.247,4.247,0,0,1,36.435.176a4.268,4.268,0,0,1-3.283-1.318,5.058,5.058,0,0,1-1.226-3.586Zm2.54.18a3.555,3.555,0,0,0,.51,2.073,1.682,1.682,0,0,0,1.459.717,1.686,1.686,0,0,0,1.441-.709A3.89,3.89,0,0,0,38.4-4.847a3.519,3.519,0,0,0-.519-2.06,1.686,1.686,0,0,0-1.459-.731,1.658,1.658,0,0,0-1.441.726A3.955,3.955,0,0,0,34.466-4.662Zm-60.064,24a5.7,5.7,0,0,1-1,3.52,3.2,3.2,0,0,1-2.694,1.323,2.963,2.963,0,0,1-2.329-1v4.482h-2.54V14.49H-31.8l.088.932a2.985,2.985,0,0,1,2.408-1.107,3.22,3.22,0,0,1,2.733,1.3A5.858,5.858,0,0,1-25.6,19.2Zm-2.54-.185a3.743,3.743,0,0,0-.47-2.048,1.532,1.532,0,0,0-1.367-.721,1.663,1.663,0,0,0-1.644.914v3.894a1.692,1.692,0,0,0,1.661.94Q-28.138,22.128-28.138,19.148Zm9.457-2.276a6.9,6.9,0,0,0-.914-.07,1.86,1.86,0,0,0-1.89.976V24h-2.54V14.49h2.4l.07,1.134a2.354,2.354,0,0,1,2.118-1.31,2.662,2.662,0,0,1,.791.114Zm3.9,7.128h-2.549V14.49h2.549Zm-2.7-11.971a1.251,1.251,0,0,1,.382-.94,1.436,1.436,0,0,1,1.042-.369,1.44,1.44,0,0,1,1.037.369,1.244,1.244,0,0,1,.387.94,1.247,1.247,0,0,1-.391.949,1.443,1.443,0,0,1-1.033.369,1.443,1.443,0,0,1-1.033-.369A1.247,1.247,0,0,1-17.477,12.029Zm7.128,2.461.079,1.1a3.32,3.32,0,0,1,2.733-1.274,2.759,2.759,0,0,1,2.25.888,4.142,4.142,0,0,1,.756,2.654V24h-2.54V17.918a1.648,1.648,0,0,0-.352-1.173,1.574,1.574,0,0,0-1.169-.365,1.747,1.747,0,0,0-1.608.914V24h-2.54V14.49Zm11.7,7.638a1.666,1.666,0,0,0,1.143-.387,1.355,1.355,0,0,0,.457-1.028H5.331A3.258,3.258,0,0,1,4.8,22.484a3.48,3.48,0,0,1-1.419,1.248,4.442,4.442,0,0,1-1.991.444,4.129,4.129,0,0,1-3.217-1.3A5.13,5.13,0,0,1-3,19.3v-.167a5.071,5.071,0,0,1,1.169-3.507,4.08,4.08,0,0,1,3.208-1.31A4,4,0,0,1,4.236,15.33a3.594,3.594,0,0,1,1.094,2.7H2.949a1.745,1.745,0,0,0-.457-1.206,1.524,1.524,0,0,0-1.16-.464,1.53,1.53,0,0,0-1.34.647,3.749,3.749,0,0,0-.453,2.1v.264a3.8,3.8,0,0,0,.448,2.113A1.549,1.549,0,0,0,1.349,22.128ZM9.461,24H6.913V14.49H9.461Zm-2.7-11.971a1.251,1.251,0,0,1,.382-.94,1.436,1.436,0,0,1,1.042-.369,1.44,1.44,0,0,1,1.037.369,1.342,1.342,0,0,1,0,1.89,1.443,1.443,0,0,1-1.033.369,1.443,1.443,0,0,1-1.033-.369A1.247,1.247,0,0,1,6.763,12.029Zm13.351,7.3a5.7,5.7,0,0,1-1,3.52,3.2,3.2,0,0,1-2.694,1.323,2.963,2.963,0,0,1-2.329-1v4.482h-2.54V14.49h2.355l.088.932A2.985,2.985,0,0,1,16.4,14.314a3.22,3.22,0,0,1,2.733,1.3,5.858,5.858,0,0,1,.976,3.586Zm-2.54-.185A3.743,3.743,0,0,0,17.1,17.1a1.532,1.532,0,0,0-1.367-.721,1.663,1.663,0,0,0-1.644.914v3.894a1.692,1.692,0,0,0,1.661.94Q17.574,22.128,17.574,19.148ZM27.2,24a2.821,2.821,0,0,1-.255-.853,3.073,3.073,0,0,1-2.4,1.028,3.376,3.376,0,0,1-2.316-.809,2.6,2.6,0,0,1-.918-2.039,2.687,2.687,0,0,1,1.121-2.32,5.529,5.529,0,0,1,3.239-.817h1.169v-.545a1.567,1.567,0,0,0-.338-1.055,1.331,1.331,0,0,0-1.068-.4,1.513,1.513,0,0,0-1.006.308,1.045,1.045,0,0,0-.365.844H21.52a2.551,2.551,0,0,1,.51-1.529,3.37,3.37,0,0,1,1.441-1.1,5.253,5.253,0,0,1,2.092-.4,4.15,4.15,0,0,1,2.791.883,3.09,3.09,0,0,1,1.033,2.483V21.8a4.546,4.546,0,0,0,.378,2.048V24Zm-2.1-1.767a2.188,2.188,0,0,0,1.037-.25,1.645,1.645,0,0,0,.7-.672V19.676h-.949q-1.907,0-2.03,1.318l-.009.149a1.017,1.017,0,0,0,.334.782A1.3,1.3,0,0,0,25.1,22.233ZM34.018,24H31.469V10.5h2.549Z" transform="translate(877.025 3033.184)" fill="#12263f"/>
    <path id="Trazado_980106" data-name="Trazado 980106" d="M-48.867-4.509V0H-51.5V-12.8h4.992a5.776,5.776,0,0,1,2.536.527,3.886,3.886,0,0,1,1.683,1.5,4.178,4.178,0,0,1,.589,2.21,3.674,3.674,0,0,1-1.288,2.966,5.363,5.363,0,0,1-3.564,1.085Zm0-2.136h2.355a2.316,2.316,0,0,0,1.6-.492,1.79,1.79,0,0,0,.549-1.406,2.111,2.111,0,0,0-.554-1.521,2.068,2.068,0,0,0-1.529-.6h-2.417ZM-37.38,0h-2.549V-13.5h2.549Zm7.6,0a2.821,2.821,0,0,1-.255-.853,3.073,3.073,0,0,1-2.4,1.028,3.376,3.376,0,0,1-2.316-.809,2.6,2.6,0,0,1-.918-2.039,2.687,2.687,0,0,1,1.121-2.32,5.529,5.529,0,0,1,3.239-.817h1.169v-.545a1.567,1.567,0,0,0-.338-1.055,1.331,1.331,0,0,0-1.068-.4A1.513,1.513,0,0,0-32.55-7.5a1.045,1.045,0,0,0-.365.844h-2.54a2.551,2.551,0,0,1,.51-1.529,3.37,3.37,0,0,1,1.441-1.1,5.253,5.253,0,0,1,2.092-.4,4.15,4.15,0,0,1,2.791.883,3.09,3.09,0,0,1,1.033,2.483V-2.2a4.546,4.546,0,0,0,.378,2.048V0Zm-2.1-1.767a2.188,2.188,0,0,0,1.037-.25,1.645,1.645,0,0,0,.7-.672V-4.324h-.949q-1.907,0-2.03,1.318l-.009.149a1.017,1.017,0,0,0,.334.782A1.3,1.3,0,0,0-31.878-1.767ZM-23.3-9.51l.079,1.1a3.32,3.32,0,0,1,2.733-1.274,2.759,2.759,0,0,1,2.25.888,4.142,4.142,0,0,1,.756,2.654V0h-2.54V-6.082a1.648,1.648,0,0,0-.352-1.173,1.574,1.574,0,0,0-1.169-.365,1.747,1.747,0,0,0-1.608.914V0h-2.54V-9.51ZM-12.876,0h-2.549V-9.51h2.549Zm-2.7-11.971a1.251,1.251,0,0,1,.382-.94,1.436,1.436,0,0,1,1.042-.369,1.44,1.44,0,0,1,1.037.369,1.244,1.244,0,0,1,.387.94,1.247,1.247,0,0,1-.391.949,1.443,1.443,0,0,1-1.033.369,1.443,1.443,0,0,1-1.033-.369A1.247,1.247,0,0,1-15.574-11.971ZM-10.169,0V-7.646h-1.415V-9.51h1.415v-.439a3.566,3.566,0,0,1,1.1-2.764A4.438,4.438,0,0,1-6-13.685a10.16,10.16,0,0,1,2.883.519l-.369,2.1a11.248,11.248,0,0,0-1.336-.33,6.564,6.564,0,0,0-1.02-.075Q-7.62-11.47-7.62-9.9v.387h1.872v1.863H-7.62V0Zm8.235,0H-4.482V-9.51h2.549ZM4.122-1.872a1.666,1.666,0,0,0,1.143-.387,1.355,1.355,0,0,0,.457-1.028H8.1a3.258,3.258,0,0,1-.527,1.771A3.48,3.48,0,0,1,6.157-.268,4.442,4.442,0,0,1,4.166.176a4.129,4.129,0,0,1-3.217-1.3A5.13,5.13,0,0,1-.229-4.7v-.167A5.071,5.071,0,0,1,.94-8.376a4.08,4.08,0,0,1,3.208-1.31A4,4,0,0,1,7.009-8.67,3.594,3.594,0,0,1,8.1-5.968H5.722a1.745,1.745,0,0,0-.457-1.206A1.524,1.524,0,0,0,4.1-7.638a1.53,1.53,0,0,0-1.34.647,3.749,3.749,0,0,0-.453,2.1v.264A3.8,3.8,0,0,0,2.76-2.515,1.549,1.549,0,0,0,4.122-1.872ZM15.064,0a2.821,2.821,0,0,1-.255-.853A3.073,3.073,0,0,1,12.41.176a3.376,3.376,0,0,1-2.316-.809,2.6,2.6,0,0,1-.918-2.039A2.687,2.687,0,0,1,10.3-4.992a5.529,5.529,0,0,1,3.239-.817H14.7v-.545a1.567,1.567,0,0,0-.338-1.055A1.331,1.331,0,0,0,13.3-7.8a1.513,1.513,0,0,0-1.006.308,1.045,1.045,0,0,0-.365.844H9.387A2.551,2.551,0,0,1,9.9-8.183a3.37,3.37,0,0,1,1.441-1.1,5.253,5.253,0,0,1,2.092-.4A4.15,4.15,0,0,1,16.22-8.8a3.09,3.09,0,0,1,1.033,2.483V-2.2a4.546,4.546,0,0,0,.378,2.048V0Zm-2.1-1.767A2.188,2.188,0,0,0,14-2.017a1.645,1.645,0,0,0,.7-.672V-4.324h-.949q-1.907,0-2.03,1.318l-.009.149a1.017,1.017,0,0,0,.334.782A1.3,1.3,0,0,0,12.964-1.767Zm10.2-.105A1.666,1.666,0,0,0,24.3-2.259a1.355,1.355,0,0,0,.457-1.028h2.382a3.258,3.258,0,0,1-.527,1.771A3.48,3.48,0,0,1,25.194-.268,4.442,4.442,0,0,1,23.2.176a4.129,4.129,0,0,1-3.217-1.3A5.13,5.13,0,0,1,18.809-4.7v-.167a5.071,5.071,0,0,1,1.169-3.507,4.08,4.08,0,0,1,3.208-1.31A4,4,0,0,1,26.046-8.67a3.594,3.594,0,0,1,1.094,2.7H24.759A1.745,1.745,0,0,0,24.3-7.174a1.524,1.524,0,0,0-1.16-.464,1.53,1.53,0,0,0-1.34.647,3.749,3.749,0,0,0-.453,2.1v.264A3.8,3.8,0,0,0,21.8-2.515,1.549,1.549,0,0,0,23.159-1.872ZM31.271,0H28.723V-9.51h2.549Zm-2.7-11.971a1.251,1.251,0,0,1,.382-.94A1.436,1.436,0,0,1,30-13.28a1.44,1.44,0,0,1,1.037.369,1.244,1.244,0,0,1,.387.94,1.247,1.247,0,0,1-.391.949A1.443,1.443,0,0,1,30-10.652a1.443,1.443,0,0,1-1.033-.369A1.247,1.247,0,0,1,28.573-11.971Zm4.395,7.128a5.64,5.64,0,0,1,.545-2.522,3.989,3.989,0,0,1,1.569-1.714,4.577,4.577,0,0,1,2.377-.606A4.33,4.33,0,0,1,40.6-8.508a4.727,4.727,0,0,1,1.358,3.2l.018.65a4.97,4.97,0,0,1-1.222,3.511A4.247,4.247,0,0,1,37.477.176a4.268,4.268,0,0,1-3.283-1.318,5.058,5.058,0,0,1-1.226-3.586Zm2.54.18a3.555,3.555,0,0,0,.51,2.073,1.682,1.682,0,0,0,1.459.717,1.686,1.686,0,0,0,1.441-.709,3.89,3.89,0,0,0,.519-2.267,3.519,3.519,0,0,0-.519-2.06,1.686,1.686,0,0,0-1.459-.731,1.658,1.658,0,0,0-1.441.726A3.955,3.955,0,0,0,35.508-4.662ZM37.96-13.5h2.769l-2.435,2.725H36.229Zm7.919,3.99.079,1.1a3.32,3.32,0,0,1,2.733-1.274,2.759,2.759,0,0,1,2.25.888A4.142,4.142,0,0,1,51.7-6.144V0h-2.54V-6.082a1.648,1.648,0,0,0-.352-1.173,1.574,1.574,0,0,0-1.169-.365,1.747,1.747,0,0,0-1.608.914V0h-2.54V-9.51ZM-20.448,24H-23V14.49h2.549Zm-2.7-11.971a1.251,1.251,0,0,1,.382-.94,1.436,1.436,0,0,1,1.042-.369,1.44,1.44,0,0,1,1.037.369,1.244,1.244,0,0,1,.387.94,1.247,1.247,0,0,1-.391.949,1.443,1.443,0,0,1-1.033.369,1.443,1.443,0,0,1-1.033-.369A1.247,1.247,0,0,1-23.146,12.029Zm7.128,2.461.079,1.1a3.32,3.32,0,0,1,2.733-1.274,2.759,2.759,0,0,1,2.25.888,4.142,4.142,0,0,1,.756,2.654V24h-2.54V17.918a1.648,1.648,0,0,0-.352-1.173,1.574,1.574,0,0,0-1.169-.365,1.747,1.747,0,0,0-1.608.914V24h-2.54V14.49ZM-5.594,24H-8.143V14.49h2.549Zm-2.7-11.971a1.251,1.251,0,0,1,.382-.94,1.436,1.436,0,0,1,1.042-.369,1.44,1.44,0,0,1,1.037.369,1.244,1.244,0,0,1,.387.94,1.247,1.247,0,0,1-.391.949,1.443,1.443,0,0,1-1.033.369A1.443,1.443,0,0,1-7.9,12.979,1.247,1.247,0,0,1-8.292,12.029Zm8.745,10.1A1.666,1.666,0,0,0,1.6,21.741a1.355,1.355,0,0,0,.457-1.028H4.434a3.258,3.258,0,0,1-.527,1.771,3.48,3.48,0,0,1-1.419,1.248A4.442,4.442,0,0,1,.5,24.176a4.129,4.129,0,0,1-3.217-1.3A5.13,5.13,0,0,1-3.9,19.3v-.167a5.071,5.071,0,0,1,1.169-3.507,4.08,4.08,0,0,1,3.208-1.31A4,4,0,0,1,3.34,15.33a3.594,3.594,0,0,1,1.094,2.7H2.052A1.745,1.745,0,0,0,1.6,16.826a1.524,1.524,0,0,0-1.16-.464,1.53,1.53,0,0,0-1.34.647,3.749,3.749,0,0,0-.453,2.1v.264A3.8,3.8,0,0,0-.91,21.485,1.549,1.549,0,0,0,.453,22.128ZM8.565,24H6.016V14.49H8.565Zm-2.7-11.971a1.251,1.251,0,0,1,.382-.94,1.436,1.436,0,0,1,1.042-.369,1.44,1.44,0,0,1,1.037.369,1.342,1.342,0,0,1,0,1.89,1.443,1.443,0,0,1-1.033.369,1.443,1.443,0,0,1-1.033-.369A1.247,1.247,0,0,1,5.867,12.029ZM16.167,24a2.821,2.821,0,0,1-.255-.853,3.073,3.073,0,0,1-2.4,1.028,3.376,3.376,0,0,1-2.316-.809,2.6,2.6,0,0,1-.918-2.039,2.687,2.687,0,0,1,1.121-2.32,5.529,5.529,0,0,1,3.239-.817h1.169v-.545a1.567,1.567,0,0,0-.338-1.055,1.331,1.331,0,0,0-1.068-.4,1.513,1.513,0,0,0-1.006.308,1.045,1.045,0,0,0-.365.844H10.49A2.551,2.551,0,0,1,11,15.817a3.37,3.37,0,0,1,1.441-1.1,5.253,5.253,0,0,1,2.092-.4,4.15,4.15,0,0,1,2.791.883,3.09,3.09,0,0,1,1.033,2.483V21.8a4.546,4.546,0,0,0,.378,2.048V24Zm-2.1-1.767a2.188,2.188,0,0,0,1.037-.25,1.645,1.645,0,0,0,.7-.672V19.676h-.949q-1.907,0-2.03,1.318l-.009.149a1.017,1.017,0,0,0,.334.782A1.3,1.3,0,0,0,14.067,22.233ZM22.988,24H20.439V10.5h2.549Z" transform="translate(879.688 2728.621)" fill="#12263f"/>
    <path id="Trazado_980109" data-name="Trazado 980109" d="M-39.846-4.945h-2.217V0h-2.783V-13.508h5.019a5.674,5.674,0,0,1,3.692,1.067,3.682,3.682,0,0,1,1.3,3.015,4.156,4.156,0,0,1-.6,2.305,4.081,4.081,0,0,1-1.814,1.47l2.922,5.52V0h-2.987ZM-42.063-7.2h2.245a2.3,2.3,0,0,0,1.624-.533A1.907,1.907,0,0,0-37.62-9.2a2.041,2.041,0,0,0-.543-1.5,2.255,2.255,0,0,0-1.665-.547h-2.236ZM-28.277.186a4.928,4.928,0,0,1-3.595-1.354,4.815,4.815,0,0,1-1.387-3.609v-.26a6.064,6.064,0,0,1,.584-2.7,4.289,4.289,0,0,1,1.656-1.837,4.648,4.648,0,0,1,2.445-.645,4.166,4.166,0,0,1,3.242,1.3,5.278,5.278,0,0,1,1.183,3.683v1.095h-6.392a2.491,2.491,0,0,0,.784,1.577,2.37,2.37,0,0,0,1.656.594A2.894,2.894,0,0,0-25.68-3.1l1.317,1.475A4.025,4.025,0,0,1-26-.292,5.357,5.357,0,0,1-28.277.186Zm-.306-8.248a1.675,1.675,0,0,0-1.294.54,2.8,2.8,0,0,0-.635,1.547h3.729v-.214a2,2,0,0,0-.482-1.384A1.729,1.729,0,0,0-28.583-8.062Zm9.593,4.787,1.865-6.763h2.8L-17.71,0h-2.561l-3.386-10.038h2.8ZM-10.316,0h-2.69V-10.038h2.69Zm-2.848-12.636a1.32,1.32,0,0,1,.4-.993,1.516,1.516,0,0,1,1.1-.39,1.52,1.52,0,0,1,1.095.39,1.313,1.313,0,0,1,.408.993,1.316,1.316,0,0,1-.413,1,1.523,1.523,0,0,1-1.09.39,1.523,1.523,0,0,1-1.09-.39A1.316,1.316,0,0,1-13.165-12.636ZM-2.672-2.774a.864.864,0,0,0-.487-.775,5.533,5.533,0,0,0-1.563-.506Q-8.3-4.806-8.3-7.1A2.758,2.758,0,0,1-7.195-9.328a4.472,4.472,0,0,1,2.9-.9,4.813,4.813,0,0,1,3.057.9A2.836,2.836,0,0,1-.093-6.986H-2.774a1.3,1.3,0,0,0-.371-.951A1.57,1.57,0,0,0-4.3-8.312a1.6,1.6,0,0,0-1.048.306.966.966,0,0,0-.371.779.826.826,0,0,0,.422.719,4.342,4.342,0,0,0,1.424.473,11.632,11.632,0,0,1,1.688.45,2.774,2.774,0,0,1,2.125,2.7A2.618,2.618,0,0,1-1.243-.663,5.083,5.083,0,0,1-4.286.186a5.309,5.309,0,0,1-2.24-.45A3.759,3.759,0,0,1-8.062-1.5a2.867,2.867,0,0,1-.557-1.693h2.542A1.4,1.4,0,0,0-5.548-2.1a2.1,2.1,0,0,0,1.317.38,1.941,1.941,0,0,0,1.164-.292A.909.909,0,0,0-2.672-2.774ZM4.49,0H1.8V-10.038H4.49ZM1.642-12.636a1.32,1.32,0,0,1,.4-.993,1.516,1.516,0,0,1,1.1-.39,1.52,1.52,0,0,1,1.095.39,1.313,1.313,0,0,1,.408.993,1.316,1.316,0,0,1-.413,1,1.523,1.523,0,0,1-1.09.39,1.523,1.523,0,0,1-1.09-.39A1.316,1.316,0,0,1,1.642-12.636ZM6.281-5.112a5.953,5.953,0,0,1,.575-2.663A4.211,4.211,0,0,1,8.512-9.583a4.831,4.831,0,0,1,2.51-.64A4.571,4.571,0,0,1,14.338-8.98,4.989,4.989,0,0,1,15.771-5.6l.019.687A5.247,5.247,0,0,1,14.5-1.211a4.482,4.482,0,0,1-3.46,1.4A4.5,4.5,0,0,1,7.575-1.206,5.339,5.339,0,0,1,6.281-4.991Zm2.681.19A3.752,3.752,0,0,0,9.5-2.733a1.775,1.775,0,0,0,1.54.757,1.779,1.779,0,0,0,1.521-.748,4.106,4.106,0,0,0,.547-2.393,3.715,3.715,0,0,0-.547-2.174,1.779,1.779,0,0,0-1.54-.771A1.75,1.75,0,0,0,9.5-7.3,4.175,4.175,0,0,0,8.962-4.921ZM11.55-14.25h2.922L11.9-11.374H9.723Zm8.359,4.212.083,1.16a3.5,3.5,0,0,1,2.885-1.345,2.913,2.913,0,0,1,2.375.937,4.372,4.372,0,0,1,.8,2.8V0H23.37V-6.42A1.739,1.739,0,0,0,23-7.658a1.661,1.661,0,0,0-1.234-.385,1.844,1.844,0,0,0-1.7.965V0H17.386V-10.038ZM36.562-3.794l1.855-6.244h2.876l-4.036,11.6-.223.529a3.06,3.06,0,0,1-2.969,1.967,4.219,4.219,0,0,1-1.187-.176V1.846l.408.009a2.206,2.206,0,0,0,1.136-.232,1.524,1.524,0,0,0,.589-.77l.315-.826L31.812-10.038H34.7Zm-75.249,25.52,1.865-6.763h2.8L-37.406,25h-2.561l-3.386-10.038h2.8ZM-27.164,25a2.977,2.977,0,0,1-.269-.9,3.244,3.244,0,0,1-2.533,1.085,3.564,3.564,0,0,1-2.445-.854,2.745,2.745,0,0,1-.969-2.152A2.837,2.837,0,0,1-32.2,19.73a5.837,5.837,0,0,1,3.419-.863h1.234v-.575a1.654,1.654,0,0,0-.357-1.113,1.405,1.405,0,0,0-1.127-.417,1.6,1.6,0,0,0-1.062.325,1.1,1.1,0,0,0-.385.891h-2.681a2.693,2.693,0,0,1,.538-1.614A3.557,3.557,0,0,1-31.1,15.2a5.545,5.545,0,0,1,2.208-.422,4.381,4.381,0,0,1,2.946.932,3.262,3.262,0,0,1,1.09,2.621v4.351a4.8,4.8,0,0,0,.4,2.162V25Zm-2.217-1.865a2.309,2.309,0,0,0,1.095-.264,1.737,1.737,0,0,0,.742-.71V20.436h-1q-2.013,0-2.143,1.392l-.009.158a1.073,1.073,0,0,0,.353.826A1.369,1.369,0,0,0-29.381,23.135ZM-19.965,25h-2.69V10.75h2.69Zm5.038,0h-2.69V14.962h2.69Zm-2.848-12.636a1.32,1.32,0,0,1,.4-.993,1.516,1.516,0,0,1,1.1-.39,1.52,1.52,0,0,1,1.095.39,1.313,1.313,0,0,1,.408.993,1.316,1.316,0,0,1-.413,1,1.523,1.523,0,0,1-1.09.39,1.523,1.523,0,0,1-1.09-.39A1.316,1.316,0,0,1-17.775,12.364Zm4.639,7.542a6.049,6.049,0,0,1,1.053-3.739A3.417,3.417,0,0,1-9.2,14.776a3.074,3.074,0,0,1,2.421,1.095V10.75h2.69V25H-6.513l-.13-1.067a3.155,3.155,0,0,1-2.579,1.252,3.407,3.407,0,0,1-2.844-1.4A6.244,6.244,0,0,1-13.137,19.907Zm2.681.2a3.963,3.963,0,0,0,.492,2.165,1.6,1.6,0,0,0,1.429.753,1.794,1.794,0,0,0,1.753-1.05V18.006a1.768,1.768,0,0,0-1.735-1.05Q-10.456,16.957-10.456,20.106ZM3.8,25a2.977,2.977,0,0,1-.269-.9A3.244,3.244,0,0,1,1,25.186a3.564,3.564,0,0,1-2.445-.854,2.745,2.745,0,0,1-.969-2.152A2.837,2.837,0,0,1-1.229,19.73a5.837,5.837,0,0,1,3.419-.863H3.423v-.575a1.654,1.654,0,0,0-.357-1.113,1.405,1.405,0,0,0-1.127-.417,1.6,1.6,0,0,0-1.062.325,1.1,1.1,0,0,0-.385.891H-2.189a2.693,2.693,0,0,1,.538-1.614A3.557,3.557,0,0,1-.13,15.2a5.545,5.545,0,0,1,2.208-.422,4.381,4.381,0,0,1,2.946.932,3.262,3.262,0,0,1,1.09,2.621v4.351a4.8,4.8,0,0,0,.4,2.162V25ZM1.586,23.135a2.309,2.309,0,0,0,1.095-.264,1.737,1.737,0,0,0,.742-.71V20.436h-1q-2.013,0-2.143,1.392l-.009.158a1.073,1.073,0,0,0,.353.826A1.369,1.369,0,0,0,1.586,23.135Zm10.762-.111a1.759,1.759,0,0,0,1.206-.408,1.43,1.43,0,0,0,.482-1.085h2.514a3.439,3.439,0,0,1-.557,1.869,3.673,3.673,0,0,1-1.5,1.317,4.689,4.689,0,0,1-2.1.469A4.358,4.358,0,0,1,9,23.817a5.415,5.415,0,0,1-1.243-3.781V19.86a5.353,5.353,0,0,1,1.234-3.7,4.307,4.307,0,0,1,3.386-1.382,4.222,4.222,0,0,1,3.02,1.072A3.794,3.794,0,0,1,16.551,18.7H14.037a1.842,1.842,0,0,0-.482-1.273,1.608,1.608,0,0,0-1.225-.49,1.615,1.615,0,0,0-1.415.683,3.958,3.958,0,0,0-.478,2.216v.279a4.008,4.008,0,0,0,.473,2.23A1.635,1.635,0,0,0,12.348,23.024ZM20.911,25h-2.69V14.962h2.69ZM18.063,12.364a1.32,1.32,0,0,1,.4-.993,1.739,1.739,0,0,1,2.194,0,1.417,1.417,0,0,1,0,1.995,1.72,1.72,0,0,1-2.18,0A1.316,1.316,0,0,1,18.063,12.364ZM22.7,19.888a5.953,5.953,0,0,1,.575-2.663,4.211,4.211,0,0,1,1.656-1.809,4.831,4.831,0,0,1,2.51-.64,4.571,4.571,0,0,1,3.317,1.243A4.989,4.989,0,0,1,32.192,19.4l.019.687a5.247,5.247,0,0,1-1.29,3.706,4.482,4.482,0,0,1-3.46,1.4A4.5,4.5,0,0,1,24,23.794,5.339,5.339,0,0,1,22.7,20.009Zm2.681.19a3.752,3.752,0,0,0,.538,2.188,1.933,1.933,0,0,0,3.062.009,4.106,4.106,0,0,0,.547-2.393,3.715,3.715,0,0,0-.547-2.174,1.779,1.779,0,0,0-1.54-.771,1.75,1.75,0,0,0-1.521.767A4.175,4.175,0,0,0,25.383,20.079Zm2.588-9.329h2.922l-2.57,2.876h-2.18Zm8.359,4.212.083,1.16A3.5,3.5,0,0,1,39.3,14.776a2.913,2.913,0,0,1,2.375.937,4.372,4.372,0,0,1,.8,2.8V25H39.791V18.58a1.739,1.739,0,0,0-.371-1.239,1.661,1.661,0,0,0-1.234-.385,1.844,1.844,0,0,0-1.7.965V25H33.807V14.962Z" transform="translate(699.912 3032.363)" fill="#12263f"/>
    <path id="Trazado_980105" data-name="Trazado 980105" d="M-32.35-4.5a4.78,4.78,0,0,1-1.61,3.433A5.653,5.653,0,0,1-37.787.186a5.083,5.083,0,0,1-4.087-1.749,7.171,7.171,0,0,1-1.489-4.8V-7.19a8.1,8.1,0,0,1,.687-3.433A5.145,5.145,0,0,1-40.714-12.9a5.5,5.5,0,0,1,2.964-.793,5.507,5.507,0,0,1,3.767,1.252,5.137,5.137,0,0,1,1.651,3.516h-2.783a2.821,2.821,0,0,0-.728-1.9,2.7,2.7,0,0,0-1.906-.589,2.365,2.365,0,0,0-2.083,1,5.589,5.589,0,0,0-.71,3.094V-6.3a5.982,5.982,0,0,0,.663,3.2,2.321,2.321,0,0,0,2.092,1.011,2.748,2.748,0,0,0,1.925-.589A2.661,2.661,0,0,0-35.133-4.5Zm1.234-.612a5.953,5.953,0,0,1,.575-2.663,4.211,4.211,0,0,1,1.656-1.809,4.831,4.831,0,0,1,2.51-.64A4.571,4.571,0,0,1-23.059-8.98,4.989,4.989,0,0,1-21.625-5.6l.019.687A5.247,5.247,0,0,1-22.9-1.211a4.482,4.482,0,0,1-3.46,1.4,4.5,4.5,0,0,1-3.465-1.392,5.339,5.339,0,0,1-1.294-3.785Zm2.681.19A3.752,3.752,0,0,0-27.9-2.733a1.775,1.775,0,0,0,1.54.757,1.779,1.779,0,0,0,1.521-.748,4.106,4.106,0,0,0,.547-2.393,3.715,3.715,0,0,0-.547-2.174,1.779,1.779,0,0,0-1.54-.771A1.75,1.75,0,0,0-27.9-7.3,4.175,4.175,0,0,0-28.435-4.921Zm10.947-5.117.083,1.16a3.5,3.5,0,0,1,2.885-1.345,2.913,2.913,0,0,1,2.375.937,4.372,4.372,0,0,1,.8,2.8V0h-2.681V-6.42A1.739,1.739,0,0,0-14.4-7.658a1.661,1.661,0,0,0-1.234-.385,1.844,1.844,0,0,0-1.7.965V0h-2.681V-10.038ZM-6.1-12.506v2.468h1.716v1.967H-6.1v5.01a1.2,1.2,0,0,0,.213.8,1.072,1.072,0,0,0,.816.241,4.276,4.276,0,0,0,.789-.065V-.056A5.52,5.52,0,0,1-5.91.186,2.56,2.56,0,0,1-8.786-2.663V-8.071h-1.466v-1.967h1.466v-2.468ZM2.746-7.524A7.284,7.284,0,0,0,1.781-7.6,1.964,1.964,0,0,0-.213-6.568V0H-2.895V-10.038H-.362l.074,1.2a2.484,2.484,0,0,1,2.236-1.382,2.809,2.809,0,0,1,.835.121Zm.538,2.412a5.953,5.953,0,0,1,.575-2.663A4.211,4.211,0,0,1,5.515-9.583a4.831,4.831,0,0,1,2.51-.64A4.571,4.571,0,0,1,11.342-8.98,4.989,4.989,0,0,1,12.775-5.6l.019.687A5.247,5.247,0,0,1,11.5-1.211a4.482,4.482,0,0,1-3.46,1.4A4.5,4.5,0,0,1,4.578-1.206,5.339,5.339,0,0,1,3.284-4.991Zm2.681.19A3.752,3.752,0,0,0,6.5-2.733a1.775,1.775,0,0,0,1.54.757,1.779,1.779,0,0,0,1.521-.748,4.106,4.106,0,0,0,.547-2.393,3.715,3.715,0,0,0-.547-2.174,1.779,1.779,0,0,0-1.54-.771A1.75,1.75,0,0,0,6.5-7.3,4.175,4.175,0,0,0,5.965-4.921ZM17.274,0h-2.69V-14.25h2.69ZM23.8-5.093a6.049,6.049,0,0,1,1.053-3.739,3.417,3.417,0,0,1,2.881-1.392,3.074,3.074,0,0,1,2.421,1.095V-14.25h2.69V0H30.42l-.13-1.067A3.155,3.155,0,0,1,27.711.186a3.407,3.407,0,0,1-2.844-1.4A6.244,6.244,0,0,1,23.8-5.093Zm2.681.2a3.963,3.963,0,0,0,.492,2.165,1.6,1.6,0,0,0,1.429.753,1.794,1.794,0,0,0,1.753-1.05V-6.994a1.768,1.768,0,0,0-1.735-1.05Q26.478-8.043,26.478-4.894ZM39.54.186a4.928,4.928,0,0,1-3.595-1.354,4.815,4.815,0,0,1-1.387-3.609v-.26a6.064,6.064,0,0,1,.584-2.7A4.289,4.289,0,0,1,36.8-9.579a4.648,4.648,0,0,1,2.445-.645,4.166,4.166,0,0,1,3.242,1.3,5.278,5.278,0,0,1,1.183,3.683v1.095H37.276A2.491,2.491,0,0,0,38.06-2.57a2.37,2.37,0,0,0,1.656.594A2.894,2.894,0,0,0,42.138-3.1l1.317,1.475A4.025,4.025,0,0,1,41.822-.292,5.357,5.357,0,0,1,39.54.186Zm-.306-8.248a1.675,1.675,0,0,0-1.294.54A2.8,2.8,0,0,0,37.3-5.975h3.729v-.214a2,2,0,0,0-.482-1.384A1.729,1.729,0,0,0,39.234-8.062ZM-36.729,21.725l1.865-6.763h2.8L-35.449,25h-2.561L-41.4,14.962h2.8Zm10.465,3.46a4.928,4.928,0,0,1-3.595-1.354,4.815,4.815,0,0,1-1.387-3.609v-.26a6.064,6.064,0,0,1,.584-2.7,4.289,4.289,0,0,1,1.656-1.837,4.648,4.648,0,0,1,2.445-.645,4.166,4.166,0,0,1,3.242,1.3,5.278,5.278,0,0,1,1.183,3.683v1.095h-6.392a2.491,2.491,0,0,0,.784,1.577,2.37,2.37,0,0,0,1.656.594A2.894,2.894,0,0,0-23.667,21.9l1.317,1.475a4.025,4.025,0,0,1-1.633,1.331A5.357,5.357,0,0,1-26.264,25.186Zm-.306-8.248a1.675,1.675,0,0,0-1.294.54,2.8,2.8,0,0,0-.635,1.547h3.729v-.214a2,2,0,0,0-.482-1.384A1.729,1.729,0,0,0-26.57,16.938Zm11.6.538a7.284,7.284,0,0,0-.965-.074,1.964,1.964,0,0,0-1.995,1.03V25h-2.681V14.962h2.533l.074,1.2a2.484,2.484,0,0,1,2.236-1.382,2.809,2.809,0,0,1,.835.121Zm6.726,4.75a.864.864,0,0,0-.487-.775,5.533,5.533,0,0,0-1.563-.506q-3.581-.751-3.581-3.043a2.758,2.758,0,0,1,1.109-2.231,4.472,4.472,0,0,1,2.9-.9,4.813,4.813,0,0,1,3.057.9,2.836,2.836,0,0,1,1.146,2.338H-8.35a1.3,1.3,0,0,0-.371-.951,1.57,1.57,0,0,0-1.16-.376,1.6,1.6,0,0,0-1.048.306.966.966,0,0,0-.371.779.826.826,0,0,0,.422.719,4.342,4.342,0,0,0,1.424.473,11.631,11.631,0,0,1,1.688.45,2.774,2.774,0,0,1,2.125,2.7,2.618,2.618,0,0,1-1.178,2.222,5.083,5.083,0,0,1-3.043.849,5.309,5.309,0,0,1-2.24-.45A3.759,3.759,0,0,1-13.638,23.5a2.867,2.867,0,0,1-.557-1.693h2.542a1.4,1.4,0,0,0,.529,1.095,2.1,2.1,0,0,0,1.317.38,1.941,1.941,0,0,0,1.164-.292A.909.909,0,0,0-8.248,22.226ZM-1.085,25h-2.69V14.962h2.69ZM-3.934,12.364a1.32,1.32,0,0,1,.4-.993,1.516,1.516,0,0,1,1.1-.39,1.52,1.52,0,0,1,1.095.39,1.313,1.313,0,0,1,.408.993,1.316,1.316,0,0,1-.413,1,1.523,1.523,0,0,1-1.09.39,1.523,1.523,0,0,1-1.09-.39A1.316,1.316,0,0,1-3.934,12.364ZM.705,19.888a5.953,5.953,0,0,1,.575-2.663,4.211,4.211,0,0,1,1.656-1.809,4.831,4.831,0,0,1,2.51-.64A4.571,4.571,0,0,1,8.762,16.02,4.989,4.989,0,0,1,10.2,19.4l.019.687a5.247,5.247,0,0,1-1.29,3.706,4.482,4.482,0,0,1-3.46,1.4A4.5,4.5,0,0,1,2,23.794,5.339,5.339,0,0,1,.705,20.009Zm2.681.19a3.752,3.752,0,0,0,.538,2.188,1.775,1.775,0,0,0,1.54.757,1.779,1.779,0,0,0,1.521-.748,4.106,4.106,0,0,0,.547-2.393,3.715,3.715,0,0,0-.547-2.174,1.779,1.779,0,0,0-1.54-.771,1.75,1.75,0,0,0-1.521.767A4.175,4.175,0,0,0,3.386,20.079Zm10.947-5.117.083,1.16A3.5,3.5,0,0,1,17.3,14.776a2.913,2.913,0,0,1,2.375.937,4.372,4.372,0,0,1,.8,2.8V25H17.794V18.58a1.739,1.739,0,0,0-.371-1.239,1.661,1.661,0,0,0-1.234-.385,1.844,1.844,0,0,0-1.7.965V25H11.81V14.962ZM27.127,25.186a4.928,4.928,0,0,1-3.595-1.354,4.815,4.815,0,0,1-1.387-3.609v-.26a6.064,6.064,0,0,1,.584-2.7,4.289,4.289,0,0,1,1.656-1.837,4.648,4.648,0,0,1,2.445-.645,4.166,4.166,0,0,1,3.242,1.3,5.278,5.278,0,0,1,1.183,3.683v1.095H24.863a2.491,2.491,0,0,0,.784,1.577,2.37,2.37,0,0,0,1.656.594A2.894,2.894,0,0,0,29.725,21.9l1.317,1.475a4.025,4.025,0,0,1-1.633,1.331A5.357,5.357,0,0,1,27.127,25.186Zm-.306-8.248a1.675,1.675,0,0,0-1.294.54,2.8,2.8,0,0,0-.635,1.547h3.729v-.214a2,2,0,0,0-.482-1.384A1.729,1.729,0,0,0,26.821,16.938Zm11.393,5.288a.864.864,0,0,0-.487-.775,5.533,5.533,0,0,0-1.563-.506q-3.581-.751-3.581-3.043a2.758,2.758,0,0,1,1.109-2.231,4.472,4.472,0,0,1,2.9-.9,4.813,4.813,0,0,1,3.057.9,2.836,2.836,0,0,1,1.146,2.338H38.111a1.3,1.3,0,0,0-.371-.951,1.57,1.57,0,0,0-1.16-.376,1.6,1.6,0,0,0-1.048.306.966.966,0,0,0-.371.779.826.826,0,0,0,.422.719,4.342,4.342,0,0,0,1.424.473,11.632,11.632,0,0,1,1.688.45,2.774,2.774,0,0,1,2.125,2.7,2.618,2.618,0,0,1-1.178,2.222,5.083,5.083,0,0,1-3.043.849,5.309,5.309,0,0,1-2.24-.45A3.759,3.759,0,0,1,32.823,23.5a2.867,2.867,0,0,1-.557-1.693h2.542a1.4,1.4,0,0,0,.529,1.095,2.1,2.1,0,0,0,1.317.38,1.941,1.941,0,0,0,1.164-.292A.909.909,0,0,0,38.213,22.226Z" transform="translate(696.448 2729.621)" fill="#12263f"/>
    <g id="Grupo_1106205" data-name="Grupo 1106205" transform="translate(732.757 2840.329)">
      <g id="Grupo_1106204" data-name="Grupo 1106204" clip-path="url(#clip-path-2)">
        <g id="Grupo_1106203" data-name="Grupo 1106203" transform="translate(0 0)">
          <g id="Grupo_1106202" data-name="Grupo 1106202" clip-path="url(#clip-path-3)">
            <path id="Trazado_889922" data-name="Trazado 889922" d="M117.339,248.515V194.787a7.178,7.178,0,0,1,7.178-7.178h88.572a7.178,7.178,0,0,1,7.178,7.178v53.729a7.178,7.178,0,0,1-7.178,7.178H124.517a7.178,7.178,0,0,1-7.178-7.178" transform="translate(-108.774 -173.915)" fill="#2e2e2c"/>
            <rect id="Rectángulo_404559" data-name="Rectángulo 404559" width="94.517" height="55.268" transform="translate(12.77 20.102)" fill="#b5f6ff"/>
            <rect id="Rectángulo_404560" data-name="Rectángulo 404560" width="38.072" height="51.136" transform="translate(5.762 24.704) rotate(-36.985)" fill="#fff"/>
            <path id="Trazado_889923" data-name="Trazado 889923" d="M171.68,241.774h0a.559.559,0,0,1,.11-.783L185.182,230.9a.559.559,0,1,1,.673.894l-13.392,10.086a.559.559,0,0,1-.783-.11" transform="translate(-159.044 -213.946)" fill="#a3bac4"/>
            <path id="Trazado_889924" data-name="Trazado 889924" d="M198.327,175.125h0a.56.56,0,0,1,.11-.783l24.059-18.12a.559.559,0,0,1,.673.894l-24.059,18.12a.559.559,0,0,1-.783-.11" transform="translate(-183.746 -144.714)" fill="#a3bac4"/>
            <path id="Trazado_889925" data-name="Trazado 889925" d="M223.038,207.935h0a.559.559,0,0,1,.11-.783l24.059-18.12a.559.559,0,0,1,.673.894l-24.059,18.12a.559.559,0,0,1-.783-.11" transform="translate(-206.653 -175.129)" fill="#a3bac4"/>
            <path id="Trazado_889926" data-name="Trazado 889926" d="M478.311,299.335h0a.559.559,0,0,1,.11-.783l4.935-3.717a.559.559,0,0,1,.673.894l-4.935,3.717a.559.559,0,0,1-.783-.11" transform="translate(-443.293 -273.209)" fill="#a3bac4"/>
            <path id="Trazado_889927" data-name="Trazado 889927" d="M504.555,295.685h0a.559.559,0,0,1,.11-.783l8.96-6.748a.559.559,0,1,1,.673.894l-8.96,6.748a.559.559,0,0,1-.783-.11" transform="translate(-467.621 -267.017)" fill="#a3bac4"/>
            <path id="Trazado_889928" data-name="Trazado 889928" d="M530.175,329.7h0a.559.559,0,0,1,.11-.784l8.96-6.748a.559.559,0,0,1,.673.894l-8.96,6.748a.559.559,0,0,1-.783-.11" transform="translate(-491.371 -298.551)" fill="#a3bac4"/>
            <path id="Trazado_889929" data-name="Trazado 889929" d="M556.54,364.709h0a.559.559,0,0,1,.11-.783l8.96-6.748a.559.559,0,1,1,.673.894l-8.96,6.748a.559.559,0,0,1-.783-.11" transform="translate(-515.811 -331.002)" fill="#a3bac4"/>
            <rect id="Rectángulo_404561" data-name="Rectángulo 404561" width="3.953" height="10.34" transform="translate(22.807 38.194) rotate(-36.985)" fill="#d0dd63"/>
            <rect id="Rectángulo_404562" data-name="Rectángulo 404562" width="3.953" height="13.005" transform="matrix(0.799, -0.602, 0.602, 0.799, 25.311, 32.972)" fill="#feb50e"/>
            <rect id="Rectángulo_404563" data-name="Rectángulo 404563" width="3.953" height="15.777" transform="translate(27.767 27.652) rotate(-36.985)" fill="#fd1a48"/>
            <g id="Grupo_1106183" data-name="Grupo 1106183" transform="translate(29.381 31.269)" opacity="0.588">
              <g id="Grupo_1106182" data-name="Grupo 1106182">
                <g id="Grupo_1106181" data-name="Grupo 1106181" clip-path="url(#clip-path-4)">
                  <rect id="Rectángulo_404564" data-name="Rectángulo 404564" width="31.239" height="13.296" transform="matrix(0.799, -0.602, 0.602, 0.799, 0, 18.793)" fill="#a3bac4"/>
                </g>
              </g>
            </g>
            <g id="Grupo_1106186" data-name="Grupo 1106186" transform="translate(29.381 31.269)" opacity="0.588">
              <g id="Grupo_1106185" data-name="Grupo 1106185">
                <g id="Grupo_1106184" data-name="Grupo 1106184" clip-path="url(#clip-path-5)">
                  <rect id="Rectángulo_404566" data-name="Rectángulo 404566" width="31.239" height="3.524" transform="matrix(0.799, -0.602, 0.602, 0.799, 0, 18.793)" fill="#a3bac4"/>
                </g>
              </g>
            </g>
            <rect id="Rectángulo_404568" data-name="Rectángulo 404568" width="51.136" height="38.072" transform="translate(58.738 56.498) rotate(-66.039)" fill="#fff"/>
            <path id="Trazado_889930" data-name="Trazado 889930" d="M1096.9,232.722h0a.559.559,0,0,1,.739-.284l15.32,6.808a.559.559,0,1,1-.454,1.023l-15.32-6.809a.559.559,0,0,1-.284-.738" transform="translate(-1016.788 -215.427)" fill="#a3bac4"/>
            <path id="Trazado_889931" data-name="Trazado 889931" d="M1078.912,273.2h0a.559.559,0,0,1,.738-.284l27.524,12.232a.559.559,0,0,1-.454,1.022L1079.2,273.936a.559.559,0,0,1-.284-.738" transform="translate(-1000.113 -252.948)" fill="#a3bac4"/>
            <path id="Trazado_889932" data-name="Trazado 889932" d="M1062.231,310.734h0a.56.56,0,0,1,.739-.284l27.524,12.232a.559.559,0,0,1-.455,1.022l-27.524-12.232a.559.559,0,0,1-.284-.738" transform="translate(-984.649 -287.744)" fill="#a3bac4"/>
            <path id="Trazado_889933" data-name="Trazado 889933" d="M1266.206,489.437h0a.559.559,0,0,1,.738-.284l5.646,2.509a.559.559,0,1,1-.454,1.022l-5.646-2.509a.559.559,0,0,1-.284-.738" transform="translate(-1173.735 -453.403)" fill="#a3bac4"/>
            <path id="Trazado_889934" data-name="Trazado 889934" d="M1248.49,529.3h0a.559.559,0,0,1,.738-.284l10.25,4.555a.559.559,0,1,1-.454,1.022l-10.25-4.555a.56.56,0,0,1-.284-.738" transform="translate(-1157.312 -490.357)" fill="#a3bac4"/>
            <path id="Trazado_889935" data-name="Trazado 889935" d="M1231.195,568.217h0a.559.559,0,0,1,.739-.284l10.25,4.555a.559.559,0,1,1-.454,1.022l-10.25-4.555a.56.56,0,0,1-.284-.739" transform="translate(-1141.28 -526.432)" fill="#a3bac4"/>
            <path id="Trazado_889936" data-name="Trazado 889936" d="M1213.4,608.265h0a.559.559,0,0,1,.738-.284l10.25,4.555a.559.559,0,1,1-.454,1.022L1213.682,609a.559.559,0,0,1-.284-.738" transform="translate(-1124.782 -563.557)" fill="#a3bac4"/>
            <rect id="Rectángulo_404569" data-name="Rectángulo 404569" width="10.34" height="3.953" transform="translate(71.791 40.669) rotate(-66.039)" fill="#d0dd63"/>
            <rect id="Rectángulo_404570" data-name="Rectángulo 404570" width="13.005" height="3.953" transform="translate(76.49 42.758) rotate(-66.039)" fill="#feb50e"/>
            <rect id="Rectángulo_404571" data-name="Rectángulo 404571" width="15.777" height="3.953" transform="matrix(0.406, -0.914, 0.914, 0.406, 81.207, 44.854)" fill="#fd1a48"/>
            <g id="Grupo_1106189" data-name="Grupo 1106189" transform="translate(63.409 42.731)" opacity="0.588">
              <g id="Grupo_1106188" data-name="Grupo 1106188">
                <g id="Grupo_1106187" data-name="Grupo 1106187" clip-path="url(#clip-path-6)">
                  <rect id="Rectángulo_404572" data-name="Rectángulo 404572" width="13.296" height="31.239" transform="matrix(0.406, -0.914, 0.914, 0.406, 0, 12.151)" fill="#a3bac4"/>
                </g>
              </g>
            </g>
            <g id="Grupo_1106192" data-name="Grupo 1106192" transform="translate(67.377 42.731)" opacity="0.588">
              <g id="Grupo_1106191" data-name="Grupo 1106191">
                <g id="Grupo_1106190" data-name="Grupo 1106190" clip-path="url(#clip-path-7)">
                  <rect id="Rectángulo_404574" data-name="Rectángulo 404574" width="3.524" height="31.239" transform="translate(0 3.221) rotate(-66.039)" fill="#a3bac4"/>
                </g>
              </g>
            </g>
            <rect id="Rectángulo_404576" data-name="Rectángulo 404576" width="38.072" height="51.136" transform="translate(40.054 0)" fill="#fff"/>
            <path id="Trazado_889937" data-name="Trazado 889937" d="M598.209,83.851v-.217a.451.451,0,0,1,.451-.451h16.983a.451.451,0,0,1,.451.451v.217a.451.451,0,0,1-.451.451H598.66a.451.451,0,0,1-.451-.451" transform="translate(-554.543 -77.111)" fill="#a3bac4"/>
            <path id="Trazado_889938" data-name="Trazado 889938" d="M598.209,128.316v-.559a.28.28,0,0,1,.28-.28h30.679a.28.28,0,0,1,.28.28v.559a.28.28,0,0,1-.28.28H598.489a.28.28,0,0,1-.28-.28" transform="translate(-554.543 -118.172)" fill="#a3bac4"/>
            <path id="Trazado_889939" data-name="Trazado 889939" d="M598.209,169.22V169a.451.451,0,0,1,.451-.451H629a.451.451,0,0,1,.451.451v.217a.451.451,0,0,1-.451.451H598.66a.451.451,0,0,1-.451-.451" transform="translate(-554.543 -156.249)" fill="#a3bac4"/>
            <path id="Trazado_889940" data-name="Trazado 889940" d="M857.179,249.687v-.217a.451.451,0,0,1,.451-.451h6.395a.451.451,0,0,1,.451.451v.217a.451.451,0,0,1-.451.451H857.63a.451.451,0,0,1-.451-.451" transform="translate(-794.61 -230.842)" fill="#a3bac4"/>
            <path id="Trazado_889941" data-name="Trazado 889941" d="M857.179,293.31v-.217a.451.451,0,0,1,.451-.451h11.433a.451.451,0,0,1,.451.451v.217a.451.451,0,0,1-.451.451H857.63a.451.451,0,0,1-.451-.451" transform="translate(-794.61 -271.281)" fill="#a3bac4"/>
            <path id="Trazado_889942" data-name="Trazado 889942" d="M857.179,335.9v-.217a.451.451,0,0,1,.451-.451h11.433a.451.451,0,0,1,.451.451v.217a.451.451,0,0,1-.451.451H857.63a.451.451,0,0,1-.451-.451" transform="translate(-794.61 -310.759)" fill="#a3bac4"/>
            <path id="Trazado_889943" data-name="Trazado 889943" d="M857.179,379.72V379.5a.451.451,0,0,1,.451-.451h11.433a.451.451,0,0,1,.451.451v.217a.451.451,0,0,1-.451.451H857.63a.451.451,0,0,1-.451-.451" transform="translate(-794.61 -351.384)" fill="#a3bac4"/>
            <rect id="Rectángulo_404577" data-name="Rectángulo 404577" width="3.953" height="10.34" transform="translate(45.554 21.03)" fill="#d0dd63"/>
            <rect id="Rectángulo_404578" data-name="Rectángulo 404578" width="3.953" height="13.005" transform="translate(50.696 18.365)" fill="#feb50e"/>
            <rect id="Rectángulo_404579" data-name="Rectángulo 404579" width="3.953" height="15.777" transform="translate(55.859 15.594)" fill="#fd1a48"/>
            <g id="Grupo_1106195" data-name="Grupo 1106195" transform="translate(43.666 34.465)" opacity="0.588">
              <g id="Grupo_1106194" data-name="Grupo 1106194">
                <g id="Grupo_1106193" data-name="Grupo 1106193" clip-path="url(#clip-path-8)">
                  <rect id="Rectángulo_404580" data-name="Rectángulo 404580" width="31.239" height="13.296" transform="translate(0 0)" fill="#a3bac4"/>
                </g>
              </g>
            </g>
            <g id="Grupo_1106198" data-name="Grupo 1106198" transform="translate(43.666 34.465)" opacity="0.588">
              <g id="Grupo_1106197" data-name="Grupo 1106197">
                <g id="Grupo_1106196" data-name="Grupo 1106196" clip-path="url(#clip-path-9)">
                  <rect id="Rectángulo_404582" data-name="Rectángulo 404582" width="31.239" height="3.524" transform="translate(0 0)" fill="#a3bac4"/>
                </g>
              </g>
            </g>
            <path id="Trazado_889944" data-name="Trazado 889944" d="M267.352,391.137a11.588,11.588,0,1,1,11.062,12.091,11.588,11.588,0,0,1-11.062-12.091" transform="translate(-247.826 -352.321)" fill="#fff"/>
            <path id="Trazado_889945" data-name="Trazado 889945" d="M300.882,535.552l-22.4,2.507a11.479,11.479,0,0,1-.472-1.92l22.907-2.564a11.506,11.506,0,0,1-.038,1.977" transform="translate(-257.72 -494.627)" fill="#a3bac4"/>
            <path id="Trazado_889946" data-name="Trazado 889946" d="M329.523,612.164a11.411,11.411,0,0,1-1.309,2.119l-16.422,1.838a11.574,11.574,0,0,1-1-.928q-.394-.411-.741-.849Z" transform="translate(-287.416 -567.48)" fill="#a3bac4"/>
            <path id="Trazado_889947" data-name="Trazado 889947" d="M298.878,409.083l-5.3.593a11.605,11.605,0,0,1,4.814-4.892Z" transform="translate(-272.153 -375.237)" fill="#d0dd63"/>
            <path id="Trazado_889948" data-name="Trazado 889948" d="M470.757,392.871l-6.133.687-.515-4.6a11.48,11.48,0,0,1,6.13,3.333q.27.281.518.576" transform="translate(-430.232 -360.57)" fill="#feb50e"/>
            <g id="Grupo_1106201" data-name="Grupo 1106201" transform="translate(20.154 28.183)" opacity="0.361">
              <g id="Grupo_1106200" data-name="Grupo 1106200">
                <g id="Grupo_1106199" data-name="Grupo 1106199" clip-path="url(#clip-path-10)">
                  <path id="Trazado_889949" data-name="Trazado 889949" d="M299.112,398.849a11.518,11.518,0,0,1-1.056,3.759h0a11.407,11.407,0,0,1-1.309,2.119,11.654,11.654,0,0,1-1.113,1.233,11.531,11.531,0,0,1-16.311-.323q-.395-.41-.741-.849a11.484,11.484,0,0,1-2.338-5.352,11.536,11.536,0,0,1,19.714-9.786q.27.281.518.576a11.532,11.532,0,0,1,2.638,8.624" transform="translate(-276.103 -386.108)" fill="#c3fcf9"/>
                </g>
              </g>
            </g>
            <path id="Trazado_889950" data-name="Trazado 889950" d="M260.141,349.608a14.526,14.526,0,1,0-.406,20.539,14.526,14.526,0,0,0,.406-20.539m-18.577,17.856a11.241,11.241,0,1,1,15.894.314,11.241,11.241,0,0,1-15.894-.314" transform="translate(-217.978 -319.955)" fill="#2e2e2c"/>
            <rect id="Rectángulo_404585" data-name="Rectángulo 404585" width="7.793" height="3.94" transform="translate(15.405 52.64) rotate(-43.866)" fill="#2e2e2c"/>
            <path id="Trazado_889951" data-name="Trazado 889951" d="M21.028,686.457l-16.1,15.477a3.522,3.522,0,0,1-2.208,1,2.564,2.564,0,0,1-2.034-.751,3.023,3.023,0,0,1,.419-4.228l16.1-15.477Z" transform="translate(0 -632.663)" fill="#feb50e"/>
            <path id="Trazado_889952" data-name="Trazado 889952" d="M369.31,407.735a.684.684,0,0,1,.453-.693,11.476,11.476,0,0,1,8.731.379,12.192,12.192,0,0,1,3.42,2.279.684.684,0,0,1-.976.957,11.06,11.06,0,0,0-3.056-2.012,9.985,9.985,0,0,0-7.662-.315.684.684,0,0,1-.911-.6" transform="translate(-342.351 -376.694)" fill="#fff"/>
            <rect id="Rectángulo_404586" data-name="Rectángulo 404586" width="15.219" height="8.41" transform="translate(52.419 81.778)" fill="#2e2e2c"/>
            <path id="Trazado_889953" data-name="Trazado 889953" d="M642.444,1234.567v1.8H611.686v-1.8c0-2.986,2.052-5.407,4.583-5.407h21.592c2.531,0,4.583,2.421,4.583,5.407" transform="translate(-567.036 -1139.438)" fill="#2e2e2c"/>
          </g>
        </g>
      </g>
    </g>
  </g>
</svg>
