<svg id="Grupo_1145865" data-name="Grupo 1145865" xmlns="http://www.w3.org/2000/svg" xmlns:xlink="http://www.w3.org/1999/xlink" width="505" height="412.728" viewBox="0 0 505 412.728">
  <defs>
    <clipPath id="clip-path">
      <rect id="Rectángulo_405407" data-name="Rectángulo 405407" width="505" height="412.728" fill="none"/>
    </clipPath>
    <clipPath id="clip-path-3">
      <rect id="Rectángulo_405326" data-name="Rectángulo 405326" width="444.486" height="412.728" fill="none"/>
    </clipPath>
    <clipPath id="clip-path-5">
      <rect id="Rectángulo_405328" data-name="Rectángulo 405328" width="327.967" height="239.187" fill="none"/>
    </clipPath>
    <clipPath id="clip-path-6">
      <rect id="Rectángulo_405327" data-name="Rectángulo 405327" width="327.964" height="239.187" fill="none"/>
    </clipPath>
    <clipPath id="clip-path-7">
      <rect id="Rectángulo_405330" data-name="Rectángulo 405330" width="170.826" height="155.582" fill="none"/>
    </clipPath>
    <clipPath id="clip-path-8">
      <rect id="Rectángulo_405329" data-name="Rectángulo 405329" width="170.823" height="155.582" fill="none"/>
    </clipPath>
    <clipPath id="clip-path-9">
      <rect id="Rectángulo_405358" data-name="Rectángulo 405358" width="89.768" height="6.955" fill="none"/>
    </clipPath>
    <clipPath id="clip-path-10">
      <rect id="Rectángulo_405357" data-name="Rectángulo 405357" width="89.767" height="6.955" fill="none"/>
    </clipPath>
    <clipPath id="clip-path-11">
      <rect id="Rectángulo_405361" data-name="Rectángulo 405361" width="51.861" height="6.955" fill="none"/>
    </clipPath>
    <clipPath id="clip-path-13">
      <rect id="Rectángulo_405364" data-name="Rectángulo 405364" width="30.209" height="6.955" fill="none"/>
    </clipPath>
    <clipPath id="clip-path-15">
      <rect id="Rectángulo_405367" data-name="Rectángulo 405367" width="49.714" height="6.955" fill="none"/>
    </clipPath>
    <clipPath id="clip-path-17">
      <rect id="Rectángulo_405370" data-name="Rectángulo 405370" width="77.496" height="6.955" fill="none"/>
    </clipPath>
    <clipPath id="clip-path-21">
      <rect id="Rectángulo_405376" data-name="Rectángulo 405376" width="36.182" height="6.955" fill="none"/>
    </clipPath>
    <clipPath id="clip-path-23">
      <rect id="Rectángulo_405379" data-name="Rectángulo 405379" width="58.581" height="6.955" fill="none"/>
    </clipPath>
    <clipPath id="clip-path-25">
      <rect id="Rectángulo_405382" data-name="Rectángulo 405382" width="71.025" height="6.955" fill="none"/>
    </clipPath>
    <clipPath id="clip-path-29">
      <rect id="Rectángulo_405390" data-name="Rectángulo 405390" width="38.933" height="116.943" fill="none"/>
    </clipPath>
    <clipPath id="clip-path-30">
      <rect id="Rectángulo_405389" data-name="Rectángulo 405389" width="38.932" height="116.943" fill="none"/>
    </clipPath>
    <clipPath id="clip-path-31">
      <rect id="Rectángulo_405392" data-name="Rectángulo 405392" width="83.268" height="130.19" fill="none"/>
    </clipPath>
    <clipPath id="clip-path-32">
      <rect id="Rectángulo_405391" data-name="Rectángulo 405391" width="83.267" height="130.19" fill="none"/>
    </clipPath>
    <clipPath id="clip-path-33">
      <rect id="Rectángulo_405394" data-name="Rectángulo 405394" width="41.042" height="120.01" fill="none"/>
    </clipPath>
    <clipPath id="clip-path-34">
      <rect id="Rectángulo_405393" data-name="Rectángulo 405393" width="41.042" height="120.009" fill="none"/>
    </clipPath>
    <clipPath id="clip-path-35">
      <rect id="Rectángulo_405396" data-name="Rectángulo 405396" width="58.898" height="59.173" fill="none"/>
    </clipPath>
    <clipPath id="clip-path-37">
      <rect id="Rectángulo_405398" data-name="Rectángulo 405398" width="46.524" height="17.096" fill="none"/>
    </clipPath>
    <clipPath id="clip-path-39">
      <rect id="Rectángulo_405400" data-name="Rectángulo 405400" width="33.4" height="10.772" fill="none"/>
    </clipPath>
    <clipPath id="clip-path-41">
      <rect id="Rectángulo_405404" data-name="Rectángulo 405404" width="107.367" height="61.128" fill="none"/>
    </clipPath>
    <clipPath id="clip-path-42">
      <rect id="Rectángulo_405403" data-name="Rectángulo 405403" width="107.367" height="61.126" fill="none"/>
    </clipPath>
  </defs>
  <g id="Grupo_1145864" data-name="Grupo 1145864" clip-path="url(#clip-path)">
    <g id="Grupo_1145863" data-name="Grupo 1145863">
      <g id="Grupo_1145862" data-name="Grupo 1145862" clip-path="url(#clip-path)">
        <path id="Trazado_979301" data-name="Trazado 979301" d="M496.256,240.435a366.844,366.844,0,0,0,16.035-102.389c.561-35.73-3.319-74.372-26.972-101.156C462.185,10.693,425.064,1.741,390.148.224,376-.391,361.563.02,348.137,4.5c-27.111,9.061-46.118,33.092-70.165,48.55C231.546,82.9,168.818,79.372,124.187,111.834a128.288,128.288,0,0,0-29.43,30.454c-32.536,46.6-35.075,111.162-10.245,162.29s74.78,88.217,129.971,101.8,114.765,4.689,165.9-20.13c59.61-28.929,96.722-84.308,115.872-145.813" transform="translate(-7.34 0)" fill="#6e99ff"/>
        <g id="Grupo_1145766" data-name="Grupo 1145766" transform="translate(60.514)" opacity="0.7">
          <g id="Grupo_1145765" data-name="Grupo 1145765">
            <g id="Grupo_1145764" data-name="Grupo 1145764" clip-path="url(#clip-path-3)">
              <g id="Grupo_1145763" data-name="Grupo 1145763">
                <g id="Grupo_1145762" data-name="Grupo 1145762" clip-path="url(#clip-path-3)">
                  <path id="Trazado_979302" data-name="Trazado 979302" d="M496.256,240.435a366.844,366.844,0,0,0,16.035-102.389c.561-35.73-3.319-74.372-26.972-101.156C462.185,10.693,425.064,1.741,390.148.224,376-.391,361.563.02,348.137,4.5c-27.111,9.061-46.118,33.092-70.165,48.55C231.546,82.9,168.818,79.372,124.187,111.834a128.288,128.288,0,0,0-29.43,30.454c-32.536,46.6-35.075,111.162-10.245,162.29s74.78,88.217,129.971,101.8,114.765,4.689,165.9-20.13c59.61-28.929,96.722-84.308,115.872-145.813" transform="translate(-67.854 0)" fill="#fff"/>
                </g>
              </g>
            </g>
          </g>
        </g>
        <path id="Trazado_979303" data-name="Trazado 979303" d="M415,26.965V260.794a12.587,12.587,0,0,1-12.589,12.585H90.536a12.587,12.587,0,0,1-12.585-12.585V26.965A12.587,12.587,0,0,1,90.53,14.37H402.406A12.589,12.589,0,0,1,415,26.953v.014" transform="translate(-8.433 -1.555)" fill="#fff"/>
        <path id="Trazado_979304" data-name="Trazado 979304" d="M416.1,36.6V263.2a12.587,12.587,0,0,1-12.589,12.585H91.636a12.488,12.488,0,0,1-3.5-.5Z" transform="translate(-9.535 -3.959)" fill="#382e34"/>
        <g id="Grupo_1145771" data-name="Grupo 1145771" transform="translate(78.602 32.638)" opacity="0.9">
          <g id="Grupo_1145770" data-name="Grupo 1145770">
            <g id="Grupo_1145769" data-name="Grupo 1145769" clip-path="url(#clip-path-5)">
              <g id="Grupo_1145768" data-name="Grupo 1145768" transform="translate(0.003)">
                <g id="Grupo_1145767" data-name="Grupo 1145767" clip-path="url(#clip-path-6)">
                  <path id="Trazado_979305" data-name="Trazado 979305" d="M416.1,36.6V263.2a12.587,12.587,0,0,1-12.589,12.585H91.636a12.488,12.488,0,0,1-3.5-.5Z" transform="translate(-88.14 -36.597)" fill="#fff"/>
                </g>
              </g>
            </g>
          </g>
        </g>
        <path id="Trazado_979306" data-name="Trazado 979306" d="M337.054,166.432l16.984-7.67-3.625-20.321-18.716-1.5a77.074,77.074,0,0,0-9.41-17.665l5.877-9.953,3.764-6.385L317.356,88.474l-16.326,9.8A79.991,79.991,0,0,0,269.8,85.4l-4.7-18.7H244.455l-4.838,18.843a85.5,85.5,0,0,0-18.485,5.946L206.342,78.74l-16.88,11.5,7.02,18.22a76.76,76.76,0,0,0-11.5,15.387l-19.432-1.962-6.986,19.4,16.061,10.911a78.738,78.738,0,0,0-1.143,13.786,43.034,43.034,0,0,0,0,5.716l-16.984,9.54,5.392,19.859h19.174a80.974,80.974,0,0,0,6.443,11.361q1.873,2.77,3.972,5.392l-8.267,17.111,15.841,13.288,15.287-11.454a80.861,80.861,0,0,0,18.489,7.808l3.071,18.485,20.575,1.825,6.177-17.434a86.359,86.359,0,0,0,19.756-4.376l13.071,13.059,17.9-10.322-4.93-17.8a80.613,80.613,0,0,0,13.771-14.884l18.127,3.256,8.729-18.682-14.246-11.488a82.8,82.8,0,0,0,2.23-19.8m-47.061,0a35,35,0,1,1-10.335-24.841c.635.635,1.249,1.282,1.813,1.962a34.794,34.794,0,0,1,8.521,22.652Z" transform="translate(-16.93 -7.216)" fill="#6e99ff"/>
        <path id="Trazado_979307" data-name="Trazado 979307" d="M337.054,166.432l16.984-7.67-3.625-20.321-18.716-1.5a77.074,77.074,0,0,0-9.41-17.665l5.877-9.953,3.764-6.385L317.356,88.474l-16.326,9.8A79.991,79.991,0,0,0,269.8,85.4l-4.7-18.7H244.455l-4.838,18.843a85.5,85.5,0,0,0-18.485,5.946L206.342,78.74l-16.88,11.5,7.02,18.22a76.76,76.76,0,0,0-11.5,15.387l-19.432-1.962-6.986,19.4,16.061,10.911a78.738,78.738,0,0,0-1.143,13.786,43.034,43.034,0,0,0,0,5.716l-16.984,9.54,5.392,19.859h19.174a80.974,80.974,0,0,0,6.443,11.361q1.873,2.77,3.972,5.392l-8.267,17.111,15.841,13.288,15.287-11.454a80.861,80.861,0,0,0,18.489,7.808l3.071,18.485,20.575,1.825,6.177-17.434a86.359,86.359,0,0,0,19.756-4.376l13.071,13.059,17.9-10.322-4.93-17.8a80.613,80.613,0,0,0,13.771-14.884l18.127,3.256,8.729-18.682-14.246-11.488A82.834,82.834,0,0,0,337.054,166.432Zm-47.061,0a35,35,0,1,1-10.333-24.837c.635.635,1.249,1.282,1.813,1.962a34.794,34.794,0,0,1,8.521,22.652Z" transform="translate(-16.93 -7.216)" fill="none" stroke="#382e34" stroke-miterlimit="10" stroke-width="1"/>
        <g id="Grupo_1145776" data-name="Grupo 1145776" transform="translate(166.285 102.111)" opacity="0.2">
          <g id="Grupo_1145775" data-name="Grupo 1145775">
            <g id="Grupo_1145774" data-name="Grupo 1145774" clip-path="url(#clip-path-7)">
              <g id="Grupo_1145773" data-name="Grupo 1145773">
                <g id="Grupo_1145772" data-name="Grupo 1145772" clip-path="url(#clip-path-8)">
                  <path id="Trazado_979308" data-name="Trazado 979308" d="M338.067,191.405l14.25,11.488-8.731,18.677-18.127-3.256A80.589,80.589,0,0,1,311.685,233.2l4.93,17.8-17.9,10.326-13.071-13.059a86.358,86.358,0,0,1-19.756,4.376l-6.177,17.434-20.571-1.824-3.071-18.485a80.818,80.818,0,0,1-18.485-7.805L202.3,253.419l-15.841-13.288,8.267-17.111q-2.1-2.615-3.972-5.392l37.663-27.618a35.024,35.024,0,0,0,64.819-18.4v-.219a34.794,34.794,0,0,0-8.521-22.652L331.409,114.5l-5.877,9.953a77.073,77.073,0,0,1,9.41,17.665l18.716,1.5,3.625,20.321-16.984,7.67a82.8,82.8,0,0,1-2.23,19.8" transform="translate(-186.457 -114.497)"/>
                </g>
              </g>
            </g>
          </g>
        </g>
        <path id="Trazado_979309" data-name="Trazado 979309" d="M432.963,115.31l.854-.392a2.308,2.308,0,0,0,1.338-2.54l-.173-1.039a2.309,2.309,0,0,0-2.124-1.928l-1.027-.081a2.31,2.31,0,0,1-1.917-1.316c-.277-.589-.577-1.155-.9-1.709a2.311,2.311,0,0,1,0-2.309l.535-.9a2.376,2.376,0,0,0-.369-2.854l-.739-.739a2.31,2.31,0,0,0-2.864-.346l-.912.542a2.311,2.311,0,0,1-2.309,0,18.894,18.894,0,0,0-4.7-1.917,2.311,2.311,0,0,1-1.662-1.686l-.268-1.07a2.31,2.31,0,0,0-2.309-1.778h-1.039a2.311,2.311,0,0,0-2.312,1.761l-.291,1.159a2.308,2.308,0,0,1-1.628,1.662c-.577.161-1.155.334-1.694.542a2.311,2.311,0,0,1-2.309-.427l-.924-.8a2.31,2.31,0,0,0-2.84-.161l-.82.554a2.309,2.309,0,0,0-.866,2.782l.416,1.085a2.31,2.31,0,0,1-.357,2.309,17.063,17.063,0,0,0-1.039,1.374,2.309,2.309,0,0,1-2.148.993l-1.155-.1a2.311,2.311,0,0,0-2.437,1.536l-.369,1.016a2.31,2.31,0,0,0,.843,2.7l1.062.751a2.307,2.307,0,0,1,.97,2.113,15.988,15.988,0,0,0-.089,1.813,2.394,2.394,0,0,1-1.155,1.962l-1.085.6A2.308,2.308,0,0,0,391,121.139l.268,1a2.31,2.31,0,0,0,2.309,1.732h1.155a2.312,2.312,0,0,1,2.021,1.155c.312.554.647,1.085,1,1.605a2.309,2.309,0,0,1,.173,2.309l-.474.981a2.311,2.311,0,0,0,.612,2.817l.8.67a2.307,2.307,0,0,0,2.875.1l.82-.577a2.308,2.308,0,0,1,2.309-.219q.879.416,1.8.762a2.309,2.309,0,0,1,1.466,1.778l.173,1a2.309,2.309,0,0,0,2.124,1.928l1.062.089a2.31,2.31,0,0,0,2.4-1.559l.323-.9a2.312,2.312,0,0,1,1.79-1.516,18,18,0,0,0,1.94-.416,2.308,2.308,0,0,1,2.24.612l.681.693a2.31,2.31,0,0,0,2.829.381l.912-.52a2.308,2.308,0,0,0,1.155-2.667l-.254-.9a2.311,2.311,0,0,1,.589-2.309c.474-.474.935-.97,1.363-1.489a2.311,2.311,0,0,1,2.205-.785l.924.173a2.308,2.308,0,0,0,2.552-1.316l.439-.947a2.309,2.309,0,0,0-.658-2.817l-.693-.565a2.307,2.307,0,0,1-.854-2.147,18.037,18.037,0,0,0,.219-2.078,2.307,2.307,0,0,1,1.374-1.9m-8.294.6a18.435,18.435,0,1,1-.023-.07Z" transform="translate(-42.054 -10.087)" fill="#6e99ff"/>
        <path id="Trazado_979310" data-name="Trazado 979310" d="M432.963,115.31l.854-.392a2.308,2.308,0,0,0,1.338-2.54l-.173-1.039a2.309,2.309,0,0,0-2.124-1.928l-1.027-.081a2.308,2.308,0,0,1-1.917-1.316c-.277-.589-.577-1.155-.9-1.709a2.311,2.311,0,0,1,0-2.309l.535-.9a2.377,2.377,0,0,0-.369-2.854l-.739-.739a2.31,2.31,0,0,0-2.864-.346l-.912.542a2.311,2.311,0,0,1-2.309,0,18.894,18.894,0,0,0-4.7-1.917,2.308,2.308,0,0,1-1.662-1.686l-.268-1.07a2.31,2.31,0,0,0-2.309-1.778h-1.039a2.311,2.311,0,0,0-2.312,1.761l-.291,1.159a2.308,2.308,0,0,1-1.628,1.662c-.577.161-1.155.334-1.694.542a2.311,2.311,0,0,1-2.309-.427l-.924-.8a2.31,2.31,0,0,0-2.84-.161l-.82.554a2.309,2.309,0,0,0-.866,2.782l.416,1.085a2.31,2.31,0,0,1-.357,2.309,17.077,17.077,0,0,0-1.039,1.374,2.309,2.309,0,0,1-2.147.993l-1.155-.1a2.31,2.31,0,0,0-2.436,1.536l-.369,1.016a2.31,2.31,0,0,0,.843,2.7l1.062.751a2.307,2.307,0,0,1,.97,2.113,15.785,15.785,0,0,0-.089,1.813,2.394,2.394,0,0,1-1.155,1.962l-1.085.6A2.308,2.308,0,0,0,391,121.139l.268,1a2.31,2.31,0,0,0,2.309,1.732h1.155a2.312,2.312,0,0,1,2.021,1.155c.312.554.647,1.085,1,1.605a2.309,2.309,0,0,1,.173,2.309l-.474.981a2.311,2.311,0,0,0,.612,2.817l.8.67a2.307,2.307,0,0,0,2.875.1l.82-.577a2.308,2.308,0,0,1,2.309-.219q.879.416,1.8.762a2.309,2.309,0,0,1,1.466,1.778l.173,1a2.309,2.309,0,0,0,2.124,1.928l1.062.089a2.31,2.31,0,0,0,2.4-1.559l.323-.9a2.312,2.312,0,0,1,1.79-1.516,18,18,0,0,0,1.94-.416,2.308,2.308,0,0,1,2.24.612l.681.693a2.31,2.31,0,0,0,2.829.381l.912-.52a2.308,2.308,0,0,0,1.155-2.667l-.254-.9a2.307,2.307,0,0,1,.589-2.309c.474-.474.936-.97,1.363-1.489a2.311,2.311,0,0,1,2.205-.785l.924.173a2.308,2.308,0,0,0,2.551-1.316l.439-.947a2.309,2.309,0,0,0-.658-2.817l-.693-.565a2.307,2.307,0,0,1-.854-2.147,18.235,18.235,0,0,0,.219-2.078A2.307,2.307,0,0,1,432.963,115.31Zm-8.294.6a18.435,18.435,0,1,1-.023-.07Z" transform="translate(-42.053 -10.087)" fill="none" stroke="#382e34" stroke-miterlimit="10" stroke-width="1"/>
        <path id="Trazado_979311" data-name="Trazado 979311" d="M415.006,26.968V27.6H77.955v-.635a12.587,12.587,0,0,1,12.577-12.6H402.41a12.589,12.589,0,0,1,12.6,12.583v.014" transform="translate(-8.433 -1.555)" fill="#382e34"/>
        <path id="Trazado_979312" data-name="Trazado 979312" d="M415.006,26.968V260.8a12.587,12.587,0,0,1-12.589,12.585H90.54A12.585,12.585,0,0,1,77.955,260.8V26.968a12.587,12.587,0,0,1,12.577-12.6H402.41a12.589,12.589,0,0,1,12.6,12.584Z" transform="translate(-8.433 -1.555)" fill="none" stroke="#382e34" stroke-linecap="round" stroke-linejoin="round" stroke-width="1"/>
        <line id="Línea_657" data-name="Línea 657" x2="337.051" transform="translate(69.522 25.412)" fill="none" stroke="#382e34" stroke-linecap="round" stroke-linejoin="round" stroke-width="1"/>
        <path id="Trazado_979313" data-name="Trazado 979313" d="M108.844,21.479a2.554,2.554,0,1,1-2.554-2.554,2.554,2.554,0,0,1,2.554,2.554Z" transform="translate(-11.222 -2.047)" fill="#6e99ff"/>
        <path id="Trazado_979314" data-name="Trazado 979314" d="M122.413,21.479a2.554,2.554,0,1,1-2.554-2.554,2.554,2.554,0,0,1,2.554,2.554Z" transform="translate(-12.69 -2.047)" fill="#6e99ff"/>
        <path id="Trazado_979315" data-name="Trazado 979315" d="M135.981,21.479a2.554,2.554,0,1,1-2.554-2.554,2.554,2.554,0,0,1,2.554,2.554Z" transform="translate(-14.158 -2.047)" fill="#6e99ff"/>
        <path id="Trazado_979316" data-name="Trazado 979316" d="M314.336,172.041a53.37,53.37,0,1,1,0-.34Z" transform="translate(-22.458 -12.82)" fill="none" stroke="#382e34" stroke-miterlimit="10" stroke-width="4"/>
        <path id="Trazado_979317" data-name="Trazado 979317" d="M525.472,110.678H334.924a12.589,12.589,0,0,1-12.59-12.59v-42.3a12.589,12.589,0,0,1,12.59-12.59H525.472a12.589,12.589,0,0,1,12.59,12.59v42.3a12.589,12.589,0,0,1-12.59,12.59" transform="translate(-34.87 -4.674)" fill="#fff"/>
        <rect id="Rectángulo_405331" data-name="Rectángulo 405331" width="215.728" height="67.475" rx="10.904" transform="translate(287.464 38.529)" fill="none" stroke="#382e34" stroke-miterlimit="10" stroke-width="1"/>
        <line id="Línea_658" data-name="Línea 658" x2="147.016" transform="translate(325.224 71.963)" fill="none" stroke="#382e34" stroke-miterlimit="10" stroke-width="1"/>
        <path id="Trazado_979318" data-name="Trazado 979318" d="M359.536,78.7l23.218-16.365h59.128L466.012,78.7" transform="translate(-38.895 -6.744)" fill="none" stroke="#382e34" stroke-miterlimit="10" stroke-width="1"/>
        <path id="Trazado_979319" data-name="Trazado 979319" d="M482.952,80.14a4.583,4.583,0,1,1-4.584-4.582h0a4.583,4.583,0,0,1,4.583,4.582" transform="translate(-51.254 -8.174)" fill="#6e99ff"/>
        <path id="Trazado_979320" data-name="Trazado 979320" d="M473.91,79.082a4.583,4.583,0,1,1,3.408,5.514A4.583,4.583,0,0,1,473.91,79.082Z" transform="translate(-51.254 -8.173)" fill="none" stroke="#382e34" stroke-miterlimit="10" stroke-width="1"/>
        <path id="Trazado_979321" data-name="Trazado 979321" d="M389.6,61.785a4.583,4.583,0,1,1-4.584-4.582h0a4.583,4.583,0,0,1,4.583,4.582" transform="translate(-41.155 -6.188)" fill="#6e99ff"/>
        <path id="Trazado_979322" data-name="Trazado 979322" d="M380.555,60.732a4.583,4.583,0,1,1,3.408,5.513A4.583,4.583,0,0,1,380.555,60.732Z" transform="translate(-41.155 -6.188)" fill="none" stroke="#382e34" stroke-miterlimit="10" stroke-width="1"/>
        <path id="Trazado_979323" data-name="Trazado 979323" d="M455.9,61.785a4.582,4.582,0,1,1-4.582-4.582,4.582,4.582,0,0,1,4.582,4.582" transform="translate(-48.328 -6.188)" fill="#6e99ff"/>
        <path id="Trazado_979324" data-name="Trazado 979324" d="M446.855,60.732a4.583,4.583,0,1,1,3.408,5.513A4.583,4.583,0,0,1,446.855,60.732Z" transform="translate(-48.328 -6.188)" fill="none" stroke="#382e34" stroke-miterlimit="10" stroke-width="1"/>
        <path id="Trazado_979325" data-name="Trazado 979325" d="M359.536,80.692l23.218,16.364h108.98l19.4-16.364" transform="translate(-38.895 -8.729)" fill="none" stroke="#382e34" stroke-miterlimit="10" stroke-width="1"/>
        <path id="Trazado_979326" data-name="Trazado 979326" d="M429.405,98.485a4.582,4.582,0,1,1-4.582-4.583,4.582,4.582,0,0,1,4.582,4.583" transform="translate(-45.462 -10.158)" fill="#6e99ff"/>
        <path id="Trazado_979327" data-name="Trazado 979327" d="M420.363,97.433a4.583,4.583,0,1,1,3.408,5.513A4.583,4.583,0,0,1,420.363,97.433Z" transform="translate(-45.462 -10.158)" fill="none" stroke="#382e34" stroke-miterlimit="10" stroke-width="1"/>
        <circle id="Elipse_11830" data-name="Elipse 11830" cx="4.583" cy="4.583" r="4.583" transform="matrix(0.924, -0.383, 0.383, 0.924, 337.871, 85.846)" fill="#6e99ff"/>
        <path id="Trazado_979328" data-name="Trazado 979328" d="M380.555,97.433a4.583,4.583,0,1,1,3.408,5.513A4.583,4.583,0,0,1,380.555,97.433Z" transform="translate(-41.155 -10.158)" fill="none" stroke="#382e34" stroke-miterlimit="10" stroke-width="1"/>
        <circle id="Elipse_11831" data-name="Elipse 11831" cx="4.583" cy="4.583" r="4.583" transform="matrix(0.924, -0.383, 0.383, 0.924, 446.851, 85.846)" fill="#6e99ff"/>
        <path id="Trazado_979329" data-name="Trazado 979329" d="M502.756,97.433a4.583,4.583,0,1,1,3.408,5.513A4.583,4.583,0,0,1,502.756,97.433Z" transform="translate(-54.375 -10.158)" fill="none" stroke="#382e34" stroke-miterlimit="10" stroke-width="1"/>
        <path id="Trazado_979330" data-name="Trazado 979330" d="M533.55,80.14a4.582,4.582,0,1,1-4.582-4.582,4.582,4.582,0,0,1,4.582,4.582" transform="translate(-56.728 -8.174)" fill="#6e99ff"/>
        <path id="Trazado_979331" data-name="Trazado 979331" d="M524.508,79.082a4.583,4.583,0,1,1,3.408,5.514A4.583,4.583,0,0,1,524.508,79.082Z" transform="translate(-56.728 -8.173)" fill="none" stroke="#382e34" stroke-miterlimit="10" stroke-width="1"/>
        <path id="Trazado_979332" data-name="Trazado 979332" d="M363.563,80.14a4.582,4.582,0,1,1-4.582-4.582,4.582,4.582,0,0,1,4.582,4.582" transform="translate(-38.339 -8.174)" fill="#6e99ff"/>
        <path id="Trazado_979333" data-name="Trazado 979333" d="M354.521,79.082a4.583,4.583,0,1,1,3.408,5.514A4.583,4.583,0,0,1,354.521,79.082Z" transform="translate(-38.339 -8.173)" fill="none" stroke="#382e34" stroke-miterlimit="10" stroke-width="1"/>
        <rect id="Rectángulo_405332" data-name="Rectángulo 405332" width="134.949" height="134.949" rx="14.117" transform="translate(64.561 180.646)" fill="#fff"/>
        <rect id="Rectángulo_405333" data-name="Rectángulo 405333" width="134.949" height="134.949" rx="10.904" transform="translate(64.561 180.647)" fill="none" stroke="#382e34" stroke-miterlimit="10" stroke-width="1"/>
        <path id="Trazado_979334" data-name="Trazado 979334" d="M127.016,288.953l-17.48,33.969h79.22" transform="translate(-11.85 -31.259)" fill="none" stroke="#382e34" stroke-linecap="round" stroke-linejoin="round" stroke-width="1"/>
        <path id="Trazado_979335" data-name="Trazado 979335" d="M193.882,231.4l-36.97,24.578L193.884,267.1" transform="translate(-16.975 -25.033)" fill="none" stroke="#382e34" stroke-linecap="round" stroke-linejoin="round" stroke-width="1"/>
        <rect id="Rectángulo_405334" data-name="Rectángulo 405334" width="17.481" height="17.481" transform="translate(168.166 197.624)" fill="#6e99ff"/>
        <rect id="Rectángulo_405335" data-name="Rectángulo 405335" width="17.481" height="17.481" transform="translate(168.166 197.624)" fill="none" stroke="#382e34" stroke-miterlimit="10" stroke-width="1"/>
        <rect id="Rectángulo_405336" data-name="Rectángulo 405336" width="17.481" height="17.481" transform="translate(168.166 233.325)" fill="#6e99ff"/>
        <rect id="Rectángulo_405337" data-name="Rectángulo 405337" width="17.481" height="17.481" transform="translate(168.166 233.325)" fill="none" stroke="#382e34" stroke-miterlimit="10" stroke-width="1"/>
        <rect id="Rectángulo_405338" data-name="Rectángulo 405338" width="17.481" height="17.481" transform="translate(131.195 222.201)" fill="#6e99ff"/>
        <rect id="Rectángulo_405339" data-name="Rectángulo 405339" width="17.481" height="17.481" transform="translate(131.195 222.201)" fill="none" stroke="#382e34" stroke-miterlimit="10" stroke-width="1"/>
        <rect id="Rectángulo_405340" data-name="Rectángulo 405340" width="17.481" height="17.481" transform="translate(106.425 248.953)" fill="#6e99ff"/>
        <rect id="Rectángulo_405341" data-name="Rectángulo 405341" width="17.481" height="17.481" transform="translate(106.425 248.953)" fill="none" stroke="#382e34" stroke-miterlimit="10" stroke-width="1"/>
        <rect id="Rectángulo_405342" data-name="Rectángulo 405342" width="17.481" height="17.481" transform="translate(88.947 282.924)" fill="#6e99ff"/>
        <rect id="Rectángulo_405343" data-name="Rectángulo 405343" width="17.481" height="17.481" transform="translate(88.947 282.924)" fill="none" stroke="#382e34" stroke-miterlimit="10" stroke-width="1"/>
        <rect id="Rectángulo_405344" data-name="Rectángulo 405344" width="17.481" height="17.481" transform="translate(168.166 282.924)" fill="#6e99ff"/>
        <rect id="Rectángulo_405345" data-name="Rectángulo 405345" width="17.481" height="17.481" transform="translate(168.166 282.924)" fill="none" stroke="#382e34" stroke-miterlimit="10" stroke-width="1"/>
        <path id="Trazado_979336" data-name="Trazado 979336" d="M123,278.2H13.236A12.59,12.59,0,0,1,.647,265.613V155.844a12.59,12.59,0,0,1,12.589-12.59H123a12.589,12.589,0,0,1,12.59,12.59v109.77A12.589,12.589,0,0,1,123,278.2" transform="translate(-0.07 -15.497)" fill="#fff"/>
        <path id="Trazado_979337" data-name="Trazado 979337" d="M10.368,143.254h115.5a9.721,9.721,0,0,1,9.721,9.721v115.5a9.721,9.721,0,0,1-9.721,9.721H10.368A9.721,9.721,0,0,1,.647,268.48h0v-115.5A9.721,9.721,0,0,1,10.368,143.254Z" transform="translate(-0.07 -15.497)" fill="none" stroke="#382e34" stroke-miterlimit="10" stroke-width="1"/>
        <rect id="Rectángulo_405346" data-name="Rectángulo 405346" width="89.768" height="6.955" transform="translate(14.847 140.815)" fill="#6e99ff"/>
        <rect id="Rectángulo_405347" data-name="Rectángulo 405347" width="51.861" height="6.955" transform="translate(14.847 152.264)" fill="#6e99ff"/>
        <rect id="Rectángulo_405348" data-name="Rectángulo 405348" width="30.209" height="6.955" transform="translate(14.847 163.712)" fill="#6e99ff"/>
        <rect id="Rectángulo_405349" data-name="Rectángulo 405349" width="49.714" height="6.955" transform="translate(14.847 175.16)" fill="#6e99ff"/>
        <rect id="Rectángulo_405350" data-name="Rectángulo 405350" width="77.496" height="6.955" transform="translate(14.847 186.609)" fill="#6e99ff"/>
        <rect id="Rectángulo_405351" data-name="Rectángulo 405351" width="51.861" height="6.955" transform="translate(14.847 198.056)" fill="#6e99ff"/>
        <rect id="Rectángulo_405352" data-name="Rectángulo 405352" width="36.182" height="6.955" transform="translate(14.847 209.504)" fill="#6e99ff"/>
        <rect id="Rectángulo_405353" data-name="Rectángulo 405353" width="58.581" height="6.955" transform="translate(14.847 220.954)" fill="#6e99ff"/>
        <rect id="Rectángulo_405354" data-name="Rectángulo 405354" width="71.025" height="6.955" transform="translate(14.847 232.401)" fill="#6e99ff"/>
        <rect id="Rectángulo_405355" data-name="Rectángulo 405355" width="89.768" height="6.955" transform="translate(14.847 243.85)" fill="#6e99ff"/>
        <g id="Grupo_1145781" data-name="Grupo 1145781" transform="translate(14.847 140.815)" opacity="0.3">
          <g id="Grupo_1145780" data-name="Grupo 1145780">
            <g id="Grupo_1145779" data-name="Grupo 1145779" clip-path="url(#clip-path-9)">
              <g id="Grupo_1145778" data-name="Grupo 1145778">
                <g id="Grupo_1145777" data-name="Grupo 1145777" clip-path="url(#clip-path-10)">
                  <rect id="Rectángulo_405356" data-name="Rectángulo 405356" width="89.768" height="6.955"/>
                </g>
              </g>
            </g>
          </g>
        </g>
        <g id="Grupo_1145786" data-name="Grupo 1145786" transform="translate(14.847 152.264)" opacity="0.3">
          <g id="Grupo_1145785" data-name="Grupo 1145785">
            <g id="Grupo_1145784" data-name="Grupo 1145784" clip-path="url(#clip-path-11)">
              <g id="Grupo_1145783" data-name="Grupo 1145783">
                <g id="Grupo_1145782" data-name="Grupo 1145782" clip-path="url(#clip-path-11)">
                  <rect id="Rectángulo_405359" data-name="Rectángulo 405359" width="51.861" height="6.955"/>
                </g>
              </g>
            </g>
          </g>
        </g>
        <g id="Grupo_1145791" data-name="Grupo 1145791" transform="translate(14.847 163.712)" opacity="0.3">
          <g id="Grupo_1145790" data-name="Grupo 1145790">
            <g id="Grupo_1145789" data-name="Grupo 1145789" clip-path="url(#clip-path-13)">
              <g id="Grupo_1145788" data-name="Grupo 1145788">
                <g id="Grupo_1145787" data-name="Grupo 1145787" clip-path="url(#clip-path-13)">
                  <rect id="Rectángulo_405362" data-name="Rectángulo 405362" width="30.209" height="6.955"/>
                </g>
              </g>
            </g>
          </g>
        </g>
        <g id="Grupo_1145796" data-name="Grupo 1145796" transform="translate(14.847 175.16)" opacity="0.3">
          <g id="Grupo_1145795" data-name="Grupo 1145795">
            <g id="Grupo_1145794" data-name="Grupo 1145794" clip-path="url(#clip-path-15)">
              <g id="Grupo_1145793" data-name="Grupo 1145793">
                <g id="Grupo_1145792" data-name="Grupo 1145792" clip-path="url(#clip-path-15)">
                  <rect id="Rectángulo_405365" data-name="Rectángulo 405365" width="49.714" height="6.955"/>
                </g>
              </g>
            </g>
          </g>
        </g>
        <g id="Grupo_1145801" data-name="Grupo 1145801" transform="translate(14.847 186.609)" opacity="0.3">
          <g id="Grupo_1145800" data-name="Grupo 1145800">
            <g id="Grupo_1145799" data-name="Grupo 1145799" clip-path="url(#clip-path-17)">
              <g id="Grupo_1145798" data-name="Grupo 1145798">
                <g id="Grupo_1145797" data-name="Grupo 1145797" clip-path="url(#clip-path-17)">
                  <rect id="Rectángulo_405368" data-name="Rectángulo 405368" width="77.496" height="6.955"/>
                </g>
              </g>
            </g>
          </g>
        </g>
        <g id="Grupo_1145806" data-name="Grupo 1145806" transform="translate(14.847 198.056)" opacity="0.3">
          <g id="Grupo_1145805" data-name="Grupo 1145805">
            <g id="Grupo_1145804" data-name="Grupo 1145804" clip-path="url(#clip-path-11)">
              <g id="Grupo_1145803" data-name="Grupo 1145803">
                <g id="Grupo_1145802" data-name="Grupo 1145802" clip-path="url(#clip-path-11)">
                  <rect id="Rectángulo_405371" data-name="Rectángulo 405371" width="51.861" height="6.955"/>
                </g>
              </g>
            </g>
          </g>
        </g>
        <g id="Grupo_1145811" data-name="Grupo 1145811" transform="translate(14.847 209.504)" opacity="0.3">
          <g id="Grupo_1145810" data-name="Grupo 1145810">
            <g id="Grupo_1145809" data-name="Grupo 1145809" clip-path="url(#clip-path-21)">
              <g id="Grupo_1145808" data-name="Grupo 1145808">
                <g id="Grupo_1145807" data-name="Grupo 1145807" clip-path="url(#clip-path-21)">
                  <rect id="Rectángulo_405374" data-name="Rectángulo 405374" width="36.182" height="6.955"/>
                </g>
              </g>
            </g>
          </g>
        </g>
        <g id="Grupo_1145816" data-name="Grupo 1145816" transform="translate(14.847 220.954)" opacity="0.3">
          <g id="Grupo_1145815" data-name="Grupo 1145815">
            <g id="Grupo_1145814" data-name="Grupo 1145814" clip-path="url(#clip-path-23)">
              <g id="Grupo_1145813" data-name="Grupo 1145813">
                <g id="Grupo_1145812" data-name="Grupo 1145812" clip-path="url(#clip-path-23)">
                  <rect id="Rectángulo_405377" data-name="Rectángulo 405377" width="58.581" height="6.955"/>
                </g>
              </g>
            </g>
          </g>
        </g>
        <g id="Grupo_1145821" data-name="Grupo 1145821" transform="translate(14.847 232.401)" opacity="0.3">
          <g id="Grupo_1145820" data-name="Grupo 1145820">
            <g id="Grupo_1145819" data-name="Grupo 1145819" clip-path="url(#clip-path-25)">
              <g id="Grupo_1145818" data-name="Grupo 1145818">
                <g id="Grupo_1145817" data-name="Grupo 1145817" clip-path="url(#clip-path-25)">
                  <rect id="Rectángulo_405380" data-name="Rectángulo 405380" width="71.025" height="6.955"/>
                </g>
              </g>
            </g>
          </g>
        </g>
        <g id="Grupo_1145826" data-name="Grupo 1145826" transform="translate(14.847 243.85)" opacity="0.3">
          <g id="Grupo_1145825" data-name="Grupo 1145825">
            <g id="Grupo_1145824" data-name="Grupo 1145824" clip-path="url(#clip-path-9)">
              <g id="Grupo_1145823" data-name="Grupo 1145823">
                <g id="Grupo_1145822" data-name="Grupo 1145822" clip-path="url(#clip-path-10)">
                  <rect id="Rectángulo_405383" data-name="Rectángulo 405383" width="89.768" height="6.955"/>
                </g>
              </g>
            </g>
          </g>
        </g>
        <path id="Trazado_979338" data-name="Trazado 979338" d="M113.414,129.955H80.748A5.948,5.948,0,0,0,74.8,135.9v5.915h44.563V135.9a5.948,5.948,0,0,0-5.948-5.948" transform="translate(-8.092 -14.059)" fill="#fff"/>
        <path id="Trazado_979339" data-name="Trazado 979339" d="M113.414,129.955H80.748A5.948,5.948,0,0,0,74.8,135.9v5.915h44.563V135.9a5.948,5.948,0,0,0-5.948-5.948Z" transform="translate(-8.092 -14.059)" fill="none" stroke="#382e34" stroke-miterlimit="10" stroke-width="1"/>
        <path id="Trazado_979340" data-name="Trazado 979340" d="M88.237,129.955H55.96a6.143,6.143,0,0,0-6.143,6.143v5.718H94.379V136.1a6.143,6.143,0,0,0-6.143-6.143" transform="translate(-5.389 -14.059)" fill="#6e99ff"/>
        <path id="Trazado_979341" data-name="Trazado 979341" d="M88.237,129.955H55.96a6.143,6.143,0,0,0-6.143,6.143v5.718H94.379V136.1A6.143,6.143,0,0,0,88.237,129.955Z" transform="translate(-5.389 -14.059)" fill="none" stroke="#382e34" stroke-miterlimit="10" stroke-width="1"/>
        <path id="Trazado_979342" data-name="Trazado 979342" d="M61.237,129.955H28.173a5.75,5.75,0,0,0-5.75,5.749v6.113H66.986V135.7a5.749,5.749,0,0,0-5.749-5.749" transform="translate(-2.426 -14.059)" fill="#fff"/>
        <path id="Trazado_979343" data-name="Trazado 979343" d="M61.237,129.955H28.173a5.75,5.75,0,0,0-5.75,5.749v6.113H66.986V135.7a5.749,5.749,0,0,0-5.749-5.749Z" transform="translate(-2.426 -14.059)" fill="none" stroke="#382e34" stroke-miterlimit="10" stroke-width="1"/>
        <line id="Línea_659" data-name="Línea 659" x2="24.529" transform="translate(446.168 363.299)" fill="none" stroke="#382e34" stroke-linecap="round" stroke-linejoin="round" stroke-width="1"/>
        <line id="Línea_660" data-name="Línea 660" x2="373.528" transform="translate(59.731 363.299)" fill="none" stroke="#382e34" stroke-linecap="round" stroke-linejoin="round" stroke-width="1"/>
        <path id="Trazado_979344" data-name="Trazado 979344" d="M492.618,390.655s4.35-3.555,6.421.333c1.788,3.363-2.5,7.12-7.366,7.117v2.84s10.448.278,11.261-8.521-10.313-6.371-10.313-6.371Z" transform="translate(-53.189 -41.73)" fill="#6e99ff"/>
        <path id="Trazado_979345" data-name="Trazado 979345" d="M492.618,390.655s4.35-3.555,6.421.333c1.788,3.363-2.5,7.12-7.366,7.117v2.84s10.448.278,11.261-8.521-10.313-6.371-10.313-6.371Z" transform="translate(-53.189 -41.73)" fill="none" stroke="#382e34" stroke-linecap="round" stroke-linejoin="round" stroke-width="1"/>
        <path id="Trazado_979346" data-name="Trazado 979346" d="M489.414,404.118H468.485l-3.138-26.282h27.214Z" transform="translate(-50.341 -40.874)" fill="#6e99ff"/>
        <path id="Trazado_979347" data-name="Trazado 979347" d="M489.414,404.118H468.485l-3.138-26.282h27.214Z" transform="translate(-50.341 -40.874)" fill="none" stroke="#382e34" stroke-linecap="round" stroke-linejoin="round" stroke-width="1"/>
        <path id="Trazado_979348" data-name="Trazado 979348" d="M465.217,376.427h27.126a1.434,1.434,0,0,1,1.434,1.434V378a1.434,1.434,0,0,1-1.434,1.434H465.217A1.434,1.434,0,0,1,463.783,378v-.137a1.434,1.434,0,0,1,1.434-1.434" transform="translate(-50.172 -40.722)" fill="#fff"/>
        <rect id="Rectángulo_405386" data-name="Rectángulo 405386" width="29.995" height="3.005" rx="1.242" transform="translate(413.611 335.705)" fill="none" stroke="#382e34" stroke-linecap="round" stroke-linejoin="round" stroke-width="1"/>
        <path id="Trazado_979349" data-name="Trazado 979349" d="M475.729,367.221s9.632-5.773,6.489-12.4-13.763-10.992-13.763-21.3c0-8.879,9.444-12.17,15.607-15.725" transform="translate(-50.678 -34.379)" fill="none" stroke="#382e34" stroke-linecap="round" stroke-linejoin="round" stroke-width="1"/>
        <path id="Trazado_979350" data-name="Trazado 979350" d="M479.551,324.829a11.54,11.54,0,0,0-3.07,16.028l.012.018" transform="translate(-51.33 -35.14)" fill="none" stroke="#382e34" stroke-linecap="round" stroke-linejoin="round" stroke-width="1"/>
        <path id="Trazado_979351" data-name="Trazado 979351" d="M486.04,354.2a17.359,17.359,0,0,1,1.5,11.972" transform="translate(-52.58 -38.318)" fill="none" stroke="#382e34" stroke-linecap="round" stroke-linejoin="round" stroke-width="1"/>
        <path id="Trazado_979352" data-name="Trazado 979352" d="M189.6,403.512s-.439-7.539-7.089-10.2-10.207-1.559-25.055,2.436a142.093,142.093,0,0,1-28.6,4.433v3.326Z" transform="translate(-13.94 -42.392)" fill="#fff"/>
        <path id="Trazado_979353" data-name="Trazado 979353" d="M189.6,403.512s-.439-7.539-7.089-10.2-10.207-1.559-25.055,2.436a142.093,142.093,0,0,1-28.6,4.433v3.326Z" transform="translate(-13.94 -42.392)" fill="none" stroke="#382e34" stroke-linecap="round" stroke-linejoin="round" stroke-width="1"/>
        <path id="Trazado_979354" data-name="Trazado 979354" d="M196.7,403.512s.438-7.539,7.089-10.2,10.194-1.559,25.055,2.436a142.091,142.091,0,0,0,28.586,4.433v3.326Z" transform="translate(-21.279 -42.392)" fill="#fff"/>
        <path id="Trazado_979355" data-name="Trazado 979355" d="M196.7,403.512s.438-7.539,7.089-10.2,10.194-1.559,25.055,2.436a142.091,142.091,0,0,0,28.586,4.433v3.326Z" transform="translate(-21.279 -42.392)" fill="none" stroke="#382e34" stroke-linecap="round" stroke-linejoin="round" stroke-width="1"/>
        <rect id="Rectángulo_405387" data-name="Rectángulo 405387" width="125.251" height="2.436" transform="translate(113.369 359.792)" fill="#382e34"/>
        <rect id="Rectángulo_405388" data-name="Rectángulo 405388" width="125.251" height="2.436" transform="translate(113.369 359.792)" fill="none" stroke="#382e34" stroke-linecap="round" stroke-linejoin="round" stroke-width="1"/>
        <path id="Trazado_979356" data-name="Trazado 979356" d="M200.323,403.8a13.368,13.368,0,0,1,7.374-8.009" transform="translate(-21.671 -42.817)" fill="none" stroke="#382e34" stroke-linecap="round" stroke-linejoin="round" stroke-width="1"/>
        <path id="Trazado_979357" data-name="Trazado 979357" d="M204.575,403.433a12.3,12.3,0,0,1,8.334-5.929c4.144-.765,8.355.661,12.261,2.246s10.69,3.671,14.9,3.683" transform="translate(-22.131 -42.979)" fill="none" stroke="#382e34" stroke-linecap="round" stroke-linejoin="round" stroke-width="1"/>
        <path id="Trazado_979358" data-name="Trazado 979358" d="M155.941,402.65a44.753,44.753,0,0,0,12.081-3.032,52.662,52.662,0,0,1,7.193-2.751,9.94,9.94,0,0,1,7.473.753,10.05,10.05,0,0,1,2.569,2.389,17.747,17.747,0,0,1,2.434,4.085" transform="translate(-16.87 -42.889)" fill="none" stroke="#382e34" stroke-linecap="round" stroke-linejoin="round" stroke-width="1"/>
        <path id="Trazado_979359" data-name="Trazado 979359" d="M181.625,399.6a5.961,5.961,0,0,1,3.526,1.873,17.779,17.779,0,0,1,2.371,3.3" transform="translate(-19.648 -43.229)" fill="none" stroke="#382e34" stroke-linecap="round" stroke-linejoin="round" stroke-width="1"/>
        <path id="Trazado_979360" data-name="Trazado 979360" d="M298.7,387.627a37.179,37.179,0,0,1-14.608,3.383c-7.752,0-23.559-16.038-23.559-16.038s-.573-1.733.661-8.19,12.822-65.746,12.822-65.746,1.372-13.794,9.212-22.264,23.227-11.48,23.227-11.48,34.04-14.827,53.127-10.248c19.113,7.58,39.9,15.272,46.854,21.237S430.483,332.1,436.4,356.705c0,0-13.047,27.72-25.211,35.51s-41.554,5.246-41.554,5.246Z" transform="translate(-28.17 -27.712)" fill="#6e99ff"/>
        <g id="Grupo_1145831" data-name="Grupo 1145831" transform="translate(232.201 246.4)" opacity="0.3">
          <g id="Grupo_1145830" data-name="Grupo 1145830">
            <g id="Grupo_1145829" data-name="Grupo 1145829" clip-path="url(#clip-path-29)">
              <g id="Grupo_1145828" data-name="Grupo 1145828">
                <g id="Grupo_1145827" data-name="Grupo 1145827" clip-path="url(#clip-path-30)">
                  <path id="Trazado_979361" data-name="Trazado 979361" d="M294.376,341.626l-4.918-65.337a21.432,21.432,0,0,0-12.889,15.244c-2.555,11.683-17.926,83.613-16.042,85.615s11.95,10.595,11.95,10.595,10.82,9.254,21.9,3.726,0-49.844,0-49.844" transform="translate(-260.368 -276.289)"/>
                </g>
              </g>
            </g>
          </g>
        </g>
        <g id="Grupo_1145836" data-name="Grupo 1145836" transform="translate(231.804 233.528)" opacity="0.3">
          <g id="Grupo_1145835" data-name="Grupo 1145835">
            <g id="Grupo_1145834" data-name="Grupo 1145834" clip-path="url(#clip-path-31)">
              <g id="Grupo_1145833" data-name="Grupo 1145833">
                <g id="Grupo_1145832" data-name="Grupo 1145832" clip-path="url(#clip-path-32)">
                  <path id="Trazado_979362" data-name="Trazado 979362" d="M343.191,280.78c-.577,1.955-3.026,2.578-5.066,2.606a24.174,24.174,0,0,1-16-5.84c-.814-.7-15.25,8.212-16.913,9.105-2.617,1.406-5.189,2.962-7.857,4.266-2.5,1.222-4.846,1.83-6.475,4.3a22.188,22.188,0,0,0-2.408,5.833c-3.5,11.461-7.192,22.893-10.376,34.436-2.755,9.988-6.474,21.057-6.314,31.54a15.2,15.2,0,0,0,.161,2.241c2.2,13.4,26.713,18.973,26.713,18.973s-8.661,5.3-14.609,3.383-19.754-9.855-24.117-17.268L271.938,311.5s-.15-30.247,21.671-39.289,30.4-10.354,30.4-10.354Z" transform="translate(-259.922 -261.856)"/>
                </g>
              </g>
            </g>
          </g>
        </g>
        <g id="Grupo_1145841" data-name="Grupo 1145841" transform="translate(367.195 248.122)" opacity="0.3">
          <g id="Grupo_1145840" data-name="Grupo 1145840">
            <g id="Grupo_1145839" data-name="Grupo 1145839" clip-path="url(#clip-path-33)">
              <g id="Grupo_1145838" data-name="Grupo 1145838">
                <g id="Grupo_1145837" data-name="Grupo 1145837" clip-path="url(#clip-path-34)">
                  <path id="Trazado_979363" data-name="Trazado 979363" d="M440.162,381.358s9.529-10.534,12.615-22.266c0,0-14.617-48.158-18.377-57.166s-9.913-19.31-14.215-23.705l-6.976,99.138-1.467,20.857s7.809.334,13.3-2.242,15.124-14.616,15.124-14.616" transform="translate(-411.738 -278.22)"/>
                </g>
              </g>
            </g>
          </g>
        </g>
        <path id="Trazado_979364" data-name="Trazado 979364" d="M398.906,395.669l8.445-120s-40.888-19.111-51.554-20.888-62.665,18.665-62.665,18.665l7.556,115.106" transform="translate(-31.711 -27.551)" fill="none" stroke="#382e34" stroke-linecap="round" stroke-linejoin="round" stroke-width="1"/>
        <path id="Trazado_979365" data-name="Trazado 979365" d="M327.756,188.814l-4.2,20.136s-5.379-3.8-6.523.5,2.358,10.2,9.122,10.53c0,0,1.842,9.117,7.828,15.314a112.516,112.516,0,0,0,8.94,8.57S345.283,259.15,353,259.735s9.235-6.376,10.8-16.038c0,0,6.673-11.578,8.619-17.836,0,0,8.193-5.708,2.728-14.051,0,0,2.7-19.924-1.994-23.294s-37.2-1.633-45.394.3" transform="translate(-34.273 -20.187)" fill="#fff"/>
        <path id="Trazado_979366" data-name="Trazado 979366" d="M354.3,267.832s-2.6,13.056-4.208,13.389-8.007-5.775-13.593-13.389-4.727-7.614-4.727-7.614,2.591-9.984,4.727-11.442,9.81-1.271,9.81-1.271l16.832-.643s5.653-.8,9.067,1.427,5.152,11.926,5.152,11.926-10.056,18.609-18.319,21a122.2,122.2,0,0,1-4.736-13.389" transform="translate(-35.886 -26.69)" fill="#fff"/>
        <line id="Línea_661" data-name="Línea 661" y1="31.316" x2="2.224" transform="translate(263.266 307.87)" fill="none" stroke="#382e34" stroke-miterlimit="10" stroke-width="1"/>
        <path id="Trazado_979367" data-name="Trazado 979367" d="M375.752,194.729s-9.55,3.7-18,2.989c0,0-8.923,8.988-20.34,3.644,0,0-10.3,27.888,13.311,46.128a40.366,40.366,0,0,1-24.569-27.383s-6.709,1.05-9.122-9c0,0-1.94-3.864,6.912-3.891l-.388-19.4,22.741,4.56,16.32-2.382Z" transform="translate(-34.277 -20.318)" fill="#6e99ff"/>
        <g id="Grupo_1145846" data-name="Grupo 1145846" transform="translate(282.577 167.498)" opacity="0.4">
          <g id="Grupo_1145845" data-name="Grupo 1145845">
            <g id="Grupo_1145844" data-name="Grupo 1145844" clip-path="url(#clip-path-35)">
              <g id="Grupo_1145843" data-name="Grupo 1145843">
                <g id="Grupo_1145842" data-name="Grupo 1145842" clip-path="url(#clip-path-35)">
                  <path id="Trazado_979368" data-name="Trazado 979368" d="M375.752,194.729s-9.55,3.7-18,2.989c0,0-8.923,8.988-20.34,3.644,0,0-8.32,29.857,12.347,45.626,0,0-18.737-6.5-23.6-26.881,0,0-6.666-.709-9.122-9,0,0-1.94-3.864,6.912-3.891l-.388-19.4,22.741,4.56,16.32-2.382Z" transform="translate(-316.854 -187.816)" fill="#fff"/>
                </g>
              </g>
            </g>
          </g>
        </g>
        <path id="Trazado_979369" data-name="Trazado 979369" d="M353.752,237.034a25.159,25.159,0,0,0,2.331,1.661c.526.332,1.32.6,1.694.114a1.215,1.215,0,0,0,.178-.677c.34-5.511-.944-11.07-.16-16.537" transform="translate(-38.269 -23.972)" fill="none" stroke="#382e34" stroke-linecap="round" stroke-linejoin="round" stroke-width="1"/>
        <path id="Trazado_979370" data-name="Trazado 979370" d="M362.342,217.739s2.738-6.038,9.8-.613" transform="translate(-39.198 -23.244)" fill="none" stroke="#382e34" stroke-linecap="round" stroke-linejoin="round" stroke-width="2"/>
        <path id="Trazado_979371" data-name="Trazado 979371" d="M350.995,219s-5.157-6.421-11.558.2" transform="translate(-36.72 -23.389)" fill="none" stroke="#382e34" stroke-linecap="round" stroke-linejoin="round" stroke-width="2"/>
        <path id="Trazado_979372" data-name="Trazado 979372" d="M344.586,249.595s2.75,16.46,12.44,16.959c7.863.4,9.4-13.2,9.7-18.072" transform="translate(-37.277 -26.881)" fill="none" stroke="#382e34" stroke-linecap="round" stroke-linejoin="round" stroke-width="1"/>
        <path id="Trazado_979373" data-name="Trazado 979373" d="M324.883,213.318s-4.275-5.1-7.171-2.609,1.443,13.466,8.438,11.8" transform="translate(-34.272 -22.72)" fill="none" stroke="#382e34" stroke-linecap="round" stroke-linejoin="round" stroke-width="1"/>
        <path id="Trazado_979374" data-name="Trazado 979374" d="M346.6,241.2a15.13,15.13,0,0,0,8.217,5.066" transform="translate(-37.495 -26.093)" fill="none" stroke="#382e34" stroke-linecap="round" stroke-linejoin="round" stroke-width="1"/>
        <path id="Trazado_979375" data-name="Trazado 979375" d="M347.061,227.556c0,1.3-.5,2.356-1.109,2.356s-1.109-1.055-1.109-2.356.5-2.356,1.109-2.356,1.109,1.055,1.109,2.356" transform="translate(-37.305 -24.362)" fill="#382e34"/>
        <path id="Trazado_979376" data-name="Trazado 979376" d="M367.245,227.556c0,1.3-.5,2.356-1.109,2.356s-1.109-1.055-1.109-2.356.5-2.356,1.109-2.356,1.109,1.055,1.109,2.356" transform="translate(-39.489 -24.362)" fill="#382e34"/>
        <path id="Trazado_979377" data-name="Trazado 979377" d="M354.62,266.36s-2.7,14.655-4.518,14.983-15.607-12.2-18.319-21c0,0,2.922-11.5,5.572-11.925,1.273-.2,2.724-.391,3.888-.535" transform="translate(-35.892 -26.816)" fill="none" stroke="#382e34" stroke-linecap="round" stroke-linejoin="round" stroke-width="1"/>
        <path id="Trazado_979378" data-name="Trazado 979378" d="M357.39,266.2s2.6,14.655,4.427,14.983,15.607-12.2,18.32-21c0,0-3.3-11.426-5.8-12.386a30.788,30.788,0,0,0-4.911-1.4" transform="translate(-38.663 -26.655)" fill="none" stroke="#382e34" stroke-linecap="round" stroke-linejoin="round" stroke-width="1"/>
        <path id="Trazado_979379" data-name="Trazado 979379" d="M327.493,221.025c1.77,3.065,3.973-7.759,3.038-11.173-.624-2.28-1.852-4.429-1.957-6.791-.118-2.625,1.159-5.077,2.086-7.536s1.469-5.389.025-7.586a34.29,34.29,0,0,0,17.288,6.211,10.823,10.823,0,0,0,4.736-.391,4.637,4.637,0,0,0,3.079-3.378c5.824.742,11.6,1.5,17.419.713,4.872-.662,12.453-1.9,14.961-6.873,3.668-7.275-5.784-14.824-11.356-17.366-13.506-6.162-31.648-7.2-43.81,2.462a44.475,44.475,0,0,1-3.911,3.032c-2.685,1.684-8.792,2.987-10.928,5.33-2.873,3.151.731,27.491.731,27.491s4.679-2.168,6.621,5.078c1.315,4.915.184,7.67,1.978,10.779" transform="translate(-34.299 -17.54)" fill="#382e34"/>
        <path id="Trazado_979380" data-name="Trazado 979380" d="M378.2,191.937a5.576,5.576,0,0,0-.152.924,25.417,25.417,0,0,0,.967,8.174c.307,1.187.746,2.347.934,3.549.453,2.891.446,5.674,2.578,8.018,0,0,4.088-14.283,2.444-24.487-.191-1.183-.569-4.153-2.375-3.6-1.319.4-2.27,2.675-2.822,3.767a18.435,18.435,0,0,0-1.572,3.656" transform="translate(-40.894 -19.953)" fill="#382e34"/>
        <path id="Trazado_979381" data-name="Trazado 979381" d="M315.029,175.848c1.784-1.306,7.053-3.835,12.533-1.684a43.848,43.848,0,0,1,13.271-14.579" transform="translate(-34.08 -17.264)" fill="none" stroke="#382e34" stroke-linecap="round" stroke-linejoin="round" stroke-width="1"/>
        <g id="Grupo_1145851" data-name="Grupo 1145851" transform="translate(297.918 150.979)" opacity="0.47">
          <g id="Grupo_1145850" data-name="Grupo 1145850">
            <g id="Grupo_1145849" data-name="Grupo 1145849" clip-path="url(#clip-path-37)">
              <g id="Grupo_1145848" data-name="Grupo 1145848">
                <g id="Grupo_1145847" data-name="Grupo 1145847" clip-path="url(#clip-path-37)">
                  <path id="Trazado_979382" data-name="Trazado 979382" d="M334.7,173.5S356.685,189.137,370,185.266s9.6-15.326,9.6-15.326" transform="translate(-334.126 -169.363)" fill="none" stroke="#fff" stroke-linecap="round" stroke-linejoin="round" stroke-width="1"/>
                </g>
              </g>
            </g>
          </g>
        </g>
        <g id="Grupo_1145856" data-name="Grupo 1145856" transform="translate(300.039 146.645)" opacity="0.47">
          <g id="Grupo_1145855" data-name="Grupo 1145855">
            <g id="Grupo_1145854" data-name="Grupo 1145854" clip-path="url(#clip-path-39)">
              <g id="Grupo_1145853" data-name="Grupo 1145853">
                <g id="Grupo_1145852" data-name="Grupo 1145852" clip-path="url(#clip-path-39)">
                  <path id="Trazado_979383" data-name="Trazado 979383" d="M337.082,170.343s27.6,12.693,32.245-5.262" transform="translate(-336.505 -164.503)" fill="none" stroke="#fff" stroke-linecap="round" stroke-linejoin="round" stroke-width="1"/>
                </g>
              </g>
            </g>
          </g>
        </g>
        <path id="Trazado_979384" data-name="Trazado 979384" d="M344.586,249.595s5.252,10.2,9.364,10.029,11.669-11.142,11.669-11.142-4.072,5.252-10.256,5.8c-4.068.357-10.777-4.684-10.777-4.684" transform="translate(-37.277 -26.881)" fill="#382e34"/>
        <path id="Trazado_979385" data-name="Trazado 979385" d="M375.106,330.529l.854-.392a2.308,2.308,0,0,0,1.338-2.54l-.173-1.039A2.311,2.311,0,0,0,375,324.629l-1.027-.081a2.308,2.308,0,0,1-1.917-1.316c-.277-.589-.577-1.155-.9-1.709a2.311,2.311,0,0,1,0-2.309l.535-.9a2.381,2.381,0,0,0-.369-2.854l-.739-.739a2.31,2.31,0,0,0-2.864-.346l-.912.542a2.311,2.311,0,0,1-2.309,0A18.9,18.9,0,0,0,359.8,313a2.311,2.311,0,0,1-1.662-1.686l-.268-1.07a2.31,2.31,0,0,0-2.309-1.778h-1.039a2.309,2.309,0,0,0-2.309,1.767l-.289,1.155a2.308,2.308,0,0,1-1.628,1.662c-.577.161-1.155.334-1.694.542a2.309,2.309,0,0,1-2.309-.427l-.924-.8a2.31,2.31,0,0,0-2.84-.161l-.82.554a2.307,2.307,0,0,0-.866,2.782l.416,1.085a2.31,2.31,0,0,1-.357,2.309,17.068,17.068,0,0,0-1.039,1.374,2.309,2.309,0,0,1-2.147.993l-1.155-.1a2.309,2.309,0,0,0-2.436,1.536l-.369,1.016a2.309,2.309,0,0,0,.843,2.7l1.062.751a2.307,2.307,0,0,1,.97,2.113,15.771,15.771,0,0,0-.089,1.813,2.394,2.394,0,0,1-1.155,1.962l-1.085.6a2.308,2.308,0,0,0-1.155,2.667l.268,1a2.308,2.308,0,0,0,2.309,1.732h1.155a2.312,2.312,0,0,1,2.021,1.155c.312.554.647,1.085,1,1.605a2.309,2.309,0,0,1,.173,2.309l-.474.981a2.311,2.311,0,0,0,.612,2.817l.8.67a2.308,2.308,0,0,0,2.875.1l.82-.577a2.308,2.308,0,0,1,2.309-.219q.876.416,1.8.762a2.311,2.311,0,0,1,1.466,1.778l.173,1a2.309,2.309,0,0,0,2.124,1.928l1.062.089a2.31,2.31,0,0,0,2.4-1.559l.323-.9a2.307,2.307,0,0,1,1.79-1.516,18,18,0,0,0,1.94-.416,2.308,2.308,0,0,1,2.24.612l.681.693a2.31,2.31,0,0,0,2.829.381l.912-.52a2.308,2.308,0,0,0,1.155-2.667l-.254-.9a2.308,2.308,0,0,1,.589-2.309c.474-.474.936-.969,1.363-1.489a2.311,2.311,0,0,1,2.205-.785l.924.173a2.308,2.308,0,0,0,2.551-1.316l.439-.947a2.309,2.309,0,0,0-.658-2.817l-.693-.565a2.307,2.307,0,0,1-.854-2.148,18.03,18.03,0,0,0,.219-2.078,2.307,2.307,0,0,1,1.364-1.9m-13.9.6a9.422,9.422,0,1,1-.012-.036Z" transform="translate(-36.03 -33.37)" fill="#382e34"/>
        <path id="Trazado_979386" data-name="Trazado 979386" d="M294.271,375.591a23.13,23.13,0,0,1-2.994,2.781,25.011,25.011,0,0,0-6.387,10.181,8.312,8.312,0,0,0,.038,5.518c1.353,3.316,5.659,6.753,9.107,4.574" transform="translate(-30.771 -40.632)" fill="none" stroke="#382e34" stroke-linecap="round" stroke-linejoin="round" stroke-width="1"/>
        <path id="Trazado_979387" data-name="Trazado 979387" d="M293.376,368.965c-3.28-.512-6.51,1.39-8.755,3.835s-3.8,5.435-5.849,8.05" transform="translate(-30.158 -39.906)" fill="none" stroke="#382e34" stroke-linecap="round" stroke-linejoin="round" stroke-width="1"/>
        <path id="Trazado_979388" data-name="Trazado 979388" d="M291.094,392.6a22.2,22.2,0,0,1-13-1.395,37.239,37.239,0,0,1-7.21-5.063l-8.516-7.05c-1.369-1.134-2.889-2.741-2.319-4.427,0,0,14.241-75.079,16.48-83.193,2.586-9.369,13.021-15.744,13.021-15.744" transform="translate(-28.119 -29.828)" fill="none" stroke="#382e34" stroke-linecap="round" stroke-linejoin="round" stroke-width="1"/>
        <path id="Trazado_979389" data-name="Trazado 979389" d="M414.715,376.535a24.236,24.236,0,0,1,8.1,10.8,60.652,60.652,0,0,1,2.543,12.263c-2.21,1.235-6.755,4.432-10.639,4.432" transform="translate(-44.864 -40.734)" fill="none" stroke="#382e34" stroke-linecap="round" stroke-linejoin="round" stroke-width="1"/>
        <path id="Trazado_979390" data-name="Trazado 979390" d="M415.257,369.47c3.455-.913,6.881,1.435,9.487,3.879s5.3,5.288,8.858,5.668" transform="translate(-44.923 -39.948)" fill="none" stroke="#382e34" stroke-linecap="round" stroke-linejoin="round" stroke-width="1"/>
        <path id="Trazado_979391" data-name="Trazado 979391" d="M416,398.633c6.689-.705,12.793-4.37,17.629-9.045s8.572-10.353,12.264-15.977c2.991-4.557,6.034-9.228,7.346-14.519,0,0-11.814-39.04-18.377-57.166-6.837-18.89-14.223-23.705-14.223-23.705" transform="translate(-45.003 -30.098)" fill="none" stroke="#382e34" stroke-linecap="round" stroke-linejoin="round" stroke-width="1"/>
        <path id="Trazado_979392" data-name="Trazado 979392" d="M415.257,369.2c6.09-5.118,15.434-.97,21.987,2.453" transform="translate(-44.923 -39.681)" fill="none" stroke="#382e34" stroke-linecap="round" stroke-linejoin="round" stroke-width="1"/>
        <rect id="Rectángulo_405401" data-name="Rectángulo 405401" width="106.35" height="61.127" transform="translate(263.501 308.622)" fill="#fff"/>
        <rect id="Rectángulo_405402" data-name="Rectángulo 405402" width="107.367" height="3.194" transform="translate(262.967 369.749)" fill="#382e34"/>
        <path id="Trazado_979393" data-name="Trazado 979393" d="M294.866,407.186l106.879-61.125.483,61.127Z" transform="translate(-31.899 -37.437)" fill="#382e34"/>
        <g id="Grupo_1145861" data-name="Grupo 1145861" transform="translate(262.967 308.623)" opacity="0.9">
          <g id="Grupo_1145860" data-name="Grupo 1145860">
            <g id="Grupo_1145859" data-name="Grupo 1145859" clip-path="url(#clip-path-41)">
              <g id="Grupo_1145858" data-name="Grupo 1145858">
                <g id="Grupo_1145857" data-name="Grupo 1145857" clip-path="url(#clip-path-42)">
                  <path id="Trazado_979394" data-name="Trazado 979394" d="M294.866,407.186l106.879-61.125.483,61.127Z" transform="translate(-294.866 -346.06)" fill="#fff"/>
                </g>
              </g>
            </g>
          </g>
        </g>
        <path id="Trazado_979395" data-name="Trazado 979395" d="M364.658,378.125a9.062,9.062,0,1,1-9.063-9.061h0a9.062,9.062,0,0,1,9.061,9.061" transform="translate(-37.488 -39.925)" fill="#382e34"/>
        <rect id="Rectángulo_405405" data-name="Rectángulo 405405" width="106.35" height="61.127" transform="translate(263.501 308.622)" fill="none" stroke="#382e34" stroke-linecap="round" stroke-linejoin="round" stroke-width="1"/>
        <path id="Trazado_979396" data-name="Trazado 979396" d="M325.311,206.776s2.327,21.358,5.287,25.164,12.476,17.763,22.837,17.551,17.128-13.533,18.817-19.243a98.232,98.232,0,0,0,3.806-22.206" transform="translate(-35.192 -22.369)" fill="none" stroke="#382e34" stroke-linecap="round" stroke-linejoin="round" stroke-width="1"/>
        <path id="Trazado_979397" data-name="Trazado 979397" d="M379.16,228.916s7.688-3.969,2.727-14.052" transform="translate(-41.018 -23.244)" fill="none" stroke="#382e34" stroke-linecap="round" stroke-linejoin="round" stroke-width="1"/>
      </g>
    </g>
  </g>
</svg>
