<svg xmlns="http://www.w3.org/2000/svg" xmlns:xlink="http://www.w3.org/1999/xlink" width="108" height="108" viewBox="0 0 108 108">
  <defs>
    <filter id="Fondo" x="0" y="0" width="108" height="108" filterUnits="userSpaceOnUse">
      <feOffset dy="3" input="SourceAlpha"/>
      <feGaussianBlur stdDeviation="3" result="blur"/>
      <feFlood flood-opacity="0.161"/>
      <feComposite operator="in" in2="blur"/>
      <feComposite in="SourceGraphic"/>
    </filter>
  </defs>
  <g id="Icono" transform="translate(9.5 -689)">
    <g transform="matrix(1, 0, 0, 1, -9.5, 689)" filter="url(#Fondo)">
      <g id="Fondo-2" data-name="Fondo" transform="translate(9 6)" fill="#fffbe8">
        <path d="M 45 88.5 C 39.12687683105469 88.5 33.43022537231445 87.35007476806641 28.06830024719238 85.08217620849609 C 22.88852500915527 82.89131164550781 18.23629951477051 79.75458526611328 14.2408504486084 75.75914764404297 C 10.24541282653809 71.76370239257812 7.108687400817871 67.11147308349609 4.917825222015381 61.93170166015625 C 2.649924993515015 56.56977462768555 1.5 50.87312316894531 1.5 45 C 1.5 39.12687683105469 2.649924993515015 33.43022537231445 4.917825222015381 28.06830024719238 C 7.108687400817871 22.88852500915527 10.24541282653809 18.23629951477051 14.2408504486084 14.2408504486084 C 18.23629951477051 10.24541282653809 22.88852500915527 7.108687400817871 28.06830024719238 4.917825222015381 C 33.43022537231445 2.649924993515015 39.12687683105469 1.5 45 1.5 C 50.87312316894531 1.5 56.56977462768555 2.649924993515015 61.93170166015625 4.917825222015381 C 67.11147308349609 7.108687400817871 71.76370239257812 10.24541282653809 75.75914764404297 14.2408504486084 C 79.75458526611328 18.23629951477051 82.89131164550781 22.88852500915527 85.08217620849609 28.06830024719238 C 87.35007476806641 33.43022537231445 88.5 39.12687683105469 88.5 45 C 88.5 50.87312316894531 87.35007476806641 56.56977462768555 85.08217620849609 61.93170166015625 C 82.89131164550781 67.11147308349609 79.75458526611328 71.76370239257812 75.75914764404297 75.75914764404297 C 71.76370239257812 79.75458526611328 67.11147308349609 82.89131164550781 61.93170166015625 85.08217620849609 C 56.56977462768555 87.35007476806641 50.87312316894531 88.5 45 88.5 Z" stroke="none"/>
        <path d="M 45 3 C 39.32871246337891 3 33.82865524291992 4.110054016113281 28.65262985229492 6.299339294433594 C 23.65165710449219 8.414573669433594 19.15968322753906 11.44334411621094 15.301513671875 15.301513671875 C 11.44334411621094 19.15968322753906 8.414573669433594 23.65165710449219 6.299339294433594 28.65262985229492 C 4.110054016113281 33.82865524291992 3 39.32871246337891 3 45 C 3 50.67128753662109 4.110054016113281 56.17134475708008 6.299339294433594 61.34737396240234 C 8.414573669433594 66.34834289550781 11.44334411621094 70.84031677246094 15.301513671875 74.698486328125 C 19.15968322753906 78.55665588378906 23.65165710449219 81.58542633056641 28.65262985229492 83.70066070556641 C 33.82865524291992 85.88994598388672 39.32871246337891 87 45 87 C 50.67128753662109 87 56.17134475708008 85.88994598388672 61.34737396240234 83.70066070556641 C 66.34834289550781 81.58542633056641 70.84031677246094 78.55665588378906 74.698486328125 74.698486328125 C 78.55665588378906 70.84031677246094 81.58542633056641 66.34834289550781 83.70066070556641 61.34737396240234 C 85.88994598388672 56.17134475708008 87 50.67128753662109 87 45 C 87 39.32871246337891 85.88994598388672 33.82865524291992 83.70066070556641 28.65262985229492 C 81.58542633056641 23.65165710449219 78.55665588378906 19.15968322753906 74.698486328125 15.301513671875 C 70.84031677246094 11.44334411621094 66.34834289550781 8.414573669433594 61.34737396240234 6.299339294433594 C 56.17134475708008 4.110054016113281 50.67128753662109 3 45 3 M 45 0 C 69.85281372070312 0 90 20.14718627929688 90 45 C 90 69.85281372070312 69.85281372070312 90 45 90 C 20.14718627929688 90 0 69.85281372070312 0 45 C 0 20.14718627929688 20.14718627929688 0 45 0 Z" stroke="none" fill="#bca724"/>
      </g>
    </g>
    <g id="Icons" transform="translate(14.5 714.093)">
      <g id="Grupo_1144096" data-name="Grupo 1144096" transform="translate(2.5 2.167)">
        <path id="Trazado_979933" data-name="Trazado 979933" d="M58.9,43.227V78.46a2.145,2.145,0,0,1-2.191,2.095H7.191A2.145,2.145,0,0,1,5,78.46V43.227Z" transform="translate(-4.452 -34.23)" fill="#efefef"/>
        <path id="Trazado_979934" data-name="Trazado 979934" d="M86.446,58.392v31.1H54.02v-31.1a3.73,3.73,0,0,1,3.725-3.725H82.721A3.73,3.73,0,0,1,86.446,58.392Z" transform="translate(-42.731 -43.163)" fill="#afafaf"/>
        <path id="Trazado_979935" data-name="Trazado 979935" d="M58.9,13.117H5V6.858A2.191,2.191,0,0,1,7.191,4.667H56.713A2.191,2.191,0,0,1,58.9,6.858Z" transform="translate(-4.452 -4.119)" fill="#72c2e9"/>
        <circle id="Elipse_11575" data-name="Elipse 11575" cx="1.372" cy="1.372" r="1.372" transform="translate(3.899 3.401)" fill="#fc5d3d"/>
        <circle id="Elipse_11576" data-name="Elipse 11576" cx="1.372" cy="1.372" r="1.372" transform="translate(10.109 3.401)" fill="#f0c020"/>
        <circle id="Elipse_11577" data-name="Elipse 11577" cx="1.372" cy="1.372" r="1.372" transform="translate(16.32 3.401)" fill="#efefef"/>
        <path id="Trazado_979936" data-name="Trazado 979936" d="M88.187,103.227H63.211a2.191,2.191,0,0,1-2.191-2.191V63.858a2.191,2.191,0,0,1,2.191-2.191H88.187a2.191,2.191,0,0,1,2.191,2.191v37.178A2.191,2.191,0,0,1,88.187,103.227Z" transform="translate(-48.197 -48.629)" fill="#fc5d3d"/>
        <path id="Trazado_979937" data-name="Trazado 979937" d="M107.8,65.5H95.1a1.1,1.1,0,0,1-1.1-1.1V61.667h14.9v2.739A1.1,1.1,0,0,1,107.8,65.5Z" transform="translate(-73.95 -48.629)" fill="#f0c020"/>
        <path id="Trazado_979938" data-name="Trazado 979938" d="M100.115,90.651v28.834a1.1,1.1,0,0,1-1.1,1.1H79.449a1.1,1.1,0,0,1-1.1-1.1V90.651a1.1,1.1,0,0,1,1.1-1.1H99.019A1.1,1.1,0,0,1,100.115,90.651Z" transform="translate(-61.732 -70.406)" fill="#efefef"/>
        <path id="Trazado_979939" data-name="Trazado 979939" d="M220.254,155.631h-2.238a1.119,1.119,0,0,1,0-2.238h2.238a1.119,1.119,0,0,1,0,2.238Z" transform="translate(-169.918 -120.256)" fill="#72c2e9"/>
        <path id="Trazado_979940" data-name="Trazado 979940" d="M211.585,180.307,210,178.724a1.119,1.119,0,1,1,1.583-1.583l1.583,1.583a1.119,1.119,0,0,1-1.583,1.583Z" transform="translate(-164.278 -138.544)" fill="#f0c020"/>
        <path id="Trazado_979941" data-name="Trazado 979941" d="M210,126.243a1.119,1.119,0,0,1,0-1.583l1.583-1.583a1.119,1.119,0,0,1,1.583,1.583l-1.583,1.583A1.119,1.119,0,0,1,210,126.243Z" transform="translate(-164.278 -96.327)" fill="#fc5d3d"/>
        <path id="Trazado_979942" data-name="Trazado 979942" d="M19.794,154.56h2.238a1.119,1.119,0,1,1,0,2.238H19.794a1.119,1.119,0,1,1,0-2.238Z" transform="translate(-15.131 -121.167)" fill="#72c2e9"/>
        <path id="Trazado_979943" data-name="Trazado 979943" d="M30.8,124.245l1.583,1.583A1.119,1.119,0,1,1,30.8,127.41l-1.583-1.583a1.119,1.119,0,0,1,1.583-1.583Z" transform="translate(-23.106 -97.238)" fill="#f0c020"/>
        <path id="Trazado_979944" data-name="Trazado 979944" d="M32.382,178.309a1.119,1.119,0,0,1,0,1.583L30.8,181.474a1.119,1.119,0,0,1-1.583-1.583l1.583-1.583A1.119,1.119,0,0,1,32.382,178.309Z" transform="translate(-23.106 -139.456)" fill="#fc5d3d"/>
        <path id="Trazado_979945" data-name="Trazado 979945" d="M102.636,133.127l-3.392-3.392a1.485,1.485,0,1,1,2.1-2.1l2.342,2.342,5.781-5.781a1.485,1.485,0,0,1,2.1,2.1l-6.831,6.831A1.485,1.485,0,0,1,102.636,133.127Z" transform="translate(-77.705 -97.117)" fill="#72c2e9"/>
        <path id="Trazado_979946" data-name="Trazado 979946" d="M239.048,84.768a.548.548,0,0,1-.548-.548v-.657a.548.548,0,0,1,1.1,0v.657A.548.548,0,0,1,239.048,84.768Zm0-2.849a.548.548,0,0,1-.548-.548v-30.1a.548.548,0,0,1,1.1,0v30.1A.548.548,0,0,1,239.048,81.919Z" transform="translate(-186.787 -40.086)" fill="#fff"/>
        <path id="Trazado_979947" data-name="Trazado 979947" d="M13.048,84.768a.548.548,0,0,1-.548-.548v-30.1a.548.548,0,1,1,1.1,0v30.1A.548.548,0,0,1,13.048,84.768Zm0-32.288a.548.548,0,0,1-.548-.548v-.657a.548.548,0,0,1,1.1,0v.657A.548.548,0,0,1,13.048,52.48Z" transform="translate(-10.309 -40.086)" fill="#fff"/>
        <path id="Trazado_979948" data-name="Trazado 979948" d="M5.239,49.04h9.536v5.534a2.742,2.742,0,0,0,2.739,2.739h.872a.548.548,0,0,0,0-1.1H17.51a1.645,1.645,0,0,1-1.639-1.643V17.4a1.645,1.645,0,0,1,1.643-1.643H22v2.191a1.645,1.645,0,0,0,1.643,1.643v1.181H20.217a1.645,1.645,0,0,0-1.643,1.643V51.246a1.645,1.645,0,0,0,1.643,1.643H39.788a1.645,1.645,0,0,0,1.643-1.643V22.411a1.645,1.645,0,0,0-1.643-1.643H36.355V19.587A1.645,1.645,0,0,0,38,17.944V15.752H42.49A1.645,1.645,0,0,1,44.134,17.4V54.574a1.645,1.645,0,0,1-1.639,1.643H22.769a.548.548,0,0,0,0,1.1H42.49a2.742,2.742,0,0,0,2.739-2.739V49.04h9.532A2.7,2.7,0,0,0,57.5,46.4h0V19.93a.548.548,0,1,0-1.1,0V46.4a1.6,1.6,0,0,1-1.643,1.547H45.229V17.4a2.742,2.742,0,0,0-2.739-2.739H17.514A2.742,2.742,0,0,0,14.775,17.4V47.944H5.239A1.6,1.6,0,0,1,3.6,46.4V11.713H56.4v3.835a.548.548,0,1,0,1.1,0V4.906a2.742,2.742,0,0,0-2.739-2.739H5.239A2.742,2.742,0,0,0,2.5,4.906V46.4A2.7,2.7,0,0,0,5.239,49.04ZM39.788,21.864a.548.548,0,0,1,.548.548V51.245a.548.548,0,0,1-.548.548H20.217a.549.549,0,0,1-.548-.548V22.411a.549.549,0,0,1,.548-.548h3.428V23.2a1.645,1.645,0,0,0,1.643,1.643h9.422A1.645,1.645,0,0,0,36.355,23.2V21.864Zm-15.047,0H35.259V23.2a.548.548,0,0,1-.548.548H25.289a.549.549,0,0,1-.548-.548Zm10.518-1.1H24.741V19.587H35.259ZM36.9,17.944a.548.548,0,0,1-.548.548H23.645a.549.549,0,0,1-.548-.548V15.753H36.9ZM5.239,3.263H54.761A1.645,1.645,0,0,1,56.4,4.906v5.71H3.6V4.906A1.645,1.645,0,0,1,5.239,3.263Z" transform="translate(-2.5 -2.167)"/>
        <circle id="Elipse_11578" data-name="Elipse 11578" cx="0.548" cy="0.548" r="0.548" transform="translate(53.904 15.024)"/>
        <path id="Trazado_979949" data-name="Trazado 979949" d="M19.712,19.026a1.92,1.92,0,1,0-1.92-1.92A1.922,1.922,0,0,0,19.712,19.026Zm0-2.744a.824.824,0,1,1-.824.824A.825.825,0,0,1,19.712,16.283Z" transform="translate(-14.441 -12.334)"/>
        <path id="Trazado_979950" data-name="Trazado 979950" d="M48.055,19.026a1.92,1.92,0,1,0-1.92-1.92A1.922,1.922,0,0,0,48.055,19.026Zm0-2.744a.824.824,0,1,1-.824.824A.825.825,0,0,1,48.055,16.283Z" transform="translate(-36.574 -12.334)"/>
        <path id="Trazado_979951" data-name="Trazado 979951" d="M76.4,19.026a1.92,1.92,0,1,0-1.92-1.92A1.922,1.922,0,0,0,76.4,19.026Zm0-2.744a.824.824,0,1,1-.824.824A.825.825,0,0,1,76.4,16.283Z" transform="translate(-58.706 -12.334)"/>
        <path id="Trazado_979952" data-name="Trazado 979952" d="M189.048,22.544h9.641a.548.548,0,0,0,0-1.1h-9.641a.548.548,0,1,0,0,1.1Z" transform="translate(-147.743 -17.223)"/>
        <circle id="Elipse_11579" data-name="Elipse 11579" cx="0.548" cy="0.548" r="0.548" transform="translate(17.53 54.05)"/>
        <path id="Trazado_979953" data-name="Trazado 979953" d="M219.969,152.56a1.669,1.669,0,0,0-1.667-1.667h-2.238a1.667,1.667,0,1,0,0,3.334H218.3A1.669,1.669,0,0,0,219.969,152.56Zm-4.476,0a.572.572,0,0,1,.571-.571H218.3a.571.571,0,1,1,0,1.143h-2.238A.572.572,0,0,1,215.492,152.56Z" transform="translate(-167.965 -118.304)"/>
        <path id="Trazado_979954" data-name="Trazado 979954" d="M211.6,178.745a1.668,1.668,0,0,0,0-2.357l-1.583-1.583a1.667,1.667,0,0,0-2.357,2.357l1.583,1.583A1.666,1.666,0,0,0,211.6,178.745Zm-3.165-2.357a.571.571,0,1,1,.808-.808l1.583,1.583a.572.572,0,0,1,0,.808.585.585,0,0,1-.808,0Z" transform="translate(-162.324 -136.596)"/>
        <path id="Trazado_979955" data-name="Trazado 979955" d="M210.018,124.677l1.583-1.583a1.667,1.667,0,0,0-2.357-2.357l-1.583,1.583a1.667,1.667,0,0,0,2.357,2.357Zm-1.583-1.583,1.583-1.583a.571.571,0,0,1,.808.808l-1.583,1.583a.571.571,0,0,1-.808-.808Z" transform="translate(-162.324 -94.374)"/>
        <path id="Trazado_979956" data-name="Trazado 979956" d="M21.747,153.727a1.669,1.669,0,0,0-1.667-1.667H17.842a1.667,1.667,0,1,0,0,3.334H20.08a1.669,1.669,0,0,0,1.667-1.667Zm-4.476,0a.572.572,0,0,1,.571-.571H20.08a.571.571,0,1,1,0,1.143H17.842A.572.572,0,0,1,17.271,153.727Z" transform="translate(-13.178 -119.215)"/>
        <path id="Trazado_979957" data-name="Trazado 979957" d="M30.816,123.486,29.233,121.9a1.667,1.667,0,1,0-2.357,2.357l1.583,1.583a1.667,1.667,0,0,0,2.357-2.357Zm-.775,1.583a.572.572,0,0,1-.808,0l-1.583-1.583a.571.571,0,0,1,.808-.808l1.583,1.582A.572.572,0,0,1,30.041,125.068Z" transform="translate(-21.153 -95.285)"/>
        <path id="Trazado_979958" data-name="Trazado 979958" d="M29.234,179.912l1.583-1.583a1.667,1.667,0,0,0-2.357-2.357l-1.582,1.583a1.667,1.667,0,0,0,2.357,2.357Zm-1.583-1.583,1.582-1.583a.571.571,0,0,1,.808.808l-1.583,1.583a.585.585,0,0,1-.808,0A.571.571,0,0,1,27.651,178.33Z" transform="translate(-21.154 -137.507)"/>
        <path id="Trazado_979959" data-name="Trazado 979959" d="M107.132,121.86l-5.394,5.394L99.783,125.3a2.033,2.033,0,0,0-2.875,2.875l3.392,3.392a2.035,2.035,0,0,0,2.873,0l0,0,.633-.633a.547.547,0,0,0,0-.774.56.56,0,0,0-.776,0l-.631.631,0,0a.939.939,0,0,1-1.325,0L97.683,127.4a.937.937,0,1,1,1.325-1.325l2.342,2.342a.548.548,0,0,0,.775,0l5.781-5.781a.937.937,0,0,1,1.325,1.325l0,0-3.1,3.1a.548.548,0,1,0,.776.774l3.1-3.1,0,0a2.033,2.033,0,0,0-2.877-2.872Z" transform="translate(-75.757 -95.168)"/>
        <path id="Trazado_979960" data-name="Trazado 979960" d="M121.35,185.445h-9.384a.548.548,0,1,0,0,1.1h9.384a.548.548,0,1,0,0-1.1Z" transform="translate(-87.551 -145.284)"/>
        <path id="Trazado_979961" data-name="Trazado 979961" d="M97.575,185.445H96.429a.548.548,0,1,0,0,1.1h1.147a.548.548,0,0,0,0-1.1Z" transform="translate(-75.419 -145.284)"/>
        <path id="Trazado_979962" data-name="Trazado 979962" d="M121.35,200.739h-9.384a.548.548,0,0,0,0,1.1h9.384a.548.548,0,0,0,0-1.1Z" transform="translate(-87.551 -157.227)"/>
        <path id="Trazado_979963" data-name="Trazado 979963" d="M97.575,200.739H96.429a.548.548,0,0,0,0,1.1h1.147a.548.548,0,0,0,0-1.1Z" transform="translate(-75.419 -157.227)"/>
        <path id="Trazado_979964" data-name="Trazado 979964" d="M134.258,155a.548.548,0,0,0,0-.773.56.56,0,0,0-.776,0,.548.548,0,0,0,.776.773Z" transform="translate(-104.656 -120.782)"/>
      </g>
    </g>
  </g>
</svg>
