<svg xmlns="http://www.w3.org/2000/svg" xmlns:xlink="http://www.w3.org/1999/xlink" width="505" height="360.291" viewBox="0 0 505 360.291">
  <defs>
    <clipPath id="clip-path">
      <rect id="Rectángulo_404653" data-name="Rectángulo 404653" width="505" height="360.29" transform="translate(0 0)" fill="none"/>
    </clipPath>
  </defs>
  <g id="Grupo_1106218" data-name="Grupo 1106218" transform="translate(0 -0.002)">
    <g id="Grupo_1106217" data-name="Grupo 1106217" transform="translate(0 0.002)" clip-path="url(#clip-path)">
      <path id="Trazado_890096" data-name="Trazado 890096" d="M357.554,338.176c58.734,0,112.783.878,155.677,2.35,104.969-60,68.622-176.949,30.932-243.1-52.454-92.068-176.4-125.159-227.67-51.7-69.587,99.705-136.717,64.913-172.966,140.636s18.8,148.316,58.348,154.166c42.893-1.472,96.944-2.35,155.677-2.35M265.58,82.862c-26.867,20.449-71.308,36.295-86.064,14.555C168.49,81.175,182.071,50.7,208.67,27.6c26.58-23.089,62.192-37.064,81.6-20.062,23.035,20.175-4,59.581-24.692,75.328" transform="translate(-105.054 -0.002)" fill="#f1f5fb" fill-rule="evenodd"/>
      <path id="Trazado_890097" data-name="Trazado 890097" d="M252.5,1671.143c139.452,0,252.5,4.95,252.5,11.058s-113.048,11.059-252.5,11.059S0,1688.309,0,1682.2s113.048-11.058,252.5-11.058" transform="translate(0 -1332.97)" fill="#dce6f3" fill-rule="evenodd"/>
      <path id="Trazado_890098" data-name="Trazado 890098" d="M962.2,70.069c63.063,14.049,103.194,72.044,107.127,100.044,1.613,11.49-1.377-15.4-33.548-39.881-28.75-21.88-51.133-25.934-85.339-28.577-24.172-1.869-49.484-4.839-47.684-19.257,1.42-11.385,18.729-21.4,59.444-12.329M797.3,46.611c10.856.653,17.466,9.567,17.92,19.849.192,4.374-3.241-7.062-15.278-8.653-7.465-.988-8.586,1.213-11.261-1.869s-.136-9.853,8.619-9.327" transform="translate(-628.275 -37.156)" fill="#fff" fill-rule="evenodd"/>
      <path id="Trazado_890099" data-name="Trazado 890099" d="M1099.788,290.434c-.9,12.4-2.732,14.114-14.558,15.07,11.826.954,13.655,2.665,14.558,15.069.9-12.4,2.734-14.115,14.559-15.069-11.826-.956-13.656-2.668-14.559-15.07m48.07,32.713c-.482,6.622-1.459,7.534-7.772,8.045,6.313.51,7.289,1.424,7.772,8.045.483-6.622,1.459-7.536,7.774-8.045-6.314-.511-7.291-1.423-7.774-8.045m-21.051-50.966c-.489,6.707-1.478,7.633-7.872,8.148,6.395.517,7.384,1.443,7.872,8.15.489-6.707,1.477-7.633,7.872-8.15-6.395-.515-7.383-1.441-7.872-8.148" transform="translate(-865.622 -217.103)" fill="#fff" fill-rule="evenodd"/>
      <path id="Trazado_890100" data-name="Trazado 890100" d="M892.711,1309.012c.732,10.048,2.214,11.434,11.794,12.208-9.581.774-11.062,2.16-11.794,12.208-.732-10.048-2.215-11.434-11.794-12.208,9.579-.774,11.062-2.16,11.794-12.208m-38.943,26.5c.391,5.366,1.181,6.1,6.3,6.518-5.115.414-5.9,1.153-6.3,6.517-.392-5.364-1.183-6.1-6.3-6.517,5.115-.414,5.906-1.153,6.3-6.518m17.054-41.289c.4,5.433,1.2,6.183,6.378,6.6-5.18.42-5.983,1.168-6.378,6.6-.4-5.434-1.2-6.183-6.377-6.6,5.181-.418,5.981-1.168,6.377-6.6" transform="translate(-675.976 -1032.325)" fill="#fff" fill-rule="evenodd"/>
      <path id="Trazado_890101" data-name="Trazado 890101" d="M1791.745,1200.269c-.56,7.695-1.7,8.755-9.03,9.348,7.334.592,8.469,1.653,9.03,9.347.56-7.693,1.7-8.755,9.03-9.347-7.334-.593-8.47-1.653-9.03-9.348m29.817,20.291c-.3,4.108-.905,4.674-4.822,4.991,3.917.317,4.523.883,4.822,4.99.3-4.107.9-4.673,4.822-4.99-3.917-.317-4.523-.883-4.822-4.991m-13.058-31.612c-.3,4.16-.915,4.734-4.883,5.053,3.968.322,4.582.895,4.883,5.055.3-4.16.917-4.734,4.883-5.055-3.966-.32-4.58-.893-4.883-5.053" transform="translate(-1421.964 -948.352)" fill="#fff" fill-rule="evenodd"/>
      <path id="Trazado_890102" data-name="Trazado 890102" d="M794.637,578.227V728.334a12.1,12.1,0,0,1-12.084,12.08h-264.2a12.088,12.088,0,0,1-12.066-12.08V578.227a12.084,12.084,0,0,1,12.065-12.075h264.2a12.074,12.074,0,0,1,12.084,12.075" transform="translate(-403.835 -451.586)" fill="#fefefe" fill-rule="evenodd"/>
      <path id="Trazado_890103" data-name="Trazado 890103" d="M1091.194,1422.393h-86.725l4.516-19.91,7.74-34.136.906-4h60.4l.9,4,7.744,34.136Z" transform="translate(-801.204 -1088.259)" fill="#87bef5" fill-rule="evenodd"/>
      <path id="Trazado_890104" data-name="Trazado 890104" d="M1104.477,1488.994h-77.694l3.669-16.186h70.356Z" transform="translate(-819.002 -1174.77)" fill="#71afed" fill-rule="evenodd"/>
      <path id="Trazado_890105" data-name="Trazado 890105" d="M469.988,541.911a12.088,12.088,0,0,1,12.065-12.08h264.2a12.082,12.082,0,0,1,12.085,12.08V692.018a12.091,12.091,0,0,1-12.085,12.08H482.054a11.78,11.78,0,0,1-1.667-.12,12.1,12.1,0,0,1-10.4-11.96Zm289.981-16.283a21.337,21.337,0,0,0-10.716-4.789,20.337,20.337,0,0,0-3-.217H482.054a21.307,21.307,0,0,0-21.275,21.289V692.018a21.258,21.258,0,0,0,21.274,21.289h264.2c.225,0,.448,0,.664-.011.655-.018,1.3-.073,1.938-.146a22.144,22.144,0,0,0,3.127-.621c.614-.175,1.213-.372,1.8-.6a19.751,19.751,0,0,0,2.281-1.022c.4-.206.792-.426,1.177-.654v0a20.678,20.678,0,0,0,3.228-2.395,21.3,21.3,0,0,0,6.067-9.364,20.486,20.486,0,0,0,.577-2.185,17.558,17.558,0,0,0,.292-1.872,20.843,20.843,0,0,0,.142-2.419l0-150.107a21.263,21.263,0,0,0-7.573-16.283" transform="translate(-367.535 -415.27)" fill="#87bef5" fill-rule="evenodd"/>
      <path id="Trazado_890106" data-name="Trazado 890106" d="M781.1,1324.746v8.673a16.692,16.692,0,0,1-16.687,16.686H500.22a16.681,16.681,0,0,1-16.673-16.686v-8.673Z" transform="translate(-385.696 -1056.67)" fill="#87bef5" fill-rule="evenodd"/>
      <path id="Trazado_890107" data-name="Trazado 890107" d="M1040.855,1653.4H926.3a2.385,2.385,0,1,1,0-4.771h114.555a2.383,2.383,0,0,1,2.386,2.385,2.331,2.331,0,0,1-.274,1.113,2.389,2.389,0,0,1-2.112,1.273" transform="translate(-736.951 -1315.011)" fill="#71afed" fill-rule="evenodd"/>
      <path id="Trazado_890108" data-name="Trazado 890108" d="M716.743,808.361H691.977V738.649h24.766Zm187.117,0H879.093V699.691h24.767Zm-31.186,0H847.909V719.008h24.766Zm-31.187,0H816.724V711.3h24.763Zm-31.185,0H785.534V738.649H810.3Zm-31.185,0H754.35V711.3h24.768Zm-31.189,0H723.165V759.829h24.763Z" transform="translate(-551.948 -558.102)" fill="#fbbfa8" fill-rule="evenodd"/>
      <path id="Trazado_890109" data-name="Trazado 890109" d="M879.093,961.922h24.767V892.211H879.093Zm-187.116,0h24.766v-6.979H691.977Zm155.932,0h24.766V934.014H847.909Zm-62.374,0H810.3V934.014H785.534Zm-31.185,0h24.768V947.968H754.35Zm-31.185,0h24.763V934.014H723.165Zm93.559,0h24.763V917.245H816.724Z" transform="translate(-551.948 -711.663)" fill="#fc9774" fill-rule="evenodd"/>
      <path id="Trazado_890110" data-name="Trazado 890110" d="M584.2,789.083a1.285,1.285,0,0,1-1.286,1.286h-10.6a1.287,1.287,0,1,1,0-2.574h10.6a1.288,1.288,0,0,1,1.286,1.288m240.187,8.9H571.024v-1.409h253.36ZM584.2,678.811a1.286,1.286,0,0,1-1.286,1.287l-10.6,0a1.286,1.286,0,1,1,0-2.572h10.6a1.285,1.285,0,0,1,1.286,1.286m0,18.377a1.288,1.288,0,0,1-1.286,1.289h-10.6a1.287,1.287,0,1,1,0-2.574h10.6a1.287,1.287,0,0,1,1.286,1.286m0,18.38a1.285,1.285,0,0,1-1.286,1.286h-10.6a1.287,1.287,0,1,1,0-2.574h10.6a1.287,1.287,0,0,1,1.286,1.287m0,18.378a1.288,1.288,0,0,1-1.286,1.289h-10.6a1.288,1.288,0,0,1,0-2.576h10.6a1.288,1.288,0,0,1,1.286,1.287m0,18.379a1.287,1.287,0,0,1-1.286,1.287h-10.6a1.287,1.287,0,1,1,0-2.574h10.6a1.285,1.285,0,0,1,1.286,1.286m0,18.377a1.288,1.288,0,0,1-1.286,1.289h-10.6a1.288,1.288,0,0,1,0-2.575h10.6A1.287,1.287,0,0,1,584.2,770.7" transform="translate(-455.471 -540.421)" fill="#fc9774" fill-rule="evenodd"/>
      <path id="Trazado_890111" data-name="Trazado 890111" d="M1589.741,377.571H1434.879a3.134,3.134,0,0,1-3.135-3.134V278.579a3.135,3.135,0,0,1,3.135-3.135h154.862a3.133,3.133,0,0,1,3.134,3.135v95.858a3.133,3.133,0,0,1-3.134,3.134" transform="translate(-1142.015 -219.705)" fill="#fc9774" fill-rule="evenodd"/>
      <path id="Trazado_890112" data-name="Trazado 890112" d="M1442.728,405.231v-86.3a2.47,2.47,0,0,1,2.469-2.471h151.747a2.471,2.471,0,0,1,2.471,2.471v86.3a2.47,2.47,0,0,1-2.471,2.47H1445.2a2.47,2.47,0,0,1-2.469-2.47" transform="translate(-1150.777 -252.424)" fill="#fefefe" fill-rule="evenodd"/>
      <path id="Trazado_890113" data-name="Trazado 890113" d="M2195.8,287.929a2.041,2.041,0,1,1-2.04-2.04,2.04,2.04,0,0,1,2.04,2.04" transform="translate(-1748.197 -228.037)" fill="#fefefe" fill-rule="evenodd"/>
      <path id="Trazado_890114" data-name="Trazado 890114" d="M2162.486,287.929a2.039,2.039,0,1,1-2.039-2.04,2.038,2.038,0,0,1,2.039,2.04" transform="translate(-1721.63 -228.037)" fill="#fefefe" fill-rule="evenodd"/>
      <path id="Trazado_890115" data-name="Trazado 890115" d="M2129.167,287.929a2.041,2.041,0,1,1-2.04-2.04,2.039,2.039,0,0,1,2.04,2.04" transform="translate(-1695.052 -228.037)" fill="#fefefe" fill-rule="evenodd"/>
      <rect id="Rectángulo_404641" data-name="Rectángulo 404641" width="57.401" height="3.059" transform="translate(306.559 70.956)" fill="#bbdbfa"/>
      <rect id="Rectángulo_404642" data-name="Rectángulo 404642" width="57.401" height="3.059" transform="translate(375.173 70.956)" fill="#bbdbfa"/>
      <path id="Trazado_890116" data-name="Trazado 890116" d="M1532.01,437.208a11.533,11.533,0,1,1,11.533-11.533,11.532,11.532,0,0,1-11.533,11.533m0-30.58a19.047,19.047,0,1,0,19.047,19.047,19.047,19.047,0,0,0-19.047-19.047" transform="translate(-1206.8 -324.343)" fill="#a4d0fc" fill-rule="evenodd"/>
      <path id="Trazado_890117" data-name="Trazado 890117" d="M1532.04,513.662a11.53,11.53,0,0,1-11.524-11.184H1513a19.042,19.042,0,0,0,38.077,0h-7.514a11.529,11.529,0,0,1-11.524,11.184" transform="translate(-1206.829 -400.797)" fill="#bbdbfa" fill-rule="evenodd"/>
      <path id="Trazado_890118" data-name="Trazado 890118" d="M1640.025,418.586l-3.288,6.777a11.526,11.526,0,0,1,5.532,9.85c0,.118,0,.233-.009.349h7.514c0-.116.009-.231.009-.349a19.036,19.036,0,0,0-9.758-16.627" transform="translate(-1305.526 -333.881)" fill="#87bef5" fill-rule="evenodd"/>
      <path id="Trazado_890119" data-name="Trazado 890119" d="M1754.8,437.208a11.533,11.533,0,1,1,11.533-11.533,11.532,11.532,0,0,1-11.533,11.533m0-30.58a19.047,19.047,0,1,0,19.047,19.047,19.046,19.046,0,0,0-19.047-19.047" transform="translate(-1384.506 -324.343)" fill="#a4d0fc" fill-rule="evenodd"/>
      <path id="Trazado_890120" data-name="Trazado 890120" d="M1789.479,414.144a11.486,11.486,0,0,1,8.547,3.8l5.554-5.062a19.025,19.025,0,0,0-24.349-3.256l4.651,5.976a11.474,11.474,0,0,1,5.6-1.458" transform="translate(-1419.185 -324.344)" fill="#a4d0fc" fill-rule="evenodd"/>
      <path id="Trazado_890121" data-name="Trazado 890121" d="M1882.6,449.623a18.982,18.982,0,0,0-4.93-12.095l-5.552,5.063a11.5,11.5,0,0,1,2.962,7.032Z" transform="translate(-1493.277 -348.99)" fill="#bbdbfa" fill-rule="evenodd"/>
      <path id="Trazado_890122" data-name="Trazado 890122" d="M1749.2,427.408l-4.651-5.978a19.032,19.032,0,0,0-8.78,15.352c-.009.233-.018.465-.018.7a18.976,18.976,0,0,0,5,12.866l5.552-5.062a11.482,11.482,0,0,1-3.043-7.8c0-.235.009-.467.023-.7a11.532,11.532,0,0,1,5.914-9.375" transform="translate(-1384.506 -336.15)" fill="#87bef5" fill-rule="evenodd"/>
      <path id="Trazado_890123" data-name="Trazado 890123" d="M1882.012,498c0-.235-.009-.466-.018-.7h-7.518c.013.232.022.465.022.7a11.484,11.484,0,0,1-3.138,7.9l4.649,5.97a18.983,18.983,0,0,0,6-13.874" transform="translate(-1492.671 -396.663)" fill="#87bef5" fill-rule="evenodd"/>
      <path id="Trazado_890124" data-name="Trazado 890124" d="M1977.591,437.208a11.533,11.533,0,1,1,11.533-11.533,11.533,11.533,0,0,1-11.533,11.533m0-30.58a19.047,19.047,0,1,0,19.046,19.047,19.047,19.047,0,0,0-19.046-19.047" transform="translate(-1562.212 -324.343)" fill="#a4d0fc" fill-rule="evenodd"/>
      <path id="Trazado_890125" data-name="Trazado 890125" d="M2088.092,445.136a11.526,11.526,0,0,1-5.471,9.812l5.238,5.519a19.045,19.045,0,0,0,1.493-29.442l-5.423,5.24a11.506,11.506,0,0,1,4.163,8.87" transform="translate(-1661.181 -343.804)" fill="#87bef5" fill-rule="evenodd"/>
      <rect id="Rectángulo_404643" data-name="Rectángulo 404643" width="13.371" height="3.176" transform="translate(318.099 126.379)" fill="#87bef5"/>
      <path id="Trazado_890126" data-name="Trazado 890126" d="M1585.228,653.815H1571.8v-.877h13.428Zm91.022,3.664h-13.43V656.6h13.43Zm0-3.664h-13.43v-.877h13.43Zm-45.511,3.664H1617.31V656.6h13.428Zm0-3.664H1617.31v-.877h13.428Zm-45.511,3.664H1571.8V656.6h13.428Z" transform="translate(-1253.73 -520.81)" fill="#a4d0fc" fill-rule="evenodd"/>
      <rect id="Rectángulo_404644" data-name="Rectángulo 404644" width="13.369" height="3.176" transform="translate(363.61 126.379)" fill="#87bef5"/>
      <rect id="Rectángulo_404645" data-name="Rectángulo 404645" width="13.369" height="3.176" transform="translate(409.121 126.379)" fill="#87bef5"/>
      <path id="Trazado_890127" data-name="Trazado 890127" d="M2040.014,1378.85c.046-.965.6-2.19.716-3.748.9-12.142,3.026-39.552,3.026-39.552s.922-21.837,2.921-35.431a52.664,52.664,0,0,0,8.307-.073c6.011-.539,10.264-2.269,16.195-4.042,1.213,11.552,3.486,32.762,3.486,32.762s-.712,4.326,5.046,5.258c5.052.818,23.2,21.786,26.932,25.071-.742,1.181-2.3,2.217-3.124,3.371-5.788-6.535-38.125-24.648-38.125-24.648l-5.5-25.15s-7.494,28.526-5.6,31.159-9.63,34.082-9.9,35.734c-.033.2-2.635-.466-4.383-.71" transform="translate(-1627.196 -1033.744)" fill="#ffb27d" fill-rule="evenodd"/>
      <path id="Trazado_890128" data-name="Trazado 890128" d="M2061.565,1296.057s-7.2,31.715-6.5,33.76.944,5.306-1.089,13.1-6.534,21.258-6.534,21.258l-7.453-.958,3.108-38.3,3.1-35.481.056-.753,11.273-5.915Z" transform="translate(-1627.179 -1023.181)" fill="#3b5bb3" fill-rule="evenodd"/>
      <path id="Trazado_890129" data-name="Trazado 890129" d="M2145.688,1331.207l-4.223,5.376s-28.02-14.537-33.491-20.115c-2.1-2.141-8.147-27.746-8.147-27.746l-6.326-10.565.754-5.174,18.012-4.666s5,7.864,5.742,10.839c1.87,7.412.206,30.587.206,30.587s-.106-.925,5.3,1.5,22.172,19.964,22.172,19.964" transform="translate(-1669.859 -1011.659)" fill="#4567c6" fill-rule="evenodd"/>
      <path id="Trazado_890130" data-name="Trazado 890130" d="M2329.9,1594.808s2.187-.961,2.538-1.652.092-2.639.979-2.931,5.836,2.274,6.523,2.989a2.639,2.639,0,0,1,.674,2.8c-.36.7-9.356,12.18-11.089,13.541s-2.986-2.468-1.539-4.493.93-6.867,1.915-10.256" transform="translate(-1856.386 -1268.407)" fill="#284191" fill-rule="evenodd"/>
      <path id="Trazado_890131" data-name="Trazado 890131" d="M1987.01,1688.121s1.915,1.413,2.693,1.382,2.338-1.225,3.029-.6.9,6.2.623,7.145a2.624,2.624,0,0,1-2.1,1.973c-.795.042-15.217-2.109-17.253-2.938s.67-3.821,3.145-3.564,6.428-2.587,9.867-3.4" transform="translate(-1573.966 -1346.512)" fill="#284191" fill-rule="evenodd"/>
      <path id="Trazado_890132" data-name="Trazado 890132" d="M1915.413,1046.767c8.6,11.955,13.042,18.936,21.646,23.471a13.307,13.307,0,0,0,5.154-6.858q2.146,8.146,4.668,16.136,7.3,3.753,22.9,2.247l1.936-4.426c.814-.405,3.028,0,4.365,1.192,6.181-8.146,9.686-16.033,11.037-23.277q-6.952-20.223-14.568-30.919-3.116-2.758-12.105-3.772-11.8,9.439-13.131,4.016a83.889,83.889,0,0,0-9.184,7.463q-4.286,5.624-3.063,24.908a107.115,107.115,0,0,0-17.123-13.305,6.79,6.79,0,0,0-2.532,3.122m57.08,26.354q-7.439-11.734-4.441-32.8,4.63,8.705,9.51,17.024-2.418,2.092-5.068,15.775" transform="translate(-1527.809 -814.041)" fill="#f57a44" fill-rule="evenodd"/>
      <path id="Trazado_890133" data-name="Trazado 890133" d="M2001.692,1150.79a133.109,133.109,0,0,1-3.593-20.642q.638,17.745-1.574,24.222c-1.579.384-3.639-.13-6.543-1.274a31.214,31.214,0,0,0,6.556,4.55,13.284,13.284,0,0,0,5.154-6.856" transform="translate(-1587.288 -901.451)" fill="#f06a30" fill-rule="evenodd"/>
      <path id="Trazado_890134" data-name="Trazado 890134" d="M2167.551,1155.221a34.209,34.209,0,0,1,.776-4.218q-7.439-11.733-4.441-32.8-7.235,20.246,3.232,38.007Z" transform="translate(-1723.642 -891.924)" fill="#f06a30" fill-rule="evenodd"/>
      <path id="Trazado_890135" data-name="Trazado 890135" d="M2036.529,1058.949a84.078,84.078,0,0,1,21.192-3.041,53.279,53.279,0,0,1,1.917-6.668q-19.982,1.593-28.023,6.033Zm20.612,12.56q-1.588.137-3.31.379l.317.238,3.643,2.724q-.395-1.663-.65-3.342m-9.7,9.475-6.156-4.6a28.863,28.863,0,0,0-5.78,2.17q.773,2.723,1.587,5.43a53.88,53.88,0,0,1,10.349-3m-1.125-14.715,2.387,1.785q3.656-.538,8.015-.916a42.417,42.417,0,0,1,.27-6.875,81.967,81.967,0,0,0-16.391,1.73Zm-12.3-26.6a56.751,56.751,0,0,1,19.477-4.546,20.83,20.83,0,0,0-4.442-3.379q-8.407,6.023-9.966,2.326a30.945,30.945,0,0,0-5.068,5.6m22.438-.88a29.712,29.712,0,0,1,2.514,6.583c-14.4,1.207-21.87,2.564-28.729,6.768a27.686,27.686,0,0,1,1.032-7.463c7.372-3.61,16.041-5.257,25.183-5.888" transform="translate(-1619.394 -822.96)" fill="#f06a30" fill-rule="evenodd"/>
      <path id="Trazado_890136" data-name="Trazado 890136" d="M2079.263,1024.95a28.3,28.3,0,0,0,4.988-9.613,6.988,6.988,0,0,0-2.556-2.445c-2.948,3.788-4.853,5.933-6.747,7.314l-.033.024q-.051-.132-.107-.269a49.443,49.443,0,0,1-2.26-5.863,6.561,6.561,0,0,0-1.529,2.911,18.936,18.936,0,0,0-.046,8.2,24.276,24.276,0,0,1,1.632-2.516,13.946,13.946,0,0,1,2.31-2.466,13.416,13.416,0,0,1,2.393,2.156,22.433,22.433,0,0,1,1.955,2.566" transform="translate(-1651.552 -807.922)" fill="#f06a30" fill-rule="evenodd"/>
      <path id="Trazado_890137" data-name="Trazado 890137" d="M2065.694,946.769a8.154,8.154,0,0,1-1.559-2.414q.192-.876.354-2.206,5.026-4.416.813-5.706a7.166,7.166,0,0,0-1.649,3.028c-.639.054-.211-1.669-.615-2.251.429-2.713-.294-3.445-.27-5.106-2.139-2.457-6.738-2.7-12.236-1.28.057,5.2-.28,17.5,5.9,16.467l.115.673a49.506,49.506,0,0,0,2.26,5.863l.141.245c1.894-1.38,3.8-3.525,6.747-7.313" transform="translate(-1635.584 -741.776)" fill="#ffb27d" fill-rule="evenodd"/>
      <path id="Trazado_890138" data-name="Trazado 890138" d="M2038.026,906.806c5.5-1.419,9.764-1.564,11.9.893-.024,1.661.535,2.617.106,5.33.4.583.141,2.081.78,2.027a7.169,7.169,0,0,1,1.649-3.028q4.214,1.291-.812,5.706c-.109.886-.225,1.622-.354,2.206,5.969-4.386,7.818-13.714,1.592-17.359-1.946-7.373-12.009.616-17.917-2.32-1.794,3.267,1.355,6.688,3.053,6.544" transform="translate(-1622.747 -717.362)" fill="#284191" fill-rule="evenodd"/>
      <path id="Trazado_890139" data-name="Trazado 890139" d="M2083.858,1010.906a18.089,18.089,0,0,1-4.169.958l.115.673c.107.4.23.8.365,1.2l.035-.016a8.492,8.492,0,0,0,3.654-2.811" transform="translate(-1658.842 -806.339)" fill="#f08261" fill-rule="evenodd"/>
      <path id="Trazado_890140" data-name="Trazado 890140" d="M2127.729,919.211a1.539,1.539,0,0,1-.324-1.968,3.061,3.061,0,0,1,3.173.587q-.921-.132-2.849,1.381" transform="translate(-1696.719 -731.473)" fill="#284191" fill-rule="evenodd"/>
      <path id="Trazado_890141" data-name="Trazado 890141" d="M2122.268,906.527q.871.794,1.474.237a3.426,3.426,0,0,0-.773-2.849,4.4,4.4,0,0,1-.7,2.611" transform="translate(-1692.805 -720.999)" fill="#284191" fill-rule="evenodd"/>
      <path id="Trazado_890142" data-name="Trazado 890142" d="M2051.182,921.482q-.318-2.427-2.2-2.72a5.359,5.359,0,0,0-2.934,4.838q.9-1.362,5.129-2.118" transform="translate(-1632.012 -732.841)" fill="#284191" fill-rule="evenodd"/>
      <path id="Trazado_890143" data-name="Trazado 890143" d="M2071.637,902.085c-.178.714.239,1.583-.716,1.895-.339,3.039-3.1-.729-3.167-1.845q.672.406,3.882-.05" transform="translate(-1649.323 -719.539)" fill="#284191" fill-rule="evenodd"/>
      <path id="Trazado_890144" data-name="Trazado 890144" d="M1520.412,763.885A34.744,34.744,0,0,1,1579,800.837l.214.16a1.979,1.979,0,0,1,.4,2.762l-4.218,5.64a1.979,1.979,0,0,1-2.762.4l-.214-.16a34.744,34.744,0,0,1-52.007-45.753m3.885,2.905a29.892,29.892,0,1,0,41.84-6.038,29.891,29.891,0,0,0-41.84,6.038" transform="translate(-1207.22 -598.188)" fill="#1e77d1" fill-rule="evenodd"/>
      <rect id="Rectángulo_404646" data-name="Rectángulo 404646" width="7.043" height="17.729" transform="translate(368.175 211.211) rotate(-53.211)" fill="#61a0e0"/>
      <path id="Trazado_890145" data-name="Trazado 890145" d="M1855.183,1046.306l4.22-5.642a1.977,1.977,0,0,1,2.76-.4l12.948,9.682.02.015,27.962,20.911.006,0,7.745,5.791,27.969,20.916a1.979,1.979,0,0,1,.4,2.762l-4.218,5.642a1.979,1.979,0,0,1-2.762.4l-12.95-9.684-.016-.013-27.969-20.915-7.745-5.792h0l-27.967-20.914a1.979,1.979,0,0,1-.4-2.762" transform="translate(-1479.455 -829.445)" fill="#1e77d1" fill-rule="evenodd"/>
      <path id="Trazado_890146" data-name="Trazado 890146" d="M1585.258,779.87a29.892,29.892,0,1,1-41.84,6.038,29.892,29.892,0,0,1,41.84-6.038" transform="translate(-1226.341 -617.306)" fill="#eff9fc" fill-rule="evenodd"/>
      <path id="Trazado_890147" data-name="Trazado 890147" d="M1577.937,842.7,1539.175,809.7q.2-1.333.523-2.627l40.746,34.682q-1.228.524-2.507.938m12.851-8.279a29.81,29.81,0,0,0,6.8-12.362l-41.178-35.048a29.989,29.989,0,0,0-11.118,8.683Zm-8.3,6.373a29.94,29.94,0,0,0,4.507-2.881l-44.552-37.92a29.868,29.868,0,0,0-2.123,4.91Z" transform="translate(-1227.707 -627.748)" fill="#dfedfa" fill-rule="evenodd"/>
      <path id="Trazado_890148" data-name="Trazado 890148" d="M2167.133,1292.75h0a16.454,16.454,0,0,1,1.894-5.134c-.708-1.644-2.54-2.952-3.447-2.929l-2.817,2.475a29.785,29.785,0,0,0-6.474,3.1,3.727,3.727,0,0,0,3.7.043q-1.683,2.075-1.619,2.682,4.356,4.779,6.36,3.991,2.281-2.633,2.405-4.232" transform="translate(-1719.94 -1024.717)" fill="#ffb27d" fill-rule="evenodd"/>
      <path id="Trazado_890149" data-name="Trazado 890149" d="M2207.247,1213.844a60.915,60.915,0,0,1-9.563,17.583c-1.01-.958-3.513-3.241-4.45-2.925.729-1.147.494-.995.861-2.487q1.927-9.946,3.731-13.768a85.059,85.059,0,0,0,9.421,1.6" transform="translate(-1749.41 -966.936)" fill="#f57a44" fill-rule="evenodd"/>
      <path id="Trazado_890150" data-name="Trazado 890150" d="M1888.2,1105.487c-.281-.369-1.337-1.851-2.441-3.288-1.864-.387-4.194-2.536-4.392-4.1.06-2.057-.6-2.934,1.15-3.926.605.045,1.818,1.028,2.9,2.816-.309,1.41,1.129,2.1,2.01,2.767,1.1,1.026.329.248,1.583,1.387.538.618,1.352,1.058,1.627,1.4a6.366,6.366,0,0,0-2.442,2.939" transform="translate(-1500.597 -872.758)" fill="#ffb27d" fill-rule="evenodd"/>
      <path id="Trazado_890151" data-name="Trazado 890151" d="M2085.5,950.669a.864.864,0,1,1-.644,1.038.863.863,0,0,1,.644-1.038" transform="translate(-1662.945 -758.273)" fill="#bbdbfa" fill-rule="evenodd"/>
      <path id="Trazado_890152" data-name="Trazado 890152" d="M2085.887,952.346a.865.865,0,1,0-.87-1.385l.061-.022a.28.28,0,1,1-.208.336l-.006-.031a.847.847,0,0,0-.018.459.864.864,0,0,0,1.04.644" transform="translate(-1662.938 -758.268)" fill="#125aa3" fill-rule="evenodd"/>
      <path id="Trazado_890153" data-name="Trazado 890153" d="M2081.161,943.646a.637.637,0,0,0-.045.055,1.365,1.365,0,0,1,.119-.266.426.426,0,0,0-.085.1.693.693,0,0,0-.059.152.793.793,0,0,1,0-.155.386.386,0,0,0-.03.174.594.594,0,0,1,.032-.335.505.505,0,0,0-.1.313.367.367,0,0,1-.037-.135.263.263,0,0,0-.009.152l-.054-.058c.012.039.026.048.036.078a.636.636,0,0,1-.271-.37.59.59,0,0,0,.1.156,1.01,1.01,0,0,1-.062-.263,1.667,1.667,0,0,1,.063.2.538.538,0,0,0,.1.173.857.857,0,0,1-.079-.4l.01.037a1.032,1.032,0,0,0,.042.218c0-.13-.026-.249.069-.36a.958.958,0,0,0-.048.158c.05-.067.059-.179.153-.2a1.176,1.176,0,0,0-.106.167.3.3,0,0,0-.034.223.515.515,0,0,1,.3-.449c-.04.028-.163.146-.167.2v.011c.018.061,0-.058,0,.013a.405.405,0,0,0-.072.127.458.458,0,0,0-.023.088.475.475,0,0,0,0,.053.107.107,0,0,0,0,.024l.006.015a.592.592,0,0,1,.161-.36.876.876,0,0,1,.286-.2l0,.006-.069.045a.68.68,0,0,0-.349.479c.009-.01,0,0,.013-.021a.121.121,0,0,1,.006-.014,1,1,0,0,1,.106-.208.905.905,0,0,1,.168-.176,1.1,1.1,0,0,1,.453-.19,2,2,0,0,0-.312.13.649.649,0,0,0-.25.215,1.238,1.238,0,0,0,.106-.068,2.335,2.335,0,0,1,.821-.351,1.917,1.917,0,0,0-.44.217l.087-.03c-.024.015-.042.033-.068.048s-.043.027-.066.045a1,1,0,0,0-.332.375c.027-.036.066-.073.1-.109s.067-.071.106-.106a1.948,1.948,0,0,1,.228-.188,2.425,2.425,0,0,1,.529-.276.2.2,0,0,0-.073.059,7.005,7.005,0,0,1,.827-.27c-.083.043-.23.073-.326.116l-.088.048a2.842,2.842,0,0,0,.3-.1,4.231,4.231,0,0,1,.944-.234,1.642,1.642,0,0,1,1.208.212,1.228,1.228,0,0,1,.121.089,2.092,2.092,0,0,0-.576-.244,3.4,3.4,0,0,1,.917.521c-.069-.032-.17-.1-.247-.15s-.175-.1-.266-.14a2.166,2.166,0,0,0-.614-.208,2.079,2.079,0,0,0,.236.1,8.126,8.126,0,0,1,1.28.659c.048.03.145.111.179.127-.041-.011-.209-.112-.265-.14a2.91,2.91,0,0,0-.908-.338,7.509,7.509,0,0,1,.927.366l-.544-.191a2.463,2.463,0,0,0-.614-.132,4.953,4.953,0,0,1,1.17.369c-.085-.018-.209-.069-.3-.1-.109-.032-.214-.058-.323-.084a3.335,3.335,0,0,0-.685-.089,3.7,3.7,0,0,0-.885.108c-.084.019-.194.055-.274.064a.949.949,0,0,1,.24-.078,3.637,3.637,0,0,1,.506-.106c.069-.01.212-.012.268-.028a3.754,3.754,0,0,0-.55.016c.017,0,.008,0,.021-.007a.065.065,0,0,0,.021-.014,1.74,1.74,0,0,0-.412.108c-.117.045-.344.169-.355.173a.66.66,0,0,0,.072-.07l-.282.107.341-.179a2.1,2.1,0,0,0-.228.1c-.083.033-.252.1-.327.138a1.324,1.324,0,0,1-.354.109,1.637,1.637,0,0,1,.191-.1l.185-.094a.72.72,0,0,0,.093-.051,2.715,2.715,0,0,1,.263-.154,2.074,2.074,0,0,1,.814-.27,1.757,1.757,0,0,0-.852.251l-.367.21c-.035.017-.059.035-.091.054a2.718,2.718,0,0,1-.276.145l0-.021v-.009s0,0,0,0a.6.6,0,0,1-.173.09c.082-.1.308-.2.374-.327a1.2,1.2,0,0,0-.23.176c-.025.021-.049.034-.073.054a1.026,1.026,0,0,1,.254-.315l.1-.084a.58.58,0,0,0-.259.2,1.794,1.794,0,0,0-.167.239.1.1,0,0,1-.012.016c-.01.015,0,.007-.016.014l.067-.162c-.012.032-.115.167-.117.211a.762.762,0,0,1,.073-.217l-.051.048a1.467,1.467,0,0,1,.39-.413.962.962,0,0,0-.417.381c-.033.064-.052.141-.085.193l.027-.124s0,0-.006,0l-.053.084a.793.793,0,0,1,.17-.349.221.221,0,0,0-.092.078.641.641,0,0,0-.069.1,1.071,1.071,0,0,0-.1.255.412.412,0,0,1,.013-.149c-.025.012,0,0-.025.016a.406.406,0,0,0-.076.139l0-.093-.049.1a1.316,1.316,0,0,1,.033-.2.333.333,0,0,0-.076.173.252.252,0,0,1,0-.111l-.06.082c-.015.025-.029.058-.042.082a.711.711,0,0,1,.064-.191.593.593,0,0,0-.128.218.66.66,0,0,1,.1-.3c-.081.024-.1.245-.136.294l-.01-.092-.013.018-.038.1-.009-.12a.368.368,0,0,0-.044.127.749.749,0,0,1,0-.157c-.016.01,0,0-.021.019-.031.039-.038.091-.067.131l.024-.1a.072.072,0,0,0-.017.013Z" transform="translate(-1659.62 -751.695)" fill="#125aa3" fill-rule="evenodd"/>
      <path id="Trazado_890154" data-name="Trazado 890154" d="M2056.217,953.461a.864.864,0,1,0,1.038.644.861.861,0,0,0-1.038-.644" transform="translate(-1639.588 -760.5)" fill="#bbdbfa" fill-rule="evenodd"/>
      <path id="Trazado_890155" data-name="Trazado 890155" d="M2056.6,955.135a.864.864,0,1,1-.393-1.683.849.849,0,0,1,.557.057l-.066.006a.281.281,0,1,0,.337.209l-.009-.03a.833.833,0,0,1,.219.4.863.863,0,0,1-.645,1.038" transform="translate(-1639.582 -760.493)" fill="#125aa3" fill-rule="evenodd"/>
      <path id="Trazado_890156" data-name="Trazado 890156" d="M2049.851,948.794c.02.015.036.026.054.042a1.607,1.607,0,0,0-.172-.227.408.408,0,0,1,.1.079.862.862,0,0,1,.089.133.782.782,0,0,0-.043-.149.46.46,0,0,1,.072.161.673.673,0,0,0-.115-.315.529.529,0,0,1,.165.278.351.351,0,0,0,0-.138.275.275,0,0,1,.047.144l.032-.069c0,.04-.011.052-.011.084a.648.648,0,0,0,.137-.424.643.643,0,0,1-.043.176,1.053,1.053,0,0,0-.017-.269c-.012.061.006.142,0,.211a.585.585,0,0,1-.04.19.924.924,0,0,0-.036-.406v.037a1.259,1.259,0,0,1,.021.222c-.036-.127-.044-.248-.154-.332a.994.994,0,0,1,.081.14c-.06-.052-.1-.158-.183-.16a1.279,1.279,0,0,1,.135.136.322.322,0,0,1,.088.208.511.511,0,0,0-.379-.361c.043.018.181.1.2.158l0,.011c0,.063-.016-.057,0,.014a.406.406,0,0,1,.1.1.516.516,0,0,1,.042.079.428.428,0,0,1,.018.05.09.09,0,0,1,0,.025v.015a.621.621,0,0,0-.233-.308.764.764,0,0,0-.3-.124l0,0,.072.027a.672.672,0,0,1,.427.379c-.01-.007,0,0-.017-.016l-.01-.012a.927.927,0,0,0-.145-.175.821.821,0,0,0-.193-.13.938.938,0,0,0-.439-.075,1.888,1.888,0,0,1,.3.051.588.588,0,0,1,.272.148.668.668,0,0,1-.109-.041,2,2,0,0,0-.8-.14,1.62,1.62,0,0,1,.437.1l-.083-.009c.024.009.044.021.072.03l.069.027a.993.993,0,0,1,.383.281c-.033-.027-.076-.054-.113-.081s-.076-.051-.119-.076a1.694,1.694,0,0,0-.247-.127,2.128,2.128,0,0,0-.529-.139.19.19,0,0,1,.079.04,5.885,5.885,0,0,0-.786-.061c.084.021.218.016.313.034l.088.024a2.38,2.38,0,0,1-.281-.023,3.422,3.422,0,0,0-.875,0,1.429,1.429,0,0,0-.632.19,1.545,1.545,0,0,0-.357.306,1.176,1.176,0,0,0-.081.115c.082-.061.247-.3.435-.375a2.958,2.958,0,0,0-.656.726c.051-.048.118-.144.173-.2s.126-.134.193-.2a1.844,1.844,0,0,1,.475-.348,1.919,1.919,0,0,1-.178.152,7.026,7.026,0,0,0-.932.944c-.033.04-.1.142-.123.167.032-.021.152-.16.193-.2a2.437,2.437,0,0,1,.695-.545,6.154,6.154,0,0,0-.7.578l.418-.317a2.055,2.055,0,0,1,.5-.277,4.125,4.125,0,0,0-.913.639c.067-.037.161-.117.234-.164s.169-.109.257-.16a2.693,2.693,0,0,1,.566-.251,3.088,3.088,0,0,1,.792-.11c.077,0,.182.006.254,0a.755.755,0,0,0-.229-.018,2.978,2.978,0,0,0-.465.019c-.063.008-.187.041-.237.039a3.115,3.115,0,0,1,.478-.118.045.045,0,0,1-.021,0c-.017,0-.007,0-.02-.009a1.439,1.439,0,0,1,.384,0c.111.015.339.08.351.082a.647.647,0,0,1-.079-.051l.27.035-.341-.09a1.994,1.994,0,0,1,.223.036c.079.012.243.034.318.055a1.086,1.086,0,0,0,.335.02,1.357,1.357,0,0,0-.192-.048l-.184-.045c-.034-.011-.064-.016-.094-.027a2.419,2.419,0,0,0-.266-.087,1.728,1.728,0,0,0-.775-.063,1.464,1.464,0,0,1,.8.036l.372.114c.033.007.058.021.093.03a2.393,2.393,0,0,0,.276.075l-.009-.021,0,0s0,0,0,0,0,0,0,0a.526.526,0,0,0,.174.045c-.1-.078-.318-.121-.408-.226a1.1,1.1,0,0,1,.245.115c.027.013.052.021.078.034a.981.981,0,0,0-.3-.243l-.113-.055a.535.535,0,0,1,.275.127,1.648,1.648,0,0,1,.208.191l.013.013c.015.012.008.006.02.009l-.1-.14c.02.027.145.134.156.175a.769.769,0,0,0-.118-.191l.056.033a1.417,1.417,0,0,0-.443-.3.873.873,0,0,1,.458.266c.046.054.082.123.124.166l-.055-.114.006,0,.068.068a.821.821,0,0,0-.239-.3.19.19,0,0,1,.1.053.643.643,0,0,1,.087.083,1.193,1.193,0,0,1,.149.223.447.447,0,0,0-.051-.141c.024,0,0,0,.027.011a.449.449,0,0,1,.1.115l-.029-.088.069.082a1.778,1.778,0,0,0-.082-.191.353.353,0,0,1,.111.151.282.282,0,0,0-.029-.108l.073.064c.019.023.039.05.059.07a.835.835,0,0,0-.106-.17c.073.039.107.108.169.179a.728.728,0,0,0-.162-.264c.075,0,.153.212.194.252l-.014-.093.014.014.059.085-.022-.116a.452.452,0,0,1,.07.11.736.736,0,0,0-.037-.151c.017.006,0,0,.024.014.038.03.056.079.091.111l-.046-.091a.081.081,0,0,1,.018.009Z" transform="translate(-1631.647 -756.31)" fill="#125aa3" fill-rule="evenodd"/>
      <path id="Trazado_890157" data-name="Trazado 890157" d="M2071.146,959.01a.149.149,0,0,0-.248-.166,7.977,7.977,0,0,0-.36,1.828,13.313,13.313,0,0,0-.16,2.269c.262.82.9.714,1.327.642a.928.928,0,0,1,.244-.026.149.149,0,0,0,.11-.276.8.8,0,0,0-.4.008c-.329.055-.812.136-.995-.439a14.891,14.891,0,0,1,.171-2.14,8.75,8.75,0,0,1,.312-1.7" transform="translate(-1651.403 -764.76)" fill="#fc9774" fill-rule="evenodd"/>
      <path id="Trazado_890158" data-name="Trazado 890158" d="M2064.8,991.909c1.96.306,1.873.357,3.328.021.753-.173,1.759-.748,1.071-.042-1.876,1.921-4.557.778-4.4.021" transform="translate(-1646.958 -790.896)" fill="#fff" fill-rule="evenodd"/>
      <path id="Trazado_890159" data-name="Trazado 890159" d="M531.411,1314.3h17.066a1.8,1.8,0,0,1,0,3.609H531.411a1.8,1.8,0,0,1,0-3.609" transform="translate(-422.435 -1048.339)" fill="#f06a30" fill-rule="evenodd"/>
      <path id="Trazado_890160" data-name="Trazado 890160" d="M333.082,1466.027a2.99,2.99,0,1,1-2.989,2.991,2.99,2.99,0,0,1,2.989-2.991m-38.4,0a.893.893,0,0,1-.115,0,4.3,4.3,0,0,1,1.8,2.986c0,.681,0,.137-.006.206h33.349c0-.068-.007.475-.007-.206a4.3,4.3,0,0,1,1.8-2.986.916.916,0,0,1-.115,0l-16.35-2.044.786-34.62H329.8a2.587,2.587,0,0,0,2.578-2.578v-.608c-2.828.124-5.27.2-12.967.233-7.309.03-13.945.016-25.662-.04v.415a2.587,2.587,0,0,0,2.578,2.578h13.924l.784,34.478Zm-1.7,0a2.99,2.99,0,1,1-2.989,2.991,2.989,2.989,0,0,1,2.989-2.991" transform="translate(-231.315 -1137.575)" fill="#87644e" fill-rule="evenodd"/>
      <path id="Trazado_890161" data-name="Trazado 890161" d="M281.747,1132.575h29.107a12.192,12.192,0,0,1,12.157,12.157v43.844H271.34v-45.595a10.437,10.437,0,0,1,10.407-10.407" transform="translate(-216.431 -903.387)" fill="#fc9774" fill-rule="evenodd"/>
      <path id="Trazado_890162" data-name="Trazado 890162" d="M259.359,1191.192V1145.6a10.445,10.445,0,0,1,6.763-9.745,10.44,10.44,0,0,0-9.8,10.39v49.927h67.823a2.489,2.489,0,0,0,.024-4.979Z" transform="translate(-204.451 -906.002)" fill="#f57a44" fill-rule="evenodd"/>
      <path id="Trazado_890163" data-name="Trazado 890163" d="M284.6,1314.3h18.849a1.8,1.8,0,0,1,0,3.609H284.6a1.8,1.8,0,1,1,0-3.609" transform="translate(-225.568 -1048.339)" fill="#f06a30" fill-rule="evenodd"/>
      <path id="Trazado_890164" data-name="Trazado 890164" d="M296.636,1332.137l-4.341,15.618h-1.873l4.341-15.618Z" transform="translate(-231.652 -1062.565)" fill="#f57a44" fill-rule="evenodd"/>
      <path id="Trazado_890165" data-name="Trazado 890165" d="M534.631,1332.137l-4.34,15.618h-1.873l4.341-15.618Z" transform="translate(-421.486 -1062.565)" fill="#f06a30" fill-rule="evenodd"/>
      <path id="Trazado_890166" data-name="Trazado 890166" d="M278.495,1448.273c-2.122-.94-3.987-.892-6.284-1.134-1.29.976.055,1.945,1.216,2.16l4.4.817,2.242-.989a147.184,147.184,0,0,0,15.89-1.58.53.53,0,0,0-.137-1.052q-7.085.941-10.647,1.425c-1.053.143-6.024.26-6.681.353" transform="translate(-216.706 -1153.778)" fill="#87644e" fill-rule="evenodd"/>
      <path id="Trazado_890167" data-name="Trazado 890167" d="M362.327,1640.621a2.65,2.65,0,0,1-5.191,0Z" transform="translate(-284.866 -1308.624)" fill="#87644e" fill-rule="evenodd"/>
      <path id="Trazado_890168" data-name="Trazado 890168" d="M430.076,1640.621a2.65,2.65,0,0,1-5.191,0Z" transform="translate(-338.905 -1308.624)" fill="#87644e" fill-rule="evenodd"/>
      <path id="Trazado_890169" data-name="Trazado 890169" d="M370.13,1126.419c3.719,0,6.735,1.465,6.735,3.273s-3.016,3.271-6.735,3.271-6.734-1.466-6.734-3.271,3.014-3.273,6.734-3.273" transform="translate(-289.859 -898.477)" fill="#fefefe" fill-rule="evenodd"/>
      <path id="Trazado_890170" data-name="Trazado 890170" d="M309.344,1170.338l-10.7.714a107.146,107.146,0,0,1-18.734-12.29,56.357,56.357,0,0,0-.681-5.844q.82-1.628,1.8-3.481-9.447-.058-11.523-4.063a82.511,82.511,0,0,1,7.065-15.1c2.117-3.129,6.3-4.609,12.471-5.159,2.506,7.819,14.743,7.144,10.393.37a24.813,24.813,0,0,1,11.706,6.853,109.376,109.376,0,0,1,5.033,14.192c-2.987,2.093-4.847,3.192-7.519,3.809-1.2,5.782-.189,8.95.693,20" transform="translate(-214.965 -897.434)" fill="#a4d0fc" fill-rule="evenodd"/>
      <path id="Trazado_890171" data-name="Trazado 890171" d="M312.049,1343.608a39.188,39.188,0,0,0,1.6-7.049c5.014,1.942,10.749,3.815,18,6.678l-.978,3.73q-16.436.535-18.624-3.359" transform="translate(-248.903 -1066.093)" fill="#699dee" fill-rule="evenodd"/>
      <path id="Trazado_890172" data-name="Trazado 890172" d="M290.178,1259.713c-7.25-2.863-12.985-4.737-18-6.679a61.232,61.232,0,0,1-12.125-6.02,46.3,46.3,0,0,1,2.923-15.17q2.8,2.677,10.512,2.728-2.232,4.219-3.638,7.277a112.89,112.89,0,0,0,21.253,14.337Z" transform="translate(-207.429 -982.568)" fill="#ffb27d" fill-rule="evenodd"/>
      <path id="Trazado_890173" data-name="Trazado 890173" d="M464.563,1234.17q.838,2.926,1.552,5.41h-9.364a18.525,18.525,0,0,1,.287-2,23.657,23.657,0,0,0,7.525-3.408" transform="translate(-364.323 -984.423)" fill="#ffb27d" fill-rule="evenodd"/>
      <path id="Trazado_890174" data-name="Trazado 890174" d="M314.962,1213.232a44.008,44.008,0,0,0,2.626-6.036c-.5,2.944-.47,5.065-1.271,7.487a51.071,51.071,0,0,1,.849,10.44q-1.645-1.232-3.322-2.565a56.753,56.753,0,0,0-.681-5.844q.819-1.628,1.8-3.482m28.583.591a17.89,17.89,0,0,1-1.927.562q.36-5.622.474-9.292,1.082,5.422,1.453,8.731m-31.5,24.922a39.186,39.186,0,0,0,1.6-7.049c.929.36,1.882.717,2.865,1.078a69.9,69.9,0,0,1-1.673,7.986,5.088,5.088,0,0,1-2.795-2.015" transform="translate(-248.903 -961.23)" fill="#61a0e0" fill-rule="evenodd"/>
      <path id="Trazado_890175" data-name="Trazado 890175" d="M358.48,1015.943q-10.64,3.854-13.652.744-3.061-.71-3.99-5.428c-2.112-4.789-.306-12.438,2.663-8.65,2.457-6.284,12.313-2.639,17.87-6.126,3.373,2.2,2.092,7.652-.333,9.494.1,6.268-.249,9.615-2.557,9.966" transform="translate(-271.133 -794.834)" fill="#284191" fill-rule="evenodd"/>
      <path id="Trazado_890176" data-name="Trazado 890176" d="M339.38,1020.485a1.6,1.6,0,0,0,.742-1.938,3.184,3.184,0,0,0-3.359-.064q.968.056,2.617,2" transform="translate(-268.615 -812.025)" fill="#284191" fill-rule="evenodd"/>
      <path id="Trazado_890177" data-name="Trazado 890177" d="M363.505,1033.794q-2.006-.791-3.034.529c.054,2,1.093,6.035,2.689,6.916.278-.194.212-4.435.345-7.445" transform="translate(-287.526 -824.358)" fill="#284191" fill-rule="evenodd"/>
      <path id="Trazado_890178" data-name="Trazado 890178" d="M367.971,1025.4q-3.388,1.645-2.236,2.967a18.693,18.693,0,0,0,9.793-1.105q-2.819.265-7.557-1.861" transform="translate(-291.492 -817.896)" fill="#284191" fill-rule="evenodd"/>
      <path id="Trazado_890179" data-name="Trazado 890179" d="M371.485,995.752c-2.557-2.584-7.383-2.9-14.033-.465-4.209-1.044-5.154-2.989-3.377-6.152,2.512-4.47,7.946-.937,14.606-5.142-.254,3.267,9.657,6.067,2.8,11.759" transform="translate(-281.744 -784.872)" fill="#284191" fill-rule="evenodd"/>
      <path id="Trazado_890180" data-name="Trazado 890180" d="M360.576,1052.851c1.764-.378,1.6,3.245,1.463,5.043-.261,3.532-4.243-4.453-1.463-5.043" transform="translate(-286.827 -839.774)" fill="#ffb27d" fill-rule="evenodd"/>
      <path id="Trazado_890181" data-name="Trazado 890181" d="M353.977,1049.545a5.062,5.062,0,0,0,2.844-.611,12.37,12.37,0,0,0,2.027-3.565q-.305-.867-.637-2.19-5.651-3.835-1.544-5.676a7.325,7.325,0,0,1,2.054,2.856,1.687,1.687,0,0,0,1.484-1,49.467,49.467,0,0,1-1.519-6.56c1.855-2.759,6.194-3.152,11.943-2.408q.4,2.295.656,4.861c.715.657,2.8,11.679-4.263,12.128a8.751,8.751,0,0,0,.079,1.907,1.406,1.406,0,0,0,.777.487c.111,3.754-4.559,3.776-13.9-.227" transform="translate(-282.346 -821.616)" fill="#ffb27d" fill-rule="evenodd"/>
      <path id="Trazado_890182" data-name="Trazado 890182" d="M357.488,1004.043c-5.746-.744-10.087-.351-11.943,2.408a49.663,49.663,0,0,0,1.518,6.56,1.682,1.682,0,0,1-1.483,1,7.362,7.362,0,0,0-2.054-2.858q-4.1,1.842,1.544,5.677.33,1.325.637,2.19c-3.388-.76-6.223-3.789-6.622-5.1-3.953-7.788.455-11.079,2.814-12.279,1.041-7.714,12.241-.895,17.855-4.614,2.23,3.082-.527,6.946-2.266,7.014" transform="translate(-269.204 -795.27)" fill="#284191" fill-rule="evenodd"/>
      <path id="Trazado_890183" data-name="Trazado 890183" d="M399.779,1111.722a9.672,9.672,0,0,0,3.776.794,11.445,11.445,0,0,0,.025,1.55,5.948,5.948,0,0,1-3.8-2.344" transform="translate(-318.88 -886.754)" fill="#f08261" fill-rule="evenodd"/>
      <path id="Trazado_890184" data-name="Trazado 890184" d="M420.563,1022.3a1.808,1.808,0,0,1,.838,2.189,3.594,3.594,0,0,1-3.794.073q1.091-.062,2.956-2.263" transform="translate(-333.1 -815.43)" fill="#284191" fill-rule="evenodd"/>
      <path id="Trazado_890185" data-name="Trazado 890185" d="M351.4,1125.4c4.926,2.25,9.056,3.516,11.394,3.455a4.442,4.442,0,0,0,1.936-.431,2.6,2.6,0,0,0,1.21-1.261,3.042,3.042,0,0,0,.3-1.511l-.988-.341a3.714,3.714,0,0,1-.235,1.433,1.624,1.624,0,0,1-.753.781,3.438,3.438,0,0,1-1.5.32c-2.184.057-4.834-.559-9.618-2.742Z" transform="translate(-280.291 -897.429)" fill="#61a0e0" fill-rule="evenodd"/>
      <path id="Trazado_890186" data-name="Trazado 890186" d="M394.388,1145.51a.506.506,0,0,0,.158-1,17.029,17.029,0,0,0-3.053-.194,23.082,23.082,0,0,0-3.345.336.507.507,0,1,0,.17,1,21.816,21.816,0,0,1,3.2-.323,16.08,16.08,0,0,1,2.874.181" transform="translate(-309.266 -912.748)" fill="#61a0e0" fill-rule="evenodd"/>
      <path id="Trazado_890187" data-name="Trazado 890187" d="M396.7,1151.037a.506.506,0,1,0,.211-.99,9.692,9.692,0,0,0-2.327-.2,12.947,12.947,0,0,0-2.538.342.506.506,0,0,0,.225.988,12.018,12.018,0,0,1,2.339-.318,8.813,8.813,0,0,1,2.089.176" transform="translate(-312.395 -917.162)" fill="#61a0e0" fill-rule="evenodd"/>
      <path id="Trazado_890188" data-name="Trazado 890188" d="M397.657,1048.623a.843.843,0,1,0,.805.879.844.844,0,0,0-.805-.879" transform="translate(-316.486 -836.423)" fill="#bbdbfa" fill-rule="evenodd"/>
      <path id="Trazado_890189" data-name="Trazado 890189" d="M397.578,1050.307a.843.843,0,1,1,.073-1.685.825.825,0,0,1,.509.2l-.063-.012a.274.274,0,1,0,.26.285v-.031a.843.843,0,0,1-.78,1.243" transform="translate(-316.48 -836.422)" fill="#125aa3" fill-rule="evenodd"/>
      <path id="Trazado_890190" data-name="Trazado 890190" d="M387,1042.85c.019.017.034.027.052.045a1.417,1.417,0,0,0-.161-.233.45.45,0,0,1,.1.084.761.761,0,0,1,.082.136.7.7,0,0,0-.03-.148.39.39,0,0,1,.06.161.582.582,0,0,0-.091-.315.484.484,0,0,1,.149.281.319.319,0,0,0,.012-.134.246.246,0,0,1,.036.143l.042-.064c-.006.039-.016.049-.021.081a.617.617,0,0,0,.194-.4.533.533,0,0,1-.066.169.894.894,0,0,0,.01-.264c-.02.059-.009.14-.022.206a.549.549,0,0,1-.064.184.824.824,0,0,0,0-.4l0,.037a1.172,1.172,0,0,1,0,.218c-.025-.125-.02-.243-.13-.333a.885.885,0,0,1,.073.143c-.06-.057-.087-.162-.182-.169a1.056,1.056,0,0,1,.132.142.285.285,0,0,1,.073.208.5.5,0,0,0-.372-.377c.045.019.184.11.2.166v.011c-.006.063-.012-.055,0,.013a.4.4,0,0,1,.093.109.453.453,0,0,1,.039.079.356.356,0,0,1,.013.051.126.126,0,0,1,0,.024l0,.015a.577.577,0,0,0-.219-.317.8.8,0,0,0-.311-.139.006.006,0,0,1,.006,0l.075.031a.658.658,0,0,1,.421.4c-.01-.007,0,0-.016-.016a.075.075,0,0,0-.009-.012,1.1,1.1,0,0,0-.139-.181.91.91,0,0,0-.193-.139,1.083,1.083,0,0,0-.469-.1,1.934,1.934,0,0,1,.323.069.638.638,0,0,1,.279.161.826.826,0,0,1-.115-.046,2.3,2.3,0,0,0-.85-.189,1.842,1.842,0,0,1,.462.13l-.088-.015c.024.011.045.024.073.034l.072.031a.985.985,0,0,1,.385.3c-.033-.028-.077-.058-.115-.086s-.076-.055-.12-.082a1.905,1.905,0,0,0-.254-.139,2.382,2.382,0,0,0-.556-.168.172.172,0,0,1,.079.043,6.568,6.568,0,0,0-.841-.11c.088.027.233.03.333.054l.093.03c-.054,0-.23-.033-.3-.042a4.2,4.2,0,0,0-.947-.055,1.615,1.615,0,0,0-1.12.421,1.3,1.3,0,0,0-.1.108,1.95,1.95,0,0,1,.508-.338,3.249,3.249,0,0,0-.784.665c.06-.042.142-.131.208-.188s.151-.122.23-.182a2.123,2.123,0,0,1,.551-.309c-.04.037-.154.1-.208.137a7.647,7.647,0,0,0-1.11.862c-.039.037-.118.131-.149.154.037-.018.181-.145.23-.182a2.819,2.819,0,0,1,.808-.487,7.331,7.331,0,0,0-.823.518l.487-.282a2.53,2.53,0,0,1,.564-.237,4.908,4.908,0,0,0-1.054.565c.077-.032.188-.1.272-.145s.193-.094.294-.139a3.1,3.1,0,0,1,.64-.208,3.559,3.559,0,0,1,.868-.057c.083,0,.2.016.274.012a1.028,1.028,0,0,0-.245-.032,3.93,3.93,0,0,0-.5-.009c-.069,0-.206.027-.261.02a3.782,3.782,0,0,1,.53-.083c-.016,0-.009,0-.022,0s-.009,0-.021-.009a1.666,1.666,0,0,1,.414.028c.12.022.36.1.372.1a.43.43,0,0,1-.081-.054l.288.053-.357-.111a2.167,2.167,0,0,1,.235.049c.086.018.26.049.339.075a1.343,1.343,0,0,0,.359.041,1.617,1.617,0,0,0-.2-.06l-.194-.055c-.036-.012-.067-.018-.1-.031a2.834,2.834,0,0,0-.279-.1,2,2,0,0,0-.831-.112,1.733,1.733,0,0,1,.863.086l.39.136c.036.009.061.022.1.034a2.257,2.257,0,0,0,.291.09l-.007-.02s0,0,0,0a.005.005,0,0,1,0,0s0,0,0,0a.6.6,0,0,0,.181.054c-.1-.081-.33-.139-.415-.247a1.264,1.264,0,0,1,.252.129c.027.015.054.024.08.038a1.04,1.04,0,0,0-.3-.258l-.115-.061a.572.572,0,0,1,.282.143,1.861,1.861,0,0,1,.205.2l.013.015c.014.012.006.006.018.009l-.094-.143c.018.028.142.142.151.181a.7.7,0,0,0-.107-.194l.057.037a1.436,1.436,0,0,0-.448-.325.908.908,0,0,1,.467.29c.045.055.077.124.118.169l-.047-.114.006,0,.066.07a.78.78,0,0,0-.225-.3.215.215,0,0,1,.1.058.579.579,0,0,1,.084.087,1.067,1.067,0,0,1,.138.227.362.362,0,0,0-.04-.141c.027.006,0,0,.028.012a.367.367,0,0,1,.1.118l-.019-.088.064.085a1.219,1.219,0,0,0-.069-.191.333.333,0,0,1,.1.154.258.258,0,0,0-.019-.106l.072.068c.018.022.037.051.055.072a.7.7,0,0,0-.1-.173c.076.043.106.112.164.187a.666.666,0,0,0-.146-.269c.081.009.142.217.184.258l-.007-.091a.122.122,0,0,1,.016.014l.054.088-.014-.116a.431.431,0,0,1,.066.114.707.707,0,0,0-.025-.15c.018.008,0,0,.024.015.037.032.054.081.089.114l-.042-.091a.052.052,0,0,1,.02.009Z" transform="translate(-304.938 -831.26)" fill="#125aa3" fill-rule="evenodd"/>
      <path id="Trazado_890191" data-name="Trazado 890191" d="M426.239,1046.016a.843.843,0,1,1-.878.805.844.844,0,0,1,.878-.805" transform="translate(-339.284 -834.343)" fill="#bbdbfa" fill-rule="evenodd"/>
      <path id="Trazado_890192" data-name="Trazado 890192" d="M426.158,1047.7a.844.844,0,1,0-.449-1.531l.064,0a.273.273,0,1,1-.286.261l0-.033a.845.845,0,0,0,.668,1.307" transform="translate(-339.277 -834.338)" fill="#125aa3" fill-rule="evenodd"/>
      <path id="Trazado_890193" data-name="Trazado 890193" d="M420.194,1041.274a.469.469,0,0,0-.043.05,1.634,1.634,0,0,1,.122-.25.423.423,0,0,0-.081.1.752.752,0,0,0-.063.143.825.825,0,0,1,.015-.151.416.416,0,0,0-.041.167.654.654,0,0,1,.054-.323.525.525,0,0,0-.109.3.39.39,0,0,1-.022-.133.277.277,0,0,0-.019.146l-.042-.06c.008.038.018.048.025.078a.625.625,0,0,1-.209-.381.6.6,0,0,0,.073.16,1.017,1.017,0,0,1-.033-.261,1.929,1.929,0,0,1,.039.2.53.53,0,0,0,.073.175.9.9,0,0,1-.039-.4l.006.036a1.144,1.144,0,0,0,.02.217.513.513,0,0,1,.087-.345.946.946,0,0,0-.054.149c.048-.061.064-.169.147-.187a1.3,1.3,0,0,0-.1.156.324.324,0,0,0-.048.215.5.5,0,0,1,.3-.415c-.037.026-.154.13-.161.187v.011c.01.061,0-.057,0,.013a.377.377,0,0,0-.073.117.448.448,0,0,0-.027.085.4.4,0,0,0-.009.051.168.168,0,0,0,0,.024l0,.013a.609.609,0,0,1,.169-.338.777.777,0,0,1,.265-.172l0,.005-.064.039a.65.65,0,0,0-.341.439c.009-.009,0,0,.014-.018l.006-.014a1.109,1.109,0,0,1,.109-.194.812.812,0,0,1,.16-.159.91.91,0,0,1,.41-.151,1.78,1.78,0,0,0-.282.1.594.594,0,0,0-.235.191c.033-.014.068-.042.1-.058a1.9,1.9,0,0,1,.741-.279,1.613,1.613,0,0,0-.4.177l.079-.022c-.021.011-.039.029-.063.042a.534.534,0,0,0-.061.039.921.921,0,0,0-.318.337c.027-.031.063-.065.094-.1a1.16,1.16,0,0,1,.1-.1,1.709,1.709,0,0,1,.212-.166,2.152,2.152,0,0,1,.482-.229.193.193,0,0,0-.068.053,5.53,5.53,0,0,1,.742-.2c-.077.034-.206.053-.293.088l-.081.039a2.053,2.053,0,0,0,.266-.073,3.33,3.33,0,0,1,.84-.155,1.407,1.407,0,0,1,.639.067,1.524,1.524,0,0,1,.4.23,1.341,1.341,0,0,1,.1.1c-.09-.043-.29-.246-.484-.281a2.879,2.879,0,0,1,.759.577c-.057-.036-.139-.116-.2-.165s-.143-.106-.22-.157a1.832,1.832,0,0,0-.52-.248,2.168,2.168,0,0,0,.2.113,6.8,6.8,0,0,1,1.063.738c.041.033.118.118.148.137-.036-.013-.175-.125-.221-.156a2.382,2.382,0,0,0-.765-.4,6.248,6.248,0,0,1,.78.427l-.458-.228a2.055,2.055,0,0,0-.524-.175,4.109,4.109,0,0,1,.99.448c-.072-.023-.176-.082-.254-.115-.093-.039-.182-.075-.275-.106a2.6,2.6,0,0,0-.59-.139,2.873,2.873,0,0,0-.778.036,2.414,2.414,0,0,1-.245.043.783.783,0,0,1,.216-.058,3.223,3.223,0,0,1,.449-.066,2.13,2.13,0,0,0,.234-.006,2.766,2.766,0,0,0-.48-.025.045.045,0,0,0,.02-.006c.015-.008.007,0,.018-.012a1.4,1.4,0,0,0-.367.073c-.1.035-.312.139-.322.142.024-.024.047-.039.067-.063l-.254.082.311-.148a1.884,1.884,0,0,0-.206.075c-.075.025-.227.076-.3.11a1.068,1.068,0,0,1-.317.078,1.19,1.19,0,0,1,.174-.079l.168-.076a.926.926,0,0,0,.085-.043,2.46,2.46,0,0,1,.241-.13,1.68,1.68,0,0,1,.73-.2,1.425,1.425,0,0,0-.762.18l-.336.176c-.031.012-.052.03-.083.045a2.461,2.461,0,0,1-.251.121l0-.021s0,0,0,0v0s0,0,0,0a.491.491,0,0,1-.157.073c.079-.091.282-.175.349-.29a1.108,1.108,0,0,0-.213.154c-.024.018-.047.03-.068.048a.944.944,0,0,1,.245-.288l.1-.073a.51.51,0,0,0-.241.172,1.922,1.922,0,0,0-.164.22.121.121,0,0,1-.01.015c-.012.015-.006.007-.017.012l.072-.152a1.3,1.3,0,0,0-.118.2.712.712,0,0,1,.079-.2l-.048.042a1.324,1.324,0,0,1,.37-.37.854.854,0,0,0-.391.337c-.034.06-.056.133-.09.182l.033-.12-.006,0-.052.077a.8.8,0,0,1,.175-.328.209.209,0,0,0-.087.069.561.561,0,0,0-.067.1,1.133,1.133,0,0,0-.1.24.425.425,0,0,1,.024-.143c-.024.009,0,0-.026.013a.45.45,0,0,0-.076.128l.012-.09-.051.091a1.7,1.7,0,0,1,.043-.2.354.354,0,0,0-.079.164.281.281,0,0,1,.009-.108l-.058.075c-.015.024-.03.054-.044.078a.668.668,0,0,1,.072-.182.6.6,0,0,0-.13.2.719.719,0,0,1,.106-.283c-.072.016-.108.23-.14.276l0-.091a.07.07,0,0,0-.014.016l-.04.093v-.116a.446.446,0,0,0-.049.12.938.938,0,0,1,.009-.152c-.014.009,0,0-.019.018s-.04.085-.069.122l.03-.1a.05.05,0,0,0-.016.01Z" transform="translate(-334.834 -829.773)" fill="#125aa3" fill-rule="evenodd"/>
      <path id="Trazado_890194" data-name="Trazado 890194" d="M416.5,1053.6a.148.148,0,0,1-.013-.2.145.145,0,0,1,.2-.014A7.727,7.727,0,0,1,417.5,1055a13.345,13.345,0,0,1,.732,2.1c-.036.838-.66.9-1.084.944l-.235.04a.146.146,0,1,1-.177-.233.812.812,0,0,1,.382-.1c.321-.031.8-.081.823-.667a14.4,14.4,0,0,0-.709-1.974,8.577,8.577,0,0,0-.728-1.519" transform="translate(-332.18 -840.189)" fill="#fc9774" fill-rule="evenodd"/>
      <path id="Trazado_890195" data-name="Trazado 890195" d="M413.106,1085.637c-1.767.787-1.19.877-3.341.748-.753-.046-1.725.068-.807.355,1.855.577,4.021.137,4.238-1.038Z" transform="translate(-325.903 -865.947)" fill="#fc9774" fill-rule="evenodd"/>
      <rect id="Rectángulo_404647" data-name="Rectángulo 404647" width="111.775" height="8.894" transform="translate(65.919 272.333)" fill="#f57a44"/>
      <rect id="Rectángulo_404648" data-name="Rectángulo 404648" width="38.355" height="8.896" transform="translate(27.566 272.333)" fill="#f06a30"/>
      <path id="Trazado_890196" data-name="Trazado 890196" d="M450.553,1452H356.007v-62.268H459.214Z" transform="translate(-283.966 -1108.508)" fill="#fbbfa8" fill-rule="evenodd"/>
      <path id="Trazado_890197" data-name="Trazado 890197" d="M159.958,1452.01H195.54v-62.266H154.829Z" transform="translate(-123.498 -1108.515)" fill="#fc9774" fill-rule="evenodd"/>
      <path id="Trazado_890198" data-name="Trazado 890198" d="M499.548,1170.407H454.459a2.25,2.25,0,0,0-2.039,1.615L444.4,1202.57a1.206,1.206,0,0,0,1.19,1.615h45.089a2.25,2.25,0,0,0,2.039-1.615l8.023-30.548a1.207,1.207,0,0,0-1.192-1.615" transform="translate(-354.426 -933.563)" fill="#a4d0fc" fill-rule="evenodd"/>
      <path id="Trazado_890199" data-name="Trazado 890199" d="M442.326,1189.129l5.446-20.74a2.25,2.25,0,0,1,2.039-1.614H494.9c.889,0,2.471,1.147,2.208,2.027a1.181,1.181,0,0,0-1.244-1.292H450.775a2.25,2.25,0,0,0-2.039,1.615l-8.021,30.548a1.27,1.27,0,0,0,.319,1.3c-.742-.48-1.45-1.405-1.285-2.037Z" transform="translate(-350.742 -930.666)" fill="#1e77d1" fill-rule="evenodd"/>
      <path id="Trazado_890200" data-name="Trazado 890200" d="M391.29,1328.618h45.089a1.769,1.769,0,0,0,.494-.072c-.9,2.326-3.336,1.982-4.287,1.974H379.128c-2.9-.122-2.822-2.154-2.859-4.113h12.843a2.636,2.636,0,0,0,1.307,1.9,1.268,1.268,0,0,0,.871.312" transform="translate(-300.127 -1057.996)" fill="#1e77d1" fill-rule="evenodd"/>
      <path id="Trazado_890201" data-name="Trazado 890201" d="M462.078,1232.477c24.828,12.558,24.783-.563,41.991,6.169l-3.354,12.772H457.1Z" transform="translate(-364.604 -983.073)" fill="#1e77d1" fill-rule="evenodd"/>
      <path id="Trazado_890202" data-name="Trazado 890202" d="M315.338,112.443H496.193a10.812,10.812,0,0,1,10.789,10.789V231.5a10.811,10.811,0,0,1-10.789,10.789H315.338A10.813,10.813,0,0,1,304.549,231.5V123.232a10.813,10.813,0,0,1,10.789-10.789" transform="translate(-242.92 -89.689)" fill="#61a0e0" fill-rule="evenodd"/>
      <path id="Trazado_890203" data-name="Trazado 890203" d="M329.453,130.138H510.307a7.229,7.229,0,0,1,7.21,7.209V245.613a7.229,7.229,0,0,1-7.21,7.209H329.453a7.228,7.228,0,0,1-7.209-7.209V137.347a7.229,7.229,0,0,1,7.209-7.209" transform="translate(-257.035 -103.804)" fill="#fff" fill-rule="evenodd"/>
      <path id="Trazado_890204" data-name="Trazado 890204" d="M898.391,231.67a4.718,4.718,0,1,0,4.717,4.719,4.72,4.72,0,0,0-4.717-4.719" transform="translate(-712.828 -184.79)" fill="#d2e5f7" fill-rule="evenodd"/>
      <path id="Trazado_890205" data-name="Trazado 890205" d="M898.391,350.714a4.718,4.718,0,1,0,4.717,4.717,4.719,4.719,0,0,0-4.717-4.717" transform="translate(-712.828 -279.744)" fill="#c3dffa" fill-rule="evenodd"/>
      <rect id="Rectángulo_404649" data-name="Rectángulo 404649" width="52.297" height="4.557" transform="translate(196.274 73.41)" fill="#c3dffa"/>
      <path id="Trazado_890206" data-name="Trazado 890206" d="M898.391,469.748a4.718,4.718,0,1,0,4.717,4.717,4.719,4.719,0,0,0-4.717-4.717" transform="translate(-712.828 -374.69)" fill="#bbdbfa" fill-rule="evenodd"/>
      <rect id="Rectángulo_404650" data-name="Rectángulo 404650" width="52.297" height="4.558" transform="translate(196.274 97.497)" fill="#bbdbfa"/>
      <path id="Trazado_890207" data-name="Trazado 890207" d="M898.391,588.784a4.718,4.718,0,1,0,4.717,4.718,4.719,4.719,0,0,0-4.717-4.718" transform="translate(-712.828 -469.638)" fill="#a4d0fc" fill-rule="evenodd"/>
      <rect id="Rectángulo_404651" data-name="Rectángulo 404651" width="52.297" height="4.557" transform="translate(196.274 121.585)" fill="#a4d0fc"/>
      <rect id="Rectángulo_404652" data-name="Rectángulo 404652" width="52.297" height="4.559" transform="translate(196.274 49.32)" fill="#d2e5f7"/>
      <path id="Trazado_890208" data-name="Trazado 890208" d="M386.5,306.371l41.683-83.365,41.684,83.365Z" transform="translate(-308.286 -177.878)" fill="#bbdbfa" fill-rule="evenodd"/>
      <path id="Trazado_890209" data-name="Trazado 890209" d="M457.612,513.884H398.75l-12.252,24.5h83.367Z" transform="translate(-308.286 -409.894)" fill="#a4d0fc" fill-rule="evenodd"/>
      <path id="Trazado_890210" data-name="Trazado 890210" d="M508.959,256.809h33.8l-16.9-33.8Z" transform="translate(-405.966 -177.879)" fill="#c3dffa" fill-rule="evenodd"/>
    </g>
  </g>
</svg>
