<svg xmlns="http://www.w3.org/2000/svg" xmlns:xlink="http://www.w3.org/1999/xlink" width="715" height="430.684" viewBox="0 0 715 430.684">
  <defs>
    <clipPath id="clip-path">
      <rect id="Rectángulo_404592" data-name="Rectángulo 404592" width="715" height="371.367" fill="none"/>
    </clipPath>
  </defs>
  <g id="Grupo_1145902" data-name="Grupo 1145902" transform="translate(-443 -2510.316)">
    <g id="Grupo_1106208" data-name="Grupo 1106208" transform="translate(443 2510.316)">
      <g id="Grupo_1106207" data-name="Grupo 1106207" clip-path="url(#clip-path)">
        <path id="Trazado_889954" data-name="Trazado 889954" d="M190.629,303.319a166.194,166.194,0,0,1,37.987-105.995L93.53,62.24A356.186,356.186,0,0,0,0,303.319c0,4.653.118,9.278.294,13.888H191.249c-.378-4.584-.621-9.205-.621-13.888" transform="translate(0 54.161)" fill="#0c5e87"/>
        <path id="Trazado_889955" data-name="Trazado 889955" d="M112.7,248.1A166.194,166.194,0,0,1,150.682,142.1l-16.4-16.4a189.212,189.212,0,0,0-44.72,122.4c0,4.677.23,9.3.561,13.888h23.2c-.378-4.584-.621-9.205-.621-13.888" transform="translate(77.933 109.382)" fill="#05475b"/>
        <path id="Trazado_889956" data-name="Trazado 889956" d="M147.75,176.76,141.956,163.5a3.574,3.574,0,1,0-6.549,2.861l2.495,5.71-28.317-11.1a3.575,3.575,0,0,0-2.609,6.656l27.808,10.9-5.71,2.495a3.574,3.574,0,0,0,1.431,6.851,3.531,3.531,0,0,0,1.431-.3l13.972-6.1a3.573,3.573,0,0,0,1.842-4.705" transform="translate(91.113 139.861)" fill="#05475b"/>
        <path id="Trazado_889957" data-name="Trazado 889957" d="M309.147,190.645V0A356.405,356.405,0,0,0,53.959,108.578L188.8,243.42a166.349,166.349,0,0,1,120.349-52.775" transform="translate(46.955)" fill="#95bc11"/>
        <path id="Trazado_889958" data-name="Trazado 889958" d="M254.019,112.7V89.568A189.407,189.407,0,0,0,117.31,149.119l16.36,16.36A166.349,166.349,0,0,1,254.019,112.7" transform="translate(102.082 77.941)" fill="#84a010"/>
        <path id="Trazado_889959" data-name="Trazado 889959" d="M178.227,128.488a3.567,3.567,0,0,0-4.509,2.282l-1.941,5.923L158.033,109.56a3.573,3.573,0,1,0-6.375,3.228l13.5,26.645-5.921-1.939A3.574,3.574,0,0,0,157,144.286l14.49,4.745a3.465,3.465,0,0,0,1.113.181,3.578,3.578,0,0,0,3.4-2.463L180.51,133a3.575,3.575,0,0,0-2.283-4.507" transform="translate(131.634 93.632)" fill="#84a010"/>
        <path id="Trazado_889960" data-name="Trazado 889960" d="M296.43,301.366c0,4.683-.241,9.3-.619,13.888H486.765c.176-4.61.3-9.235.3-13.888A356.121,356.121,0,0,0,397.286,64.484L261.944,199.826a166.1,166.1,0,0,1,34.486,101.54" transform="translate(227.941 56.113)" fill="#ffb83b"/>
        <path id="Trazado_889961" data-name="Trazado 889961" d="M278.418,128.044l-16.475,16.475a166.089,166.089,0,0,1,34.488,101.54c0,4.683-.241,9.3-.619,13.886h23.194c.333-4.591.563-9.209.563-13.886a189.143,189.143,0,0,0-41.152-118.015" transform="translate(227.94 111.423)" fill="#ef9e1d"/>
        <path id="Trazado_889962" data-name="Trazado 889962" d="M297.474,163a3.578,3.578,0,0,0-4.633-2.025l-28.317,11.1,2.495-5.712a3.574,3.574,0,0,0-6.551-2.859l-5.794,13.262a3.573,3.573,0,0,0,1.846,4.705l13.97,6.1a3.574,3.574,0,1,0,2.863-6.549l-5.712-2.495,27.808-10.9A3.579,3.579,0,0,0,297.474,163" transform="translate(221.354 139.861)" fill="#ef9e1d"/>
        <path id="Trazado_889963" data-name="Trazado 889963" d="M312.329,247.545,447.278,112.6A356.443,356.443,0,0,0,196.158.055V190.837a166.429,166.429,0,0,1,116.171,56.708" transform="translate(170.695 0.048)" fill="#f2576a"/>
        <path id="Trazado_889964" data-name="Trazado 889964" d="M312.329,169.558l16.4-16.4A189.485,189.485,0,0,0,196.158,89.675V112.85a166.429,166.429,0,0,1,116.171,56.708" transform="translate(170.695 78.034)" fill="#db4962"/>
        <path id="Trazado_889965" data-name="Trazado 889965" d="M242.715,107.986a3.571,3.571,0,0,0-4.8,1.575l-13.748,27.131-1.939-5.921A3.574,3.574,0,0,0,215.435,133l4.507,13.753a3.571,3.571,0,0,0,3.394,2.463,3.46,3.46,0,0,0,1.115-.181l14.486-4.745a3.574,3.574,0,1,0-2.226-6.793l-5.919,1.939,13.5-26.645a3.576,3.576,0,0,0-1.575-4.8" transform="translate(187.315 93.632)" fill="#db4962"/>
      </g>
    </g>
    <path id="Trazado_980105" data-name="Trazado 980105" d="M-60.2-2.637h-4.623L-65.7,0h-2.8l4.764-12.8h2.443L-56.5,0h-2.8Zm-3.911-2.136h3.2l-1.608-4.79ZM-52.8,0h-2.549V-13.5H-52.8Zm4.474-9.51.079,1.063A3.342,3.342,0,0,1-45.51-9.686a2.536,2.536,0,0,1,2.522,1.45,3.265,3.265,0,0,1,2.856-1.45,2.836,2.836,0,0,1,2.3.9,4.141,4.141,0,0,1,.756,2.711V0h-2.549V-6.064a1.811,1.811,0,0,0-.316-1.182,1.4,1.4,0,0,0-1.116-.374,1.585,1.585,0,0,0-1.582,1.09L-42.627,0h-2.54V-6.056a1.789,1.789,0,0,0-.325-1.2A1.416,1.416,0,0,0-46.6-7.62a1.646,1.646,0,0,0-1.564.9V0H-50.7V-9.51ZM-29.61,0a2.821,2.821,0,0,1-.255-.853,3.073,3.073,0,0,1-2.4,1.028,3.376,3.376,0,0,1-2.316-.809A2.6,2.6,0,0,1-35.5-2.672a2.687,2.687,0,0,1,1.121-2.32A5.529,5.529,0,0,1-31.14-5.81h1.169v-.545a1.567,1.567,0,0,0-.338-1.055,1.331,1.331,0,0,0-1.068-.4,1.513,1.513,0,0,0-1.006.308,1.045,1.045,0,0,0-.365.844h-2.54a2.551,2.551,0,0,1,.51-1.529,3.37,3.37,0,0,1,1.441-1.1,5.253,5.253,0,0,1,2.092-.4,4.15,4.15,0,0,1,2.791.883,3.09,3.09,0,0,1,1.033,2.483V-2.2a4.546,4.546,0,0,0,.378,2.048V0Zm-2.1-1.767a2.188,2.188,0,0,0,1.037-.25,1.645,1.645,0,0,0,.7-.672V-4.324h-.949q-1.907,0-2.03,1.318l-.009.149a1.017,1.017,0,0,0,.334.782A1.3,1.3,0,0,0-31.711-1.767Zm10.2-.105a1.666,1.666,0,0,0,1.143-.387,1.355,1.355,0,0,0,.457-1.028h2.382a3.258,3.258,0,0,1-.527,1.771A3.48,3.48,0,0,1-19.481-.268a4.442,4.442,0,0,1-1.991.444,4.129,4.129,0,0,1-3.217-1.3A5.13,5.13,0,0,1-25.866-4.7v-.167A5.071,5.071,0,0,1-24.7-8.376a4.08,4.08,0,0,1,3.208-1.31A4,4,0,0,1-18.628-8.67a3.594,3.594,0,0,1,1.094,2.7h-2.382a1.731,1.731,0,0,0-.457-1.2,1.528,1.528,0,0,0-1.16-.461,1.531,1.531,0,0,0-1.34.646,3.739,3.739,0,0,0-.453,2.1v.264a3.786,3.786,0,0,0,.448,2.109A1.55,1.55,0,0,0-21.516-1.872ZM-11.707.176a4.668,4.668,0,0,1-3.406-1.283,4.561,4.561,0,0,1-1.314-3.419v-.246a5.745,5.745,0,0,1,.554-2.562A4.064,4.064,0,0,1-14.3-9.075a4.4,4.4,0,0,1,2.316-.611,3.947,3.947,0,0,1,3.072,1.23A5,5,0,0,1-7.8-4.966v1.037h-6.056a2.36,2.36,0,0,0,.743,1.494,2.245,2.245,0,0,0,1.569.563A2.742,2.742,0,0,0-9.246-2.936L-8-1.538A3.813,3.813,0,0,1-9.545-.277,5.075,5.075,0,0,1-11.707.176Zm-.29-7.8a1.591,1.591,0,0,0-1.226.51,2.634,2.634,0,0,0-.6,1.459h3.533v-.2a1.878,1.878,0,0,0-.457-1.305A1.642,1.642,0,0,0-12-7.629Zm7.98-1.881.079,1.1A3.32,3.32,0,0,1-1.2-9.686a2.759,2.759,0,0,1,2.25.888A4.142,4.142,0,0,1,1.8-6.144V0H-.738V-6.082A1.648,1.648,0,0,0-1.09-7.255,1.574,1.574,0,0,0-2.259-7.62a1.747,1.747,0,0,0-1.608.914V0h-2.54V-9.51ZM9.237,0a2.821,2.821,0,0,1-.255-.853A3.073,3.073,0,0,1,6.583.176,3.376,3.376,0,0,1,4.267-.633a2.6,2.6,0,0,1-.918-2.039,2.687,2.687,0,0,1,1.121-2.32A5.529,5.529,0,0,1,7.708-5.81H8.877v-.545a1.567,1.567,0,0,0-.338-1.055,1.331,1.331,0,0,0-1.068-.4A1.513,1.513,0,0,0,6.464-7.5a1.045,1.045,0,0,0-.365.844H3.56a2.551,2.551,0,0,1,.51-1.529,3.37,3.37,0,0,1,1.441-1.1,5.253,5.253,0,0,1,2.092-.4,4.15,4.15,0,0,1,2.791.883,3.09,3.09,0,0,1,1.033,2.483V-2.2A4.546,4.546,0,0,0,11.8-.149V0Zm-2.1-1.767a2.188,2.188,0,0,0,1.037-.25,1.645,1.645,0,0,0,.7-.672V-4.324H7.928q-1.907,0-2.03,1.318l-.009.149a1.017,1.017,0,0,0,.334.782A1.3,1.3,0,0,0,7.137-1.767ZM15.759-9.51l.079,1.063a3.342,3.342,0,0,1,2.733-1.239,2.536,2.536,0,0,1,2.522,1.45,3.265,3.265,0,0,1,2.856-1.45,2.836,2.836,0,0,1,2.3.9,4.141,4.141,0,0,1,.756,2.711V0H24.46V-6.064a1.811,1.811,0,0,0-.316-1.182,1.4,1.4,0,0,0-1.116-.374,1.585,1.585,0,0,0-1.582,1.09L21.454,0h-2.54V-6.056a1.789,1.789,0,0,0-.325-1.2,1.416,1.416,0,0,0-1.107-.369,1.646,1.646,0,0,0-1.564.9V0h-2.54V-9.51ZM31.641,0H29.092V-9.51h2.549Zm-2.7-11.971a1.251,1.251,0,0,1,.382-.94,1.436,1.436,0,0,1,1.042-.369,1.44,1.44,0,0,1,1.037.369,1.244,1.244,0,0,1,.387.94,1.247,1.247,0,0,1-.391.949,1.443,1.443,0,0,1-1.033.369,1.443,1.443,0,0,1-1.033-.369A1.247,1.247,0,0,1,28.942-11.971ZM38.109.176A4.668,4.668,0,0,1,34.7-1.107,4.561,4.561,0,0,1,33.39-4.526v-.246a5.745,5.745,0,0,1,.554-2.562,4.064,4.064,0,0,1,1.569-1.74,4.4,4.4,0,0,1,2.316-.611A3.947,3.947,0,0,1,40.9-8.455a5,5,0,0,1,1.121,3.489v1.037H35.965a2.36,2.36,0,0,0,.743,1.494,2.245,2.245,0,0,0,1.569.563A2.742,2.742,0,0,0,40.57-2.936l1.248,1.4A3.813,3.813,0,0,1,40.271-.277,5.075,5.075,0,0,1,38.109.176Zm-.29-7.8a1.591,1.591,0,0,0-1.226.51,2.634,2.634,0,0,0-.6,1.459h3.533v-.2a1.878,1.878,0,0,0-.457-1.305A1.642,1.642,0,0,0,37.819-7.629ZM45.8-9.51l.079,1.1a3.32,3.32,0,0,1,2.733-1.274,2.759,2.759,0,0,1,2.25.888,4.142,4.142,0,0,1,.756,2.654V0h-2.54V-6.082a1.648,1.648,0,0,0-.352-1.173,1.574,1.574,0,0,0-1.169-.365,1.747,1.747,0,0,0-1.608.914V0h-2.54V-9.51Zm10.784-2.338V-9.51H58.21v1.863H56.584V-2.9a1.133,1.133,0,0,0,.2.756,1.015,1.015,0,0,0,.773.229,4.051,4.051,0,0,0,.747-.062V-.053a5.229,5.229,0,0,1-1.538.229,2.425,2.425,0,0,1-2.725-2.7V-7.646H52.655V-9.51h1.389v-2.338Zm2.382,7a5.64,5.64,0,0,1,.545-2.522A3.989,3.989,0,0,1,61.08-9.079a4.577,4.577,0,0,1,2.377-.606A4.33,4.33,0,0,1,66.6-8.508a4.727,4.727,0,0,1,1.358,3.2l.018.65a4.97,4.97,0,0,1-1.222,3.511A4.247,4.247,0,0,1,63.475.176a4.268,4.268,0,0,1-3.283-1.318,5.058,5.058,0,0,1-1.226-3.586Zm2.54.185a3.545,3.545,0,0,0,.51,2.07,1.682,1.682,0,0,0,1.459.716,1.686,1.686,0,0,0,1.441-.708,3.879,3.879,0,0,0,.519-2.263A3.51,3.51,0,0,0,64.916-6.9a1.686,1.686,0,0,0-1.459-.729,1.659,1.659,0,0,0-1.441.725A3.944,3.944,0,0,0,61.506-4.658ZM-31.729,20.405l1.758-5.915h2.725l-3.823,10.986-.211.5a2.9,2.9,0,0,1-2.812,1.863,4,4,0,0,1-1.125-.167V25.749l.387.009a2.09,2.09,0,0,0,1.077-.22,1.443,1.443,0,0,0,.558-.729l.3-.782-3.331-9.536H-33.5Zm18.536-1.072a5.758,5.758,0,0,1-.976,3.564,3.231,3.231,0,0,1-2.725,1.279,2.969,2.969,0,0,1-2.47-1.187L-19.477,24h-2.285V10.5h2.54v4.843a2.893,2.893,0,0,1,2.312-1.028,3.258,3.258,0,0,1,2.729,1.279,5.767,5.767,0,0,1,.989,3.6Zm-2.54-.185a3.783,3.783,0,0,0-.457-2.1,1.545,1.545,0,0,0-1.362-.664,1.676,1.676,0,0,0-1.67.993v3.753a1.7,1.7,0,0,0,1.688,1,1.568,1.568,0,0,0,1.617-1.213A6.257,6.257,0,0,0-15.732,19.148ZM-6.117,24a2.821,2.821,0,0,1-.255-.853,3.073,3.073,0,0,1-2.4,1.028,3.376,3.376,0,0,1-2.316-.809,2.6,2.6,0,0,1-.918-2.039,2.687,2.687,0,0,1,1.121-2.32,5.529,5.529,0,0,1,3.239-.817h1.169v-.545a1.567,1.567,0,0,0-.338-1.055,1.331,1.331,0,0,0-1.068-.4A1.513,1.513,0,0,0-8.89,16.5a1.045,1.045,0,0,0-.365.844h-2.54a2.551,2.551,0,0,1,.51-1.529,3.37,3.37,0,0,1,1.441-1.1,5.253,5.253,0,0,1,2.092-.4,4.15,4.15,0,0,1,2.791.883,3.09,3.09,0,0,1,1.033,2.483V21.8a4.546,4.546,0,0,0,.378,2.048V24Zm-2.1-1.767a2.188,2.188,0,0,0,1.037-.25,1.645,1.645,0,0,0,.7-.672V19.676h-.949q-1.907,0-2.03,1.318l-.009.149a1.017,1.017,0,0,0,.334.782A1.3,1.3,0,0,0-8.218,22.233Zm10.2-.105a1.666,1.666,0,0,0,1.143-.387,1.355,1.355,0,0,0,.457-1.028H5.959a3.258,3.258,0,0,1-.527,1.771,3.48,3.48,0,0,1-1.419,1.248,4.442,4.442,0,0,1-1.991.444,4.129,4.129,0,0,1-3.217-1.3A5.13,5.13,0,0,1-2.373,19.3v-.167A5.071,5.071,0,0,1-1.2,15.624,4.08,4.08,0,0,1,2,14.314,4,4,0,0,1,4.865,15.33a3.594,3.594,0,0,1,1.094,2.7H3.577a1.731,1.731,0,0,0-.457-1.2,1.528,1.528,0,0,0-1.16-.461,1.531,1.531,0,0,0-1.34.646,3.739,3.739,0,0,0-.453,2.1v.264a3.786,3.786,0,0,0,.448,2.109A1.55,1.55,0,0,0,1.978,22.128Zm8.886-1.942-.914.914V24H7.409V10.5h2.54v7.479l.492-.633,2.435-2.856h3.05l-3.437,3.964L16.225,24H13.307ZM22.72,23.033a3.185,3.185,0,0,1-2.6,1.143,3,3,0,0,1-2.333-.879,3.752,3.752,0,0,1-.822-2.575V14.49H19.5v6.144q0,1.485,1.354,1.485a1.835,1.835,0,0,0,1.775-.9V14.49h2.549V24H22.79Zm12.938-3.7a5.7,5.7,0,0,1-1,3.52,3.2,3.2,0,0,1-2.694,1.323,2.963,2.963,0,0,1-2.329-1v4.482H27.1V14.49h2.355l.088.932a2.985,2.985,0,0,1,2.408-1.107,3.22,3.22,0,0,1,2.733,1.3,5.858,5.858,0,0,1,.976,3.586Zm-2.54-.185a3.743,3.743,0,0,0-.47-2.048,1.532,1.532,0,0,0-1.367-.721,1.663,1.663,0,0,0-1.644.914v3.894a1.692,1.692,0,0,0,1.661.94Q33.117,22.128,33.117,19.148Z" transform="translate(693 2609.249)" fill="#12263f"/>
    <path id="Trazado_980106" data-name="Trazado 980106" d="M-69.73-4.453V0h-1.5V-11.375h4.2a4.215,4.215,0,0,1,2.926.953A3.231,3.231,0,0,1-63.051-7.9a3.189,3.189,0,0,1-1.035,2.551,4.4,4.4,0,0,1-2.965.895Zm0-1.227h2.7a2.7,2.7,0,0,0,1.844-.566,2.069,2.069,0,0,0,.641-1.637,2.138,2.138,0,0,0-.641-1.625,2.528,2.528,0,0,0-1.758-.633H-69.73Zm12.453-1.477a4.331,4.331,0,0,0-.711-.055A1.9,1.9,0,0,0-59.918-6V0h-1.445V-8.453h1.406l.023.977a2.251,2.251,0,0,1,2.016-1.133,1.477,1.477,0,0,1,.641.109ZM-52.441.156a3.693,3.693,0,0,1-2.8-1.129,4.19,4.19,0,0,1-1.078-3.02v-.266a5.073,5.073,0,0,1,.48-2.246,3.748,3.748,0,0,1,1.344-1.547,3.378,3.378,0,0,1,1.871-.559,3.166,3.166,0,0,1,2.563,1.086,4.7,4.7,0,0,1,.914,3.109v.6h-5.727a3,3,0,0,0,.73,2.02,2.3,2.3,0,0,0,1.777.77,2.517,2.517,0,0,0,1.3-.312,3.259,3.259,0,0,0,.93-.828l.883.688A3.55,3.55,0,0,1-52.441.156Zm-.18-7.578a1.928,1.928,0,0,0-1.469.637A3.1,3.1,0,0,0-54.824-5h4.234v-.109a2.753,2.753,0,0,0-.594-1.707A1.815,1.815,0,0,0-52.621-7.422Zm10.07,5.18a1.064,1.064,0,0,0-.441-.91,4.249,4.249,0,0,0-1.539-.559,7.277,7.277,0,0,1-1.742-.562,2.479,2.479,0,0,1-.953-.781,1.869,1.869,0,0,1-.309-1.078,2.193,2.193,0,0,1,.879-1.758,3.432,3.432,0,0,1,2.246-.719,3.532,3.532,0,0,1,2.332.742,2.357,2.357,0,0,1,.895,1.9h-1.453a1.3,1.3,0,0,0-.5-1.023,1.888,1.888,0,0,0-1.27-.43,1.976,1.976,0,0,0-1.234.344,1.082,1.082,0,0,0-.445.9.877.877,0,0,0,.414.789,5.1,5.1,0,0,0,1.5.508,7.8,7.8,0,0,1,1.754.578,2.558,2.558,0,0,1,1,.809,1.988,1.988,0,0,1,.324,1.152,2.163,2.163,0,0,1-.906,1.816,3.8,3.8,0,0,1-2.352.684A4.257,4.257,0,0,1-46.16-.2a2.922,2.922,0,0,1-1.223-1A2.42,2.42,0,0,1-47.824-2.6h1.445A1.5,1.5,0,0,0-45.8-1.449a2.258,2.258,0,0,0,1.434.426,2.331,2.331,0,0,0,1.316-.332A1.02,1.02,0,0,0-42.551-2.242Zm6.836,2.4a3.693,3.693,0,0,1-2.8-1.129,4.19,4.19,0,0,1-1.078-3.02v-.266a5.073,5.073,0,0,1,.48-2.246,3.748,3.748,0,0,1,1.344-1.547,3.378,3.378,0,0,1,1.871-.559,3.166,3.166,0,0,1,2.563,1.086,4.7,4.7,0,0,1,.914,3.109v.6h-5.727a3,3,0,0,0,.73,2.02,2.3,2.3,0,0,0,1.777.77,2.517,2.517,0,0,0,1.3-.312,3.259,3.259,0,0,0,.93-.828l.883.688A3.55,3.55,0,0,1-35.715.156Zm-.18-7.578a1.928,1.928,0,0,0-1.469.637A3.1,3.1,0,0,0-38.1-5h4.234v-.109a2.753,2.753,0,0,0-.594-1.707A1.815,1.815,0,0,0-35.895-7.422Zm9.234.266a4.331,4.331,0,0,0-.711-.055A1.9,1.9,0,0,0-29.3-6V0h-1.445V-8.453h1.406l.023.977A2.251,2.251,0,0,1-27.3-8.609a1.477,1.477,0,0,1,.641.109Zm4.258,5.2,2.094-6.492h1.477L-21.863,0h-1.1l-3.062-8.453h1.477ZM-12.34,0a3.036,3.036,0,0,1-.2-.891A3.225,3.225,0,0,1-14.949.156,2.984,2.984,0,0,1-17-.551a2.287,2.287,0,0,1-.8-1.793,2.39,2.39,0,0,1,1-2.051,4.733,4.733,0,0,1,2.824-.73h1.406v-.664A1.623,1.623,0,0,0-13.02-7a1.821,1.821,0,0,0-1.336-.449,2.107,2.107,0,0,0-1.3.391,1.151,1.151,0,0,0-.523.945h-1.453a2,2,0,0,1,.449-1.223,3.066,3.066,0,0,1,1.219-.934,4.1,4.1,0,0,1,1.691-.344,3.342,3.342,0,0,1,2.289.73,2.635,2.635,0,0,1,.859,2.012v3.891a4.757,4.757,0,0,0,.3,1.852V0Zm-2.4-1.1a2.54,2.54,0,0,0,1.289-.352,2.127,2.127,0,0,0,.883-.914V-4.1H-13.7q-2.656,0-2.656,1.555A1.316,1.316,0,0,0-15.9-1.484,1.742,1.742,0,0,0-14.738-1.1Zm9.273.078a2.082,2.082,0,0,0,1.352-.469,1.649,1.649,0,0,0,.641-1.172h1.367a2.621,2.621,0,0,1-.5,1.383A3.293,3.293,0,0,1-3.836-.234,3.55,3.55,0,0,1-5.465.156,3.482,3.482,0,0,1-8.211-1,4.59,4.59,0,0,1-9.23-4.148v-.242a5.089,5.089,0,0,1,.453-2.2,3.451,3.451,0,0,1,1.3-1.492,3.7,3.7,0,0,1,2-.531,3.39,3.39,0,0,1,2.363.852,3.043,3.043,0,0,1,1,2.211H-3.473a1.992,1.992,0,0,0-.621-1.348,1.932,1.932,0,0,0-1.379-.527,2.023,2.023,0,0,0-1.707.793,3.724,3.724,0,0,0-.605,2.293v.273a3.65,3.65,0,0,0,.6,2.25A2.033,2.033,0,0,0-5.465-1.023ZM1.09,0H-.355V-8.453H1.09ZM-.473-10.7a.863.863,0,0,1,.215-.594.807.807,0,0,1,.637-.242.819.819,0,0,1,.641.242.854.854,0,0,1,.219.594.826.826,0,0,1-.219.586.834.834,0,0,1-.641.234.821.821,0,0,1-.637-.234A.834.834,0,0,1-.473-10.7ZM3.02-4.3a4.993,4.993,0,0,1,.488-2.234A3.643,3.643,0,0,1,4.867-8.07a3.7,3.7,0,0,1,1.988-.539,3.565,3.565,0,0,1,2.793,1.2,4.6,4.6,0,0,1,1.066,3.18v.1a5.036,5.036,0,0,1-.473,2.215A3.589,3.589,0,0,1,8.891-.391a3.743,3.743,0,0,1-2.02.547,3.556,3.556,0,0,1-2.785-1.2A4.575,4.575,0,0,1,3.02-4.2Zm1.453.172a3.616,3.616,0,0,0,.652,2.258,2.088,2.088,0,0,0,1.746.852,2.075,2.075,0,0,0,1.75-.863A3.955,3.955,0,0,0,9.27-4.3a3.61,3.61,0,0,0-.66-2.254,2.1,2.1,0,0,0-1.754-.863,2.075,2.075,0,0,0-1.727.852A3.925,3.925,0,0,0,4.473-4.133ZM7.512-12h1.75L7.168-9.7H6Zm6.383,3.547.047,1.063a3.08,3.08,0,0,1,2.531-1.219q2.68,0,2.7,3.023V0H17.73V-5.594a1.946,1.946,0,0,0-.418-1.352,1.675,1.675,0,0,0-1.277-.437,2.086,2.086,0,0,0-1.234.375,2.546,2.546,0,0,0-.828.984V0H12.527V-8.453ZM30.238-2.242a1.064,1.064,0,0,0-.441-.91,4.249,4.249,0,0,0-1.539-.559,7.277,7.277,0,0,1-1.742-.562,2.479,2.479,0,0,1-.953-.781,1.869,1.869,0,0,1-.309-1.078,2.193,2.193,0,0,1,.879-1.758,3.432,3.432,0,0,1,2.246-.719,3.532,3.532,0,0,1,2.332.742,2.357,2.357,0,0,1,.895,1.9H30.152a1.3,1.3,0,0,0-.5-1.023,1.888,1.888,0,0,0-1.27-.43,1.976,1.976,0,0,0-1.234.344,1.082,1.082,0,0,0-.445.9.877.877,0,0,0,.414.789,5.1,5.1,0,0,0,1.5.508,7.8,7.8,0,0,1,1.754.578,2.558,2.558,0,0,1,1,.809,1.988,1.988,0,0,1,.324,1.152,2.163,2.163,0,0,1-.906,1.816,3.8,3.8,0,0,1-2.352.684,4.257,4.257,0,0,1-1.8-.359,2.922,2.922,0,0,1-1.223-1A2.42,2.42,0,0,1,24.965-2.6H26.41a1.5,1.5,0,0,0,.582,1.152,2.258,2.258,0,0,0,1.434.426,2.331,2.331,0,0,0,1.316-.332A1.02,1.02,0,0,0,30.238-2.242Zm6.836,2.4a3.693,3.693,0,0,1-2.8-1.129A4.19,4.19,0,0,1,33.2-3.992v-.266A5.073,5.073,0,0,1,33.68-6.5a3.748,3.748,0,0,1,1.344-1.547,3.378,3.378,0,0,1,1.871-.559,3.166,3.166,0,0,1,2.563,1.086,4.7,4.7,0,0,1,.914,3.109v.6H34.645a3,3,0,0,0,.73,2.02,2.3,2.3,0,0,0,1.777.77,2.517,2.517,0,0,0,1.3-.312,3.259,3.259,0,0,0,.93-.828l.883.688A3.55,3.55,0,0,1,37.074.156Zm-.18-7.578a1.928,1.928,0,0,0-1.469.637A3.1,3.1,0,0,0,34.691-5h4.234v-.109a2.753,2.753,0,0,0-.594-1.707A1.815,1.815,0,0,0,36.895-7.422ZM41.7-4.3a4.968,4.968,0,0,1,.914-3.145,2.923,2.923,0,0,1,2.422-1.168,2.908,2.908,0,0,1,2.414,1.094l.07-.937h1.32V-.2a3.439,3.439,0,0,1-.973,2.586,3.589,3.589,0,0,1-2.613.945,4.348,4.348,0,0,1-1.789-.391,3.08,3.08,0,0,1-1.336-1.07L42.879,1a2.826,2.826,0,0,0,2.273,1.148A2.214,2.214,0,0,0,46.8,1.555a2.269,2.269,0,0,0,.59-1.672V-.844a2.971,2.971,0,0,1-2.367,1,2.887,2.887,0,0,1-2.4-1.2A5.224,5.224,0,0,1,41.7-4.3Zm1.453.164a3.79,3.79,0,0,0,.586,2.246,1.9,1.9,0,0,0,1.641.816,2.117,2.117,0,0,0,2.008-1.242V-6.172a2.142,2.142,0,0,0-1.992-1.211,1.921,1.921,0,0,0-1.648.82A4.128,4.128,0,0,0,43.152-4.133Zm13.086,3.3a3.07,3.07,0,0,1-2.477.992A2.628,2.628,0,0,1,51.7-.629a3.4,3.4,0,0,1-.715-2.324v-5.5h1.445v5.461Q52.434-1.07,54-1.07A2.163,2.163,0,0,0,56.2-2.3V-8.453h1.445V0H56.27Zm7.688-6.32a4.331,4.331,0,0,0-.711-.055A1.9,1.9,0,0,0,61.285-6V0H59.84V-8.453h1.406l.023.977a2.251,2.251,0,0,1,2.016-1.133,1.477,1.477,0,0,1,.641.109ZM70.16,0a3.036,3.036,0,0,1-.2-.891A3.225,3.225,0,0,1,67.551.156,2.984,2.984,0,0,1,65.5-.551a2.288,2.288,0,0,1-.8-1.793,2.39,2.39,0,0,1,1-2.051,4.733,4.733,0,0,1,2.824-.73h1.406v-.664A1.623,1.623,0,0,0,69.48-7a1.821,1.821,0,0,0-1.336-.449,2.108,2.108,0,0,0-1.3.391,1.151,1.151,0,0,0-.523.945H64.871a2,2,0,0,1,.449-1.223,3.066,3.066,0,0,1,1.219-.934,4.1,4.1,0,0,1,1.691-.344,3.342,3.342,0,0,1,2.289.73,2.635,2.635,0,0,1,.859,2.012v3.891a4.757,4.757,0,0,0,.3,1.852V0Zm-2.4-1.1a2.54,2.54,0,0,0,1.289-.352,2.127,2.127,0,0,0,.883-.914V-4.1H68.8q-2.656,0-2.656,1.555A1.316,1.316,0,0,0,66.6-1.484,1.742,1.742,0,0,0,67.762-1.1Z" transform="translate(693 2661.249)" fill="#12263f"/>
    <path id="Trazado_980107" data-name="Trazado 980107" d="M-76.637-3.609A4.185,4.185,0,0,1-77.969-.824a4.365,4.365,0,0,1-2.98.98,4.008,4.008,0,0,1-3.23-1.445,5.815,5.815,0,0,1-1.215-3.867V-6.25a6.481,6.481,0,0,1,.566-2.789,4.231,4.231,0,0,1,1.605-1.848,4.47,4.47,0,0,1,2.406-.645A4.11,4.11,0,0,1-77.91-10.52a4.235,4.235,0,0,1,1.273,2.8h-1.508a3.254,3.254,0,0,0-.848-1.969,2.569,2.569,0,0,0-1.824-.609A2.685,2.685,0,0,0-83.07-9.234a4.875,4.875,0,0,0-.816,3.023v1.1a5.011,5.011,0,0,0,.773,2.945A2.5,2.5,0,0,0-80.949-1.07a2.886,2.886,0,0,0,1.918-.566,3.143,3.143,0,0,0,.887-1.973Zm1.438-.7a4.993,4.993,0,0,1,.488-2.234A3.643,3.643,0,0,1-73.352-8.07a3.7,3.7,0,0,1,1.988-.539,3.565,3.565,0,0,1,2.793,1.2A4.6,4.6,0,0,1-67.5-4.234v.1a5.036,5.036,0,0,1-.473,2.215A3.589,3.589,0,0,1-69.328-.391a3.743,3.743,0,0,1-2.02.547,3.556,3.556,0,0,1-2.785-1.2A4.575,4.575,0,0,1-75.2-4.2Zm1.453.172a3.616,3.616,0,0,0,.652,2.258,2.088,2.088,0,0,0,1.746.852,2.075,2.075,0,0,0,1.75-.863A3.955,3.955,0,0,0-68.949-4.3a3.61,3.61,0,0,0-.66-2.254,2.1,2.1,0,0,0-1.754-.863,2.075,2.075,0,0,0-1.727.852A3.925,3.925,0,0,0-73.746-4.133Zm9.414-4.32.039.938a3.122,3.122,0,0,1,2.508-1.094A2.417,2.417,0,0,1-59.371-7.25a3.2,3.2,0,0,1,1.1-.984,3.242,3.242,0,0,1,1.6-.375q2.781,0,2.828,2.945V0h-1.445V-5.578a1.941,1.941,0,0,0-.414-1.355A1.823,1.823,0,0,0-57.1-7.383a1.916,1.916,0,0,0-1.336.48,1.949,1.949,0,0,0-.617,1.293V0H-60.5V-5.539a1.613,1.613,0,0,0-1.8-1.844,1.934,1.934,0,0,0-1.945,1.211V0H-65.7V-8.453Zm19.8,4.32a5.062,5.062,0,0,1-.883,3.109A2.829,2.829,0,0,1-47.8.156,3.1,3.1,0,0,1-50.223-.82V3.25h-1.445v-11.7h1.32l.07.938a2.977,2.977,0,0,1,2.453-1.094,2.882,2.882,0,0,1,2.41,1.148,5.117,5.117,0,0,1,.887,3.2ZM-45.973-4.3a3.735,3.735,0,0,0-.609-2.258,1.963,1.963,0,0,0-1.672-.828,2.125,2.125,0,0,0-1.969,1.164V-2.18a2.129,2.129,0,0,0,1.984,1.156,1.954,1.954,0,0,0,1.652-.824A4.077,4.077,0,0,0-45.973-4.3Zm8.5,4.3a3.036,3.036,0,0,1-.2-.891A3.225,3.225,0,0,1-40.082.156a2.984,2.984,0,0,1-2.051-.707,2.287,2.287,0,0,1-.8-1.793,2.39,2.39,0,0,1,1-2.051,4.733,4.733,0,0,1,2.824-.73H-37.7v-.664A1.623,1.623,0,0,0-38.152-7a1.821,1.821,0,0,0-1.336-.449,2.107,2.107,0,0,0-1.3.391,1.151,1.151,0,0,0-.523.945h-1.453a2,2,0,0,1,.449-1.223,3.066,3.066,0,0,1,1.219-.934A4.1,4.1,0,0,1-39.4-8.609a3.342,3.342,0,0,1,2.289.73,2.635,2.635,0,0,1,.859,2.012v3.891a4.757,4.757,0,0,0,.3,1.852V0Zm-2.4-1.1a2.54,2.54,0,0,0,1.289-.352,2.127,2.127,0,0,0,.883-.914V-4.1h-1.133q-2.656,0-2.656,1.555a1.316,1.316,0,0,0,.453,1.063A1.742,1.742,0,0,0-39.871-1.1ZM-29.9-7.156a4.331,4.331,0,0,0-.711-.055A1.9,1.9,0,0,0-32.543-6V0h-1.445V-8.453h1.406l.023.977a2.251,2.251,0,0,1,2.016-1.133A1.477,1.477,0,0,1-29.9-8.5Zm3.68-3.344v2.047h1.578v1.117h-1.578v5.242a1.171,1.171,0,0,0,.211.762.888.888,0,0,0,.719.254,3.5,3.5,0,0,0,.688-.094V0a4.19,4.19,0,0,1-1.109.156A1.8,1.8,0,0,1-27.176-.43a2.517,2.517,0,0,1-.492-1.664V-7.336h-1.539V-8.453h1.539V-10.5ZM-21.387,0h-1.445V-8.453h1.445Zm-1.562-10.7a.863.863,0,0,1,.215-.594.807.807,0,0,1,.637-.242.819.819,0,0,1,.641.242.854.854,0,0,1,.219.594.826.826,0,0,1-.219.586.834.834,0,0,1-.641.234.821.821,0,0,1-.637-.234A.834.834,0,0,1-22.949-10.7Zm7.961,3.539a4.331,4.331,0,0,0-.711-.055A1.9,1.9,0,0,0-17.629-6V0h-1.445V-8.453h1.406l.023.977a2.251,2.251,0,0,1,2.016-1.133,1.477,1.477,0,0,1,.641.109Zm8.68,6.133a2.082,2.082,0,0,0,1.352-.469,1.649,1.649,0,0,0,.641-1.172h1.367a2.621,2.621,0,0,1-.5,1.383A3.293,3.293,0,0,1-4.68-.234,3.55,3.55,0,0,1-6.309.156,3.482,3.482,0,0,1-9.055-1a4.59,4.59,0,0,1-1.02-3.152v-.242a5.089,5.089,0,0,1,.453-2.2,3.451,3.451,0,0,1,1.3-1.492,3.7,3.7,0,0,1,2-.531,3.39,3.39,0,0,1,2.363.852,3.043,3.043,0,0,1,1,2.211H-4.316a1.992,1.992,0,0,0-.621-1.348,1.932,1.932,0,0,0-1.379-.527,2.023,2.023,0,0,0-1.707.793,3.724,3.724,0,0,0-.605,2.293v.273a3.65,3.65,0,0,0,.6,2.25A2.033,2.033,0,0,0-6.309-1.023Zm4.6-3.281a4.993,4.993,0,0,1,.488-2.234A3.643,3.643,0,0,1,.141-8.07a3.7,3.7,0,0,1,1.988-.539,3.565,3.565,0,0,1,2.793,1.2,4.6,4.6,0,0,1,1.066,3.18v.1a5.036,5.036,0,0,1-.473,2.215A3.589,3.589,0,0,1,4.164-.391a3.743,3.743,0,0,1-2.02.547,3.556,3.556,0,0,1-2.785-1.2A4.575,4.575,0,0,1-1.707-4.2Zm1.453.172A3.616,3.616,0,0,0,.4-1.875a2.088,2.088,0,0,0,1.746.852,2.075,2.075,0,0,0,1.75-.863A3.955,3.955,0,0,0,4.543-4.3a3.61,3.61,0,0,0-.66-2.254,2.1,2.1,0,0,0-1.754-.863A2.075,2.075,0,0,0,.4-6.57,3.925,3.925,0,0,0-.254-4.133Zm9.422-4.32.047,1.063a3.08,3.08,0,0,1,2.531-1.219q2.68,0,2.7,3.023V0H13V-5.594a1.946,1.946,0,0,0-.418-1.352,1.675,1.675,0,0,0-1.277-.437,2.086,2.086,0,0,0-1.234.375,2.546,2.546,0,0,0-.828.984V0H7.8V-8.453ZM16.246-4.3a4.993,4.993,0,0,1,.488-2.234A3.643,3.643,0,0,1,18.094-8.07a3.7,3.7,0,0,1,1.988-.539,3.565,3.565,0,0,1,2.793,1.2,4.6,4.6,0,0,1,1.066,3.18v.1a5.036,5.036,0,0,1-.473,2.215A3.589,3.589,0,0,1,22.117-.391,3.743,3.743,0,0,1,20.1.156a3.556,3.556,0,0,1-2.785-1.2A4.575,4.575,0,0,1,16.246-4.2Zm1.453.172a3.616,3.616,0,0,0,.652,2.258,2.088,2.088,0,0,0,1.746.852,2.075,2.075,0,0,0,1.75-.863A3.955,3.955,0,0,0,22.5-4.3a3.61,3.61,0,0,0-.66-2.254,2.1,2.1,0,0,0-1.754-.863,2.075,2.075,0,0,0-1.727.852A3.925,3.925,0,0,0,17.7-4.133ZM29.145-1.023A2.082,2.082,0,0,0,30.5-1.492a1.649,1.649,0,0,0,.641-1.172H32.5A2.621,2.621,0,0,1,32-1.281a3.293,3.293,0,0,1-1.23,1.047,3.55,3.55,0,0,1-1.629.391A3.482,3.482,0,0,1,26.4-1a4.59,4.59,0,0,1-1.02-3.152v-.242a5.089,5.089,0,0,1,.453-2.2,3.451,3.451,0,0,1,1.3-1.492,3.7,3.7,0,0,1,2-.531,3.39,3.39,0,0,1,2.363.852,3.043,3.043,0,0,1,1,2.211H31.137a1.992,1.992,0,0,0-.621-1.348,1.932,1.932,0,0,0-1.379-.527,2.023,2.023,0,0,0-1.707.793,3.724,3.724,0,0,0-.605,2.293v.273a3.65,3.65,0,0,0,.6,2.25A2.033,2.033,0,0,0,29.145-1.023ZM35.7,0H34.254V-8.453H35.7ZM34.137-10.7a.863.863,0,0,1,.215-.594.807.807,0,0,1,.637-.242.819.819,0,0,1,.641.242.854.854,0,0,1,.219.594.826.826,0,0,1-.219.586.834.834,0,0,1-.641.234.821.821,0,0,1-.637-.234A.834.834,0,0,1,34.137-10.7Zm5.234,2.242.039.938a3.122,3.122,0,0,1,2.508-1.094A2.417,2.417,0,0,1,44.332-7.25a3.2,3.2,0,0,1,1.1-.984,3.242,3.242,0,0,1,1.6-.375q2.781,0,2.828,2.945V0H48.41V-5.578A1.941,1.941,0,0,0,48-6.934a1.823,1.823,0,0,0-1.391-.449,1.916,1.916,0,0,0-1.336.48,1.949,1.949,0,0,0-.617,1.293V0H43.2V-5.539a1.613,1.613,0,0,0-1.8-1.844,1.934,1.934,0,0,0-1.945,1.211V0H38V-8.453ZM53.605,0H52.16V-8.453h1.445ZM52.043-10.7a.863.863,0,0,1,.215-.594.807.807,0,0,1,.637-.242.819.819,0,0,1,.641.242.854.854,0,0,1,.219.594.826.826,0,0,1-.219.586.834.834,0,0,1-.641.234.821.821,0,0,1-.637-.234A.834.834,0,0,1,52.043-10.7ZM59.426.156a3.693,3.693,0,0,1-2.8-1.129,4.19,4.19,0,0,1-1.078-3.02v-.266a5.073,5.073,0,0,1,.48-2.246,3.748,3.748,0,0,1,1.344-1.547,3.378,3.378,0,0,1,1.871-.559,3.166,3.166,0,0,1,2.563,1.086,4.7,4.7,0,0,1,.914,3.109v.6H57a3,3,0,0,0,.73,2.02,2.3,2.3,0,0,0,1.777.77,2.517,2.517,0,0,0,1.3-.312,3.259,3.259,0,0,0,.93-.828l.883.688A3.55,3.55,0,0,1,59.426.156Zm-.18-7.578a1.928,1.928,0,0,0-1.469.637A3.1,3.1,0,0,0,57.043-5h4.234v-.109a2.753,2.753,0,0,0-.594-1.707A1.815,1.815,0,0,0,59.246-7.422Zm6.516-1.031.047,1.063A3.08,3.08,0,0,1,68.34-8.609q2.68,0,2.7,3.023V0H69.6V-5.594a1.946,1.946,0,0,0-.418-1.352A1.675,1.675,0,0,0,67.9-7.383a2.086,2.086,0,0,0-1.234.375,2.546,2.546,0,0,0-.828.984V0H64.395V-8.453ZM75.184-10.5v2.047h1.578v1.117H75.184v5.242a1.171,1.171,0,0,0,.211.762.888.888,0,0,0,.719.254,3.5,3.5,0,0,0,.688-.094V0a4.19,4.19,0,0,1-1.109.156A1.8,1.8,0,0,1,74.23-.43a2.517,2.517,0,0,1-.492-1.664V-7.336H72.2V-8.453h1.539V-10.5ZM77.91-4.3A4.993,4.993,0,0,1,78.4-6.539,3.643,3.643,0,0,1,79.758-8.07a3.7,3.7,0,0,1,1.988-.539,3.565,3.565,0,0,1,2.793,1.2,4.6,4.6,0,0,1,1.066,3.18v.1a5.036,5.036,0,0,1-.473,2.215A3.589,3.589,0,0,1,83.781-.391a3.743,3.743,0,0,1-2.02.547,3.556,3.556,0,0,1-2.785-1.2A4.575,4.575,0,0,1,77.91-4.2Zm1.453.172a3.616,3.616,0,0,0,.652,2.258,2.088,2.088,0,0,0,1.746.852,2.075,2.075,0,0,0,1.75-.863A3.955,3.955,0,0,0,84.16-4.3a3.61,3.61,0,0,0-.66-2.254,2.1,2.1,0,0,0-1.754-.863,2.075,2.075,0,0,0-1.727.852A3.925,3.925,0,0,0,79.363-4.133Z" transform="translate(921 2661.249)" fill="#12263f"/>
    <path id="Trazado_980108" data-name="Trazado 980108" d="M-54.215-11.375-50.5-2.094l3.719-9.281h1.945V0h-1.5V-4.43l.141-4.781L-49.926,0h-1.148L-54.8-9.187l.148,4.758V0h-1.5V-11.375ZM-38.9.156A3.693,3.693,0,0,1-41.7-.973a4.19,4.19,0,0,1-1.078-3.02v-.266A5.073,5.073,0,0,1-42.3-6.5a3.748,3.748,0,0,1,1.344-1.547,3.378,3.378,0,0,1,1.871-.559A3.166,3.166,0,0,1-36.52-7.523a4.7,4.7,0,0,1,.914,3.109v.6h-5.727a3,3,0,0,0,.73,2.02,2.3,2.3,0,0,0,1.777.77,2.517,2.517,0,0,0,1.3-.312,3.259,3.259,0,0,0,.93-.828l.883.688A3.55,3.55,0,0,1-38.9.156Zm-.18-7.578a1.928,1.928,0,0,0-1.469.637A3.1,3.1,0,0,0-41.285-5h4.234v-.109a2.753,2.753,0,0,0-.594-1.707A1.815,1.815,0,0,0-39.082-7.422Zm6.641-1.031V.977q0,2.438-2.211,2.438a2.682,2.682,0,0,1-.883-.141V2.117a2.794,2.794,0,0,0,.656.063.982.982,0,0,0,.738-.262,1.294,1.294,0,0,0,.254-.91V-8.453ZM-34.035-10.7a.867.867,0,0,1,.215-.59.79.79,0,0,1,.629-.246.819.819,0,0,1,.641.242.854.854,0,0,1,.219.594.826.826,0,0,1-.219.586.834.834,0,0,1-.641.234.808.808,0,0,1-.633-.234A.843.843,0,0,1-34.035-10.7ZM-30.5-4.3a4.993,4.993,0,0,1,.488-2.234A3.643,3.643,0,0,1-28.648-8.07a3.7,3.7,0,0,1,1.988-.539,3.565,3.565,0,0,1,2.793,1.2A4.6,4.6,0,0,1-22.8-4.234v.1a5.036,5.036,0,0,1-.473,2.215A3.589,3.589,0,0,1-24.625-.391a3.743,3.743,0,0,1-2.02.547,3.556,3.556,0,0,1-2.785-1.2A4.575,4.575,0,0,1-30.5-4.2Zm1.453.172a3.616,3.616,0,0,0,.652,2.258,2.088,2.088,0,0,0,1.746.852,2.075,2.075,0,0,0,1.75-.863A3.955,3.955,0,0,0-24.246-4.3a3.61,3.61,0,0,0-.66-2.254,2.1,2.1,0,0,0-1.754-.863,2.075,2.075,0,0,0-1.727.852A3.925,3.925,0,0,0-29.043-4.133ZM-16.9-7.156a4.331,4.331,0,0,0-.711-.055A1.9,1.9,0,0,0-19.543-6V0h-1.445V-8.453h1.406l.023.977a2.251,2.251,0,0,1,2.016-1.133A1.477,1.477,0,0,1-16.9-8.5ZM-10.668,0a3.036,3.036,0,0,1-.2-.891A3.225,3.225,0,0,1-13.277.156a2.984,2.984,0,0,1-2.051-.707,2.287,2.287,0,0,1-.8-1.793,2.39,2.39,0,0,1,1-2.051,4.733,4.733,0,0,1,2.824-.73h1.406v-.664A1.623,1.623,0,0,0-11.348-7a1.821,1.821,0,0,0-1.336-.449,2.107,2.107,0,0,0-1.3.391,1.151,1.151,0,0,0-.523.945h-1.453a2,2,0,0,1,.449-1.223,3.066,3.066,0,0,1,1.219-.934A4.1,4.1,0,0,1-12.6-8.609a3.342,3.342,0,0,1,2.289.73,2.635,2.635,0,0,1,.859,2.012v3.891a4.757,4.757,0,0,0,.3,1.852V0Zm-2.4-1.1a2.54,2.54,0,0,0,1.289-.352,2.127,2.127,0,0,0,.883-.914V-4.1h-1.133q-2.656,0-2.656,1.555a1.316,1.316,0,0,0,.453,1.063A1.742,1.742,0,0,0-13.066-1.1ZM.168-1.023A2.082,2.082,0,0,0,1.52-1.492,1.649,1.649,0,0,0,2.16-2.664H3.527a2.621,2.621,0,0,1-.5,1.383A3.293,3.293,0,0,1,1.8-.234,3.55,3.55,0,0,1,.168.156,3.482,3.482,0,0,1-2.578-1,4.59,4.59,0,0,1-3.6-4.148v-.242a5.089,5.089,0,0,1,.453-2.2,3.451,3.451,0,0,1,1.3-1.492,3.7,3.7,0,0,1,2-.531,3.39,3.39,0,0,1,2.363.852,3.043,3.043,0,0,1,1,2.211H2.16a1.992,1.992,0,0,0-.621-1.348A1.932,1.932,0,0,0,.16-7.422a2.023,2.023,0,0,0-1.707.793,3.724,3.724,0,0,0-.605,2.293v.273a3.65,3.65,0,0,0,.6,2.25A2.033,2.033,0,0,0,.168-1.023ZM4.77-4.3a4.993,4.993,0,0,1,.488-2.234A3.643,3.643,0,0,1,6.617-8.07a3.7,3.7,0,0,1,1.988-.539,3.565,3.565,0,0,1,2.793,1.2,4.6,4.6,0,0,1,1.066,3.18v.1a5.036,5.036,0,0,1-.473,2.215A3.589,3.589,0,0,1,10.641-.391a3.743,3.743,0,0,1-2.02.547,3.556,3.556,0,0,1-2.785-1.2A4.575,4.575,0,0,1,4.77-4.2Zm1.453.172a3.616,3.616,0,0,0,.652,2.258,2.088,2.088,0,0,0,1.746.852,2.075,2.075,0,0,0,1.75-.863A3.955,3.955,0,0,0,11.02-4.3a3.61,3.61,0,0,0-.66-2.254,2.1,2.1,0,0,0-1.754-.863,2.075,2.075,0,0,0-1.727.852A3.925,3.925,0,0,0,6.223-4.133Zm9.422-4.32.047,1.063a3.08,3.08,0,0,1,2.531-1.219q2.68,0,2.7,3.023V0H19.48V-5.594a1.946,1.946,0,0,0-.418-1.352,1.675,1.675,0,0,0-1.277-.437,2.086,2.086,0,0,0-1.234.375,2.546,2.546,0,0,0-.828.984V0H14.277V-8.453ZM25.066-10.5v2.047h1.578v1.117H25.066v5.242a1.171,1.171,0,0,0,.211.762A.888.888,0,0,0,26-1.078a3.5,3.5,0,0,0,.688-.094V0a4.19,4.19,0,0,1-1.109.156A1.8,1.8,0,0,1,24.113-.43a2.517,2.517,0,0,1-.492-1.664V-7.336H22.082V-8.453h1.539V-10.5ZM29.9,0H28.457V-8.453H29.9ZM28.34-10.7a.863.863,0,0,1,.215-.594.807.807,0,0,1,.637-.242.819.819,0,0,1,.641.242.854.854,0,0,1,.219.594.826.826,0,0,1-.219.586.834.834,0,0,1-.641.234.821.821,0,0,1-.637-.234A.834.834,0,0,1,28.34-10.7Zm5.242,2.242.047,1.063A3.08,3.08,0,0,1,36.16-8.609q2.68,0,2.7,3.023V0H37.418V-5.594A1.946,1.946,0,0,0,37-6.945a1.675,1.675,0,0,0-1.277-.437,2.086,2.086,0,0,0-1.234.375,2.546,2.546,0,0,0-.828.984V0H32.215V-8.453ZM46.262-.836a3.07,3.07,0,0,1-2.477.992,2.628,2.628,0,0,1-2.059-.785,3.4,3.4,0,0,1-.715-2.324v-5.5h1.445v5.461q0,1.922,1.563,1.922a2.163,2.163,0,0,0,2.2-1.234V-8.453h1.445V0H46.293ZM55.082,0a3.036,3.036,0,0,1-.2-.891A3.225,3.225,0,0,1,52.473.156a2.984,2.984,0,0,1-2.051-.707,2.287,2.287,0,0,1-.8-1.793,2.39,2.39,0,0,1,1-2.051,4.733,4.733,0,0,1,2.824-.73h1.406v-.664A1.623,1.623,0,0,0,54.4-7a1.821,1.821,0,0,0-1.336-.449,2.107,2.107,0,0,0-1.3.391,1.151,1.151,0,0,0-.523.945H49.793a2,2,0,0,1,.449-1.223,3.066,3.066,0,0,1,1.219-.934,4.1,4.1,0,0,1,1.691-.344,3.342,3.342,0,0,1,2.289.73A2.635,2.635,0,0,1,56.3-5.867v3.891a4.757,4.757,0,0,0,.3,1.852V0Zm-2.4-1.1a2.54,2.54,0,0,0,1.289-.352,2.127,2.127,0,0,0,.883-.914V-4.1H53.723q-2.656,0-2.656,1.555a1.316,1.316,0,0,0,.453,1.063A1.742,1.742,0,0,0,52.684-1.1Z" transform="translate(1062 2823.249)" fill="#12263f"/>
    <path id="Trazado_980109" data-name="Trazado 980109" d="M-35.064-4.263a4.528,4.528,0,0,1-1.525,3.252A5.355,5.355,0,0,1-40.214.176a4.816,4.816,0,0,1-3.872-1.657A6.793,6.793,0,0,1-45.5-6.029v-.782a7.671,7.671,0,0,1,.65-3.252,4.874,4.874,0,0,1,1.859-2.158,5.207,5.207,0,0,1,2.808-.751,5.217,5.217,0,0,1,3.568,1.187,4.866,4.866,0,0,1,1.564,3.331h-2.637a2.673,2.673,0,0,0-.69-1.8,2.555,2.555,0,0,0-1.806-.558,2.24,2.24,0,0,0-1.973.945,5.3,5.3,0,0,0-.672,2.931v.967A5.667,5.667,0,0,0-42.2-2.936a2.2,2.2,0,0,0,1.982.958,2.6,2.6,0,0,0,1.824-.558,2.521,2.521,0,0,0,.69-1.727ZM-27.989,0a2.821,2.821,0,0,1-.255-.853,3.073,3.073,0,0,1-2.4,1.028,3.376,3.376,0,0,1-2.316-.809,2.6,2.6,0,0,1-.918-2.039,2.687,2.687,0,0,1,1.121-2.32,5.529,5.529,0,0,1,3.239-.817h1.169v-.545a1.567,1.567,0,0,0-.338-1.055,1.331,1.331,0,0,0-1.068-.4,1.513,1.513,0,0,0-1.006.308,1.045,1.045,0,0,0-.365.844h-2.54a2.551,2.551,0,0,1,.51-1.529,3.37,3.37,0,0,1,1.441-1.1,5.253,5.253,0,0,1,2.092-.4,4.15,4.15,0,0,1,2.791.883A3.09,3.09,0,0,1-25.8-6.319V-2.2a4.546,4.546,0,0,0,.378,2.048V0Zm-2.1-1.767a2.188,2.188,0,0,0,1.037-.25,1.645,1.645,0,0,0,.7-.672V-4.324H-29.3q-1.907,0-2.03,1.318l-.009.149A1.017,1.017,0,0,0-31-2.074,1.3,1.3,0,0,0-30.089-1.767Zm14.8-2.9a5.7,5.7,0,0,1-1,3.52A3.2,3.2,0,0,1-18.98.176a2.963,2.963,0,0,1-2.329-1V3.656h-2.54V-9.51h2.355l.088.932A2.985,2.985,0,0,1-19-9.686a3.22,3.22,0,0,1,2.733,1.3A5.858,5.858,0,0,1-15.289-4.8Zm-2.54-.185A3.743,3.743,0,0,0-18.3-6.9a1.532,1.532,0,0,0-1.367-.721,1.663,1.663,0,0,0-1.644.914v3.894a1.692,1.692,0,0,0,1.661.94Q-17.829-1.872-17.829-4.852Zm7.154-7V-9.51h1.626v1.863h-1.626V-2.9a1.133,1.133,0,0,0,.2.756,1.015,1.015,0,0,0,.773.229,4.051,4.051,0,0,0,.747-.062V-.053A5.229,5.229,0,0,1-10.49.176a2.425,2.425,0,0,1-2.725-2.7V-7.646H-14.6V-9.51h1.389v-2.338ZM-1.938-.967A3.185,3.185,0,0,1-4.54.176,3,3,0,0,1-6.873-.7a3.752,3.752,0,0,1-.822-2.575V-9.51h2.54v6.144q0,1.485,1.354,1.485a1.835,1.835,0,0,0,1.775-.9V-9.51H.523V0H-1.868ZM7.783-7.128a6.9,6.9,0,0,0-.914-.07,1.86,1.86,0,0,0-1.89.976V0H2.439V-9.51h2.4l.07,1.134a2.354,2.354,0,0,1,2.118-1.31,2.662,2.662,0,0,1,.791.114ZM14.251,0A2.821,2.821,0,0,1,14-.853,3.073,3.073,0,0,1,11.6.176,3.376,3.376,0,0,1,9.281-.633a2.6,2.6,0,0,1-.918-2.039,2.687,2.687,0,0,1,1.121-2.32,5.529,5.529,0,0,1,3.239-.817h1.169v-.545a1.567,1.567,0,0,0-.338-1.055,1.331,1.331,0,0,0-1.068-.4,1.513,1.513,0,0,0-1.006.308,1.045,1.045,0,0,0-.365.844H8.574a2.551,2.551,0,0,1,.51-1.529,3.37,3.37,0,0,1,1.441-1.1,5.253,5.253,0,0,1,2.092-.4,4.15,4.15,0,0,1,2.791.883A3.09,3.09,0,0,1,16.44-6.319V-2.2a4.546,4.546,0,0,0,.378,2.048V0Zm-2.1-1.767a2.188,2.188,0,0,0,1.037-.25,1.645,1.645,0,0,0,.7-.672V-4.324h-.949q-1.907,0-2.03,1.318l-.009.149a1.017,1.017,0,0,0,.334.782A1.3,1.3,0,0,0,12.151-1.767ZM22.478-4.825a5.731,5.731,0,0,1,1-3.542A3.237,3.237,0,0,1,26.2-9.686,2.913,2.913,0,0,1,28.5-8.648V-13.5h2.549V0H28.753L28.63-1.011A2.989,2.989,0,0,1,26.187.176a3.228,3.228,0,0,1-2.694-1.323A5.916,5.916,0,0,1,22.478-4.825Zm2.54.185a3.744,3.744,0,0,0,.466,2.048,1.518,1.518,0,0,0,1.354.712A1.7,1.7,0,0,0,28.5-2.874V-6.627a1.676,1.676,0,0,0-1.644-.993Q25.018-7.62,25.018-4.641ZM37.393.176a4.668,4.668,0,0,1-3.406-1.283,4.561,4.561,0,0,1-1.314-3.419v-.246a5.745,5.745,0,0,1,.554-2.562A4.064,4.064,0,0,1,34.8-9.075a4.4,4.4,0,0,1,2.316-.611,3.947,3.947,0,0,1,3.072,1.23A5,5,0,0,1,41.3-4.966v1.037H35.249a2.36,2.36,0,0,0,.743,1.494,2.245,2.245,0,0,0,1.569.563,2.742,2.742,0,0,0,2.294-1.063l1.248,1.4A3.813,3.813,0,0,1,39.555-.277,5.075,5.075,0,0,1,37.393.176Zm-.29-7.8a1.591,1.591,0,0,0-1.226.51,2.634,2.634,0,0,0-.6,1.459h3.533v-.2a1.878,1.878,0,0,0-.457-1.305A1.642,1.642,0,0,0,37.1-7.629ZM-50.142,22.128A1.666,1.666,0,0,0-49,21.741a1.355,1.355,0,0,0,.457-1.028h2.382a3.258,3.258,0,0,1-.527,1.771,3.48,3.48,0,0,1-1.419,1.248,4.442,4.442,0,0,1-1.991.444,4.129,4.129,0,0,1-3.217-1.3A5.13,5.13,0,0,1-54.492,19.3v-.167a5.071,5.071,0,0,1,1.169-3.507,4.08,4.08,0,0,1,3.208-1.31,4,4,0,0,1,2.861,1.015,3.594,3.594,0,0,1,1.094,2.7h-2.382a1.731,1.731,0,0,0-.457-1.2,1.528,1.528,0,0,0-1.16-.461,1.531,1.531,0,0,0-1.34.646,3.739,3.739,0,0,0-.453,2.1v.264a3.786,3.786,0,0,0,.448,2.109A1.55,1.55,0,0,0-50.142,22.128Zm5.036-2.971a5.64,5.64,0,0,1,.545-2.522,3.989,3.989,0,0,1,1.569-1.714,4.577,4.577,0,0,1,2.377-.606,4.33,4.33,0,0,1,3.142,1.178,4.727,4.727,0,0,1,1.358,3.2l.018.65a4.97,4.97,0,0,1-1.222,3.511A4.247,4.247,0,0,1-40.6,24.176a4.268,4.268,0,0,1-3.283-1.318,5.058,5.058,0,0,1-1.226-3.586Zm2.54.185a3.545,3.545,0,0,0,.51,2.07,1.682,1.682,0,0,0,1.459.716,1.686,1.686,0,0,0,1.441-.708,3.879,3.879,0,0,0,.519-2.263,3.51,3.51,0,0,0-.519-2.057,1.686,1.686,0,0,0-1.459-.729,1.659,1.659,0,0,0-1.441.725A3.944,3.944,0,0,0-42.565,19.342Zm10.371-4.852.079,1.1a3.32,3.32,0,0,1,2.733-1.274,2.759,2.759,0,0,1,2.25.888,4.142,4.142,0,0,1,.756,2.654V24h-2.54V17.918a1.648,1.648,0,0,0-.352-1.173,1.574,1.574,0,0,0-1.169-.365,1.747,1.747,0,0,0-1.608.914V24h-2.54V14.49Zm7.348,4.667a5.64,5.64,0,0,1,.545-2.522,3.989,3.989,0,0,1,1.569-1.714,4.577,4.577,0,0,1,2.377-.606,4.33,4.33,0,0,1,3.142,1.178,4.727,4.727,0,0,1,1.358,3.2l.018.65a4.97,4.97,0,0,1-1.222,3.511,4.247,4.247,0,0,1-3.278,1.323,4.268,4.268,0,0,1-3.283-1.318,5.058,5.058,0,0,1-1.226-3.586Zm2.54.185a3.545,3.545,0,0,0,.51,2.07,1.682,1.682,0,0,0,1.459.716A1.686,1.686,0,0,0-18.9,21.42a3.879,3.879,0,0,0,.519-2.263A3.51,3.51,0,0,0-18.9,17.1a1.686,1.686,0,0,0-1.459-.729A1.659,1.659,0,0,0-21.8,17.1,3.944,3.944,0,0,0-22.307,19.342Zm11.988,2.786a1.666,1.666,0,0,0,1.143-.387,1.355,1.355,0,0,0,.457-1.028h2.382a3.258,3.258,0,0,1-.527,1.771,3.48,3.48,0,0,1-1.419,1.248,4.442,4.442,0,0,1-1.991.444,4.129,4.129,0,0,1-3.217-1.3A5.13,5.13,0,0,1-14.669,19.3v-.167A5.071,5.071,0,0,1-13.5,15.624a4.08,4.08,0,0,1,3.208-1.31A4,4,0,0,1-7.431,15.33a3.594,3.594,0,0,1,1.094,2.7H-8.719a1.731,1.731,0,0,0-.457-1.2,1.528,1.528,0,0,0-1.16-.461,1.531,1.531,0,0,0-1.34.646,3.739,3.739,0,0,0-.453,2.1v.264a3.786,3.786,0,0,0,.448,2.109A1.55,1.55,0,0,0-10.318,22.128ZM-2.206,24H-4.755V14.49h2.549ZM-4.9,12.029a1.251,1.251,0,0,1,.382-.94A1.436,1.436,0,0,1-3.48,10.72a1.44,1.44,0,0,1,1.037.369,1.244,1.244,0,0,1,.387.94,1.247,1.247,0,0,1-.391.949,1.443,1.443,0,0,1-1.033.369,1.443,1.443,0,0,1-1.033-.369A1.247,1.247,0,0,1-4.9,12.029ZM2.268,14.49l.079,1.063A3.342,3.342,0,0,1,5.08,14.314,2.536,2.536,0,0,1,7.6,15.765a3.265,3.265,0,0,1,2.856-1.45,2.836,2.836,0,0,1,2.3.9,4.141,4.141,0,0,1,.756,2.711V24H10.969V17.936a1.811,1.811,0,0,0-.316-1.182,1.4,1.4,0,0,0-1.116-.374,1.585,1.585,0,0,0-1.582,1.09L7.963,24H5.423V17.944a1.789,1.789,0,0,0-.325-1.2A1.416,1.416,0,0,0,3.99,16.38a1.646,1.646,0,0,0-1.564.9V24H-.114V14.49ZM18.149,24H15.6V14.49h2.549Zm-2.7-11.971a1.251,1.251,0,0,1,.382-.94,1.648,1.648,0,0,1,2.079,0,1.342,1.342,0,0,1,0,1.89,1.629,1.629,0,0,1-2.065,0A1.247,1.247,0,0,1,15.451,12.029Zm9.167,12.146a4.668,4.668,0,0,1-3.406-1.283A4.561,4.561,0,0,1,19.9,19.474v-.246a5.745,5.745,0,0,1,.554-2.562,4.064,4.064,0,0,1,1.569-1.74,4.4,4.4,0,0,1,2.316-.611,3.947,3.947,0,0,1,3.072,1.23,5,5,0,0,1,1.121,3.489v1.037H22.474a2.36,2.36,0,0,0,.743,1.494,2.245,2.245,0,0,0,1.569.563,2.742,2.742,0,0,0,2.294-1.063l1.248,1.4a3.813,3.813,0,0,1-1.547,1.261A5.075,5.075,0,0,1,24.618,24.176Zm-.29-7.8a1.591,1.591,0,0,0-1.226.51,2.634,2.634,0,0,0-.6,1.459h3.533v-.2a1.878,1.878,0,0,0-.457-1.305A1.642,1.642,0,0,0,24.328,16.371Zm7.98-1.881.079,1.1a3.32,3.32,0,0,1,2.733-1.274,2.759,2.759,0,0,1,2.25.888,4.142,4.142,0,0,1,.756,2.654V24h-2.54V17.918a1.648,1.648,0,0,0-.352-1.173,1.574,1.574,0,0,0-1.169-.365,1.747,1.747,0,0,0-1.608.914V24h-2.54V14.49Zm10.784-2.338V14.49h1.626v1.863H43.093V21.1a1.133,1.133,0,0,0,.2.756,1.015,1.015,0,0,0,.773.229,4.051,4.051,0,0,0,.747-.062v1.925a5.229,5.229,0,0,1-1.538.229,2.425,2.425,0,0,1-2.725-2.7V16.354H39.164V14.49h1.389V12.152Zm2.382,7a5.64,5.64,0,0,1,.545-2.522,3.989,3.989,0,0,1,1.569-1.714,4.577,4.577,0,0,1,2.377-.606,4.33,4.33,0,0,1,3.142,1.178,4.727,4.727,0,0,1,1.358,3.2l.018.65a4.97,4.97,0,0,1-1.222,3.511,4.735,4.735,0,0,1-6.561,0,5.058,5.058,0,0,1-1.226-3.586Zm2.54.185a3.545,3.545,0,0,0,.51,2.07,1.833,1.833,0,0,0,2.9.009,3.879,3.879,0,0,0,.519-2.263,3.51,3.51,0,0,0-.519-2.057,1.686,1.686,0,0,0-1.459-.729,1.659,1.659,0,0,0-1.441.725A3.944,3.944,0,0,0,48.015,19.342Z" transform="translate(538 2769.249)" fill="#fff"/>
    <path id="Trazado_980110" data-name="Trazado 980110" d="M5.492-4.6H2.82V0H1.313V-11.375H5.078a4.457,4.457,0,0,1,2.957.875A3.148,3.148,0,0,1,9.07-7.953,3.062,3.062,0,0,1,8.5-6.1a3.428,3.428,0,0,1-1.6,1.18L9.57-.094V0H7.961ZM2.82-5.828h2.3A2.6,2.6,0,0,0,6.9-6.406a1.953,1.953,0,0,0,.66-1.547A2.057,2.057,0,0,0,6.934-9.57a2.666,2.666,0,0,0-1.816-.57H2.82ZM14.453.156a3.693,3.693,0,0,1-2.8-1.129,4.19,4.19,0,0,1-1.078-3.02v-.266a5.073,5.073,0,0,1,.48-2.246A3.748,3.748,0,0,1,12.4-8.051a3.378,3.378,0,0,1,1.871-.559,3.166,3.166,0,0,1,2.563,1.086,4.7,4.7,0,0,1,.914,3.109v.6H12.023a3,3,0,0,0,.73,2.02,2.3,2.3,0,0,0,1.777.77,2.517,2.517,0,0,0,1.3-.312,3.259,3.259,0,0,0,.93-.828l.883.688A3.55,3.55,0,0,1,14.453.156Zm-.18-7.578a1.928,1.928,0,0,0-1.469.637A3.1,3.1,0,0,0,12.07-5H16.3v-.109a2.753,2.753,0,0,0-.594-1.707A1.815,1.815,0,0,0,14.273-7.422Zm4.8,3.125a4.968,4.968,0,0,1,.914-3.145,2.923,2.923,0,0,1,2.422-1.168,2.908,2.908,0,0,1,2.414,1.094l.07-.937h1.32V-.2a3.439,3.439,0,0,1-.973,2.586,3.589,3.589,0,0,1-2.613.945,4.348,4.348,0,0,1-1.789-.391,3.08,3.08,0,0,1-1.336-1.07L20.258,1a2.826,2.826,0,0,0,2.273,1.148,2.214,2.214,0,0,0,1.645-.594,2.269,2.269,0,0,0,.59-1.672V-.844a2.971,2.971,0,0,1-2.367,1,2.887,2.887,0,0,1-2.4-1.2A5.224,5.224,0,0,1,19.078-4.3Zm1.453.164a3.79,3.79,0,0,0,.586,2.246,1.9,1.9,0,0,0,1.641.816,2.117,2.117,0,0,0,2.008-1.242V-6.172a2.142,2.142,0,0,0-1.992-1.211,1.921,1.921,0,0,0-1.648.82A4.128,4.128,0,0,0,20.531-4.133ZM29.969,0H28.523V-8.453h1.445ZM28.406-10.7a.863.863,0,0,1,.215-.594.807.807,0,0,1,.637-.242.819.819,0,0,1,.641.242.854.854,0,0,1,.219.594.826.826,0,0,1-.219.586.834.834,0,0,1-.641.234.821.821,0,0,1-.637-.234A.834.834,0,0,1,28.406-10.7Zm8.8,8.453a1.064,1.064,0,0,0-.441-.91,4.249,4.249,0,0,0-1.539-.559,7.277,7.277,0,0,1-1.742-.562,2.479,2.479,0,0,1-.953-.781,1.869,1.869,0,0,1-.309-1.078A2.193,2.193,0,0,1,33.1-7.891a3.432,3.432,0,0,1,2.246-.719,3.532,3.532,0,0,1,2.332.742,2.357,2.357,0,0,1,.895,1.9H37.117a1.3,1.3,0,0,0-.5-1.023,1.888,1.888,0,0,0-1.27-.43,1.976,1.976,0,0,0-1.234.344,1.082,1.082,0,0,0-.445.9.877.877,0,0,0,.414.789,5.1,5.1,0,0,0,1.5.508,7.8,7.8,0,0,1,1.754.578,2.558,2.558,0,0,1,1,.809,1.988,1.988,0,0,1,.324,1.152,2.163,2.163,0,0,1-.906,1.816,3.8,3.8,0,0,1-2.352.684,4.257,4.257,0,0,1-1.8-.359,2.922,2.922,0,0,1-1.223-1A2.42,2.42,0,0,1,31.93-2.6h1.445a1.5,1.5,0,0,0,.582,1.152,2.258,2.258,0,0,0,1.434.426,2.331,2.331,0,0,0,1.316-.332A1.02,1.02,0,0,0,37.2-2.242ZM42.492-10.5v2.047H44.07v1.117H42.492v5.242a1.171,1.171,0,0,0,.211.762.888.888,0,0,0,.719.254,3.5,3.5,0,0,0,.688-.094V0A4.19,4.19,0,0,1,43,.156,1.8,1.8,0,0,1,41.539-.43a2.517,2.517,0,0,1-.492-1.664V-7.336H39.508V-8.453h1.539V-10.5Zm7.352,3.344a4.331,4.331,0,0,0-.711-.055A1.9,1.9,0,0,0,47.2-6V0H45.758V-8.453h1.406l.023.977A2.251,2.251,0,0,1,49.2-8.609a1.477,1.477,0,0,1,.641.109ZM50.633-4.3a4.993,4.993,0,0,1,.488-2.234A3.643,3.643,0,0,1,52.48-8.07a3.7,3.7,0,0,1,1.988-.539,3.565,3.565,0,0,1,2.793,1.2,4.6,4.6,0,0,1,1.066,3.18v.1a5.036,5.036,0,0,1-.473,2.215A3.589,3.589,0,0,1,56.5-.391a3.743,3.743,0,0,1-2.02.547,3.556,3.556,0,0,1-2.785-1.2A4.575,4.575,0,0,1,50.633-4.2Zm1.453.172a3.616,3.616,0,0,0,.652,2.258,2.088,2.088,0,0,0,1.746.852,2.075,2.075,0,0,0,1.75-.863A3.955,3.955,0,0,0,56.883-4.3a3.61,3.61,0,0,0-.66-2.254,2.1,2.1,0,0,0-1.754-.863,2.075,2.075,0,0,0-1.727.852A3.925,3.925,0,0,0,52.086-4.133ZM66.867-2.117l1.969-6.336h1.547L66.984,1.3Q66.2,3.414,64.477,3.414L64.2,3.391l-.539-.1V2.117l.391.031a1.923,1.923,0,0,0,1.145-.3A2.149,2.149,0,0,0,65.875.766l.32-.859L63.18-8.453h1.578Zm11.555.156,2.094-6.492h1.477L78.961,0h-1.1L74.8-8.453h1.477ZM88.484,0a3.036,3.036,0,0,1-.2-.891A3.225,3.225,0,0,1,85.875.156a2.984,2.984,0,0,1-2.051-.707,2.288,2.288,0,0,1-.8-1.793,2.39,2.39,0,0,1,1-2.051,4.733,4.733,0,0,1,2.824-.73h1.406v-.664A1.623,1.623,0,0,0,87.8-7a1.821,1.821,0,0,0-1.336-.449,2.108,2.108,0,0,0-1.3.391,1.151,1.151,0,0,0-.523.945H83.2a2,2,0,0,1,.449-1.223,3.066,3.066,0,0,1,1.219-.934,4.1,4.1,0,0,1,1.691-.344,3.342,3.342,0,0,1,2.289.73A2.635,2.635,0,0,1,89.7-5.867v3.891A4.757,4.757,0,0,0,90-.125V0Zm-2.4-1.1a2.54,2.54,0,0,0,1.289-.352,2.127,2.127,0,0,0,.883-.914V-4.1H87.125q-2.656,0-2.656,1.555a1.316,1.316,0,0,0,.453,1.063A1.742,1.742,0,0,0,86.086-1.1ZM93.539,0H92.094V-12h1.445Zm3.883,0H95.977V-8.453h1.445ZM95.859-10.7a.863.863,0,0,1,.215-.594.807.807,0,0,1,.637-.242.819.819,0,0,1,.641.242.854.854,0,0,1,.219.594.826.826,0,0,1-.219.586.834.834,0,0,1-.641.234.821.821,0,0,1-.637-.234A.834.834,0,0,1,95.859-10.7Zm3.523,6.4a4.952,4.952,0,0,1,.922-3.129,2.915,2.915,0,0,1,2.414-1.184,2.932,2.932,0,0,1,2.352,1.016V-12h1.445V0h-1.328l-.07-.906A2.943,2.943,0,0,1,102.7.156a2.887,2.887,0,0,1-2.395-1.2,5.008,5.008,0,0,1-.926-3.141Zm1.445.164a3.749,3.749,0,0,0,.594,2.25,1.92,1.92,0,0,0,1.641.813A2.109,2.109,0,0,0,105.07-2.3V-6.187a2.125,2.125,0,0,0-1.992-1.2,1.929,1.929,0,0,0-1.656.82A4.128,4.128,0,0,0,100.828-4.133ZM113.977,0a3.036,3.036,0,0,1-.2-.891A3.225,3.225,0,0,1,111.367.156a2.984,2.984,0,0,1-2.051-.707,2.288,2.288,0,0,1-.8-1.793,2.39,2.39,0,0,1,1-2.051,4.733,4.733,0,0,1,2.824-.73h1.406v-.664A1.623,1.623,0,0,0,113.3-7a1.821,1.821,0,0,0-1.336-.449,2.108,2.108,0,0,0-1.3.391,1.151,1.151,0,0,0-.523.945h-1.453a2,2,0,0,1,.449-1.223,3.066,3.066,0,0,1,1.219-.934,4.1,4.1,0,0,1,1.691-.344,3.342,3.342,0,0,1,2.289.73,2.635,2.635,0,0,1,.859,2.012v3.891a4.757,4.757,0,0,0,.3,1.852V0Zm-2.4-1.1a2.54,2.54,0,0,0,1.289-.352,2.127,2.127,0,0,0,.883-.914V-4.1h-1.133q-2.656,0-2.656,1.555a1.316,1.316,0,0,0,.453,1.063A1.742,1.742,0,0,0,111.578-1.1Zm9.273.078a2.082,2.082,0,0,0,1.352-.469,1.649,1.649,0,0,0,.641-1.172h1.367a2.621,2.621,0,0,1-.5,1.383,3.293,3.293,0,0,1-1.23,1.047,3.55,3.55,0,0,1-1.629.391A3.482,3.482,0,0,1,118.105-1a4.59,4.59,0,0,1-1.02-3.152v-.242a5.089,5.089,0,0,1,.453-2.2,3.451,3.451,0,0,1,1.3-1.492,3.7,3.7,0,0,1,2-.531,3.39,3.39,0,0,1,2.363.852,3.043,3.043,0,0,1,1,2.211h-1.367a1.992,1.992,0,0,0-.621-1.348,1.932,1.932,0,0,0-1.379-.527,2.023,2.023,0,0,0-1.707.793,3.724,3.724,0,0,0-.605,2.293v.273a3.65,3.65,0,0,0,.6,2.25A2.033,2.033,0,0,0,120.852-1.023ZM127.406,0h-1.445V-8.453h1.445Zm-1.562-10.7a.863.863,0,0,1,.215-.594.807.807,0,0,1,.637-.242.819.819,0,0,1,.641.242.854.854,0,0,1,.219.594.826.826,0,0,1-.219.586.834.834,0,0,1-.641.234.821.821,0,0,1-.637-.234A.834.834,0,0,1,125.844-10.7ZM129.336-4.3a4.993,4.993,0,0,1,.488-2.234,3.642,3.642,0,0,1,1.359-1.531,3.7,3.7,0,0,1,1.988-.539,3.565,3.565,0,0,1,2.793,1.2,4.6,4.6,0,0,1,1.066,3.18v.1a5.036,5.036,0,0,1-.473,2.215,3.589,3.589,0,0,1-1.352,1.527,3.743,3.743,0,0,1-2.02.547,3.556,3.556,0,0,1-2.785-1.2A4.575,4.575,0,0,1,129.336-4.2Zm1.453.172a3.616,3.616,0,0,0,.652,2.258,2.088,2.088,0,0,0,1.746.852,2.075,2.075,0,0,0,1.75-.863,3.954,3.954,0,0,0,.648-2.418,3.61,3.61,0,0,0-.66-2.254,2.1,2.1,0,0,0-1.754-.863,2.075,2.075,0,0,0-1.727.852A3.925,3.925,0,0,0,130.789-4.133ZM133.828-12h1.75l-2.094,2.3H132.32Zm6.383,3.547.047,1.063a3.08,3.08,0,0,1,2.531-1.219q2.68,0,2.7,3.023V0h-1.445V-5.594a1.946,1.946,0,0,0-.418-1.352,1.675,1.675,0,0,0-1.277-.437,2.086,2.086,0,0,0-1.234.375,2.546,2.546,0,0,0-.828.984V0h-1.445V-8.453Z" transform="translate(464 2823.249)" fill="#fff"/>
    <path id="Trazado_980111" data-name="Trazado 980111" d="M-55.67-2.637h-4.623L-61.172,0h-2.8l4.764-12.8h2.443L-51.979,0h-2.8Zm-3.911-2.136h3.2l-1.608-4.79ZM-47-1.872a1.666,1.666,0,0,0,1.143-.387A1.355,1.355,0,0,0-45.4-3.287h2.382a3.258,3.258,0,0,1-.527,1.771A3.48,3.48,0,0,1-44.96-.268a4.442,4.442,0,0,1-1.991.444,4.129,4.129,0,0,1-3.217-1.3A5.13,5.13,0,0,1-51.346-4.7v-.167a5.071,5.071,0,0,1,1.169-3.507,4.08,4.08,0,0,1,3.208-1.31A4,4,0,0,1-44.108-8.67a3.594,3.594,0,0,1,1.094,2.7H-45.4a1.731,1.731,0,0,0-.457-1.2,1.528,1.528,0,0,0-1.16-.461,1.531,1.531,0,0,0-1.34.646,3.739,3.739,0,0,0-.453,2.1v.264a3.786,3.786,0,0,0,.448,2.109A1.55,1.55,0,0,0-47-1.872Zm8.473-9.976V-9.51H-36.9v1.863h-1.626V-2.9a1.133,1.133,0,0,0,.2.756,1.015,1.015,0,0,0,.773.229,4.051,4.051,0,0,0,.747-.062V-.053a5.229,5.229,0,0,1-1.538.229,2.425,2.425,0,0,1-2.725-2.7V-7.646h-1.389V-9.51h1.389v-2.338ZM-29.786-.967a3.185,3.185,0,0,1-2.6,1.143A3,3,0,0,1-34.721-.7a3.752,3.752,0,0,1-.822-2.575V-9.51H-33v6.144q0,1.485,1.354,1.485a1.835,1.835,0,0,0,1.775-.9V-9.51h2.549V0h-2.391ZM-19.9,0a2.821,2.821,0,0,1-.255-.853,3.073,3.073,0,0,1-2.4,1.028,3.376,3.376,0,0,1-2.316-.809,2.6,2.6,0,0,1-.918-2.039,2.687,2.687,0,0,1,1.121-2.32,5.529,5.529,0,0,1,3.239-.817h1.169v-.545A1.567,1.567,0,0,0-20.6-7.409a1.331,1.331,0,0,0-1.068-.4,1.513,1.513,0,0,0-1.006.308,1.045,1.045,0,0,0-.365.844h-2.54a2.551,2.551,0,0,1,.51-1.529,3.37,3.37,0,0,1,1.441-1.1,5.253,5.253,0,0,1,2.092-.4,4.15,4.15,0,0,1,2.791.883A3.09,3.09,0,0,1-17.71-6.319V-2.2a4.546,4.546,0,0,0,.378,2.048V0ZM-22-1.767a2.188,2.188,0,0,0,1.037-.25,1.645,1.645,0,0,0,.7-.672V-4.324h-.949q-1.907,0-2.03,1.318l-.009.149a1.017,1.017,0,0,0,.334.782A1.3,1.3,0,0,0-22-1.767ZM-13.078,0h-2.549V-13.5h2.549Zm4.772,0h-2.549V-9.51h2.549ZM-11-11.971a1.251,1.251,0,0,1,.382-.94A1.436,1.436,0,0,1-9.58-13.28a1.44,1.44,0,0,1,1.037.369,1.244,1.244,0,0,1,.387.94,1.247,1.247,0,0,1-.391.949,1.443,1.443,0,0,1-1.033.369,1.443,1.443,0,0,1-1.033-.369A1.247,1.247,0,0,1-11-11.971ZM-3.3-2.048H1.354V0H-6.539V-1.547l4.474-5.906H-6.407V-9.51h7.62v1.5ZM8.455,0A2.821,2.821,0,0,1,8.2-.853,3.073,3.073,0,0,1,5.8.176,3.376,3.376,0,0,1,3.485-.633a2.6,2.6,0,0,1-.918-2.039,2.687,2.687,0,0,1,1.121-2.32A5.529,5.529,0,0,1,6.926-5.81H8.095v-.545a1.567,1.567,0,0,0-.338-1.055,1.331,1.331,0,0,0-1.068-.4A1.513,1.513,0,0,0,5.682-7.5a1.045,1.045,0,0,0-.365.844H2.777a2.551,2.551,0,0,1,.51-1.529,3.37,3.37,0,0,1,1.441-1.1,5.253,5.253,0,0,1,2.092-.4A4.15,4.15,0,0,1,9.611-8.8a3.09,3.09,0,0,1,1.033,2.483V-2.2a4.546,4.546,0,0,0,.378,2.048V0Zm-2.1-1.767a2.188,2.188,0,0,0,1.037-.25,1.645,1.645,0,0,0,.7-.672V-4.324H7.146q-1.907,0-2.03,1.318l-.009.149a1.017,1.017,0,0,0,.334.782A1.3,1.3,0,0,0,6.354-1.767Zm10.2-.105a1.666,1.666,0,0,0,1.143-.387,1.355,1.355,0,0,0,.457-1.028h2.382A3.258,3.258,0,0,1,20-1.516,3.48,3.48,0,0,1,18.584-.268a4.442,4.442,0,0,1-1.991.444,4.129,4.129,0,0,1-3.217-1.3A5.13,5.13,0,0,1,12.2-4.7v-.167a5.071,5.071,0,0,1,1.169-3.507,4.08,4.08,0,0,1,3.208-1.31A4,4,0,0,1,19.437-8.67a3.594,3.594,0,0,1,1.094,2.7H18.149a1.731,1.731,0,0,0-.457-1.2,1.528,1.528,0,0,0-1.16-.461,1.531,1.531,0,0,0-1.34.646,3.739,3.739,0,0,0-.453,2.1v.264a3.786,3.786,0,0,0,.448,2.109A1.55,1.55,0,0,0,16.55-1.872ZM24.662,0H22.113V-9.51h2.549Zm-2.7-11.971a1.251,1.251,0,0,1,.382-.94,1.436,1.436,0,0,1,1.042-.369,1.44,1.44,0,0,1,1.037.369,1.244,1.244,0,0,1,.387.94,1.247,1.247,0,0,1-.391.949,1.443,1.443,0,0,1-1.033.369,1.443,1.443,0,0,1-1.033-.369A1.247,1.247,0,0,1,21.964-11.971Zm4.395,7.128A5.64,5.64,0,0,1,26.9-7.365a3.989,3.989,0,0,1,1.569-1.714,4.577,4.577,0,0,1,2.377-.606,4.33,4.33,0,0,1,3.142,1.178,4.727,4.727,0,0,1,1.358,3.2l.018.65a4.97,4.97,0,0,1-1.222,3.511A4.247,4.247,0,0,1,30.867.176a4.268,4.268,0,0,1-3.283-1.318,5.058,5.058,0,0,1-1.226-3.586Zm2.54.185a3.545,3.545,0,0,0,.51,2.07,1.682,1.682,0,0,0,1.459.716,1.686,1.686,0,0,0,1.441-.708,3.879,3.879,0,0,0,.519-2.263A3.51,3.51,0,0,0,32.309-6.9a1.686,1.686,0,0,0-1.459-.729,1.659,1.659,0,0,0-1.441.725A3.944,3.944,0,0,0,28.9-4.658ZM31.351-13.5h2.769l-2.435,2.725H29.619ZM39.27-9.51l.079,1.1a3.32,3.32,0,0,1,2.733-1.274,2.759,2.759,0,0,1,2.25.888,4.142,4.142,0,0,1,.756,2.654V0h-2.54V-6.082A1.648,1.648,0,0,0,42.2-7.255a1.574,1.574,0,0,0-1.169-.365,1.747,1.747,0,0,0-1.608.914V0h-2.54V-9.51ZM55.046-3.595,56.8-9.51h2.725L55.705,1.477l-.211.5a2.9,2.9,0,0,1-2.812,1.863,4,4,0,0,1-1.125-.167V1.749l.387.009a2.09,2.09,0,0,0,1.077-.22,1.443,1.443,0,0,0,.558-.729l.3-.782L50.546-9.51h2.733ZM-57.713,14.49l.079,1.063A3.342,3.342,0,0,1-54.9,14.314a2.536,2.536,0,0,1,2.522,1.45,3.265,3.265,0,0,1,2.856-1.45,2.836,2.836,0,0,1,2.3.9,4.141,4.141,0,0,1,.756,2.711V24h-2.549V17.936a1.811,1.811,0,0,0-.316-1.182,1.4,1.4,0,0,0-1.116-.374,1.585,1.585,0,0,0-1.582,1.09l.009,6.53h-2.54V17.944a1.789,1.789,0,0,0-.325-1.2,1.416,1.416,0,0,0-1.107-.369,1.646,1.646,0,0,0-1.564.9V24H-60.1V14.49ZM-39,24a2.821,2.821,0,0,1-.255-.853,3.073,3.073,0,0,1-2.4,1.028,3.376,3.376,0,0,1-2.316-.809,2.6,2.6,0,0,1-.918-2.039,2.687,2.687,0,0,1,1.121-2.32,5.529,5.529,0,0,1,3.239-.817h1.169v-.545a1.567,1.567,0,0,0-.338-1.055,1.331,1.331,0,0,0-1.068-.4,1.513,1.513,0,0,0-1.006.308,1.045,1.045,0,0,0-.365.844h-2.54a2.551,2.551,0,0,1,.51-1.529,3.37,3.37,0,0,1,1.441-1.1,5.253,5.253,0,0,1,2.092-.4,4.15,4.15,0,0,1,2.791.883,3.09,3.09,0,0,1,1.033,2.483V21.8a4.546,4.546,0,0,0,.378,2.048V24Zm-2.1-1.767a2.188,2.188,0,0,0,1.037-.25,1.645,1.645,0,0,0,.7-.672V19.676h-.949q-1.907,0-2.03,1.318l-.009.149a1.017,1.017,0,0,0,.334.782A1.3,1.3,0,0,0-41.1,22.233Zm8.578-7.743.079,1.1a3.32,3.32,0,0,1,2.733-1.274,2.759,2.759,0,0,1,2.25.888,4.142,4.142,0,0,1,.756,2.654V24h-2.54V17.918a1.648,1.648,0,0,0-.352-1.173,1.574,1.574,0,0,0-1.169-.365,1.747,1.747,0,0,0-1.608.914V24h-2.54V14.49Zm10.784-2.338V14.49h1.626v1.863H-21.74V21.1a1.133,1.133,0,0,0,.2.756,1.015,1.015,0,0,0,.773.229,4.051,4.051,0,0,0,.747-.062v1.925a5.229,5.229,0,0,1-1.538.229,2.425,2.425,0,0,1-2.725-2.7V16.354h-1.389V14.49h1.389V12.152Zm7.418,12.023a4.668,4.668,0,0,1-3.406-1.283,4.561,4.561,0,0,1-1.314-3.419v-.246a5.745,5.745,0,0,1,.554-2.562,4.064,4.064,0,0,1,1.569-1.74,4.4,4.4,0,0,1,2.316-.611,3.947,3.947,0,0,1,3.072,1.23,5,5,0,0,1,1.121,3.489v1.037h-6.056a2.36,2.36,0,0,0,.743,1.494,2.245,2.245,0,0,0,1.569.563,2.742,2.742,0,0,0,2.294-1.063l1.248,1.4a3.813,3.813,0,0,1-1.547,1.261A5.075,5.075,0,0,1-14.322,24.176Zm-.29-7.8a1.591,1.591,0,0,0-1.226.51,2.634,2.634,0,0,0-.6,1.459h3.533v-.2a1.878,1.878,0,0,0-.457-1.305A1.642,1.642,0,0,0-14.612,16.371Zm7.98-1.881.079,1.1a3.32,3.32,0,0,1,2.733-1.274,2.759,2.759,0,0,1,2.25.888,4.142,4.142,0,0,1,.756,2.654V24h-2.54V17.918A1.648,1.648,0,0,0-3.7,16.745a1.574,1.574,0,0,0-1.169-.365,1.747,1.747,0,0,0-1.608.914V24h-2.54V14.49ZM3.792,24H1.244V14.49H3.792Zm-2.7-11.971a1.251,1.251,0,0,1,.382-.94,1.436,1.436,0,0,1,1.042-.369,1.44,1.44,0,0,1,1.037.369,1.342,1.342,0,0,1,0,1.89,1.443,1.443,0,0,1-1.033.369,1.443,1.443,0,0,1-1.033-.369A1.247,1.247,0,0,1,1.094,12.029ZM8.266,14.49l.079,1.063a3.342,3.342,0,0,1,2.733-1.239,2.536,2.536,0,0,1,2.522,1.45,3.265,3.265,0,0,1,2.856-1.45,2.836,2.836,0,0,1,2.3.9,4.141,4.141,0,0,1,.756,2.711V24H16.967V17.936a1.811,1.811,0,0,0-.316-1.182,1.4,1.4,0,0,0-1.116-.374,1.585,1.585,0,0,0-1.582,1.09L13.961,24h-2.54V17.944a1.789,1.789,0,0,0-.325-1.2,1.416,1.416,0,0,0-1.107-.369,1.646,1.646,0,0,0-1.564.9V24H5.884V14.49ZM24.148,24H21.6V14.49h2.549Zm-2.7-11.971a1.251,1.251,0,0,1,.382-.94,1.648,1.648,0,0,1,2.079,0,1.342,1.342,0,0,1,0,1.89,1.629,1.629,0,0,1-2.065,0A1.247,1.247,0,0,1,21.45,12.029Zm9.167,12.146a4.668,4.668,0,0,1-3.406-1.283A4.561,4.561,0,0,1,25.9,19.474v-.246a5.745,5.745,0,0,1,.554-2.562,4.064,4.064,0,0,1,1.569-1.74,4.4,4.4,0,0,1,2.316-.611,3.947,3.947,0,0,1,3.072,1.23,5,5,0,0,1,1.121,3.489v1.037H28.472a2.36,2.36,0,0,0,.743,1.494,2.245,2.245,0,0,0,1.569.563,2.742,2.742,0,0,0,2.294-1.063l1.248,1.4a3.813,3.813,0,0,1-1.547,1.261A5.075,5.075,0,0,1,30.617,24.176Zm-.29-7.8a1.591,1.591,0,0,0-1.226.51,2.634,2.634,0,0,0-.6,1.459h3.533v-.2a1.878,1.878,0,0,0-.457-1.305A1.642,1.642,0,0,0,30.327,16.371Zm7.98-1.881.079,1.1a3.32,3.32,0,0,1,2.733-1.274,2.759,2.759,0,0,1,2.25.888,4.142,4.142,0,0,1,.756,2.654V24h-2.54V17.918a1.648,1.648,0,0,0-.352-1.173,1.574,1.574,0,0,0-1.169-.365,1.747,1.747,0,0,0-1.608.914V24h-2.54V14.49Zm10.784-2.338V14.49h1.626v1.863H49.091V21.1a1.133,1.133,0,0,0,.2.756,1.015,1.015,0,0,0,.773.229,4.051,4.051,0,0,0,.747-.062v1.925a5.229,5.229,0,0,1-1.538.229,2.425,2.425,0,0,1-2.725-2.7V16.354H45.163V14.49h1.389V12.152Zm2.382,7a5.64,5.64,0,0,1,.545-2.522,3.989,3.989,0,0,1,1.569-1.714,4.577,4.577,0,0,1,2.377-.606,4.33,4.33,0,0,1,3.142,1.178,4.727,4.727,0,0,1,1.358,3.2l.018.65a4.97,4.97,0,0,1-1.222,3.511,4.735,4.735,0,0,1-6.561,0,5.058,5.058,0,0,1-1.226-3.586Zm2.54.185a3.545,3.545,0,0,0,.51,2.07,1.833,1.833,0,0,0,2.9.009,3.879,3.879,0,0,0,.519-2.263,3.51,3.51,0,0,0-.519-2.057,1.686,1.686,0,0,0-1.459-.729,1.659,1.659,0,0,0-1.441.725A3.944,3.944,0,0,0,54.013,19.342Z" transform="translate(1062 2769.249)" fill="#12263f"/>
    <path id="Trazado_980112" data-name="Trazado 980112" d="M-49.983,0V-12.8h3.938a5.98,5.98,0,0,1,3.019.76,5.3,5.3,0,0,1,2.079,2.162A6.669,6.669,0,0,1-40.2-6.688V-6.1a6.688,6.688,0,0,1-.734,3.173A5.256,5.256,0,0,1-43-.773,6.025,6.025,0,0,1-46.02,0Zm2.637-10.661v8.543h1.274a2.863,2.863,0,0,0,2.364-1.011,4.567,4.567,0,0,0,.835-2.892V-6.7a4.64,4.64,0,0,0-.809-2.958,2.854,2.854,0,0,0-2.364-1.006ZM-35.771,0H-38.32V-9.51h2.549Zm-2.7-11.971a1.251,1.251,0,0,1,.382-.94,1.436,1.436,0,0,1,1.042-.369,1.44,1.44,0,0,1,1.037.369,1.244,1.244,0,0,1,.387.94,1.247,1.247,0,0,1-.391.949,1.443,1.443,0,0,1-1.033.369,1.443,1.443,0,0,1-1.033-.369A1.247,1.247,0,0,1-38.47-11.971Zm9.94,9.343a.818.818,0,0,0-.461-.734,5.241,5.241,0,0,0-1.481-.479q-3.393-.712-3.393-2.883a2.613,2.613,0,0,1,1.05-2.114,4.237,4.237,0,0,1,2.747-.848,4.56,4.56,0,0,1,2.9.853,2.687,2.687,0,0,1,1.085,2.215h-2.54a1.229,1.229,0,0,0-.352-.9,1.488,1.488,0,0,0-1.1-.356,1.52,1.52,0,0,0-.993.29.916.916,0,0,0-.352.738.783.783,0,0,0,.4.681,4.114,4.114,0,0,0,1.349.448,11.019,11.019,0,0,1,1.6.426A2.628,2.628,0,0,1-26.06-2.733a2.481,2.481,0,0,1-1.116,2.1,4.815,4.815,0,0,1-2.883.8A5.029,5.029,0,0,1-32.181-.25a3.561,3.561,0,0,1-1.455-1.169,2.716,2.716,0,0,1-.527-1.6h2.408a1.326,1.326,0,0,0,.5,1.037,1.987,1.987,0,0,0,1.248.36A1.839,1.839,0,0,0-28.9-1.9.861.861,0,0,0-28.529-2.628Zm7.146-9.22V-9.51h1.626v1.863h-1.626V-2.9a1.133,1.133,0,0,0,.2.756,1.015,1.015,0,0,0,.773.229,4.051,4.051,0,0,0,.747-.062V-.053A5.229,5.229,0,0,1-21.2.176a2.425,2.425,0,0,1-2.725-2.7V-7.646h-1.389V-9.51h1.389v-2.338ZM-13-7.128a6.9,6.9,0,0,0-.914-.07,1.86,1.86,0,0,0-1.89.976V0h-2.54V-9.51h2.4l.07,1.134a2.354,2.354,0,0,1,2.118-1.31,2.662,2.662,0,0,1,.791.114ZM-9.1,0h-2.549V-9.51H-9.1Zm-2.7-11.971a1.251,1.251,0,0,1,.382-.94,1.436,1.436,0,0,1,1.042-.369,1.44,1.44,0,0,1,1.037.369,1.244,1.244,0,0,1,.387.94,1.247,1.247,0,0,1-.391.949,1.443,1.443,0,0,1-1.033.369,1.443,1.443,0,0,1-1.033-.369A1.247,1.247,0,0,1-11.795-11.971Zm13.359,7.3A5.758,5.758,0,0,1,.589-1.1,3.231,3.231,0,0,1-2.136.176a2.969,2.969,0,0,1-2.47-1.187L-4.72,0H-7V-13.5h2.54v4.843A2.893,2.893,0,0,1-2.153-9.686,3.258,3.258,0,0,1,.576-8.407a5.767,5.767,0,0,1,.989,3.6Zm-2.54-.185a3.783,3.783,0,0,0-.457-2.1A1.545,1.545,0,0,0-2.795-7.62a1.676,1.676,0,0,0-1.67.993v3.753a1.7,1.7,0,0,0,1.688,1A1.568,1.568,0,0,0-1.16-3.085,6.257,6.257,0,0,0-.976-4.852Zm9.8,3.885A3.185,3.185,0,0,1,6.223.176,3,3,0,0,1,3.889-.7a3.752,3.752,0,0,1-.822-2.575V-9.51h2.54v6.144q0,1.485,1.354,1.485a1.835,1.835,0,0,0,1.775-.9V-9.51h2.549V0H8.895Zm8.332-.905A1.666,1.666,0,0,0,18.3-2.259a1.355,1.355,0,0,0,.457-1.028h2.382a3.258,3.258,0,0,1-.527,1.771A3.48,3.48,0,0,1,19.191-.268,4.442,4.442,0,0,1,17.2.176a4.129,4.129,0,0,1-3.217-1.3A5.13,5.13,0,0,1,12.806-4.7v-.167a5.071,5.071,0,0,1,1.169-3.507,4.08,4.08,0,0,1,3.208-1.31A4,4,0,0,1,20.043-8.67a3.594,3.594,0,0,1,1.094,2.7H18.756a1.731,1.731,0,0,0-.457-1.2,1.528,1.528,0,0,0-1.16-.461,1.531,1.531,0,0,0-1.34.646,3.739,3.739,0,0,0-.453,2.1v.264a3.786,3.786,0,0,0,.448,2.109A1.55,1.55,0,0,0,17.156-1.872ZM25.269,0H22.72V-9.51h2.549Zm-2.7-11.971a1.251,1.251,0,0,1,.382-.94,1.436,1.436,0,0,1,1.042-.369,1.44,1.44,0,0,1,1.037.369,1.244,1.244,0,0,1,.387.94,1.247,1.247,0,0,1-.391.949,1.443,1.443,0,0,1-1.033.369,1.443,1.443,0,0,1-1.033-.369A1.247,1.247,0,0,1,22.57-11.971Zm4.395,7.128a5.64,5.64,0,0,1,.545-2.522,3.989,3.989,0,0,1,1.569-1.714,4.577,4.577,0,0,1,2.377-.606A4.33,4.33,0,0,1,34.6-8.508a4.727,4.727,0,0,1,1.358,3.2l.018.65a4.97,4.97,0,0,1-1.222,3.511A4.247,4.247,0,0,1,31.474.176a4.268,4.268,0,0,1-3.283-1.318,5.058,5.058,0,0,1-1.226-3.586Zm2.54.185a3.545,3.545,0,0,0,.51,2.07,1.682,1.682,0,0,0,1.459.716,1.686,1.686,0,0,0,1.441-.708,3.879,3.879,0,0,0,.519-2.263A3.51,3.51,0,0,0,32.915-6.9a1.686,1.686,0,0,0-1.459-.729,1.659,1.659,0,0,0-1.441.725A3.944,3.944,0,0,0,29.5-4.658ZM31.957-13.5h2.769l-2.435,2.725H30.226Zm7.919,3.99.079,1.1a3.32,3.32,0,0,1,2.733-1.274,2.759,2.759,0,0,1,2.25.888,4.142,4.142,0,0,1,.756,2.654V0h-2.54V-6.082A1.648,1.648,0,0,0,42.8-7.255a1.574,1.574,0,0,0-1.169-.365,1.747,1.747,0,0,0-1.608.914V0h-2.54V-9.51Zm-70.9,29.915,1.758-5.915h2.725l-3.823,10.986-.211.5a2.9,2.9,0,0,1-2.812,1.863,4,4,0,0,1-1.125-.167V25.749l.387.009a2.09,2.09,0,0,0,1.077-.22,1.443,1.443,0,0,0,.558-.729l.3-.782-3.331-9.536h2.733ZM-15.548,24a2.821,2.821,0,0,1-.255-.853,3.073,3.073,0,0,1-2.4,1.028,3.376,3.376,0,0,1-2.316-.809,2.6,2.6,0,0,1-.918-2.039,2.687,2.687,0,0,1,1.121-2.32,5.529,5.529,0,0,1,3.239-.817h1.169v-.545a1.567,1.567,0,0,0-.338-1.055,1.331,1.331,0,0,0-1.068-.4,1.513,1.513,0,0,0-1.006.308,1.045,1.045,0,0,0-.365.844h-2.54a2.551,2.551,0,0,1,.51-1.529,3.37,3.37,0,0,1,1.441-1.1,5.253,5.253,0,0,1,2.092-.4,4.15,4.15,0,0,1,2.791.883,3.09,3.09,0,0,1,1.033,2.483V21.8a4.546,4.546,0,0,0,.378,2.048V24Zm-2.1-1.767a2.188,2.188,0,0,0,1.037-.25,1.645,1.645,0,0,0,.7-.672V19.676h-.949q-1.907,0-2.03,1.318l-.009.149a1.017,1.017,0,0,0,.334.782A1.3,1.3,0,0,0-17.648,22.233Zm10.2-.105a1.666,1.666,0,0,0,1.143-.387,1.355,1.355,0,0,0,.457-1.028h2.382A3.258,3.258,0,0,1-4,22.484a3.48,3.48,0,0,1-1.419,1.248,4.442,4.442,0,0,1-1.991.444,4.129,4.129,0,0,1-3.217-1.3A5.13,5.13,0,0,1-11.8,19.3v-.167a5.071,5.071,0,0,1,1.169-3.507,4.08,4.08,0,0,1,3.208-1.31A4,4,0,0,1-4.566,15.33a3.594,3.594,0,0,1,1.094,2.7H-5.854a1.731,1.731,0,0,0-.457-1.2,1.528,1.528,0,0,0-1.16-.461,1.531,1.531,0,0,0-1.34.646,3.739,3.739,0,0,0-.453,2.1v.264a3.786,3.786,0,0,0,.448,2.109A1.55,1.55,0,0,0-7.453,22.128Zm9.387,0a1.666,1.666,0,0,0,1.143-.387,1.355,1.355,0,0,0,.457-1.028H5.915a3.258,3.258,0,0,1-.527,1.771,3.48,3.48,0,0,1-1.419,1.248,4.442,4.442,0,0,1-1.991.444,4.129,4.129,0,0,1-3.217-1.3A5.13,5.13,0,0,1-2.417,19.3v-.167a5.071,5.071,0,0,1,1.169-3.507,4.08,4.08,0,0,1,3.208-1.31A4,4,0,0,1,4.821,15.33a3.594,3.594,0,0,1,1.094,2.7H3.533a1.731,1.731,0,0,0-.457-1.2,1.528,1.528,0,0,0-1.16-.461,1.531,1.531,0,0,0-1.34.646,3.739,3.739,0,0,0-.453,2.1v.264a3.786,3.786,0,0,0,.448,2.109A1.55,1.55,0,0,0,1.934,22.128Zm9.809,2.048a4.668,4.668,0,0,1-3.406-1.283,4.561,4.561,0,0,1-1.314-3.419v-.246a5.745,5.745,0,0,1,.554-2.562,4.064,4.064,0,0,1,1.569-1.74,4.4,4.4,0,0,1,2.316-.611,3.947,3.947,0,0,1,3.072,1.23,5,5,0,0,1,1.121,3.489v1.037H9.6a2.36,2.36,0,0,0,.743,1.494,2.245,2.245,0,0,0,1.569.563A2.742,2.742,0,0,0,14.2,21.064l1.248,1.4A3.813,3.813,0,0,1,13.9,23.723,5.075,5.075,0,0,1,11.742,24.176Zm-.29-7.8a1.591,1.591,0,0,0-1.226.51,2.634,2.634,0,0,0-.6,1.459h3.533v-.2a1.878,1.878,0,0,0-.457-1.305A1.642,1.642,0,0,0,11.452,16.371Zm10.793,5a.818.818,0,0,0-.461-.734,5.241,5.241,0,0,0-1.481-.479q-3.393-.712-3.393-2.883a2.613,2.613,0,0,1,1.05-2.114,4.237,4.237,0,0,1,2.747-.848,4.56,4.56,0,0,1,2.9.853,2.687,2.687,0,0,1,1.085,2.215h-2.54a1.229,1.229,0,0,0-.352-.9,1.488,1.488,0,0,0-1.1-.356,1.52,1.52,0,0,0-.993.29.916.916,0,0,0-.352.738.783.783,0,0,0,.4.681,4.114,4.114,0,0,0,1.349.448,11.019,11.019,0,0,1,1.6.426,2.628,2.628,0,0,1,2.013,2.558,2.481,2.481,0,0,1-1.116,2.1,4.815,4.815,0,0,1-2.883.8,5.029,5.029,0,0,1-2.123-.426,3.561,3.561,0,0,1-1.455-1.169,2.716,2.716,0,0,1-.527-1.6H19.02a1.326,1.326,0,0,0,.5,1.037,1.987,1.987,0,0,0,1.248.36,1.839,1.839,0,0,0,1.1-.277A.861.861,0,0,0,22.245,21.372Zm3.709-2.215a5.64,5.64,0,0,1,.545-2.522,3.989,3.989,0,0,1,1.569-1.714,4.577,4.577,0,0,1,2.377-.606,4.33,4.33,0,0,1,3.142,1.178,4.727,4.727,0,0,1,1.358,3.2l.018.65a4.97,4.97,0,0,1-1.222,3.511,4.247,4.247,0,0,1-3.278,1.323,4.268,4.268,0,0,1-3.283-1.318,5.058,5.058,0,0,1-1.226-3.586Zm2.54.185a3.545,3.545,0,0,0,.51,2.07,1.833,1.833,0,0,0,2.9.009,3.879,3.879,0,0,0,.519-2.263A3.51,3.51,0,0,0,31.9,17.1a1.686,1.686,0,0,0-1.459-.729A1.659,1.659,0,0,0,29,17.1,3.944,3.944,0,0,0,28.494,19.342Z" transform="translate(921 2609.249)" fill="#12263f"/>
    <path id="Trazado_980113" data-name="Trazado 980113" d="M-86.061-4.1a1.654,1.654,0,0,0-.645-1.4,8.454,8.454,0,0,0-2.32-1.031,16.449,16.449,0,0,1-2.653-1.069,4.335,4.335,0,0,1-2.664-3.878,3.777,3.777,0,0,1,.714-2.261A4.66,4.66,0,0,1-91.577-15.3a7.723,7.723,0,0,1,3-.559,7.029,7.029,0,0,1,2.986.607,4.755,4.755,0,0,1,2.036,1.713,4.483,4.483,0,0,1,.725,2.514H-86.05a2.109,2.109,0,0,0-.677-1.67,2.782,2.782,0,0,0-1.9-.6,2.972,2.972,0,0,0-1.837.5,1.576,1.576,0,0,0-.655,1.316,1.509,1.509,0,0,0,.768,1.278,8.678,8.678,0,0,0,2.261.967,9.77,9.77,0,0,1,4.007,2.052,4.086,4.086,0,0,1,1.257,3.051A3.764,3.764,0,0,1-84.364-.94,6.725,6.725,0,0,1-88.5.215a7.986,7.986,0,0,1-3.287-.661,5.2,5.2,0,0,1-2.261-1.81,4.635,4.635,0,0,1-.779-2.664h3.233q0,2.589,3.094,2.589A3.01,3.01,0,0,0-86.706-2.8,1.52,1.52,0,0,0-86.061-4.1ZM-77.575,0H-80.69V-11.623h3.115Zm-3.3-14.631a1.529,1.529,0,0,1,.467-1.149,1.755,1.755,0,0,1,1.273-.451,1.759,1.759,0,0,1,1.268.451,1.52,1.52,0,0,1,.473,1.149,1.524,1.524,0,0,1-.478,1.16,1.764,1.764,0,0,1-1.262.451,1.764,1.764,0,0,1-1.262-.451A1.524,1.524,0,0,1-80.873-14.631ZM-68.723-3.212a1,1,0,0,0-.564-.9,6.406,6.406,0,0,0-1.81-.585q-4.146-.87-4.146-3.523A3.194,3.194,0,0,1-73.96-10.8,5.178,5.178,0,0,1-70.6-11.838a5.573,5.573,0,0,1,3.54,1.042,3.284,3.284,0,0,1,1.327,2.707h-3.1a1.5,1.5,0,0,0-.43-1.1,1.818,1.818,0,0,0-1.343-.435,1.858,1.858,0,0,0-1.214.354,1.119,1.119,0,0,0-.43.9.957.957,0,0,0,.489.833,5.028,5.028,0,0,0,1.649.548,13.468,13.468,0,0,1,1.955.521A3.212,3.212,0,0,1-65.7-3.341,3.032,3.032,0,0,1-67.069-.768a5.885,5.885,0,0,1-3.523.983,6.147,6.147,0,0,1-2.594-.521,4.353,4.353,0,0,1-1.778-1.429,3.32,3.32,0,0,1-.645-1.96h2.943a1.621,1.621,0,0,0,.612,1.268,2.429,2.429,0,0,0,1.525.44,2.248,2.248,0,0,0,1.348-.338A1.053,1.053,0,0,0-68.723-3.212ZM-59.99-14.48v2.857H-58v2.277H-59.99v5.8a1.385,1.385,0,0,0,.247.924,1.241,1.241,0,0,0,.945.279,4.951,4.951,0,0,0,.913-.075V-.064a6.391,6.391,0,0,1-1.88.279q-3.266,0-3.33-3.3V-9.346h-1.7v-2.277h1.7V-14.48Zm9.066,14.7a5.706,5.706,0,0,1-4.163-1.568,5.575,5.575,0,0,1-1.606-4.179v-.3a7.021,7.021,0,0,1,.677-3.131A4.967,4.967,0,0,1-54.1-11.091a5.382,5.382,0,0,1,2.831-.747,4.824,4.824,0,0,1,3.754,1.5,6.111,6.111,0,0,1,1.37,4.265V-4.8h-7.4a2.884,2.884,0,0,0,.908,1.826,2.744,2.744,0,0,0,1.917.688,3.351,3.351,0,0,0,2.8-1.3L-46.39-1.88A4.66,4.66,0,0,1-48.281-.338,6.2,6.2,0,0,1-50.923.215Zm-.354-9.539a1.944,1.944,0,0,0-1.5.623,3.219,3.219,0,0,0-.736,1.783h4.318v-.247a2.3,2.3,0,0,0-.559-1.6A2.006,2.006,0,0,0-51.278-9.324Zm9.808-2.3.1,1.3a4.085,4.085,0,0,1,3.341-1.515,3.1,3.1,0,0,1,3.083,1.772,3.991,3.991,0,0,1,3.491-1.772,3.467,3.467,0,0,1,2.814,1.1,5.061,5.061,0,0,1,.924,3.314V0h-3.115V-7.412a2.213,2.213,0,0,0-.387-1.445,1.714,1.714,0,0,0-1.364-.457A1.938,1.938,0,0,0-34.52-7.981L-34.509,0h-3.1V-7.4a2.186,2.186,0,0,0-.4-1.461,1.731,1.731,0,0,0-1.354-.451,2.012,2.012,0,0,0-1.912,1.1V0h-3.1V-11.623ZM-18.6,0a3.448,3.448,0,0,1-.312-1.042A3.756,3.756,0,0,1-21.844.215a4.127,4.127,0,0,1-2.831-.988A3.178,3.178,0,0,1-25.8-3.266,3.285,3.285,0,0,1-24.428-6.1a6.758,6.758,0,0,1,3.958-1h1.429v-.666a1.915,1.915,0,0,0-.414-1.289,1.627,1.627,0,0,0-1.305-.483,1.85,1.85,0,0,0-1.23.376,1.277,1.277,0,0,0-.446,1.031h-3.1A3.118,3.118,0,0,1-24.917-10a4.118,4.118,0,0,1,1.762-1.348,6.42,6.42,0,0,1,2.557-.489,5.073,5.073,0,0,1,3.411,1.08,3.777,3.777,0,0,1,1.262,3.035v5.038a5.557,5.557,0,0,0,.462,2.5V0Zm-2.567-2.159A2.674,2.674,0,0,0-19.9-2.465a2.011,2.011,0,0,0,.859-.822v-2H-20.2q-2.331,0-2.481,1.611l-.011.183a1.243,1.243,0,0,0,.408.956A1.586,1.586,0,0,0-21.167-2.159ZM-8.545-5.9a7,7,0,0,1,1.219-4.329,3.956,3.956,0,0,1,3.335-1.611,3.56,3.56,0,0,1,2.8,1.268V-16.5H1.928V0h-2.8l-.15-1.235A3.653,3.653,0,0,1-4.012.215,3.945,3.945,0,0,1-7.3-1.4,7.23,7.23,0,0,1-8.545-5.9Zm3.1.226a4.576,4.576,0,0,0,.569,2.5,1.855,1.855,0,0,0,1.654.87,2.078,2.078,0,0,0,2.03-1.214V-8.1A2.048,2.048,0,0,0-3.2-9.313Q-5.441-9.313-5.441-5.672ZM9.684.215A5.706,5.706,0,0,1,5.521-1.354,5.575,5.575,0,0,1,3.916-5.532v-.3a7.021,7.021,0,0,1,.677-3.131A4.967,4.967,0,0,1,6.51-11.091a5.382,5.382,0,0,1,2.831-.747,4.824,4.824,0,0,1,3.754,1.5,6.111,6.111,0,0,1,1.37,4.265V-4.8h-7.4a2.884,2.884,0,0,0,.908,1.826,2.744,2.744,0,0,0,1.917.688,3.351,3.351,0,0,0,2.8-1.3L14.217-1.88A4.66,4.66,0,0,1,12.327-.338,6.2,6.2,0,0,1,9.684.215ZM9.33-9.324a1.944,1.944,0,0,0-1.5.623A3.219,3.219,0,0,0,7.1-6.918h4.318v-.247a2.3,2.3,0,0,0-.559-1.6A2.006,2.006,0,0,0,9.33-9.324ZM26.539-2.288a2.036,2.036,0,0,0,1.4-.473,1.656,1.656,0,0,0,.559-1.257H31.4a3.982,3.982,0,0,1-.645,2.165A4.253,4.253,0,0,1,29.025-.328a5.43,5.43,0,0,1-2.433.542A5.046,5.046,0,0,1,22.661-1.37a6.27,6.27,0,0,1-1.439-4.377v-.2a6.2,6.2,0,0,1,1.429-4.286,4.987,4.987,0,0,1,3.921-1.6,4.889,4.889,0,0,1,3.5,1.241,4.393,4.393,0,0,1,1.337,3.3H28.494a2.116,2.116,0,0,0-.559-1.466,1.868,1.868,0,0,0-1.418-.564,1.871,1.871,0,0,0-1.638.79,4.57,4.57,0,0,0-.553,2.562v.322a4.628,4.628,0,0,0,.548,2.578A1.894,1.894,0,0,0,26.539-2.288Zm6.155-3.631A6.893,6.893,0,0,1,33.36-9,4.876,4.876,0,0,1,35.277-11.1a5.594,5.594,0,0,1,2.906-.741,5.293,5.293,0,0,1,3.84,1.439,5.777,5.777,0,0,1,1.66,3.91l.021.795A6.075,6.075,0,0,1,42.211-1.4,5.19,5.19,0,0,1,38.2.215,5.216,5.216,0,0,1,34.192-1.4a6.182,6.182,0,0,1-1.5-4.383Zm3.1.226a4.333,4.333,0,0,0,.623,2.53,2.056,2.056,0,0,0,1.783.875,2.061,2.061,0,0,0,1.762-.865A4.741,4.741,0,0,0,40.6-5.919a4.29,4.29,0,0,0-.634-2.514,2.061,2.061,0,0,0-1.783-.892,2.028,2.028,0,0,0-1.762.886A4.821,4.821,0,0,0,35.8-5.693Zm12.676-5.93.1,1.343a4.058,4.058,0,0,1,3.341-1.558,3.372,3.372,0,0,1,2.75,1.085,5.062,5.062,0,0,1,.924,3.244V0h-3.1V-7.434a2.014,2.014,0,0,0-.43-1.434,1.924,1.924,0,0,0-1.429-.446A2.136,2.136,0,0,0,48.657-8.2V0h-3.1V-11.623ZM61.655-14.48v2.857h1.987v2.277H61.655v5.8a1.385,1.385,0,0,0,.247.924,1.241,1.241,0,0,0,.945.279,4.951,4.951,0,0,0,.913-.075V-.064a6.391,6.391,0,0,1-1.88.279q-3.266,0-3.33-3.3V-9.346h-1.7v-2.277h1.7V-14.48ZM71.9-8.712A8.434,8.434,0,0,0,70.786-8.8a2.274,2.274,0,0,0-2.31,1.192V0h-3.1V-11.623H68.3l.086,1.386a2.877,2.877,0,0,1,2.589-1.6,3.253,3.253,0,0,1,.967.14Zm.623,2.793A6.893,6.893,0,0,1,73.192-9,4.876,4.876,0,0,1,75.109-11.1a5.594,5.594,0,0,1,2.906-.741,5.293,5.293,0,0,1,3.84,1.439,5.777,5.777,0,0,1,1.66,3.91l.021.795A6.075,6.075,0,0,1,82.043-1.4,5.19,5.19,0,0,1,78.037.215,5.216,5.216,0,0,1,74.024-1.4a6.182,6.182,0,0,1-1.5-4.383Zm3.1.226a4.333,4.333,0,0,0,.623,2.53,2.056,2.056,0,0,0,1.783.875A2.061,2.061,0,0,0,79.8-3.153a4.741,4.741,0,0,0,.634-2.766A4.29,4.29,0,0,0,79.8-8.433a2.061,2.061,0,0,0-1.783-.892,2.028,2.028,0,0,0-1.762.886A4.821,4.821,0,0,0,75.63-5.693ZM88.725,0H85.61V-16.5h3.115ZM-62.246,18.1a7,7,0,0,1,1.219-4.329,3.956,3.956,0,0,1,3.335-1.611,3.56,3.56,0,0,1,2.8,1.268V7.5h3.115V24h-2.8l-.15-1.235a3.653,3.653,0,0,1-2.986,1.45A3.945,3.945,0,0,1-61,22.6,7.23,7.23,0,0,1-62.246,18.1Zm3.1.226a4.576,4.576,0,0,0,.569,2.5,1.855,1.855,0,0,0,1.654.87,2.078,2.078,0,0,0,2.03-1.214V15.9A2.048,2.048,0,0,0-56.9,14.687Q-59.141,14.687-59.141,18.328Zm15.125,5.887a5.706,5.706,0,0,1-4.163-1.568,5.575,5.575,0,0,1-1.606-4.179v-.3a7.021,7.021,0,0,1,.677-3.131,4.967,4.967,0,0,1,1.917-2.127,5.382,5.382,0,0,1,2.831-.747,4.824,4.824,0,0,1,3.754,1.5,6.111,6.111,0,0,1,1.37,4.265V19.2h-7.4a2.884,2.884,0,0,0,.908,1.826,2.744,2.744,0,0,0,1.917.688,3.351,3.351,0,0,0,2.8-1.3l1.525,1.708a4.66,4.66,0,0,1-1.891,1.542A6.2,6.2,0,0,1-44.016,24.215Zm-.354-9.539a1.944,1.944,0,0,0-1.5.623,3.219,3.219,0,0,0-.736,1.783h4.318v-.247a2.3,2.3,0,0,0-.559-1.6A2.006,2.006,0,0,0-44.371,14.676Zm16.726,5.532,2.159-7.831h3.244L-26.163,24h-2.965l-3.921-11.623H-29.8Zm12.117,4.007a5.706,5.706,0,0,1-4.163-1.568A5.575,5.575,0,0,1-21.3,18.468v-.3a7.021,7.021,0,0,1,.677-3.131A4.967,4.967,0,0,1-18.7,12.909a5.382,5.382,0,0,1,2.831-.747,4.824,4.824,0,0,1,3.754,1.5,6.111,6.111,0,0,1,1.37,4.265V19.2h-7.4a2.884,2.884,0,0,0,.908,1.826,2.744,2.744,0,0,0,1.917.688,3.351,3.351,0,0,0,2.8-1.3l1.525,1.708a4.66,4.66,0,0,1-1.891,1.542A6.2,6.2,0,0,1-15.528,24.215Zm-.354-9.539a1.944,1.944,0,0,0-1.5.623,3.219,3.219,0,0,0-.736,1.783H-13.8v-.247a2.3,2.3,0,0,0-.559-1.6A2.006,2.006,0,0,0-15.882,14.676Zm13.428.612A8.434,8.434,0,0,0-3.572,15.2a2.274,2.274,0,0,0-2.31,1.192V24h-3.1V12.377h2.933l.086,1.386a2.877,2.877,0,0,1,2.589-1.6,3.253,3.253,0,0,1,.967.14Zm7.788,5.5a1,1,0,0,0-.564-.9,6.406,6.406,0,0,0-1.81-.585q-4.146-.87-4.146-3.523A3.194,3.194,0,0,1,.1,13.2a5.178,5.178,0,0,1,3.357-1.037A5.573,5.573,0,0,1,6.993,13.2,3.284,3.284,0,0,1,8.32,15.911h-3.1a1.5,1.5,0,0,0-.43-1.1,1.818,1.818,0,0,0-1.343-.435,1.858,1.858,0,0,0-1.214.354,1.119,1.119,0,0,0-.43.9.957.957,0,0,0,.489.833,5.028,5.028,0,0,0,1.649.548,13.468,13.468,0,0,1,1.955.521,3.212,3.212,0,0,1,2.46,3.126,3.032,3.032,0,0,1-1.364,2.573,5.885,5.885,0,0,1-3.523.983A6.147,6.147,0,0,1,.87,23.694,4.353,4.353,0,0,1-.908,22.265a3.32,3.32,0,0,1-.645-1.96H1.391A1.621,1.621,0,0,0,2,21.572a2.429,2.429,0,0,0,1.525.44,2.248,2.248,0,0,0,1.348-.338A1.053,1.053,0,0,0,5.333,20.788ZM13.626,24H10.511V12.377h3.115Zm-3.3-14.631A1.529,1.529,0,0,1,10.8,8.22a1.755,1.755,0,0,1,1.273-.451,1.759,1.759,0,0,1,1.268.451,1.52,1.52,0,0,1,.473,1.149,1.524,1.524,0,0,1-.478,1.16,1.764,1.764,0,0,1-1.262.451,1.764,1.764,0,0,1-1.262-.451A1.524,1.524,0,0,1,10.329,9.369ZM15.7,18.081A6.893,6.893,0,0,1,16.366,15,4.876,4.876,0,0,1,18.283,12.9a5.594,5.594,0,0,1,2.906-.741,5.293,5.293,0,0,1,3.84,1.439,5.777,5.777,0,0,1,1.66,3.91l.021.795A6.075,6.075,0,0,1,25.217,22.6a5.19,5.19,0,0,1-4.007,1.617A5.216,5.216,0,0,1,17.2,22.6a6.182,6.182,0,0,1-1.5-4.383Zm3.1.226a4.333,4.333,0,0,0,.623,2.53,2.24,2.24,0,0,0,3.545.011,4.741,4.741,0,0,0,.634-2.766,4.29,4.29,0,0,0-.634-2.514,2.061,2.061,0,0,0-1.783-.892,2.028,2.028,0,0,0-1.762.886A4.821,4.821,0,0,0,18.8,18.307Zm12.676-5.93.1,1.343a4.058,4.058,0,0,1,3.341-1.558,3.372,3.372,0,0,1,2.75,1.085,5.062,5.062,0,0,1,.924,3.244V24h-3.1V16.566a2.014,2.014,0,0,0-.43-1.434,1.924,1.924,0,0,0-1.429-.446A2.136,2.136,0,0,0,31.663,15.8V24h-3.1V12.377ZM46.293,24.215a5.706,5.706,0,0,1-4.163-1.568,5.575,5.575,0,0,1-1.606-4.179v-.3a7.021,7.021,0,0,1,.677-3.131,4.967,4.967,0,0,1,1.917-2.127,5.382,5.382,0,0,1,2.831-.747,4.824,4.824,0,0,1,3.754,1.5,6.111,6.111,0,0,1,1.37,4.265V19.2h-7.4a2.884,2.884,0,0,0,.908,1.826,2.744,2.744,0,0,0,1.917.688,3.351,3.351,0,0,0,2.8-1.3l1.525,1.708a4.66,4.66,0,0,1-1.891,1.542A6.2,6.2,0,0,1,46.293,24.215Zm-.354-9.539a1.944,1.944,0,0,0-1.5.623,3.219,3.219,0,0,0-.736,1.783h4.318v-.247a2.3,2.3,0,0,0-.559-1.6A2.006,2.006,0,0,0,45.939,14.676ZM59.13,20.788a1,1,0,0,0-.564-.9,6.406,6.406,0,0,0-1.81-.585q-4.146-.87-4.146-3.523A3.194,3.194,0,0,1,53.894,13.2a5.178,5.178,0,0,1,3.357-1.037A5.573,5.573,0,0,1,60.79,13.2a3.284,3.284,0,0,1,1.327,2.707h-3.1a1.5,1.5,0,0,0-.43-1.1,1.818,1.818,0,0,0-1.343-.435,1.858,1.858,0,0,0-1.214.354,1.119,1.119,0,0,0-.43.9.957.957,0,0,0,.489.833,5.028,5.028,0,0,0,1.649.548,13.468,13.468,0,0,1,1.955.521,3.212,3.212,0,0,1,2.46,3.126,3.032,3.032,0,0,1-1.364,2.573,5.885,5.885,0,0,1-3.523.983,6.147,6.147,0,0,1-2.594-.521,4.353,4.353,0,0,1-1.778-1.429,3.32,3.32,0,0,1-.645-1.96h2.943a1.621,1.621,0,0,0,.612,1.268,2.429,2.429,0,0,0,1.525.44,2.248,2.248,0,0,0,1.348-.338A1.053,1.053,0,0,0,59.13,20.788Z" transform="translate(801 2821.249)" fill="#12263f"/>
    <path id="Trazado_980114" data-name="Trazado 980114" d="M0,0H715V51H0Z" transform="translate(443 2890)" fill="#6c5ce7"/>
    <path id="Trazado_980115" data-name="Trazado 980115" d="M3.359-4.008V0H1.016V-11.375H5.453a5.134,5.134,0,0,1,2.254.469A3.454,3.454,0,0,1,9.2-9.574a3.714,3.714,0,0,1,.523,1.965A3.266,3.266,0,0,1,8.582-4.973a4.767,4.767,0,0,1-3.168.965Zm0-1.9H5.453a2.059,2.059,0,0,0,1.418-.437,1.591,1.591,0,0,0,.488-1.25,1.876,1.876,0,0,0-.492-1.352,1.839,1.839,0,0,0-1.359-.531H3.359Zm7.375,1.6a5.013,5.013,0,0,1,.484-2.242A3.546,3.546,0,0,1,12.613-8.07a4.069,4.069,0,0,1,2.113-.539A3.849,3.849,0,0,1,17.52-7.562a4.2,4.2,0,0,1,1.207,2.844l.016.578A4.418,4.418,0,0,1,17.656-1.02,3.775,3.775,0,0,1,14.742.156a3.793,3.793,0,0,1-2.918-1.172A4.5,4.5,0,0,1,10.734-4.2Zm2.258.164a3.151,3.151,0,0,0,.453,1.84,1.5,1.5,0,0,0,1.3.637,1.5,1.5,0,0,0,1.281-.629A3.448,3.448,0,0,0,16.484-4.3a3.12,3.12,0,0,0-.461-1.828,1.5,1.5,0,0,0-1.3-.648,1.475,1.475,0,0,0-1.281.645A3.506,3.506,0,0,0,12.992-4.141ZM22.516,0H20.25V-12h2.266Zm4.3,0H24.555V-8.453h2.258Zm-.664-11.883h2.461L26.445-9.461H24.609Zm5.313,1.352v2.078h1.445V-6.8H31.461v4.219a1.007,1.007,0,0,0,.18.672.9.9,0,0,0,.688.2,3.6,3.6,0,0,0,.664-.055V-.047a4.648,4.648,0,0,1-1.367.2,2.156,2.156,0,0,1-2.422-2.4V-6.8H27.969V-8.453H29.2v-2.078ZM36.547,0H34.281V-8.453h2.266Zm-2.4-10.641a1.112,1.112,0,0,1,.34-.836,1.277,1.277,0,0,1,.926-.328,1.28,1.28,0,0,1,.922.328,1.105,1.105,0,0,1,.344.836,1.108,1.108,0,0,1-.348.844,1.283,1.283,0,0,1-.918.328A1.283,1.283,0,0,1,34.5-9.8,1.108,1.108,0,0,1,34.148-10.641Zm7.773,8.977a1.481,1.481,0,0,0,1.016-.344,1.2,1.2,0,0,0,.406-.914h2.117a2.9,2.9,0,0,1-.469,1.574A3.093,3.093,0,0,1,43.73-.238a3.949,3.949,0,0,1-1.77.395A3.67,3.67,0,0,1,39.1-1,4.56,4.56,0,0,1,38.055-4.18v-.148a4.508,4.508,0,0,1,1.039-3.117,3.627,3.627,0,0,1,2.852-1.164,3.555,3.555,0,0,1,2.543.9,3.2,3.2,0,0,1,.973,2.4H43.344a1.539,1.539,0,0,0-.406-1.066,1.358,1.358,0,0,0-1.031-.41,1.361,1.361,0,0,0-1.191.574,3.324,3.324,0,0,0-.4,1.863v.234a3.366,3.366,0,0,0,.4,1.875A1.378,1.378,0,0,0,41.922-1.664ZM51.648,0a2.507,2.507,0,0,1-.227-.758,2.732,2.732,0,0,1-2.133.914A3,3,0,0,1,47.23-.562a2.312,2.312,0,0,1-.816-1.812,2.389,2.389,0,0,1,1-2.062,4.915,4.915,0,0,1,2.879-.727h1.039v-.484a1.393,1.393,0,0,0-.3-.937,1.183,1.183,0,0,0-.949-.352,1.345,1.345,0,0,0-.895.273.929.929,0,0,0-.324.75H46.6a2.268,2.268,0,0,1,.453-1.359,3,3,0,0,1,1.281-.98A4.669,4.669,0,0,1,50.2-8.609a3.689,3.689,0,0,1,2.48.785,2.747,2.747,0,0,1,.918,2.207v3.664a4.041,4.041,0,0,0,.336,1.82V0ZM49.781-1.57a1.945,1.945,0,0,0,.922-.223,1.462,1.462,0,0,0,.625-.6V-3.844h-.844q-1.7,0-1.8,1.172l-.008.133a.9.9,0,0,0,.3.7A1.153,1.153,0,0,0,49.781-1.57Zm10.125-.766a.727.727,0,0,0-.41-.652,4.659,4.659,0,0,0-1.316-.426q-3.016-.633-3.016-2.562A2.323,2.323,0,0,1,56.1-7.855a3.766,3.766,0,0,1,2.441-.754,4.053,4.053,0,0,1,2.574.758,2.388,2.388,0,0,1,.965,1.969H59.82a1.092,1.092,0,0,0-.312-.8A1.322,1.322,0,0,0,58.531-7a1.351,1.351,0,0,0-.883.258.814.814,0,0,0-.312.656.7.7,0,0,0,.355.605,3.657,3.657,0,0,0,1.2.4,9.8,9.8,0,0,1,1.422.379A2.336,2.336,0,0,1,62.1-2.43a2.2,2.2,0,0,1-.992,1.871,4.28,4.28,0,0,1-2.562.715A4.47,4.47,0,0,1,56.66-.223a3.166,3.166,0,0,1-1.293-1.039A2.414,2.414,0,0,1,54.9-2.687h2.141a1.179,1.179,0,0,0,.445.922,1.766,1.766,0,0,0,1.109.32,1.635,1.635,0,0,0,.98-.246A.766.766,0,0,0,59.906-2.336Zm4.234,5.188-1.18-.617.281-.508a4.059,4.059,0,0,0,.539-1.9v-1.75h1.906L65.68-.359a4.059,4.059,0,0,1-.437,1.75A4.486,4.486,0,0,1,64.141,2.852Zm11.2-2.7A4.15,4.15,0,0,1,72.309-.984a4.054,4.054,0,0,1-1.168-3.039v-.219a5.106,5.106,0,0,1,.492-2.277,3.612,3.612,0,0,1,1.395-1.547,3.914,3.914,0,0,1,2.059-.543,3.508,3.508,0,0,1,2.73,1.094,4.444,4.444,0,0,1,1,3.1v.922H73.43a2.1,2.1,0,0,0,.66,1.328,2,2,0,0,0,1.395.5,2.437,2.437,0,0,0,2.039-.945l1.109,1.242A3.389,3.389,0,0,1,77.258-.246,4.511,4.511,0,0,1,75.336.156Zm-.258-6.937a1.414,1.414,0,0,0-1.09.453,2.341,2.341,0,0,0-.535,1.3h3.141v-.18a1.669,1.669,0,0,0-.406-1.16A1.459,1.459,0,0,0,75.078-6.781Zm9.594,4.445a.727.727,0,0,0-.41-.652,4.659,4.659,0,0,0-1.316-.426Q79.93-4.047,79.93-5.977a2.323,2.323,0,0,1,.934-1.879A3.766,3.766,0,0,1,83.3-8.609a4.053,4.053,0,0,1,2.574.758,2.388,2.388,0,0,1,.965,1.969H84.586a1.092,1.092,0,0,0-.312-.8A1.322,1.322,0,0,0,83.3-7a1.351,1.351,0,0,0-.883.258.814.814,0,0,0-.312.656.7.7,0,0,0,.355.605,3.657,3.657,0,0,0,1.2.4,9.8,9.8,0,0,1,1.422.379A2.336,2.336,0,0,1,86.867-2.43a2.2,2.2,0,0,1-.992,1.871,4.28,4.28,0,0,1-2.562.715,4.47,4.47,0,0,1-1.887-.379,3.166,3.166,0,0,1-1.293-1.039,2.414,2.414,0,0,1-.469-1.426H81.8a1.179,1.179,0,0,0,.445.922,1.766,1.766,0,0,0,1.109.32,1.635,1.635,0,0,0,.98-.246A.766.766,0,0,0,84.672-2.336Zm6.352-8.2v2.078h1.445V-6.8H91.023v4.219a1.007,1.007,0,0,0,.18.672.9.9,0,0,0,.688.2,3.6,3.6,0,0,0,.664-.055V-.047a4.648,4.648,0,0,1-1.367.2,2.156,2.156,0,0,1-2.422-2.4V-6.8H87.531V-8.453h1.234v-2.078ZM98.625,0A2.507,2.507,0,0,1,98.4-.758a2.732,2.732,0,0,1-2.133.914,3,3,0,0,1-2.059-.719,2.312,2.312,0,0,1-.816-1.812,2.389,2.389,0,0,1,1-2.062,4.915,4.915,0,0,1,2.879-.727H98.3v-.484a1.393,1.393,0,0,0-.3-.937,1.183,1.183,0,0,0-.949-.352,1.345,1.345,0,0,0-.895.273.929.929,0,0,0-.324.75H93.578a2.268,2.268,0,0,1,.453-1.359,3,3,0,0,1,1.281-.98,4.669,4.669,0,0,1,1.859-.355,3.689,3.689,0,0,1,2.48.785,2.747,2.747,0,0,1,.918,2.207v3.664a4.041,4.041,0,0,0,.336,1.82V0ZM96.758-1.57a1.945,1.945,0,0,0,.922-.223,1.462,1.462,0,0,0,.625-.6V-3.844h-.844q-1.7,0-1.8,1.172l-.008.133a.9.9,0,0,0,.3.7A1.153,1.153,0,0,0,96.758-1.57ZM97.617-12h2.461L97.914-9.578H96.078Zm6.766,3.547.07.977a2.951,2.951,0,0,1,2.43-1.133,2.453,2.453,0,0,1,2,.789,3.682,3.682,0,0,1,.672,2.359V0H107.3V-5.406a1.465,1.465,0,0,0-.312-1.043,1.4,1.4,0,0,0-1.039-.324,1.553,1.553,0,0,0-1.43.813V0h-2.258V-8.453Zm6.531,4.164a5.094,5.094,0,0,1,.887-3.148,2.877,2.877,0,0,1,2.426-1.172,2.589,2.589,0,0,1,2.039.922V-12h2.266V0h-2.039l-.109-.9A2.657,2.657,0,0,1,114.211.156a2.869,2.869,0,0,1-2.395-1.176A5.258,5.258,0,0,1,110.914-4.289Zm2.258.164a3.328,3.328,0,0,0,.414,1.82,1.349,1.349,0,0,0,1.2.633,1.511,1.511,0,0,0,1.477-.883V-5.891a1.489,1.489,0,0,0-1.461-.883Q113.172-6.773,113.172-4.125ZM125.18,0a2.507,2.507,0,0,1-.227-.758,2.732,2.732,0,0,1-2.133.914,3,3,0,0,1-2.059-.719,2.312,2.312,0,0,1-.816-1.812,2.389,2.389,0,0,1,1-2.062,4.915,4.915,0,0,1,2.879-.727h1.039v-.484a1.393,1.393,0,0,0-.3-.937,1.183,1.183,0,0,0-.949-.352,1.345,1.345,0,0,0-.895.273.929.929,0,0,0-.324.75h-2.258a2.268,2.268,0,0,1,.453-1.359,3,3,0,0,1,1.281-.98,4.669,4.669,0,0,1,1.859-.355,3.689,3.689,0,0,1,2.48.785,2.747,2.747,0,0,1,.918,2.207v3.664a4.041,4.041,0,0,0,.336,1.82V0Zm-1.867-1.57a1.945,1.945,0,0,0,.922-.223,1.462,1.462,0,0,0,.625-.6V-3.844h-.844q-1.7,0-1.8,1.172l-.008.133a.9.9,0,0,0,.3.7A1.153,1.153,0,0,0,123.313-1.57Zm10.3-4.766A6.134,6.134,0,0,0,132.8-6.4a1.654,1.654,0,0,0-1.68.867V0h-2.258V-8.453h2.133l.063,1.008a2.092,2.092,0,0,1,1.883-1.164,2.366,2.366,0,0,1,.7.1ZM138.586.156a4.15,4.15,0,0,1-3.027-1.141,4.054,4.054,0,0,1-1.168-3.039v-.219a5.106,5.106,0,0,1,.492-2.277,3.612,3.612,0,0,1,1.395-1.547,3.914,3.914,0,0,1,2.059-.543,3.508,3.508,0,0,1,2.73,1.094,4.444,4.444,0,0,1,1,3.1v.922H136.68a2.1,2.1,0,0,0,.66,1.328,2,2,0,0,0,1.395.5,2.437,2.437,0,0,0,2.039-.945l1.109,1.242a3.389,3.389,0,0,1-1.375,1.121A4.511,4.511,0,0,1,138.586.156Zm-.258-6.937a1.414,1.414,0,0,0-1.09.453,2.341,2.341,0,0,0-.535,1.3h3.141v-.18a1.669,1.669,0,0,0-.406-1.16A1.459,1.459,0,0,0,138.328-6.781Zm9.594,4.445a.727.727,0,0,0-.41-.652,4.659,4.659,0,0,0-1.316-.426q-3.016-.633-3.016-2.562a2.323,2.323,0,0,1,.934-1.879,3.766,3.766,0,0,1,2.441-.754,4.053,4.053,0,0,1,2.574.758,2.388,2.388,0,0,1,.965,1.969h-2.258a1.092,1.092,0,0,0-.312-.8A1.322,1.322,0,0,0,146.547-7a1.351,1.351,0,0,0-.883.258.814.814,0,0,0-.312.656.7.7,0,0,0,.355.605,3.657,3.657,0,0,0,1.2.4,9.8,9.8,0,0,1,1.422.379,2.336,2.336,0,0,1,1.789,2.273,2.205,2.205,0,0,1-.992,1.871,4.28,4.28,0,0,1-2.562.715,4.47,4.47,0,0,1-1.887-.379,3.166,3.166,0,0,1-1.293-1.039,2.414,2.414,0,0,1-.469-1.426h2.141a1.179,1.179,0,0,0,.445.922,1.766,1.766,0,0,0,1.109.32,1.635,1.635,0,0,0,.98-.246A.766.766,0,0,0,147.922-2.336Zm4.234,5.188-1.18-.617.281-.508a4.059,4.059,0,0,0,.539-1.9v-1.75H153.7L153.7-.359a4.059,4.059,0,0,1-.437,1.75A4.486,4.486,0,0,1,152.156,2.852Zm14.914-7a5.07,5.07,0,0,1-.887,3.129A2.843,2.843,0,0,1,163.789.156a2.633,2.633,0,0,1-2.07-.891V3.25h-2.258v-11.7h2.094l.078.828a2.654,2.654,0,0,1,2.141-.984,2.862,2.862,0,0,1,2.43,1.156,5.207,5.207,0,0,1,.867,3.188Zm-2.258-.164a3.327,3.327,0,0,0-.418-1.82,1.361,1.361,0,0,0-1.215-.641,1.479,1.479,0,0,0-1.461.813V-2.5a1.5,1.5,0,0,0,1.477.836Q164.813-1.664,164.813-4.312Zm8.406-2.023a6.134,6.134,0,0,0-.812-.062,1.654,1.654,0,0,0-1.68.867V0h-2.258V-8.453H170.6l.063,1.008a2.092,2.092,0,0,1,1.883-1.164,2.366,2.366,0,0,1,.7.1Zm.453,2.031a5.013,5.013,0,0,1,.484-2.242,3.546,3.546,0,0,1,1.395-1.523,4.069,4.069,0,0,1,2.113-.539,3.849,3.849,0,0,1,2.793,1.047,4.2,4.2,0,0,1,1.207,2.844l.016.578a4.418,4.418,0,0,1-1.086,3.121A3.775,3.775,0,0,1,177.68.156a3.793,3.793,0,0,1-2.918-1.172,4.5,4.5,0,0,1-1.09-3.187Zm2.258.164a3.151,3.151,0,0,0,.453,1.84,1.5,1.5,0,0,0,1.3.637,1.5,1.5,0,0,0,1.281-.629,3.448,3.448,0,0,0,.461-2.012,3.12,3.12,0,0,0-.461-1.828,1.5,1.5,0,0,0-1.3-.648,1.475,1.475,0,0,0-1.281.645A3.506,3.506,0,0,0,175.93-4.141Zm10.656,2.477a1.481,1.481,0,0,0,1.016-.344,1.2,1.2,0,0,0,.406-.914h2.117a2.9,2.9,0,0,1-.469,1.574,3.093,3.093,0,0,1-1.262,1.109,3.949,3.949,0,0,1-1.77.395A3.67,3.67,0,0,1,183.766-1a4.56,4.56,0,0,1-1.047-3.184v-.148a4.508,4.508,0,0,1,1.039-3.117,3.627,3.627,0,0,1,2.852-1.164,3.555,3.555,0,0,1,2.543.9,3.2,3.2,0,0,1,.973,2.4h-2.117a1.539,1.539,0,0,0-.406-1.066,1.358,1.358,0,0,0-1.031-.41,1.361,1.361,0,0,0-1.191.574,3.324,3.324,0,0,0-.4,1.863v.234a3.366,3.366,0,0,0,.4,1.875A1.378,1.378,0,0,0,186.586-1.664ZM195.3.156a4.15,4.15,0,0,1-3.027-1.141,4.054,4.054,0,0,1-1.168-3.039v-.219A5.106,5.106,0,0,1,191.6-6.52,3.612,3.612,0,0,1,193-8.066a3.914,3.914,0,0,1,2.059-.543,3.508,3.508,0,0,1,2.73,1.094,4.444,4.444,0,0,1,1,3.1v.922H193.4a2.1,2.1,0,0,0,.66,1.328,2,2,0,0,0,1.395.5,2.437,2.437,0,0,0,2.039-.945L198.6-1.367a3.389,3.389,0,0,1-1.375,1.121A4.511,4.511,0,0,1,195.3.156Zm-.258-6.937a1.414,1.414,0,0,0-1.09.453,2.341,2.341,0,0,0-.535,1.3h3.141v-.18a1.669,1.669,0,0,0-.406-1.16A1.459,1.459,0,0,0,195.047-6.781Zm9.594,4.445a.727.727,0,0,0-.41-.652,4.659,4.659,0,0,0-1.316-.426Q199.9-4.047,199.9-5.977a2.323,2.323,0,0,1,.934-1.879,3.766,3.766,0,0,1,2.441-.754,4.053,4.053,0,0,1,2.574.758,2.388,2.388,0,0,1,.965,1.969h-2.258a1.092,1.092,0,0,0-.312-.8A1.322,1.322,0,0,0,203.266-7a1.351,1.351,0,0,0-.883.258.814.814,0,0,0-.312.656.7.7,0,0,0,.355.605,3.657,3.657,0,0,0,1.2.4,9.8,9.8,0,0,1,1.422.379,2.336,2.336,0,0,1,1.789,2.273,2.205,2.205,0,0,1-.992,1.871,4.28,4.28,0,0,1-2.562.715,4.47,4.47,0,0,1-1.887-.379A3.166,3.166,0,0,1,200.1-1.262a2.414,2.414,0,0,1-.469-1.426h2.141a1.179,1.179,0,0,0,.445.922,1.766,1.766,0,0,0,1.109.32,1.635,1.635,0,0,0,.98-.246A.766.766,0,0,0,204.641-2.336Zm3.3-1.969a5.013,5.013,0,0,1,.484-2.242,3.546,3.546,0,0,1,1.395-1.523,4.069,4.069,0,0,1,2.113-.539,3.849,3.849,0,0,1,2.793,1.047,4.2,4.2,0,0,1,1.207,2.844l.016.578a4.418,4.418,0,0,1-1.086,3.121A3.775,3.775,0,0,1,211.945.156a3.793,3.793,0,0,1-2.918-1.172,4.5,4.5,0,0,1-1.09-3.187Zm2.258.164a3.151,3.151,0,0,0,.453,1.84,1.5,1.5,0,0,0,1.3.637,1.5,1.5,0,0,0,1.281-.629,3.448,3.448,0,0,0,.461-2.012,3.12,3.12,0,0,0-.461-1.828,1.5,1.5,0,0,0-1.3-.648,1.475,1.475,0,0,0-1.281.645A3.506,3.506,0,0,0,210.2-4.141Zm11.719,1.8a.727.727,0,0,0-.41-.652,4.659,4.659,0,0,0-1.316-.426q-3.016-.633-3.016-2.562a2.323,2.323,0,0,1,.934-1.879,3.766,3.766,0,0,1,2.441-.754,4.053,4.053,0,0,1,2.574.758,2.388,2.388,0,0,1,.965,1.969h-2.258a1.092,1.092,0,0,0-.312-.8A1.322,1.322,0,0,0,220.539-7a1.351,1.351,0,0,0-.883.258.814.814,0,0,0-.312.656.7.7,0,0,0,.355.605,3.657,3.657,0,0,0,1.2.4,9.8,9.8,0,0,1,1.422.379,2.336,2.336,0,0,1,1.789,2.273,2.205,2.205,0,0,1-.992,1.871,4.28,4.28,0,0,1-2.562.715,4.47,4.47,0,0,1-1.887-.379,3.166,3.166,0,0,1-1.293-1.039,2.414,2.414,0,0,1-.469-1.426h2.141a1.179,1.179,0,0,0,.445.922,1.766,1.766,0,0,0,1.109.32,1.635,1.635,0,0,0,.98-.246A.766.766,0,0,0,221.914-2.336ZM229.2-4.289a5.094,5.094,0,0,1,.887-3.148,2.877,2.877,0,0,1,2.426-1.172,2.589,2.589,0,0,1,2.039.922V-12h2.266V0h-2.039l-.109-.9A2.657,2.657,0,0,1,232.492.156,2.869,2.869,0,0,1,230.1-1.02,5.258,5.258,0,0,1,229.2-4.289Zm2.258.164a3.328,3.328,0,0,0,.414,1.82,1.349,1.349,0,0,0,1.2.633,1.511,1.511,0,0,0,1.477-.883V-5.891a1.489,1.489,0,0,0-1.461-.883Q231.453-6.773,231.453-4.125Zm11,4.281a4.15,4.15,0,0,1-3.027-1.141,4.054,4.054,0,0,1-1.168-3.039v-.219a5.106,5.106,0,0,1,.492-2.277,3.612,3.612,0,0,1,1.395-1.547,3.914,3.914,0,0,1,2.059-.543,3.508,3.508,0,0,1,2.73,1.094,4.444,4.444,0,0,1,1,3.1v.922h-5.383a2.1,2.1,0,0,0,.66,1.328,2,2,0,0,0,1.395.5,2.437,2.437,0,0,0,2.039-.945l1.109,1.242a3.389,3.389,0,0,1-1.375,1.121A4.511,4.511,0,0,1,242.453.156ZM242.2-6.781a1.414,1.414,0,0,0-1.09.453,2.341,2.341,0,0,0-.535,1.3h3.141v-.18a1.669,1.669,0,0,0-.406-1.16A1.459,1.459,0,0,0,242.2-6.781Zm13.75.445a6.134,6.134,0,0,0-.812-.062,1.654,1.654,0,0,0-1.68.867V0H251.2V-8.453h2.133l.063,1.008a2.092,2.092,0,0,1,1.883-1.164,2.366,2.366,0,0,1,.7.1ZM260.922.156a4.15,4.15,0,0,1-3.027-1.141,4.054,4.054,0,0,1-1.168-3.039v-.219a5.106,5.106,0,0,1,.492-2.277,3.612,3.612,0,0,1,1.395-1.547,3.914,3.914,0,0,1,2.059-.543,3.508,3.508,0,0,1,2.73,1.094,4.444,4.444,0,0,1,1,3.1v.922h-5.383a2.1,2.1,0,0,0,.66,1.328,2,2,0,0,0,1.395.5,2.437,2.437,0,0,0,2.039-.945l1.109,1.242a3.389,3.389,0,0,1-1.375,1.121A4.511,4.511,0,0,1,260.922.156Zm-.258-6.937a1.414,1.414,0,0,0-1.09.453,2.341,2.341,0,0,0-.535,1.3h3.141v-.18a1.669,1.669,0,0,0-.406-1.16A1.459,1.459,0,0,0,260.664-6.781Zm8.078,4.023,1.57-5.7h2.359L269.82,0h-2.156l-2.852-8.453h2.359ZM276.047,0h-2.266V-8.453h2.266Zm-2.4-10.641a1.112,1.112,0,0,1,.34-.836,1.277,1.277,0,0,1,.926-.328,1.28,1.28,0,0,1,.922.328,1.105,1.105,0,0,1,.344.836,1.108,1.108,0,0,1-.348.844,1.283,1.283,0,0,1-.918.328A1.283,1.283,0,0,1,274-9.8,1.108,1.108,0,0,1,273.648-10.641Zm8.836,8.3a.727.727,0,0,0-.41-.652,4.659,4.659,0,0,0-1.316-.426q-3.016-.633-3.016-2.562a2.323,2.323,0,0,1,.934-1.879,3.766,3.766,0,0,1,2.441-.754,4.053,4.053,0,0,1,2.574.758,2.388,2.388,0,0,1,.965,1.969H282.4a1.092,1.092,0,0,0-.312-.8A1.322,1.322,0,0,0,281.109-7a1.351,1.351,0,0,0-.883.258.814.814,0,0,0-.312.656.7.7,0,0,0,.355.605,3.657,3.657,0,0,0,1.2.4,9.8,9.8,0,0,1,1.422.379A2.336,2.336,0,0,1,284.68-2.43a2.2,2.2,0,0,1-.992,1.871,4.28,4.28,0,0,1-2.562.715,4.47,4.47,0,0,1-1.887-.379,3.166,3.166,0,0,1-1.293-1.039,2.414,2.414,0,0,1-.469-1.426h2.141a1.179,1.179,0,0,0,.445.922,1.766,1.766,0,0,0,1.109.32,1.635,1.635,0,0,0,.98-.246A.766.766,0,0,0,282.484-2.336ZM288.516,0H286.25V-8.453h2.266Zm-2.4-10.641a1.112,1.112,0,0,1,.34-.836,1.277,1.277,0,0,1,.926-.328,1.28,1.28,0,0,1,.922.328,1.105,1.105,0,0,1,.344.836,1.108,1.108,0,0,1-.348.844,1.283,1.283,0,0,1-.918.328,1.283,1.283,0,0,1-.918-.328A1.108,1.108,0,0,1,286.117-10.641ZM290.023-4.3a5.013,5.013,0,0,1,.484-2.242A3.546,3.546,0,0,1,291.9-8.07a4.069,4.069,0,0,1,2.113-.539,3.849,3.849,0,0,1,2.793,1.047,4.2,4.2,0,0,1,1.207,2.844l.016.578a4.418,4.418,0,0,1-1.086,3.121A3.775,3.775,0,0,1,294.031.156a3.793,3.793,0,0,1-2.918-1.172,4.5,4.5,0,0,1-1.09-3.187Zm2.258.164a3.151,3.151,0,0,0,.453,1.84,1.5,1.5,0,0,0,1.3.637,1.5,1.5,0,0,0,1.281-.629,3.448,3.448,0,0,0,.461-2.012,3.12,3.12,0,0,0-.461-1.828,1.5,1.5,0,0,0-1.3-.648,1.475,1.475,0,0,0-1.281.645A3.506,3.506,0,0,0,292.281-4.141ZM294.461-12h2.461l-2.164,2.422h-1.836ZM301.5-8.453l.07.977A2.951,2.951,0,0,1,304-8.609a2.453,2.453,0,0,1,2,.789,3.681,3.681,0,0,1,.672,2.359V0h-2.258V-5.406a1.465,1.465,0,0,0-.312-1.043,1.4,1.4,0,0,0-1.039-.324,1.553,1.553,0,0,0-1.43.813V0h-2.258V-8.453Zm7.469,11.3-1.18-.617.281-.508a4.059,4.059,0,0,0,.539-1.9v-1.75h1.906l-.008,1.563a4.059,4.059,0,0,1-.437,1.75A4.487,4.487,0,0,1,308.969,2.852Zm10.008-13.383v2.078h1.445V-6.8h-1.445v4.219a1.007,1.007,0,0,0,.18.672.9.9,0,0,0,.688.2,3.6,3.6,0,0,0,.664-.055V-.047a4.648,4.648,0,0,1-1.367.2,2.156,2.156,0,0,1-2.422-2.4V-6.8h-1.234V-8.453h1.234v-2.078Zm7.453,4.2a6.134,6.134,0,0,0-.812-.062,1.654,1.654,0,0,0-1.68.867V0H321.68V-8.453h2.133l.063,1.008a2.092,2.092,0,0,1,1.883-1.164,2.366,2.366,0,0,1,.7.1ZM332.18,0a2.508,2.508,0,0,1-.227-.758,2.732,2.732,0,0,1-2.133.914,3,3,0,0,1-2.059-.719,2.312,2.312,0,0,1-.816-1.812,2.389,2.389,0,0,1,1-2.062,4.915,4.915,0,0,1,2.879-.727h1.039v-.484a1.393,1.393,0,0,0-.3-.937,1.183,1.183,0,0,0-.949-.352,1.345,1.345,0,0,0-.895.273.929.929,0,0,0-.324.75h-2.258a2.268,2.268,0,0,1,.453-1.359,3,3,0,0,1,1.281-.98,4.669,4.669,0,0,1,1.859-.355,3.689,3.689,0,0,1,2.48.785,2.747,2.747,0,0,1,.918,2.207v3.664a4.041,4.041,0,0,0,.336,1.82V0Zm-1.867-1.57a1.945,1.945,0,0,0,.922-.223,1.462,1.462,0,0,0,.625-.6V-3.844h-.844q-1.7,0-1.8,1.172l-.008.133a.9.9,0,0,0,.3.7A1.153,1.153,0,0,0,330.313-1.57Zm8.141-.25h4.133V0H335.57V-1.375l3.977-5.25h-3.859V-8.453h6.773v1.336ZM348.9,0a2.508,2.508,0,0,1-.227-.758,2.732,2.732,0,0,1-2.133.914,3,3,0,0,1-2.059-.719,2.312,2.312,0,0,1-.816-1.812,2.389,2.389,0,0,1,1-2.062,4.915,4.915,0,0,1,2.879-.727h1.039v-.484a1.393,1.393,0,0,0-.3-.937,1.183,1.183,0,0,0-.949-.352,1.345,1.345,0,0,0-.895.273.929.929,0,0,0-.324.75h-2.258a2.268,2.268,0,0,1,.453-1.359,3,3,0,0,1,1.281-.98,4.669,4.669,0,0,1,1.859-.355,3.689,3.689,0,0,1,2.48.785,2.747,2.747,0,0,1,.918,2.207v3.664a4.041,4.041,0,0,0,.336,1.82V0Zm-1.867-1.57a1.945,1.945,0,0,0,.922-.223,1.462,1.462,0,0,0,.625-.6V-3.844h-.844q-1.7,0-1.8,1.172l-.008.133a.9.9,0,0,0,.3.7A1.153,1.153,0,0,0,347.031-1.57ZM360.2-4.148a5.119,5.119,0,0,1-.867,3.168A2.872,2.872,0,0,1,356.906.156a2.639,2.639,0,0,1-2.2-1.055l-.1.9h-2.031V-12h2.258v4.3a2.571,2.571,0,0,1,2.055-.914,2.9,2.9,0,0,1,2.426,1.137,5.126,5.126,0,0,1,.879,3.2Zm-2.258-.164a3.363,3.363,0,0,0-.406-1.871,1.374,1.374,0,0,0-1.211-.59,1.489,1.489,0,0,0-1.484.883v3.336a1.509,1.509,0,0,0,1.5.891,1.394,1.394,0,0,0,1.438-1.078A5.562,5.562,0,0,0,357.938-4.312ZM363.969,0H361.7V-8.453h2.266Zm-2.4-10.641a1.112,1.112,0,0,1,.34-.836,1.277,1.277,0,0,1,.926-.328,1.28,1.28,0,0,1,.922.328,1.105,1.105,0,0,1,.344.836,1.108,1.108,0,0,1-.348.844,1.283,1.283,0,0,1-.918.328,1.283,1.283,0,0,1-.918-.328A1.108,1.108,0,0,1,361.57-10.641ZM368.211,0h-2.266V-12h2.266Zm4.242,0h-2.266V-8.453h2.266Zm-2.4-10.641a1.112,1.112,0,0,1,.34-.836,1.277,1.277,0,0,1,.926-.328,1.28,1.28,0,0,1,.922.328,1.105,1.105,0,0,1,.344.836,1.108,1.108,0,0,1-.348.844,1.283,1.283,0,0,1-.918.328A1.283,1.283,0,0,1,370.4-9.8,1.108,1.108,0,0,1,370.055-10.641Zm3.906,6.352a5.094,5.094,0,0,1,.887-3.148,2.877,2.877,0,0,1,2.426-1.172,2.589,2.589,0,0,1,2.039.922V-12h2.266V0h-2.039l-.109-.9A2.657,2.657,0,0,1,377.258.156a2.869,2.869,0,0,1-2.395-1.176A5.258,5.258,0,0,1,373.961-4.289Zm2.258.164a3.328,3.328,0,0,0,.414,1.82,1.349,1.349,0,0,0,1.2.633,1.511,1.511,0,0,0,1.477-.883V-5.891a1.489,1.489,0,0,0-1.461-.883Q376.219-6.773,376.219-4.125ZM388.227,0A2.508,2.508,0,0,1,388-.758a2.732,2.732,0,0,1-2.133.914,3,3,0,0,1-2.059-.719,2.312,2.312,0,0,1-.816-1.812,2.389,2.389,0,0,1,1-2.062,4.915,4.915,0,0,1,2.879-.727h1.039v-.484a1.393,1.393,0,0,0-.3-.937,1.183,1.183,0,0,0-.949-.352,1.345,1.345,0,0,0-.895.273.929.929,0,0,0-.324.75H383.18a2.268,2.268,0,0,1,.453-1.359,3,3,0,0,1,1.281-.98,4.669,4.669,0,0,1,1.859-.355,3.689,3.689,0,0,1,2.48.785,2.747,2.747,0,0,1,.918,2.207v3.664a4.041,4.041,0,0,0,.336,1.82V0Zm-1.867-1.57a1.945,1.945,0,0,0,.922-.223,1.462,1.462,0,0,0,.625-.6V-3.844h-.844q-1.7,0-1.8,1.172l-.008.133a.9.9,0,0,0,.3.7A1.153,1.153,0,0,0,386.359-1.57Zm5.2-2.719a5.094,5.094,0,0,1,.887-3.148,2.877,2.877,0,0,1,2.426-1.172,2.589,2.589,0,0,1,2.039.922V-12h2.266V0h-2.039l-.109-.9A2.657,2.657,0,0,1,394.852.156a2.869,2.869,0,0,1-2.395-1.176A5.258,5.258,0,0,1,391.555-4.289Zm2.258.164a3.328,3.328,0,0,0,.414,1.82,1.349,1.349,0,0,0,1.2.633,1.511,1.511,0,0,0,1.477-.883V-5.891a1.489,1.489,0,0,0-1.461-.883Q393.813-6.773,393.813-4.125Zm7.7,6.977-1.18-.617.281-.508a4.059,4.059,0,0,0,.539-1.9v-1.75h1.906l-.008,1.563a4.059,4.059,0,0,1-.437,1.75A4.487,4.487,0,0,1,401.508,2.852ZM413.711,0a2.508,2.508,0,0,1-.227-.758,2.732,2.732,0,0,1-2.133.914,3,3,0,0,1-2.059-.719,2.312,2.312,0,0,1-.816-1.812,2.389,2.389,0,0,1,1-2.062,4.915,4.915,0,0,1,2.879-.727h1.039v-.484a1.393,1.393,0,0,0-.3-.937,1.183,1.183,0,0,0-.949-.352,1.345,1.345,0,0,0-.895.273.929.929,0,0,0-.324.75h-2.258a2.268,2.268,0,0,1,.453-1.359,3,3,0,0,1,1.281-.98,4.669,4.669,0,0,1,1.859-.355,3.689,3.689,0,0,1,2.48.785,2.747,2.747,0,0,1,.918,2.207v3.664a4.041,4.041,0,0,0,.336,1.82V0Zm-1.867-1.57a1.945,1.945,0,0,0,.922-.223,1.462,1.462,0,0,0,.625-.6V-3.844h-.844q-1.7,0-1.8,1.172l-.008.133a.9.9,0,0,0,.3.7A1.153,1.153,0,0,0,411.844-1.57Zm10.609.711A2.831,2.831,0,0,1,420.141.156a2.67,2.67,0,0,1-2.074-.781,3.335,3.335,0,0,1-.73-2.289V-8.453h2.258v5.461q0,1.32,1.2,1.32a1.631,1.631,0,0,0,1.578-.8V-8.453h2.266V0h-2.125Zm3.539-3.43a5.094,5.094,0,0,1,.887-3.148A2.877,2.877,0,0,1,429.3-8.609a2.589,2.589,0,0,1,2.039.922V-12h2.266V0H431.57l-.109-.9A2.657,2.657,0,0,1,429.289.156a2.869,2.869,0,0,1-2.395-1.176A5.258,5.258,0,0,1,425.992-4.289Zm2.258.164a3.328,3.328,0,0,0,.414,1.82,1.349,1.349,0,0,0,1.2.633,1.511,1.511,0,0,0,1.477-.883V-5.891a1.489,1.489,0,0,0-1.461-.883Q428.25-6.773,428.25-4.125ZM437.742,0h-2.266V-8.453h2.266Zm-2.4-10.641a1.112,1.112,0,0,1,.34-.836,1.277,1.277,0,0,1,.926-.328,1.28,1.28,0,0,1,.922.328,1.105,1.105,0,0,1,.344.836,1.108,1.108,0,0,1-.348.844,1.283,1.283,0,0,1-.918.328,1.283,1.283,0,0,1-.918-.328A1.108,1.108,0,0,1,435.344-10.641Zm6.961.109v2.078h1.445V-6.8H442.3v4.219a1.007,1.007,0,0,0,.18.672.9.9,0,0,0,.688.2,3.6,3.6,0,0,0,.664-.055V-.047a4.648,4.648,0,0,1-1.367.2,2.156,2.156,0,0,1-2.422-2.4V-6.8h-1.234V-8.453h1.234v-2.078ZM444.422-4.3a5.013,5.013,0,0,1,.484-2.242A3.546,3.546,0,0,1,446.3-8.07a4.069,4.069,0,0,1,2.113-.539,3.849,3.849,0,0,1,2.793,1.047,4.2,4.2,0,0,1,1.207,2.844l.016.578a4.418,4.418,0,0,1-1.086,3.121A3.775,3.775,0,0,1,448.43.156a3.793,3.793,0,0,1-2.918-1.172,4.5,4.5,0,0,1-1.09-3.187Zm2.258.164a3.151,3.151,0,0,0,.453,1.84,1.5,1.5,0,0,0,1.3.637,1.5,1.5,0,0,0,1.281-.629,3.448,3.448,0,0,0,.461-2.012,3.12,3.12,0,0,0-.461-1.828,1.5,1.5,0,0,0-1.3-.648,1.475,1.475,0,0,0-1.281.645A3.506,3.506,0,0,0,446.68-4.141Zm11.891-2.2a6.134,6.134,0,0,0-.812-.062,1.654,1.654,0,0,0-1.68.867V0H453.82V-8.453h2.133l.063,1.008A2.092,2.092,0,0,1,457.9-8.609a2.366,2.366,0,0,1,.7.1ZM462.094,0h-2.258V-8.453h2.258Zm-.664-11.883h2.461l-2.164,2.422h-1.836ZM468.938,0a2.508,2.508,0,0,1-.227-.758,2.732,2.732,0,0,1-2.133.914,3,3,0,0,1-2.059-.719,2.312,2.312,0,0,1-.816-1.812,2.389,2.389,0,0,1,1-2.062,4.915,4.915,0,0,1,2.879-.727h1.039v-.484a1.393,1.393,0,0,0-.3-.937,1.183,1.183,0,0,0-.949-.352,1.345,1.345,0,0,0-.895.273.929.929,0,0,0-.324.75h-2.258a2.268,2.268,0,0,1,.453-1.359,3,3,0,0,1,1.281-.98,4.669,4.669,0,0,1,1.859-.355,3.689,3.689,0,0,1,2.48.785,2.747,2.747,0,0,1,.918,2.207v3.664a4.041,4.041,0,0,0,.336,1.82V0ZM467.07-1.57a1.945,1.945,0,0,0,.922-.223,1.462,1.462,0,0,0,.625-.6V-3.844h-.844q-1.7,0-1.8,1.172l-.008.133a.9.9,0,0,0,.3.7A1.153,1.153,0,0,0,467.07-1.57Z" transform="translate(564 2922)" fill="#fff"/>
  </g>
</svg>
