<svg xmlns="http://www.w3.org/2000/svg" xmlns:xlink="http://www.w3.org/1999/xlink" width="85" height="91" viewBox="0 0 85 91">
  <defs>
    <clipPath id="clip-path">
      <rect id="Rect치ngulo_404536" data-name="Rect치ngulo 404536" width="85" height="91" rx="15" fill="#beb4d0"/>
    </clipPath>
  </defs>
  <g id="Grupo_1106154" data-name="Grupo 1106154" transform="translate(-180 -822)">
    <g id="Grupo_1106117" data-name="Grupo 1106117" transform="translate(0 -3)">
      <rect id="Rect치ngulo_404501" data-name="Rect치ngulo 404501" width="85" height="91" rx="5" transform="translate(180 825)" fill="#beb4d0"/>
    </g>
    <g id="Grupo_1106153" data-name="Grupo 1106153" transform="translate(4465.5 11885.992)">
      <path id="Trazado_889893" data-name="Trazado 889893" d="M58.746,115.9V83.6l35.872-1.5v32.052Z" transform="translate(-4323.283 -11117.567)" fill="#6c5ce7" fill-rule="evenodd"/>
      <path id="Trazado_889894" data-name="Trazado 889894" d="M9.947,45.018h44a2.451,2.451,0,0,1,2.444,2.444V55.44a2.451,2.451,0,0,1-2.444,2.444h-44A2.451,2.451,0,0,1,7.5,55.44V47.462a2.451,2.451,0,0,1,2.444-2.444m0-37.525h44a2.451,2.451,0,0,1,2.444,2.444v7.978a2.451,2.451,0,0,1-2.444,2.444h-44A2.451,2.451,0,0,1,7.5,17.915V9.937A2.451,2.451,0,0,1,9.947,7.493m0,18.763h44A2.451,2.451,0,0,1,56.394,28.7v7.978a2.451,2.451,0,0,1-2.444,2.444h-44A2.451,2.451,0,0,1,7.5,36.677V28.7a2.451,2.451,0,0,1,2.444-2.444" transform="translate(-4278.55 -11052.441)" fill="#beb4d0" fill-rule="evenodd"/>
      <path id="Trazado_889895" data-name="Trazado 889895" d="M45.814,60.518A2.08,2.08,0,1,1,43.733,62.6,2.081,2.081,0,0,1,45.814,60.518Zm0-18.763a2.08,2.08,0,1,1-2.081,2.081A2.081,2.081,0,0,1,45.814,41.755Zm0,37.525a2.081,2.081,0,1,1-2.081,2.081,2.081,2.081,0,0,1,2.081-2.081" transform="translate(-4310.177 -11082.351)" fill="#6c5ce7" fill-rule="evenodd"/>
      <path id="Trazado_889896" data-name="Trazado 889896" d="M106.574,60.518a2.08,2.08,0,1,1-2.081,2.081A2.08,2.08,0,0,1,106.574,60.518Zm0-18.763a2.08,2.08,0,1,1-2.081,2.081A2.08,2.08,0,0,1,106.574,41.755Zm0,37.525a2.081,2.081,0,1,1-2.081,2.081,2.08,2.08,0,0,1,2.081-2.081" transform="translate(-4363.218 -11082.351)" fill="#acffac" fill-rule="evenodd"/>
      <path id="Trazado_889897" data-name="Trazado 889897" d="M405.342,100.5l2.9.777a1.453,1.453,0,0,1,1.025,1.775L402.473,128.4a1.453,1.453,0,0,1-1.775,1.025l-2.9-.777a1.453,1.453,0,0,1-1.025-1.774l6.792-25.349a1.453,1.453,0,0,1,1.774-1.025Z" transform="translate(-4618.326 -11133.591)" fill="#debefb" fill-rule="evenodd"/>
      <path id="Trazado_889898" data-name="Trazado 889898" d="M294.95,304.369l.4-1.493,21.428,4.975-.591,2.208-3.493,13.036a1.815,1.815,0,0,1-2.218,1.281l-11.907-3.19,1.556-9.061-5.361,8.042-3.556-.953a1.8,1.8,0,0,1-1.213-2.42l4.956-12.424Z" transform="translate(-4525.04 -11310.299)" fill="#acffac" fill-rule="evenodd"/>
      <path id="Trazado_889899" data-name="Trazado 889899" d="M329.908,284.7l21.236,5.69.591-2.208a2.906,2.906,0,0,0-2.049-3.549l-15.638-4.19a2.906,2.906,0,0,0-3.549,2.049l-.592,2.208Z" transform="translate(-4559.997 -11290.629)" fill="#debefb" fill-rule="evenodd"/>
      <path id="Trazado_889900" data-name="Trazado 889900" d="M58.733,58.449a.859.859,0,0,1-1.051.607l-3.139-.841,1.363-5.088a.953.953,0,0,0-1.841-.493L52.7,57.723l-6.086-1.632,1.409-8.205a.953.953,0,0,0-1.732-.69L41.31,54.67l-2.9-.777a.85.85,0,0,1-.575-1.147l2.977-7.464s0,0,0,0l1.663-4.17,19.5,5.224L58.733,58.449ZM1.905,48.9A1.494,1.494,0,0,0,3.4,50.392H36.728l1.806-4.528H23.672a.953.953,0,1,1,0-1.905H39.294l1.711-4.289.064-.239H3.4a1.494,1.494,0,0,0-1.491,1.492Zm6.51-15.366H42.381V36a3.815,3.815,0,0,0-.8,1.513l0,.009H8.415V33.534Zm-6.51-3.4V22.16A1.493,1.493,0,0,1,3.4,20.668h44A1.492,1.492,0,0,1,48.89,22.16v7.978A1.493,1.493,0,0,1,47.4,31.629H3.4A1.493,1.493,0,0,1,1.905,30.138Zm6.51-15.366H42.381v3.991H8.415Zm-6.51-3.4V3.4A1.493,1.493,0,0,1,3.4,1.906h44A1.492,1.492,0,0,1,48.89,3.4v7.978A1.492,1.492,0,0,1,47.4,12.866H3.4A1.493,1.493,0,0,1,1.905,11.375Zm43.9,25.26a1.945,1.945,0,0,0-2.382,1.375L43.077,39.3l19.4,5.2.345-1.288a1.953,1.953,0,0,0-1.376-2.382L45.8,36.635ZM58.161,14.083a.5.5,0,0,1,.608-.351l2.9.777a.5.5,0,0,1,.35.607l-5.972,22.29-3.857-1.034Zm6.11,26.7a3.825,3.825,0,0,0-2.335-1.8L57.886,37.9l5.972-22.29a2.4,2.4,0,0,0-1.7-2.941l-2.9-.776a2.407,2.407,0,0,0-2.942,1.7L50.347,35.879,46.3,34.794a3.82,3.82,0,0,0-2.011.007V33.534H47.4a3.4,3.4,0,0,0,3.4-3.4V22.16a3.4,3.4,0,0,0-3.4-3.4H44.287V14.772H47.4a3.4,3.4,0,0,0,3.4-3.4V3.4A3.4,3.4,0,0,0,47.4,0H3.4A3.4,3.4,0,0,0,0,3.4v7.978a3.4,3.4,0,0,0,3.4,3.4H6.51v3.991H3.4A3.4,3.4,0,0,0,0,22.16v7.978a3.4,3.4,0,0,0,3.4,3.4H6.51v3.991H3.4a3.4,3.4,0,0,0-3.4,3.4V48.9a3.4,3.4,0,0,0,3.4,3.4H35.982a2.754,2.754,0,0,0,1.938,3.437l3.557.953a.954.954,0,0,0,1.039-.391l2.869-4.3-.8,4.633a.953.953,0,0,0,.693,1.082L57.189,60.9a2.765,2.765,0,0,0,3.385-1.954l3.493-13.037.592-2.208a3.82,3.82,0,0,0-.388-2.919ZM44.754,7.386a.953.953,0,0,0-.953-.953H23.673a.953.953,0,1,0,0,1.905H43.8a.953.953,0,0,0,.953-.953m-29.4,1.128a1.128,1.128,0,1,0-1.128-1.128,1.129,1.129,0,0,0,1.128,1.128m0-4.161a3.033,3.033,0,1,0,3.034,3.033,3.037,3.037,0,0,0-3.034-3.033M7.636,8.514A1.128,1.128,0,1,0,6.508,7.386,1.129,1.129,0,0,0,7.636,8.514Zm0-4.161a3.033,3.033,0,1,0,3.033,3.033A3.037,3.037,0,0,0,7.636,4.353Zm37.118,21.8A.953.953,0,0,0,43.8,25.2H23.673a.953.953,0,1,0,0,1.906H43.8a.953.953,0,0,0,.953-.953m-29.4,19.889a1.127,1.127,0,1,1,1.128-1.126,1.128,1.128,0,0,1-1.128,1.126m0-4.16a3.033,3.033,0,1,1-3.033,3.034,3.037,3.037,0,0,1,3.033-3.034m-7.718,4.16a1.127,1.127,0,1,1,1.128-1.126A1.128,1.128,0,0,1,7.636,46.038Zm0-4.16A3.033,3.033,0,1,1,4.6,44.911,3.037,3.037,0,0,1,7.636,41.878Zm7.718-14.6a1.128,1.128,0,1,0-1.128-1.128,1.129,1.129,0,0,0,1.128,1.128m0-4.161a3.033,3.033,0,1,0,3.034,3.034,3.037,3.037,0,0,0-3.034-3.034M7.636,27.277a1.128,1.128,0,1,0-1.128-1.128A1.129,1.129,0,0,0,7.636,27.277Zm0-4.161a3.033,3.033,0,1,0,3.033,3.034,3.037,3.037,0,0,0-3.033-3.034" transform="translate(-4272 -11045.9)" fill-rule="evenodd"/>
    </g>
  </g>
</svg>
